<svg width="96" height="25" viewBox="0 0 96 25" fill="none" xmlns="http://www.w3.org/2000/svg">
<path d="M33.2418 17.031C33.2418 17.0662 33.1702 17.1015 33.0985 17.1015H31.9164C31.7731 17.1015 31.7015 17.1015 31.6299 17.0662C31.5582 17.031 31.5224 16.9957 31.4866 16.8899L29.2657 13.117L27.009 16.8899C26.9731 16.9605 26.9015 17.031 26.8657 17.0662C26.794 17.1015 26.7224 17.1015 26.5791 17.1015H25.4328C25.3612 17.1015 25.3254 17.0662 25.2896 17.031C25.2896 16.9957 25.2896 16.9605 25.3254 16.8899L28.4418 11.9534L25.5403 7.26371C25.5045 7.22845 25.5045 7.19318 25.5403 7.15792C25.5403 7.12266 25.6119 7.0874 25.6836 7.0874H26.8299C26.9731 7.0874 27.0448 7.0874 27.1164 7.12266C27.1522 7.15792 27.2239 7.19319 27.2597 7.29897L29.3373 10.7545L31.4149 7.29897C31.4507 7.22845 31.5224 7.15792 31.5582 7.12266C31.6299 7.0874 31.7015 7.0874 31.8448 7.0874H32.9194C32.991 7.0874 33.0269 7.12266 33.0627 7.15792C33.0627 7.19318 33.0627 7.26371 33.0269 7.29897L30.1254 11.9181L33.2418 16.8899C33.2418 16.9252 33.2418 16.9605 33.2418 17.031Z" fill="black"/>
<path d="M39.7971 16.3257C39.7971 16.5373 39.7254 16.6783 39.5463 16.7489C39.1165 16.9252 38.6508 17.0662 38.1135 17.1367C37.612 17.2072 37.1105 17.2425 36.6448 17.2425C36.0001 17.2425 35.4986 17.172 35.0687 17.0662C34.6747 16.9252 34.3165 16.7489 34.1016 16.5373C33.8508 16.3257 33.7075 16.0789 33.6001 15.7616C33.4926 15.4795 33.4568 15.1621 33.4568 14.8448C33.4568 14.5274 33.4926 14.2101 33.6001 13.928C33.7075 13.6106 33.8866 13.3638 34.1374 13.117C34.3881 12.8702 34.7105 12.6939 35.1404 12.5175C35.5702 12.3765 36.0717 12.306 36.6807 12.306H38.3284V12.0592C38.3284 11.8476 38.2926 11.6713 38.2568 11.495C38.221 11.3187 38.1135 11.1776 38.006 11.0718C37.8986 10.9661 37.7195 10.8603 37.5045 10.7898C37.2896 10.7192 37.0031 10.684 36.6807 10.684C36.5016 10.684 36.3225 10.684 36.1434 10.7192C35.9642 10.7545 35.7851 10.7545 35.606 10.7898C35.4269 10.825 35.2478 10.8603 35.1045 10.8955C34.9613 10.9308 34.818 10.9661 34.7105 11.0013C34.6031 11.0366 34.5314 11.0366 34.4956 11.0366C34.4598 11.0366 34.424 10.9661 34.3881 10.8955L34.209 10.1903C34.1732 10.0493 34.209 9.97876 34.3523 9.90824C34.7463 9.7672 35.1762 9.66141 35.6777 9.59089C36.1792 9.52037 36.609 9.48511 37.0031 9.48511C38.006 9.48511 38.7225 9.69667 39.1523 10.1551C39.618 10.6135 39.8329 11.2129 39.8329 12.0239V16.3257H39.7971ZM38.3284 13.5049H36.7523C36.5732 13.5049 36.3941 13.5049 36.1792 13.5401C35.9642 13.5754 35.7493 13.6106 35.5702 13.7164C35.3911 13.8222 35.212 13.928 35.1045 14.1395C34.9613 14.3159 34.9254 14.5627 34.9254 14.88C34.9254 15.3384 35.0687 15.6558 35.3911 15.8321C35.7135 16.0084 36.1075 16.0789 36.6448 16.0789C36.7165 16.0789 36.8239 16.0789 36.9672 16.0789C37.1105 16.0789 37.2538 16.0789 37.3971 16.0436C37.5404 16.0084 37.7195 16.0084 37.8986 15.9731C38.0777 15.9379 38.221 15.9026 38.3642 15.8673V13.5049H38.3284Z" fill="black"/>
<path d="M42.4476 17.0309C42.4118 17.0661 42.3402 17.0661 42.2327 17.0661H41.3372C41.2655 17.0661 41.1939 17.0661 41.1581 17.0309C41.1222 16.9956 41.0864 16.9604 41.0864 16.8546V9.80239C41.0864 9.6966 41.1222 9.62608 41.1581 9.62608C41.1939 9.59082 41.2655 9.59082 41.3372 9.59082H42.2327C42.3402 9.59082 42.4118 9.59082 42.4476 9.62608C42.4834 9.66134 42.5193 9.73186 42.5193 9.80239V12.5175H43.5581C43.8446 12.5175 44.0954 12.447 44.3461 12.3412C44.5969 12.2354 44.776 11.9533 44.9193 11.5302L45.4566 9.80239C45.4924 9.73186 45.4924 9.66134 45.564 9.66134C45.5999 9.62608 45.6715 9.62608 45.7073 9.62608H46.6387C46.7461 9.62608 46.7819 9.66134 46.8178 9.6966C46.8178 9.76712 46.8178 9.80239 46.8178 9.83765L46.2805 11.7065C46.2088 11.9886 46.1013 12.2707 45.9222 12.4822C45.779 12.729 45.564 12.9053 45.3133 13.0111V13.0464C45.7073 13.1522 45.9581 13.3285 46.1013 13.5753C46.2446 13.7869 46.3521 14.069 46.4596 14.3863L47.2118 16.8546C47.2118 16.8898 47.2118 16.9604 47.2118 17.0309C47.2118 17.1014 47.1402 17.1367 47.0327 17.1367H46.0655C46.0297 17.1367 45.9939 17.1367 45.9222 17.1014C45.8864 17.0661 45.8148 17.0309 45.8148 16.9604L45.0984 14.6331C44.9909 14.3158 44.8118 14.069 44.5252 13.9279C44.2745 13.7869 43.9879 13.7163 43.6655 13.7163H42.4834V16.9604C42.5193 16.9604 42.4834 17.0309 42.4476 17.0309Z" fill="black"/>
<path d="M53.9821 16.3257C53.9821 16.5373 53.9105 16.6783 53.7314 16.7489C53.3015 16.9252 52.8359 17.0662 52.2986 17.1367C51.7971 17.2072 51.2956 17.2425 50.8299 17.2425C50.1851 17.2425 49.6836 17.172 49.2538 17.0662C48.8598 16.9252 48.5015 16.7489 48.2866 16.5373C48.0359 16.3257 47.8926 16.0789 47.7851 15.7616C47.6777 15.4795 47.6418 15.1621 47.6418 14.8448C47.6418 14.5274 47.6777 14.2101 47.7851 13.928C47.8926 13.6106 48.0717 13.3638 48.3224 13.117C48.5732 12.8702 48.8956 12.6939 49.3254 12.5175C49.7553 12.3765 50.2568 12.306 50.8657 12.306H52.5135V12.0592C52.5135 11.8476 52.4777 11.6713 52.4418 11.495C52.406 11.3187 52.2986 11.1776 52.1911 11.0718C52.0836 10.9661 51.9045 10.8603 51.6896 10.7898C51.4747 10.7192 51.1881 10.684 50.8657 10.684C50.6866 10.684 50.5075 10.684 50.3284 10.7192C50.1493 10.7545 49.9702 10.7545 49.7911 10.7898C49.612 10.825 49.4329 10.8603 49.2896 10.8955C49.1463 10.9308 49.003 10.9661 48.8956 11.0013C48.7881 11.0366 48.7165 11.0366 48.6806 11.0366C48.6448 11.0366 48.609 10.9661 48.5732 10.8955L48.3941 10.1903C48.3583 10.0493 48.3941 9.97876 48.5374 9.90824C48.9314 9.7672 49.3612 9.66141 49.8627 9.59089C50.3642 9.52037 50.7941 9.48511 51.1881 9.48511C52.1911 9.48511 52.9075 9.69667 53.3374 10.1551C53.803 10.6135 54.018 11.2129 54.018 12.0239V16.3257H53.9821ZM52.5135 13.5049H50.9374C50.7583 13.5049 50.5792 13.5049 50.3642 13.5401C50.1493 13.5754 49.9344 13.6106 49.7553 13.7164C49.5762 13.8222 49.3971 13.928 49.2896 14.1395C49.1463 14.3159 49.1105 14.5627 49.1105 14.88C49.1105 15.3384 49.2538 15.6558 49.5762 15.8321C49.8986 16.0084 50.2926 16.0789 50.8299 16.0789C50.9015 16.0789 51.009 16.0789 51.1523 16.0789C51.2956 16.0789 51.4389 16.0789 51.5821 16.0436C51.7254 16.0084 51.9045 16.0084 52.0836 15.9731C52.2627 15.9379 52.406 15.9026 52.5493 15.8673V13.5049H52.5135Z" fill="black"/>
<path d="M58.4596 16.0083C58.782 16.0083 59.1044 15.9731 59.4268 15.9026C59.7492 15.832 59.9999 15.7263 60.2149 15.6205C60.3223 15.5852 60.394 15.55 60.4298 15.5852C60.4656 15.6205 60.5014 15.6557 60.5372 15.691L60.8596 16.361C60.9313 16.502 60.9313 16.6078 60.788 16.6783C60.4298 16.8899 59.9999 17.0309 59.5701 17.1014C59.1044 17.172 58.7104 17.2072 58.3163 17.2072C57.2775 17.2072 56.4537 16.8899 55.8805 16.2552C55.3074 15.6205 55.0566 14.6684 55.0566 13.399C55.0566 12.7996 55.1283 12.2707 55.3074 11.777C55.4507 11.2834 55.7014 10.8602 55.988 10.5076C56.2746 10.155 56.6328 9.9082 57.0626 9.69664C57.4925 9.52033 57.9581 9.41455 58.4954 9.41455C58.8895 9.41455 59.2835 9.44981 59.6417 9.52033C59.9999 9.59086 60.3581 9.7319 60.6805 9.9082C60.8238 9.97873 60.8596 10.0845 60.7522 10.2256L60.4298 10.8955C60.394 10.966 60.3581 11.0013 60.3223 11.0013C60.2865 11.0366 60.2148 11.0013 60.1074 10.966C59.8925 10.8602 59.6417 10.7897 59.391 10.7192C59.1402 10.6487 58.8537 10.6134 58.5313 10.6134C58.1731 10.6134 57.8507 10.6839 57.5999 10.825C57.3492 10.966 57.1343 11.1776 56.9551 11.4244C56.776 11.6713 56.6686 11.9533 56.5969 12.3059C56.5253 12.6233 56.4895 12.9759 56.4895 13.3285C56.4895 13.6811 56.5253 14.0337 56.5969 14.3511C56.6686 14.6684 56.776 14.9505 56.9193 15.1973C57.0626 15.4442 57.2775 15.6205 57.5283 15.7615C57.7074 15.9731 58.0656 16.0083 58.4596 16.0083Z" fill="black"/>
<path d="M61.6836 9.80239C61.6836 9.6966 61.7194 9.62608 61.7552 9.62608C61.7911 9.59082 61.8627 9.59082 61.9343 9.59082H62.8299C62.9373 9.59082 63.009 9.59082 63.0448 9.62608C63.0806 9.66134 63.1164 9.73186 63.1164 9.80239V15.0563H63.1881L64.2627 13.3637L66.412 10.0492C66.5194 9.87291 66.6269 9.76712 66.7343 9.6966C66.8418 9.62608 66.9851 9.59082 67.2 9.59082H67.594C67.7731 9.59082 67.9523 9.62608 68.0597 9.73186C68.1672 9.83765 68.2388 9.97869 68.2388 10.1903V16.8546C68.2388 16.9604 68.203 17.0309 68.1672 17.0309C68.1314 17.0661 68.0597 17.0661 67.9523 17.0661H67.0567C66.9851 17.0661 66.9134 17.0661 66.8776 17.0309C66.8418 16.9956 66.806 16.9604 66.806 16.8546V11.6712H66.7343L65.6955 13.2932L63.5105 16.6077C63.403 16.784 63.2955 16.9251 63.1523 16.9956C63.0448 17.0661 62.9015 17.1014 62.7224 17.1014H62.3284C62.1493 17.1014 61.9702 17.0661 61.8627 16.9604C61.7552 16.8546 61.6836 16.7135 61.6836 16.502V9.80239Z" fill="black"/>
<path d="M74.4716 14.0691H72.788C72.394 14.0691 72.1074 14.1396 71.8567 14.2454C71.6418 14.3864 71.4627 14.6332 71.3194 15.0211L70.7463 16.8547C70.7104 16.9252 70.6746 16.9957 70.6388 17.031C70.5671 17.0662 70.5313 17.0662 70.4955 17.0662H69.4925C69.3851 17.0662 69.3134 17.031 69.2776 16.9605C69.2418 16.8899 69.2418 16.8547 69.2776 16.7842L69.9582 14.7743C70.0298 14.5275 70.1373 14.3159 70.2806 14.1043C70.4239 13.8928 70.6746 13.7517 70.997 13.6812C70.5313 13.5049 70.1731 13.2581 69.9582 12.9407C69.7433 12.6234 69.6358 12.2355 69.6358 11.7771C69.6358 11.4598 69.7074 11.1777 69.8149 10.8956C69.9224 10.6135 70.1015 10.3667 70.3164 10.1904C70.5313 9.97879 70.8179 9.83775 71.1045 9.73197C71.4268 9.62619 71.7851 9.55566 72.1791 9.55566H75.188C75.3671 9.55566 75.5104 9.59092 75.6537 9.69671C75.797 9.80249 75.8686 9.94353 75.8686 10.1551V16.8194C75.8686 16.9252 75.8328 16.9605 75.797 16.9957C75.7612 17.031 75.6895 17.031 75.5821 17.031H74.6865C74.5791 17.031 74.5074 17.031 74.4716 16.9957C74.4358 16.9605 74.4 16.8899 74.4 16.8194V14.0691H74.4716ZM71.0686 11.8476C71.0686 11.9887 71.1045 12.1297 71.1403 12.2708C71.1761 12.4118 71.2477 12.5176 71.3552 12.6234C71.4627 12.7291 71.606 12.7997 71.7492 12.8702C71.9283 12.9407 72.1433 12.976 72.4298 12.976H74.4716V10.7898H72.3224C72.0716 10.7898 71.8567 10.8251 71.7134 10.8956C71.5343 10.9661 71.4269 11.0719 71.3194 11.1777C71.2119 11.2834 71.1761 11.3892 71.1403 11.5303C71.1045 11.6361 71.0686 11.7418 71.0686 11.8476Z" fill="black"/>
<path d="M79.9881 16.1142C79.9881 16.4315 79.8806 16.6784 79.6657 16.9252C79.4508 17.1368 79.1642 17.2425 78.8418 17.2425C78.5194 17.2425 78.2687 17.1368 78.0179 16.9252C77.803 16.7136 77.6956 16.4315 77.6956 16.1142C77.6956 15.7968 77.803 15.5148 78.0179 15.3032C78.2329 15.0916 78.5194 14.9858 78.8418 14.9858C79.1642 14.9858 79.4508 15.0916 79.6657 15.3032C79.8806 15.5148 79.9881 15.7968 79.9881 16.1142Z" fill="black"/>
<path d="M88.3701 13.3285C88.3701 13.8574 88.2985 14.3511 88.1552 14.8447C88.0119 15.3031 87.797 15.7263 87.5104 16.0789C87.2238 16.4315 86.8656 16.7136 86.4358 16.9251C86.0059 17.1367 85.5044 17.2425 84.9671 17.2425C84.7164 17.2425 84.4298 17.2425 84.1432 17.2072C83.8567 17.172 83.5343 17.1367 83.1761 17.0309V19.746C83.1761 19.8518 83.1402 19.9223 83.1044 19.9223C83.0686 19.9576 82.997 19.9576 82.8895 19.9576H82.0298C81.9582 19.9576 81.8865 19.9576 81.8507 19.9223C81.8149 19.887 81.7791 19.8165 81.7791 19.746V10.2256C81.7791 10.0845 81.8507 10.014 81.9582 9.94346C82.4596 9.7319 82.9611 9.59086 83.4626 9.52033C83.9641 9.44981 84.4656 9.41455 84.9313 9.41455C85.5044 9.41455 86.0417 9.52033 86.4716 9.7319C86.9014 9.94346 87.2596 10.2256 87.5462 10.5429C87.8328 10.8955 88.0119 11.3186 88.1552 11.777C88.2985 12.2707 88.3701 12.7996 88.3701 13.3285ZM86.8656 13.3285C86.8656 12.3412 86.6865 11.6712 86.2925 11.2481C85.8985 10.825 85.3611 10.6487 84.6805 10.6487C84.4298 10.6487 84.1791 10.6839 83.8925 10.7192C83.6059 10.7545 83.3552 10.825 83.1761 10.8955V15.832C83.4985 15.9026 83.8208 15.9731 84.0358 16.0083C84.2865 16.0436 84.5014 16.0436 84.7164 16.0436C85.0388 16.0436 85.3253 16.0083 85.5761 15.9026C85.8268 15.7968 86.0776 15.6557 86.2567 15.4442C86.4358 15.2326 86.5791 14.9505 86.6865 14.6332C86.8298 14.2806 86.8656 13.8574 86.8656 13.3285Z" fill="black"/>
<path d="M92.6329 18.2652C92.418 18.9352 92.0956 19.3936 91.7374 19.6404C91.3792 19.9225 90.8777 20.0283 90.3403 20.0283C90.1971 20.0283 90.0538 20.0283 89.8389 19.993C89.6239 19.9577 89.409 19.9225 89.1583 19.852C89.015 19.8167 88.9433 19.7462 88.9791 19.6051L89.1583 18.8999C89.1941 18.8294 89.1941 18.7589 89.2299 18.7589C89.2657 18.7589 89.3374 18.7589 89.409 18.7589C89.5881 18.7941 89.6956 18.8294 89.803 18.8294C89.8747 18.8294 90.018 18.8647 90.1254 18.8647C90.4836 18.8647 90.7344 18.7941 90.9493 18.6531C91.1642 18.512 91.3075 18.2652 91.415 17.9126L91.7374 16.9253H91.415C91.2717 16.9253 91.1284 16.89 91.0209 16.8548C90.9135 16.8195 90.806 16.6432 90.6986 16.3611L88.5493 9.66155C88.5135 9.55577 88.5493 9.52051 88.6926 9.52051H89.803C89.8747 9.52051 89.9463 9.52051 89.9463 9.55577C89.9821 9.59103 89.9821 9.62629 90.018 9.66155L91.1284 13.1876L91.9165 15.8322H91.9881L92.8478 13.1876L94.0299 9.66155C94.0657 9.62629 94.0657 9.59103 94.1016 9.55577C94.1374 9.52051 94.1732 9.52051 94.2448 9.52051H95.3195C95.4269 9.52051 95.4627 9.55577 95.4627 9.66155L92.6329 18.2652Z" fill="black"/>
<path d="M27.7969 19.6052V20.0989H25.7551V23.4839H25.2178V19.6052H27.7969Z" fill="#575756"/>
<path d="M27.8687 20.6632H28.2985V21.051C28.4418 20.8395 28.6567 20.5574 29.1582 20.5574C29.9104 20.5574 30.3403 21.1568 30.3403 21.9678C30.3403 22.6378 30.0537 23.5193 29.0866 23.5193C28.6925 23.5193 28.4418 23.343 28.3343 23.0962V24.5419H27.8687V20.6632ZM28.3343 22.0383C28.3343 22.6378 28.5851 23.1314 29.0866 23.1314C29.3731 23.1314 29.8388 22.9199 29.8388 22.1794C29.8388 21.721 29.803 21.0158 29.0866 21.0158C28.3701 21.0158 28.3343 21.6857 28.3343 22.0383Z" fill="#575756"/>
<path d="M31.1283 20.6631L31.8805 22.955L32.6328 20.6631H33.1701C32.8477 21.5799 32.3104 23.0608 31.9164 23.9776C31.7014 24.4713 31.594 24.6123 31.0208 24.6123C30.9492 24.6123 30.8776 24.577 30.8059 24.577V24.1539C30.8776 24.1892 30.9492 24.1892 31.0925 24.1892C31.3432 24.1892 31.3791 24.1187 31.594 23.5545L30.5552 20.6983H31.1283V20.6631Z" fill="#575756"/>
<path d="M35.8925 20.6631V23.4487H35.4268V21.051H34.1014V23.4487H33.6357V20.6631H35.8925Z" fill="#575756"/>
<path d="M38.8656 20.6631V23.4487H38.3999V21.051H37.0746V23.4487H36.6089V20.6631H38.8656Z" fill="#575756"/>
<path d="M39.546 21.5093C39.546 20.8394 40.0117 20.5925 40.7281 20.5925C40.9431 20.5925 41.7669 20.6631 41.7669 21.3683V22.955C41.7669 23.0608 41.8386 23.1313 41.9102 23.1313C41.946 23.1313 42.0177 23.1313 42.0535 23.0961V23.4487C41.9819 23.4839 41.9102 23.4839 41.8028 23.4839C41.3729 23.4839 41.3371 23.2724 41.3013 23.0608C41.1222 23.2724 40.8356 23.5192 40.2625 23.5192C39.7252 23.5192 39.3669 23.2018 39.3669 22.7082C39.3669 22.3908 39.4386 21.8972 40.4416 21.7914C41.1938 21.7209 41.2296 21.6856 41.2296 21.3683C41.2296 21.0509 41.0147 20.9099 40.5849 20.9099C40.0475 20.9099 39.9759 21.2272 39.9401 21.4388H39.546V21.5093ZM41.3013 22.0382C41.2296 22.1087 41.1222 22.144 40.5132 22.2145C40.2625 22.2498 39.9043 22.3203 39.9043 22.6729C39.9043 22.9903 40.0834 23.1666 40.4416 23.1666C40.8714 23.1666 41.3013 22.8845 41.3013 22.4966V22.0382Z" fill="#575756"/>
<path d="M44.5611 21.8971L45.779 20.6982H46.388L45.3134 21.7561L46.4596 23.5191H45.8865L44.9552 22.1087L44.5611 22.4613V23.5191H44.0955V20.7335H44.5611V21.8971Z" fill="#575756"/>
<path d="M47.8566 20.5925C48.7521 20.5925 49.182 21.333 49.182 22.0735C49.182 22.7787 48.788 23.5544 47.8566 23.5544C46.9611 23.5544 46.5312 22.7787 46.5312 22.0735C46.5312 21.333 46.9611 20.5925 47.8566 20.5925ZM47.8566 23.1313C48.5372 23.1313 48.6805 22.4261 48.6805 22.0735C48.6805 21.6856 48.5372 21.0157 47.8566 21.0157C47.176 21.0157 47.0327 21.7209 47.0327 22.0735C47.0327 22.4261 47.176 23.1313 47.8566 23.1313Z" fill="#575756"/>
<path d="M50.3998 20.6631L51.2595 22.8493L52.1192 20.6631H52.764V23.4487H52.2984V21.8267C52.2984 21.5446 52.3342 21.2273 52.3342 21.2273H52.2984L51.4028 23.4487H51.0446L50.1491 21.2273C50.1491 21.2273 50.1849 21.5446 50.1849 21.8267V23.4487H49.7192V20.6631H50.3998Z" fill="#575756"/>
<path d="M55.7731 20.6631V23.4487H55.3074V21.051H53.982V23.4487H53.5164V20.6631H55.7731Z" fill="#575756"/>
<path d="M56.4894 21.5093C56.4894 20.8394 56.9551 20.5925 57.6715 20.5925C57.8864 20.5925 58.7103 20.6631 58.7103 21.3683V22.955C58.7103 23.0608 58.7819 23.1313 58.8536 23.1313C58.8894 23.1313 58.9611 23.1313 58.9969 23.0961V23.4487C58.9252 23.4839 58.8536 23.4839 58.7461 23.4839C58.3163 23.4839 58.2805 23.2724 58.2446 23.0608C58.0655 23.2724 57.779 23.5192 57.2058 23.5192C56.6685 23.5192 56.3103 23.2018 56.3103 22.7082C56.3103 22.3908 56.3819 21.8972 57.3849 21.7914C58.1372 21.7209 58.173 21.6856 58.173 21.3683C58.173 21.0509 57.9581 20.9099 57.5282 20.9099C56.9909 20.9099 56.9193 21.2272 56.8834 21.4388H56.4894V21.5093ZM58.2088 22.0382C58.1372 22.1087 58.0297 22.144 57.4208 22.2145C57.17 22.2498 56.8118 22.3203 56.8118 22.6729C56.8118 22.9903 56.9909 23.1666 57.3491 23.1666C57.779 23.1666 58.2088 22.8845 58.2088 22.4966V22.0382Z" fill="#575756"/>
<path d="M59.964 21.7914H61.2893V20.6631H61.755V23.4487H61.2893V22.1793H59.964V23.4487H59.4983V20.6631H59.964V21.7914Z" fill="#575756"/>
<path d="M62.973 22.7435L64.37 20.6631H64.8715V23.4487H64.4058V21.3683L63.0088 23.4487H62.5073V20.6631H62.973V22.7435Z" fill="#575756"/>
<path d="M66.0535 22.7434L67.4505 20.6631H67.952V23.4487H67.4863V21.3683L66.0893 23.4487H65.552V20.6631H66.0177V22.7434H66.0535ZM66.8057 20.0284C67.1639 20.0284 67.2714 19.8168 67.3431 19.6052H67.5938C67.5938 19.7815 67.4863 20.3457 66.7699 20.3457C66.0177 20.3457 65.946 19.8168 65.946 19.6052H66.2326C66.3042 19.8521 66.4117 20.0284 66.8057 20.0284Z" fill="#575756"/>
<path d="M6.37594 23.2019C5.22967 23.625 3.9043 23.5545 2.75803 22.9198C1.61176 22.2851 0.895345 21.1567 0.68042 19.9931C0.716241 19.9931 4.94311 19.1821 4.94311 19.1821C4.94311 19.1821 6.34012 23.1666 6.37594 23.2019Z" fill="#76B82A"/>
<path d="M4.72836 18.5122L0.644775 19.288V6.91138L4.72836 18.5122Z" fill="#FFCC00"/>
<path d="M6.37594 0.987532C6.37594 1.02279 4.94311 5.00728 4.94311 5.00728C4.94311 5.00728 0.716241 4.19628 0.68042 4.19628C0.859524 2.9974 1.61176 1.90432 2.75803 1.26962C3.9043 0.599661 5.22967 0.5644 6.37594 0.987532Z" fill="#E30613"/>
<path d="M17.8748 7.47546L5.62402 5.14823L6.98522 1.26953C6.98522 1.26953 17.8748 7.47546 17.8748 7.47546Z" fill="#E6007E"/>
<path d="M21.779 12.0948C21.779 13.3995 21.1701 14.5631 20.2029 15.3388C20.2029 15.3036 17.373 12.0948 17.373 12.0948C17.373 12.0948 20.2029 8.88609 20.2029 8.85083C21.1701 9.62657 21.779 10.7902 21.779 12.0948Z" fill="#702283"/>
<path d="M19.6657 15.6915L8.77612 21.8974L16.9433 12.6238L19.6657 15.6915Z" fill="#0075BF"/>
<path d="M19.6656 8.46289L16.9432 11.5659L13.1104 7.22876L19.6656 8.46289Z" fill="#A71680"/>
<path d="M4.72836 5.64195L2.79403 11.0721L0.644775 4.86621L4.72836 5.64195Z" fill="#EE7203"/>
<path d="M11.3195 17.948L6.98522 22.9198L5.62402 19.0411L11.3195 17.948Z" fill="#009FE3"/>
</svg>
