<svg width="268" height="85" viewBox="0 0 268 85" fill="none" xmlns="http://www.w3.org/2000/svg">
<g clip-path="url(#clip0)">
<path d="M99.5999 60.0999C99.2999 62.3999 98.6999 62.9999 97.1999 62.9999C95.8999 62.9999 95.1999 62.0999 94.9999 60.0999C94.6999 60.1999 94.4999 60.1999 94.1999 60.2999C92.1999 60.9999 90.3999 60.4999 88.9999 58.7999C87.3999 56.7999 86.5999 54.4999 86.1999 52.0999C85.2999 46.4999 85.2999 40.8999 86.6999 35.3999C86.9999 34.0999 87.6999 32.7999 88.3999 31.6999C89.7999 29.5999 91.9999 28.9999 94.3999 29.8999C94.5999 29.9999 94.6999 29.9999 94.8999 29.9999C95.1999 27.1999 95.6999 26.4999 97.0999 26.3999C97.9999 26.3999 98.7999 26.6999 99.0999 27.5999C99.2999 28.2999 99.2999 29.0999 99.3999 29.8999C99.4999 29.8999 99.5999 29.8999 99.6999 29.8999C102.7 28.3999 105.4 30.2999 106.6 32.5999C107.8 34.9999 108.3 37.4999 108.5 40.1999C108.8 44.8999 109 49.5999 107.5 54.0999C107 55.6999 106.2 57.1999 105.3 58.5999C103.9 60.5999 102.2 60.8999 99.8999 60.0999C99.8999 60.0999 99.6999 60.0999 99.5999 60.0999ZM99.4999 44.9999C99.4999 46.9999 99.4999 49.0999 99.4999 51.0999C99.3999 52.8999 100.3 54.2999 101.2 55.5999C101.7 56.2999 102.2 56.1999 102.5 55.4999C103 54.4999 103.5 53.3999 103.8 52.2999C104.7 47.9999 104.6 43.5999 104.1 39.1999C103.9 37.6999 103.5 36.1999 102.9 34.8999C102.4 33.5999 101.7 33.5999 100.9 34.7999C99.9999 36.0999 99.3999 37.3999 99.4999 38.9999C99.4999 40.9999 99.4999 42.9999 99.4999 44.9999ZM95.0999 45.0999C95.0999 42.7999 95.0999 40.5999 95.0999 38.2999C95.0999 36.7999 94.4999 35.5999 93.4999 34.4999C92.7999 33.7999 92.2999 33.7999 91.7999 34.6999C91.3999 35.2999 91.0999 36.0999 90.9999 36.7999C89.9999 41.6999 89.9999 46.5999 90.6999 51.4999C90.8999 52.8999 91.4999 54.2999 92.0999 55.5999C92.4999 56.4999 92.9999 56.3999 93.5999 55.5999C94.4999 54.1999 95.2999 52.6999 95.1999 50.8999C94.9999 48.9999 95.0999 47.0999 95.0999 45.0999Z" fill="#2A170F"/>
<path d="M148.8 26.9999C151.1 26.1999 152.4 26.7999 152.5 28.8999C152.6 29.8999 152.7 30.7999 152.7 31.7999C152.8 41.4999 152.9 51.1999 153 60.7999C153 62.0999 152.1 62.9999 150.8 62.9999C149.5 62.9999 148.7 62.0999 148.6 60.6999C148.6 56.7999 148.6 52.7999 148.6 48.8999C148.6 47.0999 148.6 45.2999 148.6 43.5999C148.5 43.5999 148.4 43.5999 148.3 43.5999C147.7 45.7999 147 48.0999 146.4 50.2999C145.4 53.8999 144.5 57.4999 143.5 61.1999C143.2 62.3999 142.2 63.1999 141 62.9999C140 62.8999 139.2 61.7999 139.2 60.5999C139.2 55.7999 139.2 50.9999 139.1 46.1999C139 40.4999 138.8 34.6999 138.6 28.9999C138.6 27.6999 139.3 26.7999 140.5 26.5999C141.6 26.3999 142.4 26.8999 142.6 28.2999C142.9 30.7999 143.2 33.3999 143.3 35.8999C143.4 38.4999 143.3 41.0999 143.3 43.5999C143.4 43.5999 143.5 43.5999 143.6 43.6999C143.9 42.8999 144.1 42.0999 144.4 41.2999C145.6 36.9999 146.8 32.6999 148 28.3999C148.2 27.8999 148.6 27.4999 148.8 26.9999Z" fill="#2A170F"/>
<path d="M22.2998 44.4001C22.4998 39.9001 22.5998 36.6001 22.8998 33.3001C23.0998 31.2001 23.7998 29.2001 25.3998 27.7001C27.2998 25.9001 29.7998 25.9001 31.5998 27.8001C33.0998 29.3001 33.8998 31.3001 34.3998 33.4001C36.0998 41.4001 36.1998 49.5001 34.1998 57.5001C33.7998 59.3001 32.9998 61.0001 31.6998 62.3001C30.1998 63.8001 27.9998 63.9001 26.4998 62.4001C25.4998 61.4001 24.6998 60.1001 24.0998 58.9001C22.8998 56.4001 22.2998 53.7001 22.2998 50.9001C22.3998 48.3001 22.2998 45.7001 22.2998 44.4001ZM29.0998 58.8001C30.0998 57.5001 30.3998 56.1001 30.5998 54.7001C31.4998 50.0001 31.3998 45.2001 31.0998 40.5001C30.8998 37.9001 30.2998 35.3001 29.6998 32.7001C29.5998 32.0001 28.9998 31.4001 28.6998 30.8001C28.4998 30.8001 28.3998 30.8001 28.1998 30.8001C27.8998 31.9001 27.3998 33.0001 27.2998 34.1001C27.0998 35.3001 27.1998 36.6001 27.0998 37.9001C26.9998 42.1001 26.7998 46.2001 26.6998 50.4001C26.6998 53.4001 27.4998 56.1001 29.0998 58.8001Z" fill="#2A170F"/>
<path d="M64.5001 43.0999C64.5001 40.4999 64.5001 37.9 64.5001 35.4C64.5001 33 65.0001 30.7 66.4001 28.7C68.5001 25.7 72.0001 25.7 74.1001 28.7C75.7001 30.9 76.4001 33.6 76.8001 36.2C77.7001 42.9 77.9001 49.4999 76.4001 56.0999C76.0001 57.9999 75.2001 59.9 74.2001 61.5C72.6001 64.0999 69.7001 64.2 67.7001 61.9C65.6001 59.5 64.5001 56.5 64.3001 53.4C64.0001 50 64.2001 46.6 64.2001 43.2C64.4001 43.1 64.4001 43.0999 64.5001 43.0999ZM70.7001 58.5999C70.8001 58.5999 70.9001 58.5999 71.0001 58.5999C71.3001 57.8999 71.7001 57.2 71.8001 56.5C72.2001 53.4 72.7001 50.3 72.8001 47.2C73.0001 43 72.9001 38.9 72.0001 34.7999C71.7001 33.3999 71.4001 31.9999 70.2001 30.9C69.3001 31.8 69.0001 32.9999 68.9001 34.0999C68.8001 35.3999 68.8001 36.7 68.7001 38C68.6001 42.2 68.4001 46.2999 68.3001 50.5C68.5001 53.4 69.3001 56.0999 70.7001 58.5999Z" fill="#2A170F"/>
<path d="M4.4 33.7999C5.2 32.1999 5.7 30.8 6.5 29.4C7.6 27.6 9.2 26.4 11.4 26.5C12.5 26.5 13.4 27.2999 13.5 28.3999C13.6 29.4999 12.9 30.6999 11.8 30.7999C10.8 30.8999 10.2 31.4999 9.9 32.2999C9.4 33.4999 8.9 34.8 8.4 36C7.6 38.4 6.8 40.7 5.9 43.2C8.8 45.5 9.4 49 10.4 52.4C11 54.1 11.5 55.8999 12.1 57.5999C12.3 58.0999 12.7 58.6 13.2 58.9C14.1 59.6 14.4 60.8999 13.9 61.7999C13.2 62.8999 12 63.1999 10.9 62.5999C9.6 61.8999 8.7 60.7 8.2 59.2999C7.3 56.7999 6.6 54.4 5.7 51.9C5.4 50.9 5 49.9 4.5 49C4.5 50.7 4.5 52.2999 4.5 54C4.6 56.2 4.7 58.2999 4.8 60.5C4.8 61 4.6 61.6999 4.3 62.0999C3.9 62.8999 3.1 63.1 2.2 62.9C1.4 62.8 1 62.2 0.9 61.5C0.6 59.5999 0.3 57.6 0.3 55.7C0.1 46.7 0.1 37.7 0 28.7C0 27.4 0.9 26.6 2.1 26.5C3.4 26.5 4.3 27.3 4.4 28.6C4.5 30.3 4.4 31.8999 4.4 33.7999Z" fill="#2A170F"/>
<path d="M123.2 30.9V42.9C124.3 42.9 125.5 43 126.6 42.9C128 42.8 129.1 43.9 129.2 45C129.3 46.3 128.3 47.2 126.7 47.2C125.7 47.2 124.6 47.3 123.6 47.3C123.5 47.3 123.3 47.4 123.1 47.4V58.5C125 58.5 126.8 58.5 128.7 58.5C130.3 58.5 131.3 59.4 131.3 60.7C131.3 62 130.3 62.9 128.7 62.9C126.2 62.9 123.6 62.9 121.1 62.9C119.6 62.9 118.7 62 118.7 60.5C118.7 52.8 118.7 45.1 118.7 37.4C118.7 34.5 118.9 31.6 119 28.6C119.1 27.3 119.9 26.5 121.2 26.5C123.8 26.5 126.4 26.5 128.9 26.5C130.2 26.5 131.2 27.4 131.2 28.6C131.2 29.8 130.2 30.8 128.9 30.8C127.1 30.9 125.2 30.9 123.2 30.9Z" fill="#2A170F"/>
<path d="M52.8002 30.9001V32.3001C52.8002 41.5001 52.8002 50.8001 52.8002 60.0001C52.8002 60.4001 52.8002 60.8001 52.7002 61.1001C52.5002 62.2001 51.7002 62.9001 50.7002 62.9001C49.6002 62.9001 48.7002 62.3001 48.5002 61.3001C48.4002 60.9001 48.4002 60.4001 48.4002 60.0001C48.4002 50.7001 48.4002 41.5001 48.4002 32.2001V30.9001C47.4002 30.9001 46.4002 30.9001 45.4002 30.9001C44.1002 30.9001 43.2002 30.0001 43.2002 28.7001C43.2002 27.5001 44.1002 26.6001 45.4002 26.6001C48.7002 26.6001 52.0002 26.6001 55.3002 26.6001C56.6002 26.6001 57.5002 27.5001 57.5002 28.7001C57.5002 30.0001 56.6002 30.9001 55.3002 30.9001C54.5002 30.9001 53.7002 30.9001 52.8002 30.9001Z" fill="#2A170F"/>
<path d="M148.8 26.9999C147.7 27.2999 146.6 27.6999 145.4 27.7999C143.5 27.8999 142 26.8999 140.9 25.3999C140.3 24.5999 140.4 23.3999 141.2 22.6999C141.9 21.9999 143.2 21.7999 144 22.3999C144.2 22.5999 144.4 22.7999 144.6 22.9999C145.3 23.6999 146 23.6999 146.7 23.0999C146.9 22.8999 147.1 22.7999 147.4 22.5999C148.5 21.8999 149.8 22.0999 150.4 22.9999C151.1 23.9999 150.9 25.3999 149.9 26.1999C149.6 26.3999 149.2 26.6999 148.8 26.9999Z" fill="#2A170F"/>
<path d="M146.8 72.1H145.2V82.7H146.8V77.6L150.9 82.7H153.1L148.3 76.9L153.1 72.1H151L146.9 76.3V72.1H146.8ZM124 74.5H124.3C126.4 74.5 127.3 75.7 127.3 77.1C127.3 78.6 126.3 79.7 124.3 79.7H124V74.5ZM122.4 79.7H122C119.9 79.7 119 78.5 119 77.1C119 75.7 119.9 74.5 122 74.5H122.3V79.7H122.4ZM122.4 82.7H124V81.2H124.3C127.6 81.2 129 79.4 129 77.1C129 73 125 73 124.3 73H124V71.7H122.4V73H122.1C121.4 73 117.4 73 117.4 77.1C117.4 79.4 118.8 81.2 122.1 81.2H122.4V82.7ZM91.6 82.7L92.7 76.3L95.7 83.2L98.8 76.3L99.9 82.7H101.6L99.6 71.3L95.9 79.5L92.2 71.3L90 82.7H91.6Z" fill="#891723" stroke="#891723" stroke-miterlimit="10"/>
<path d="M134.6 77.4001C134.6 76.9001 134.8 76.4001 135.2 76.1001C135.6 75.7001 136 75.6001 136.5 75.6001C137 75.6001 137.5 75.8001 137.8 76.1001C138.2 76.5001 138.4 76.9001 138.4 77.4001C138.4 77.9001 138.2 78.4001 137.8 78.7001C137.4 79.1001 137 79.3001 136.5 79.3001C136 79.3001 135.5 79.1001 135.2 78.7001C134.8 78.3001 134.6 77.9001 134.6 77.4001ZM107.3 77.4001C107.3 76.9001 107.5 76.4001 107.9 76.1001C108.3 75.7001 108.7 75.6001 109.2 75.6001C109.7 75.6001 110.2 75.8001 110.5 76.1001C110.9 76.5001 111.1 76.9001 111.1 77.4001C111.1 77.9001 110.9 78.4001 110.5 78.7001C110.1 79.1001 109.7 79.3001 109.2 79.3001C108.7 79.3001 108.2 79.1001 107.9 78.7001C107.5 78.3001 107.3 77.9001 107.3 77.4001Z" fill="#2A170F"/>
<path fill-rule="evenodd" clip-rule="evenodd" d="M173.8 13C168.6 16.1 172.2 20.1 176.8 22.8C180 24.7 185.7 26.9 189.5 28.2C190.5 37.9 186.4 38.4 182.6 44.4C176.1 55.1 186.5 58.7 181.2 61.6C175.6 63.7 169.1 52.8 165.7 58.6C164.2 61.8 167.1 67.8 168.7 70.2C172.5 76 172.9 74.5 175.9 78.1C174 79.7 173.6 79.2 173.8 82.4C179.2 83.3 204 82.2 213.2 82.3C220.1 82.4 228.2 85.4 234.8 79.3C237.7 76.7 237.7 73.9 239.9 71C243.1 66.4 252.3 63.7 259.3 66.4C261.1 67.1 266.8 71.8 267.9 66.9C269 62.3 252.7 50.5 241.8 55.8C233.3 59.9 235.8 63.7 231.9 72.3C229 78.8 221.6 80.3 213.7 77.6C214.3 75.9 216.4 73.7 217.8 71.6C219.1 69.7 220.7 67.3 220.6 64.2C220.5 61 218.8 58.9 216.5 58C211.8 56.2 211.7 58.4 208.5 58.9C207.4 56 205.9 54.7 206 52.2C206 46.6 203.6 43.1 200.5 37.9C199.4 36.1 197.6 33.2 199.4 30.6C200.4 29.4 205.5 29.4 207.2 29.1C209.9 28.7 212.6 28.4 215.2 27.6C217.3 27 219.8 25.6 220.4 23.5C221.4 19.9 218.9 19.1 217.1 17.8C219.2 15.6 219.7 17 221.4 13.5C222.7 11 222.4 8.2 222.2 5.3C219.9 5.5 218 6.2 215.6 6.4C213.1 6.6 210.6 6.5 208 6.7C203.1 7.1 199.5 8.6 194.3 8C192.1 7.7 187.2 4.8 183.4 3.8C179.3 2.7 174.8 1.8 171.6 0C170.9 5.2 172.7 8.9 173.8 13Z" fill="#C6AC98"/>
</g>
<defs>
<clipPath id="clip0">
<rect width="267.9" height="84.4" fill="white"/>
</clipPath>
</defs>
</svg>
