<svg width="115" height="38" viewBox="0 0 115 38" fill="none" xmlns="http://www.w3.org/2000/svg">
<g clip-path="url(#clip0)">
<path d="M42.7548 27.0592C42.6261 28.0948 42.3685 28.3649 41.7246 28.3649C41.1666 28.3649 40.8661 27.9597 40.7802 27.0592C40.6514 27.1042 40.5656 27.1042 40.4368 27.1493C39.5783 27.4644 38.8056 27.2393 38.2046 26.4739C37.5178 25.5734 37.1744 24.5379 37.0027 23.4573C36.6163 20.936 36.6163 18.4147 37.2173 15.9384C37.3461 15.3531 37.6466 14.7677 37.9471 14.2725C38.548 13.327 39.4924 13.0568 40.5227 13.4621C40.6085 13.5071 40.6514 13.5071 40.7373 13.5071C40.8661 12.2464 41.0807 11.9313 41.6817 11.8862C42.068 11.8862 42.4114 12.0213 42.5402 12.4265C42.6261 12.7417 42.6261 13.1019 42.669 13.4621C42.7119 13.4621 42.7548 13.4621 42.7978 13.4621C44.0856 12.7867 45.2446 13.6422 45.7597 14.6777C46.2748 15.7583 46.4894 16.8839 46.5753 18.0995C46.7041 20.2156 46.7899 22.3317 46.146 24.3578C45.9314 25.0782 45.588 25.7535 45.2016 26.3839C44.6007 27.2843 43.8709 27.4194 42.8836 27.0592C42.8836 27.0592 42.7978 27.0592 42.7548 27.0592ZM42.7119 20.2606C42.7119 21.1611 42.7119 22.1066 42.7119 23.0071C42.669 23.8175 43.0553 24.4478 43.4417 25.0332C43.6563 25.3483 43.8709 25.3033 43.9997 24.9881C44.2143 24.5379 44.429 24.0426 44.5577 23.5474C44.9441 21.6113 44.9012 19.6303 44.6865 17.6493C44.6007 16.9739 44.429 16.2986 44.1714 15.7132C43.9568 15.1279 43.6563 15.1279 43.3129 15.6682C42.9265 16.2535 42.669 16.8388 42.7119 17.5592C42.7119 18.4597 42.7119 19.3602 42.7119 20.2606ZM40.8231 20.3057C40.8231 19.2701 40.8231 18.2796 40.8231 17.2441C40.8231 16.5687 40.5656 16.0284 40.1363 15.5332C39.8358 15.218 39.6212 15.218 39.4066 15.6232C39.2349 15.8933 39.1061 16.2535 39.0632 16.5687C38.6339 18.7749 38.6339 20.981 38.9344 23.1872C39.0202 23.8175 39.2778 24.4478 39.5353 25.0332C39.7071 25.4384 39.9217 25.3933 40.1792 25.0332C40.5656 24.4028 40.909 23.7275 40.8661 22.917C40.7802 22.0616 40.8231 21.2061 40.8231 20.3057Z" fill="white"/>
<path d="M63.8746 12.1564C64.8619 11.7962 65.42 12.0664 65.4629 13.0119C65.5058 13.4621 65.5487 13.8673 65.5487 14.3175C65.5917 18.6848 65.6346 23.0521 65.6775 27.3744C65.6775 27.9597 65.2912 28.3649 64.7331 28.3649C64.1751 28.3649 63.8317 27.9597 63.7888 27.3294C63.7888 25.5735 63.7888 23.7725 63.7888 22.0166C63.7888 21.2062 63.7888 20.3957 63.7888 19.6303C63.7458 19.6303 63.7029 19.6303 63.66 19.6303C63.4024 20.6209 63.1019 21.6564 62.8444 22.6469C62.4151 24.2678 62.0288 25.8886 61.5995 27.5545C61.4707 28.0948 61.0414 28.455 60.5263 28.3649C60.0971 28.3199 59.7536 27.8247 59.7536 27.2844C59.7536 25.1232 59.7537 22.9621 59.7107 20.801C59.6678 18.2346 59.5819 15.6232 59.4961 13.0569C59.4961 12.4716 59.7966 12.0664 60.3117 11.9763C60.7839 11.8863 61.1273 12.1114 61.2132 12.7417C61.3419 13.8673 61.4707 15.0379 61.5136 16.1635C61.5566 17.3341 61.5136 18.5048 61.5136 19.6303C61.5566 19.6303 61.5995 19.6303 61.6424 19.6754C61.7712 19.3152 61.857 18.955 61.9858 18.5948C62.5009 16.6588 63.0161 14.7228 63.5312 12.7867C63.617 12.5616 63.7887 12.3815 63.8746 12.1564Z" fill="white"/>
<path d="M9.57227 19.9906C9.65812 17.9646 9.70105 16.4788 9.82982 14.993C9.91568 14.0475 10.2162 13.147 10.903 12.4717C11.7186 11.6613 12.7918 11.6613 13.5644 12.5167C14.2083 13.1921 14.5517 14.0925 14.7664 15.038C15.4961 18.6399 15.539 22.2869 14.6805 25.8888C14.5088 26.6992 14.1654 27.4646 13.6074 28.0499C12.9635 28.7252 12.0191 28.7703 11.3752 28.0949C10.9459 27.6447 10.6025 27.0594 10.3449 26.5191C9.82982 25.3935 9.57227 24.1779 9.57227 22.9172C9.61519 21.7466 9.57227 20.576 9.57227 19.9906ZM12.4913 26.4741C12.9205 25.8888 13.0493 25.2584 13.1352 24.6281C13.5215 22.512 13.4786 20.3508 13.3498 18.2347C13.2639 17.0641 13.0064 15.8935 12.7488 14.7229C12.7059 14.4077 12.4483 14.1376 12.3196 13.8674C12.2337 13.8674 12.1908 13.8674 12.1049 13.8674C11.9761 14.3627 11.7615 14.8579 11.7186 15.3532C11.6327 15.8935 11.6757 16.4788 11.6327 17.0641C11.5898 18.9551 11.504 20.8011 11.461 22.6921C11.461 24.0428 11.8044 25.2584 12.4913 26.4741Z" fill="white"/>
<path d="M27.6881 19.4051C27.6881 18.2345 27.6881 17.0639 27.6881 15.9383C27.6881 14.8577 27.9027 13.8222 28.5037 12.9217C29.4051 11.571 30.9075 11.571 31.809 12.9217C32.4958 13.9122 32.7963 15.1279 32.968 16.2985C33.3544 19.3151 33.4402 22.2866 32.7963 25.2582C32.6246 26.1137 32.2812 26.9691 31.8519 27.6895C31.1651 28.8601 29.9202 28.9051 29.0617 27.8696C28.1603 26.789 27.6881 25.4383 27.6022 24.0426C27.4734 22.5118 27.5593 20.981 27.5593 19.4502C27.6451 19.4051 27.6451 19.4051 27.6881 19.4051ZM30.3495 26.3838C30.3924 26.3838 30.4354 26.3838 30.4783 26.3838C30.6071 26.0686 30.7788 25.7535 30.8217 25.4383C30.9934 24.0426 31.208 22.6468 31.251 21.2511C31.3368 19.3601 31.2939 17.5141 30.9075 15.6682C30.7788 15.0378 30.65 14.4075 30.1349 13.9122C29.7485 14.3175 29.6198 14.8577 29.5768 15.353C29.5339 15.9383 29.5339 16.5236 29.491 17.1089C29.448 18.9999 29.3622 20.8459 29.3193 22.7369C29.4051 24.0426 29.7485 25.2582 30.3495 26.3838Z" fill="white"/>
<path d="M1.88876 15.2181C2.23218 14.4977 2.44681 13.8673 2.79022 13.237C3.26241 12.4266 3.94923 11.8863 4.89362 11.9313C5.36581 11.9313 5.75215 12.2915 5.79507 12.7868C5.838 13.282 5.53751 13.8223 5.06532 13.8673C4.63606 13.9124 4.3785 14.1825 4.24972 14.5427C4.03509 15.083 3.82046 15.6683 3.60582 16.2086C3.26241 17.2891 2.919 18.3247 2.53266 19.4503C3.77753 20.4858 4.03509 22.0617 4.46435 23.5925C4.72191 24.3579 4.93654 25.1683 5.1941 25.9337C5.27996 26.1588 5.45166 26.3839 5.66629 26.519C6.05263 26.8342 6.18141 27.4195 5.96678 27.8247C5.66629 28.32 5.15118 28.455 4.67899 28.1849C4.12094 27.8697 3.7346 27.3294 3.51997 26.6991C3.13363 25.5735 2.83315 24.4929 2.44681 23.3673C2.31803 22.9171 2.14632 22.4669 1.93169 22.0617C1.93169 22.8271 1.93169 23.5474 1.93169 24.3128C1.97462 25.3034 2.01754 26.2489 2.06047 27.2394C2.06047 27.4645 1.97462 27.7797 1.84584 27.9598C1.67413 28.32 1.33072 28.41 0.944382 28.32C0.600971 28.2749 0.429265 28.0048 0.386338 27.6896C0.257559 26.8342 0.128779 25.9337 0.128779 25.0782C0.0429265 21.0261 0.0429265 16.974 0 12.9218C0 12.3365 0.386338 11.9764 0.901456 11.9313C1.4595 11.9313 1.84584 12.2915 1.88876 12.8768C1.93169 13.6422 1.88876 14.3626 1.88876 15.2181Z" fill="white"/>
<path d="M52.8858 13.9124V19.3153C53.358 19.3153 53.8731 19.3603 54.3453 19.3153C54.9463 19.2703 55.4185 19.7655 55.4614 20.2608C55.5043 20.8461 55.075 21.2513 54.3882 21.2513C53.959 21.2513 53.4868 21.2963 53.0575 21.2963C53.0146 21.2963 52.9287 21.3413 52.8429 21.3413V26.339C53.6585 26.339 54.4311 26.339 55.2468 26.339C55.9336 26.339 56.3628 26.7442 56.3628 27.3295C56.3628 27.9148 55.9336 28.32 55.2468 28.32C54.1736 28.32 53.0575 28.32 51.9843 28.32C51.3404 28.32 50.9541 27.9148 50.9541 27.2395C50.9541 23.7726 50.9541 20.3058 50.9541 16.839C50.9541 15.5333 51.04 14.2276 51.0829 12.8769C51.1258 12.2916 51.4692 11.9314 52.0273 11.9314C53.1434 11.9314 54.2594 11.9314 55.3326 11.9314C55.8906 11.9314 56.3199 12.3366 56.3199 12.8769C56.3199 13.4172 55.8906 13.8674 55.3326 13.8674C54.5599 13.9124 53.7443 13.9124 52.8858 13.9124Z" fill="white"/>
<path d="M22.6649 13.9123V14.5427C22.6649 18.6848 22.6649 22.8721 22.6649 27.0142C22.6649 27.1943 22.6649 27.3744 22.622 27.5095C22.5361 28.0048 22.1927 28.3199 21.7634 28.3199C21.2912 28.3199 20.9049 28.0498 20.819 27.5995C20.7761 27.4194 20.7761 27.1943 20.7761 27.0142C20.7761 22.827 20.7761 18.6848 20.7761 14.4976V13.9123C20.3469 13.9123 19.9176 13.9123 19.4883 13.9123C18.9303 13.9123 18.5439 13.5071 18.5439 12.9218C18.5439 12.3815 18.9303 11.9763 19.4883 11.9763C20.9049 11.9763 22.3215 11.9763 23.738 11.9763C24.2961 11.9763 24.6824 12.3815 24.6824 12.9218C24.6824 13.5071 24.2961 13.9123 23.738 13.9123C23.3946 13.9123 23.0512 13.9123 22.6649 13.9123Z" fill="white"/>
<path d="M63.8741 12.1563C63.402 12.2914 62.9298 12.4715 62.4146 12.5165C61.599 12.5616 60.9551 12.1113 60.483 11.436C60.2254 11.0758 60.2683 10.5355 60.6117 10.2203C60.9122 9.90515 61.4703 9.81511 61.8137 10.0852C61.8995 10.1753 61.9854 10.2653 62.0712 10.3554C62.3717 10.6706 62.6722 10.6706 62.9727 10.4004C63.0585 10.3104 63.1444 10.2653 63.2732 10.1753C63.7454 9.86013 64.3034 9.95018 64.561 10.3554C64.8615 10.8056 64.7756 11.436 64.3463 11.7962C64.2176 11.8862 64.0459 12.0213 63.8741 12.1563Z" fill="white"/>
<path d="M63.016 32.462H62.3292V37.2345H63.016V34.9383L64.776 37.2345H65.7204L63.6599 34.6231L65.7204 32.462H64.8189L63.059 34.353V32.462H63.016ZM53.2288 33.5426H53.3576C54.259 33.5426 54.6454 34.0828 54.6454 34.7132C54.6454 35.3885 54.2161 35.8838 53.3576 35.8838H53.2288V33.5426ZM52.542 35.8838H52.3703C51.4688 35.8838 51.0825 35.3435 51.0825 34.7132C51.0825 34.0828 51.4688 33.5426 52.3703 33.5426H52.499V35.8838H52.542ZM52.542 37.2345H53.2288V36.5592H53.3576C54.7741 36.5592 55.3751 35.7487 55.3751 34.7132C55.3751 32.8672 53.6581 32.8672 53.3576 32.8672H53.2288V32.2819H52.542V32.8672H52.4132C52.1127 32.8672 50.3956 32.8672 50.3956 34.7132C50.3956 35.7487 50.9966 36.5592 52.4132 36.5592H52.542V37.2345ZM39.3206 37.2345L39.7928 34.353L41.0806 37.4596L42.4113 34.353L42.8835 37.2345H43.6133L42.7547 32.1018L41.1665 35.7937L39.5782 32.1018L38.6338 37.2345H39.3206Z" fill="white" stroke="white" stroke-miterlimit="10"/>
<path d="M57.7795 34.8483C57.7795 34.6232 57.8653 34.398 58.037 34.263C58.2087 34.0829 58.3804 34.0378 58.5951 34.0378C58.8097 34.0378 59.0243 34.1279 59.1531 34.263C59.3248 34.4431 59.4107 34.6232 59.4107 34.8483C59.4107 35.0734 59.3248 35.2985 59.1531 35.4336C58.9814 35.6137 58.8097 35.7037 58.5951 35.7037C58.3804 35.7037 58.1658 35.6137 58.037 35.4336C57.8653 35.2535 57.7795 35.0734 57.7795 34.8483ZM46.0605 34.8483C46.0605 34.6232 46.1464 34.398 46.3181 34.263C46.4898 34.0829 46.6615 34.0378 46.8761 34.0378C47.0908 34.0378 47.3054 34.1279 47.4342 34.263C47.6059 34.4431 47.6918 34.6232 47.6918 34.8483C47.6918 35.0734 47.6059 35.2985 47.4342 35.4336C47.2625 35.6137 47.0908 35.7037 46.8761 35.7037C46.6615 35.7037 46.4469 35.6137 46.3181 35.4336C46.1464 35.2535 46.0605 35.0734 46.0605 34.8483Z" fill="white"/>
<path fill-rule="evenodd" clip-rule="evenodd" d="M74.6066 5.85308C72.3744 7.24882 73.9198 9.04976 75.8944 10.2654C77.268 11.1209 79.7149 12.1114 81.3461 12.6967C81.7753 17.064 80.0153 17.2891 78.3841 19.9905C75.5939 24.8081 80.0583 26.4289 77.7832 27.7346C75.3793 28.6801 72.5891 23.7725 71.1296 26.3839C70.4857 27.8246 71.7305 30.5261 72.4174 31.6066C74.0486 34.218 74.2203 33.5427 75.5081 35.1635C74.6925 35.8839 74.5208 35.6588 74.6066 37.0995C76.9246 37.5047 87.5704 37.0095 91.5196 37.0545C94.4816 37.0995 97.9586 38.4502 100.792 35.7038C102.037 34.5332 102.037 33.2725 102.981 31.9668C104.355 29.8957 108.304 28.6801 111.309 29.8957C112.081 30.2109 114.528 32.327 115 30.1209C115.473 28.0498 108.476 22.737 103.797 25.1232C100.148 26.9692 101.221 28.6801 99.5469 32.5521C98.302 35.4787 95.1255 36.154 91.7343 34.9384C91.9918 34.173 92.8933 33.1825 93.4942 32.237C94.0523 31.3815 94.7391 30.3009 94.6962 28.9052C94.6533 27.4645 93.9235 26.519 92.9362 26.1137C90.9187 25.3033 90.8757 26.2938 89.5021 26.519C89.0299 25.2133 88.386 24.628 88.4289 23.5024C88.4289 20.981 87.3987 19.4052 86.068 17.064C85.5958 16.2536 84.8231 14.9479 85.5958 13.7773C86.025 13.237 88.2143 13.237 88.944 13.1019C90.1031 12.9218 91.2621 12.7867 92.3782 12.4265C93.2796 12.1564 94.3528 11.5261 94.6103 10.5806C95.0396 8.95972 93.9664 8.59953 93.1938 8.01422C94.0952 7.0237 94.3098 7.65403 95.0396 6.0782C95.5976 4.95261 95.4689 3.69194 95.383 2.38626C94.3957 2.4763 93.5801 2.79147 92.5499 2.88152C91.4767 2.97156 90.4035 2.92654 89.2875 3.01659C87.1841 3.19668 85.6387 3.87204 83.4065 3.6019C82.4621 3.46682 80.3587 2.16114 78.7275 1.7109C76.9676 1.21564 75.0359 0.810427 73.6622 0C73.3617 2.34123 74.1344 4.00711 74.6066 5.85308Z" fill="white"/>
</g>
<defs>
<clipPath id="clip0">
<rect width="115" height="38" fill="white"/>
</clipPath>
</defs>
</svg>
