<svg width="72" height="72" viewBox="0 0 72 72" fill="none" xmlns="http://www.w3.org/2000/svg">
<path d="M20.7278 68.6971C19.7632 69.3397 19.1202 69.9823 18.1556 70.6249C16.8696 71.5889 15.262 72.2315 13.6544 71.5889C13.0113 70.9463 12.3683 70.6249 11.7252 70.3036C8.18853 67.0906 4.97333 63.5562 1.43661 60.0218C-0.170991 58.4153 -0.492511 56.1661 0.793569 54.2383C1.75813 52.9531 2.72269 51.3465 3.68725 50.0613C4.00877 49.74 4.00877 49.4187 3.68725 48.7761C1.75813 44.2778 1.11509 39.7795 1.11509 35.2812C1.43661 28.5337 3.36573 22.1076 7.22397 16.6453C10.4392 11.8257 14.9404 7.97004 20.0848 5.07828C23.6215 3.15044 27.8012 1.86521 31.6595 1.5439C37.1253 0.579979 41.9481 0.901286 47.0924 2.82913C48.057 3.15044 48.7 3.47174 49.3431 3.79305C49.6646 3.79305 49.9861 3.79305 50.3076 3.79305C51.5937 2.82913 52.8798 1.86521 53.8444 1.22259C55.1304 0.258672 56.738 -0.383942 58.6672 0.258672C59.3102 0.579979 59.9532 0.901286 60.5963 1.5439C64.133 4.75697 67.3482 8.29135 70.5634 11.5044C72.171 13.111 72.4925 15.3601 71.2064 17.288C70.2419 18.5732 69.2773 20.1797 68.3128 21.4649C67.9912 21.7863 67.9912 22.1076 67.9912 22.7502C69.9203 27.2485 70.5634 31.7468 70.5634 36.2451C70.5634 42.9925 68.6343 49.0974 64.776 54.8809C61.5608 59.7005 57.7026 63.2349 52.5583 66.1266C51.9152 66.448 51.9152 66.7693 51.5937 67.4119C50.6292 71.5889 45.4848 73.1954 42.2696 70.6249C41.9481 70.3036 41.3051 69.9823 40.662 70.3036C37.4468 70.9463 33.9101 70.9463 30.6949 70.3036C30.0519 70.3036 29.7304 70.3036 29.4088 70.6249C26.8367 72.8741 22.9784 72.2315 21.0493 69.661C21.0493 69.0184 21.0493 68.6971 20.7278 68.6971ZM52.2368 54.2383C53.5228 53.5957 55.7735 50.7039 56.738 49.0974C59.3102 45.2417 60.5963 40.7434 60.5963 36.2451C60.5963 31.7468 59.6317 27.8911 57.7026 24.0354C55.1304 19.5371 51.5937 16.0027 47.0924 13.7536C41.3051 10.5405 35.5177 10.2192 29.0873 11.8257C27.4797 12.4683 25.8721 13.4323 23.943 14.0749C22.9784 14.3962 22.3354 14.3962 22.0139 13.4323C21.3708 12.7897 21.6924 11.8257 22.6569 11.5044C28.4443 8.29135 34.2316 7.32743 40.662 8.29135C47.414 9.57658 53.2013 12.7897 57.3811 18.2519C62.5254 24.3567 64.4545 31.7468 63.1684 39.4581C62.2039 46.8482 58.6671 52.6317 52.8798 57.4514C52.2368 58.094 51.9152 58.7366 51.9152 59.7005C51.9152 60.6644 51.9152 61.9496 51.9152 63.2349C52.2368 62.9136 52.5583 62.9136 52.5583 62.9136C56.738 60.3431 59.9532 56.8087 62.5254 52.9531C65.0975 48.7761 66.7051 44.2778 67.0267 39.1368C67.6697 33.6746 66.7051 28.2124 64.4545 23.0715C64.133 22.1076 64.133 21.4649 64.776 20.8223C65.0975 20.501 65.4191 20.1797 65.7406 19.8584C66.7051 18.5732 67.6697 17.288 68.3128 16.0027C68.9558 15.0388 68.9558 14.3962 68.3128 13.7536C64.776 10.2192 61.5608 7.00612 58.0241 3.47174C58.0241 2.50782 57.3811 2.50782 56.738 2.82913C56.4165 3.15044 55.7735 3.15044 55.452 3.47174C54.1659 4.43567 52.8798 5.39959 51.5937 6.36351C50.6292 7.00612 49.9861 7.00612 48.7 6.68482C43.2342 4.43567 37.7684 3.47174 31.981 4.43567C26.5152 5.07828 21.6924 6.68482 17.5126 9.89789C9.47461 16.0027 5.29485 24.0354 4.65181 34.3172C4.33029 39.1368 5.29485 43.9564 7.22397 48.4548C7.54549 49.4187 7.54549 50.0613 6.90245 51.0252C5.93789 52.3104 4.65181 53.917 3.68725 55.5235C2.72269 56.8087 3.04421 57.4513 4.00877 58.4153C7.22397 61.6283 10.4392 64.8414 13.3328 67.7332C14.6189 69.0184 15.262 68.6971 16.548 68.0545C17.5126 67.4119 18.4772 66.7693 19.4417 65.8053C19.7632 65.484 19.7632 65.1627 19.7632 65.1627C19.7632 63.2349 19.7632 60.9857 19.7632 59.0579C19.7632 58.7366 19.4417 58.4153 19.4417 58.094C18.1556 57.13 16.8696 55.8448 15.905 54.8809C11.0822 49.74 8.51005 43.3138 8.51005 36.2451C8.51005 33.032 8.83157 29.8189 10.1176 26.9272C10.7607 25.6419 11.0822 24.3567 11.7252 23.0715C12.0468 21.4649 13.0113 21.4649 13.6544 21.7863C14.6189 22.1076 14.9404 23.0715 14.2974 23.7141C14.2974 24.3567 13.9759 24.678 13.6544 24.9993C11.4037 29.4976 10.7607 34.3172 11.7252 39.1368C12.3683 43.6351 14.2974 47.8121 16.8696 51.0252C17.8341 51.9891 18.7987 52.953 19.7632 53.917C19.7632 53.917 19.7632 53.917 20.0848 53.917C20.0848 53.5957 20.0848 53.5957 20.0848 53.2744C20.0848 51.3465 20.0848 49.74 20.0848 47.8121C20.0848 46.8482 20.4063 45.8843 20.7278 44.9204C21.0493 44.2778 21.3708 43.9565 21.6924 43.3138C21.3708 43.3138 21.3708 42.9925 21.0493 42.9925C18.7987 41.386 17.5126 39.4581 17.5126 36.5664C17.1911 32.7107 18.7987 29.4976 21.6924 26.9272C24.2645 24.678 27.8012 24.678 30.3734 26.9272C32.624 28.855 33.5886 31.1042 34.2316 33.6746C34.8747 36.2451 34.5532 38.8155 32.9456 41.0647C32.3025 42.0286 31.338 42.6712 30.3734 43.6351C31.981 45.2417 31.981 47.1695 31.981 49.0974C31.981 52.6317 31.981 55.8448 31.981 59.3792C31.981 60.0218 31.981 60.0218 32.624 60.0218C34.8747 60.3431 37.1253 60.3431 39.6975 60.0218C40.3405 60.0218 40.3405 59.7005 40.3405 59.3792C40.3405 55.5235 40.3405 51.9891 40.3405 48.1334C40.3405 46.8482 40.662 45.563 41.3051 44.5991C41.6266 44.2778 41.6266 43.9564 41.9481 43.6351C41.6266 43.6351 41.6266 43.3138 41.3051 43.3138C39.0544 41.7073 37.7684 39.4581 37.4468 36.5664C37.4468 33.3533 37.4468 30.1402 37.4468 27.2485C37.4468 26.9272 37.4468 26.9272 37.4468 26.6059C37.4468 25.9632 38.0899 25.6419 38.7329 25.6419C39.376 25.6419 40.019 25.9632 40.3405 26.6059C40.3405 26.9272 40.3405 27.2485 40.3405 27.5698C40.3405 29.8189 40.3405 32.0681 40.3405 33.9959C40.3405 34.3172 40.3405 34.3172 40.3405 34.6385C41.6266 34.6385 42.9127 34.6385 44.5203 34.6385C44.5203 34.3172 44.5203 33.9959 44.5203 33.9959C44.5203 31.7468 44.5203 29.8189 44.5203 27.5698C44.5203 27.2485 44.5203 26.9272 44.5203 26.6059C45.1633 25.6419 45.4848 25.3206 46.1279 25.3206C46.7709 25.3206 47.414 25.6419 47.414 26.2846C47.414 26.6059 47.414 26.9272 47.414 27.2485C47.414 29.4976 47.414 31.7468 47.414 33.6746C47.414 33.9959 47.414 33.9959 47.414 34.3172C48.7 34.3172 49.9861 34.3172 51.5937 34.3172C51.5937 33.9959 51.5937 33.6746 51.5937 33.6746C51.5937 31.4255 51.5937 29.1763 51.5937 26.9272C51.5937 26.2846 51.5937 25.9632 52.2368 25.3206C52.8798 25.3206 53.5228 24.9993 53.8444 25.3206C54.4874 25.6419 54.8089 26.2846 54.8089 26.9272C54.8089 29.8189 54.8089 33.032 54.8089 35.9238C54.8089 38.1729 54.1659 40.4221 52.5583 42.0286C51.9152 42.6712 51.2722 42.9925 50.6292 43.6351C52.2368 45.2417 52.2368 47.4908 52.2368 49.74C52.2368 51.0252 52.2368 52.6317 52.2368 54.2383ZM22.9784 56.4874C22.9784 59.7005 22.9784 62.5923 22.9784 65.8053C22.9784 67.7332 25.2291 69.0184 27.1582 68.3758C28.4443 67.7332 29.0873 66.7693 29.0873 65.1627C29.0873 60.9857 29.0873 57.13 29.0873 52.9531C29.0873 51.0252 29.0873 49.0974 29.0873 47.1695C29.0873 46.2056 28.4443 45.2417 27.4797 44.9204C25.5506 43.6351 22.9784 45.2417 22.9784 47.4908C22.9784 50.3826 22.9784 53.5957 22.9784 56.4874ZM49.3431 56.4874C49.3431 53.5957 49.3431 50.3826 49.3431 47.4908C49.3431 45.563 47.414 43.9565 45.4848 44.9204C44.1988 45.2417 43.5557 46.5269 43.5557 48.1334C43.5557 53.917 43.5557 59.7005 43.5557 65.484C43.5557 65.8053 43.5557 66.1266 43.5557 66.1266C43.5557 66.7693 43.8772 67.7332 44.5203 68.0545C45.4848 68.6971 46.4494 69.0184 47.414 68.3758C48.3785 67.7332 49.0216 67.0906 49.0216 65.8053C49.3431 62.5923 49.3431 59.7005 49.3431 56.4874ZM31.6595 35.9238C31.6595 33.9959 30.3734 31.1042 29.0873 29.8189C27.1582 27.8911 25.2291 27.8911 23.3 29.8189C21.6924 31.4255 21.0493 33.3533 20.7278 35.2812C20.4063 38.4942 22.6569 41.386 26.1936 41.7073C29.0873 41.7073 31.6595 39.1368 31.6595 35.9238ZM40.3405 62.9136C39.0544 62.9136 37.4468 63.2349 36.1608 63.2349C34.8747 63.2349 33.5886 63.2349 31.981 62.9136C31.981 64.1988 31.981 65.484 31.981 66.7693C34.8747 67.0906 37.4468 67.0906 40.3405 66.7693C40.3405 65.484 40.3405 64.1988 40.3405 62.9136ZM51.5937 37.5303C48.057 37.5303 44.5203 37.5303 40.9836 37.5303C41.3051 39.7795 43.5557 41.386 46.1279 41.7073C48.7 41.7073 50.9507 39.7795 51.5937 37.5303Z" fill="#B4A49A"/>
</svg>
