<svg width="78" height="79" viewBox="0 0 78 79" fill="none" xmlns="http://www.w3.org/2000/svg">
<path d="M0 72.9089C0.184834 71.986 0.739336 71.4323 1.47867 70.8785C2.77251 69.9556 4.25118 69.771 5.91469 69.771C7.0237 69.771 7.94787 69.9556 9.05687 69.9556C9.24171 69.9556 9.42654 69.9556 9.61137 69.9556C9.98104 68.8481 10.1659 67.7407 10.5355 66.6332C11.6445 62.9416 12.5687 59.0654 13.6777 55.3738C13.8626 55.0047 13.6777 54.8201 13.4929 54.6355C10.9052 52.9743 9.42654 50.5748 8.50237 47.8061C7.39336 44.6682 7.20853 41.5304 7.39336 38.5771C7.5782 34.5164 8.87204 30.4556 10.1659 26.5794C11.8294 21.7804 13.4929 16.9813 15.3412 12.1822C15.3412 11.9977 15.5261 11.9977 15.5261 11.6285C23.1043 13.6589 30.4976 15.8738 38.0758 17.9042C37.891 16.9813 37.7062 16.243 37.5213 15.3201C45.8389 12.9206 54.1564 10.7056 62.4739 8.30608C62.8436 9.41355 63.2133 10.3364 63.5829 11.4439C65.4313 16.6122 67.2796 21.7804 68.9431 27.1332C70.0521 30.4556 70.6066 33.9626 70.6066 37.4696C70.6066 40.7921 70.0521 43.9299 68.5735 46.8832C67.6493 48.729 66.3555 50.2056 64.6919 51.3131C64.3223 51.4977 64.3223 51.6822 64.3223 52.236C65.6161 57.035 66.91 61.8341 68.3886 66.6332C68.3886 66.6332 68.3886 66.8178 68.3886 67.0023C68.7583 67.0023 69.128 66.8178 69.6825 66.8178C71.346 66.6332 73.1943 66.6332 74.8578 67.1869C75.782 67.5561 76.7062 67.9252 77.2607 68.6636C77.4455 69.0327 77.6303 69.4019 78 69.771C70.6066 71.8014 63.3981 73.8318 56.0047 76.0467C55.8199 75.3084 55.8199 74.5701 56.1896 73.8318C56.5592 72.7243 57.2986 71.8014 58.2227 71.0631C59.3318 69.9556 60.8104 69.2173 62.1043 68.6636C62.2891 68.6636 62.2891 68.479 62.4739 68.479C62.4739 68.2944 62.4739 68.2944 62.4739 68.1098C61.1801 63.3108 59.7014 58.5117 58.4076 53.7126C58.4076 53.528 58.2227 53.3435 58.0379 53.3435C55.0806 53.3435 52.4929 52.0514 50.2749 50.2056C48.0569 48.3598 46.3934 45.9603 44.9147 43.3762C43.0663 40.2383 42.1422 36.9159 41.4028 33.4089C40.6635 30.6402 40.109 28.0561 39.5545 25.2874C39.5545 25.1028 39.5545 24.9182 39.3697 24.7336C39 26.3949 38.6303 28.0561 38.2607 29.5327C37.3365 33.2243 36.5972 37.1005 35.4882 40.7921C34.3791 44.4836 32.7156 47.8061 30.3128 50.7593C29.019 52.0514 27.7251 53.528 25.8768 54.4509C24.0284 55.5584 22.1801 56.2967 19.9621 56.2967C19.5924 56.2967 19.4076 56.4813 19.2227 56.8505C17.9289 61.6495 16.6351 66.264 15.1564 71.0631C14.9716 71.4322 15.1564 71.6168 15.5261 71.8014C17.3744 72.5397 19.2227 73.6472 20.5166 75.1238C21.2559 75.8622 21.8104 76.785 21.8104 78.0771C21.8104 78.2617 21.8104 78.6308 21.8104 79C14.6019 76.9696 7.20853 74.9393 0 72.9089ZM17.5592 15.5047C17.5592 15.6893 17.3744 15.6893 17.3744 15.6893C15.7109 20.6729 13.8626 25.472 12.1991 30.4556C10.7204 34.7009 9.98104 39.1308 10.7204 43.7453C11.09 45.9603 11.6445 48.1752 13.1232 49.8364C13.4929 50.2056 13.8626 50.5748 14.2322 51.1285C14.0474 50.2056 13.6777 49.4673 13.4929 48.729C12.9384 46.1449 13.3081 43.5607 13.6777 40.9766C14.4171 36.7313 15.7109 32.6706 17.1896 28.4252C17.3744 28.0561 17.3744 28.0561 17.7441 28.0561C20.1469 28.0561 22.3649 27.8715 24.7678 27.8715C28.0948 27.6869 31.4218 27.6869 34.9336 27.5023C35.3033 27.5023 35.4882 27.5023 35.4882 27.1332C35.4882 26.5794 35.673 26.0257 35.8578 25.6565C36.2275 24.1799 36.4123 22.5187 36.782 21.0421C30.3128 19.1963 23.8436 17.3505 17.5592 15.5047ZM60.4408 12.3668C53.9716 14.2126 47.6872 15.8738 41.218 17.7196C41.4028 18.4579 41.4028 19.0117 41.5877 19.5654C42.6967 24.5491 43.8057 29.7173 44.9147 34.7009C45.8389 38.9463 47.872 42.6379 50.8294 45.7757C51.5687 46.514 52.3081 47.0678 53.0474 47.8061C53.0474 47.8061 53.0474 47.8061 53.2322 47.6215C53.2322 47.6215 53.2322 47.6215 53.2322 47.4369C52.3081 46.1449 51.7536 44.6682 51.1991 43.1916C49.7204 39.1308 48.6114 35.0701 47.872 30.8248C47.5024 28.6098 46.9479 26.3949 46.5782 24.1799C52.6777 24.1799 58.7773 24.1799 65.0616 24.1799C63.3981 20.4883 61.9194 16.4276 60.4408 12.3668Z" fill="#B4A49A"/>
<path d="M49.9052 6.2757C49.7204 6.2757 49.3507 6.2757 49.1659 6.2757C47.3175 6.2757 45.8389 5.3528 45.0995 3.50701C44.9147 3.13785 44.9147 2.58411 44.9147 2.21495C44.9147 1.47664 44.7299 0.738318 43.9905 0.184579C43.436 0 43.0664 0 42.8815 0C42.327 0.184579 41.9573 0.738318 41.7725 1.10748C41.0332 1.84579 40.2938 2.39953 39.1848 2.76869C37.5213 3.32243 36.0427 3.32243 34.3791 2.76869C33.455 2.39953 32.9005 1.84579 32.346 1.10748C32.1611 0.738318 31.6066 0.184579 30.8673 0.184579C30.6825 0.184579 30.3128 0.369159 30.128 0.369159C29.7583 0.553738 29.5735 1.10748 29.5735 1.66121C29.5735 2.39953 29.5735 3.13785 29.5735 3.87617C29.3886 6.09112 28.8341 8.1215 26.9858 9.59813C26.2464 10.1519 26.2464 11.0748 26.8009 11.8131C27.3554 12.3668 28.2796 12.5514 29.019 11.9977C30.3128 10.7056 31.4218 9.22897 31.6066 7.38318C31.7915 6.46028 31.7915 5.53738 31.9763 4.42991C35.673 6.82944 39.1848 6.64486 42.6967 4.06075C42.8815 4.61449 42.8815 5.16822 43.0663 5.53738C43.2512 6.2757 43.6209 7.01402 44.3602 7.56776C45.8389 8.85981 47.6872 9.22897 49.5355 9.04439C50.2749 9.04439 50.8294 8.49065 50.8294 7.75234C51.0142 7.1986 50.6446 6.46028 49.9052 6.2757Z" fill="#B4A49A"/>
</svg>
