<svg width="110" height="45" viewBox="0 0 110 45" fill="none" xmlns="http://www.w3.org/2000/svg">
<path d="M107.602 24.86C107.602 21.602 105.204 18.9364 101.907 17.7517C101.008 17.4555 100.109 17.1593 99.2098 17.1593C98.3106 17.1593 97.1117 16.8632 95.9128 16.567L93.8147 15.9746C92.6158 15.6785 91.7166 15.3823 90.5177 15.0861C88.7193 14.4938 86.921 13.9014 85.4223 12.4205C84.2234 11.532 83.0245 10.6434 81.8256 9.75492C80.6267 8.86638 79.1281 7.68168 77.9292 6.79314C75.8311 5.01608 73.1335 3.5352 69.5368 2.35049C66.2398 1.16578 62.3433 0.573424 58.4469 0.277247C54.8501 -0.0189307 52.1526 0.277247 49.455 0.573424C44.9591 1.16578 41.0627 2.94284 37.4659 5.90461C37.1662 6.20079 36.8665 6.49697 36.5668 6.79314L35.3678 5.90461C34.7684 5.31226 33.8692 4.7199 33.2698 4.42373C29.9728 2.05431 26.9755 0.869601 23.9782 0.277247C20.6812 -0.315108 17.3842 -0.0189306 14.6866 1.75813C12.5886 2.94284 11.0899 3.5352 9.29155 3.83137C8.6921 3.83137 8.09264 3.83137 7.79291 3.83137L0.899183 4.42373L6.59401 6.79314C7.79292 7.3855 8.99183 7.68168 10.7902 7.97785C13.4877 7.97785 15.8856 7.68168 18.5831 6.79314C19.782 6.20079 21.2807 5.90461 22.7793 6.20079C23.079 6.20079 23.6785 6.20079 23.9782 6.49697C23.079 6.49697 22.4796 6.79314 21.8801 7.08932C20.6812 7.3855 19.782 7.97785 18.8828 8.27403C18.2834 8.27403 17.9837 8.27403 17.6839 8.57021C15.8856 9.45874 13.7875 10.0511 11.6894 10.3473C11.3896 10.3473 10.7902 10.3473 10.4905 10.3473C9.89101 10.3473 9.59128 10.3473 8.99183 10.3473L0 11.2358L9.29155 13.6052C9.89101 13.9014 10.4905 13.9014 11.0899 14.1976C14.9864 14.4938 19.1826 14.1976 23.079 13.0129C25.1771 12.4205 27.5749 12.1243 30.2725 12.1243C30.5722 12.1243 31.1717 12.1243 31.4714 12.1243C31.4714 12.1243 31.4714 12.1243 31.4714 12.4205C30.8719 13.6052 30.2725 14.7899 29.673 15.9746L28.1744 18.6402C28.1744 18.9364 27.8747 18.9364 27.8747 19.2326C25.7766 21.3058 24.2779 24.2676 23.9782 27.5255C23.6785 29.895 23.9782 31.9682 25.1771 34.0414C25.4768 34.6338 26.0763 35.5223 26.6757 35.8185C26.9755 39.6688 29.3733 42.6306 32.97 44.1115C34.1689 44.7038 35.6676 45 36.8665 45C38.9646 45 41.0627 44.4076 42.861 42.9268C44.6594 41.4459 46.158 39.3726 46.4578 37.2994V37.8917H49.455C50.3542 37.8917 51.2534 37.8917 52.1526 37.8917L82.4251 38.4841C83.9237 41.7421 86.3215 43.8153 89.9183 44.7038C92.6158 45.2962 95.3133 44.7038 97.7112 42.9268C99.2098 41.7421 100.409 40.5573 101.008 38.7803H102.807C104.305 38.7803 106.104 38.7803 107.602 37.5956C107.902 37.2994 108.202 37.0032 108.202 36.707C108.801 34.93 109.7 32.8567 110 30.7835C110 28.4141 109.401 26.3408 107.602 24.86ZM23.079 3.23902C20.9809 2.94284 19.1826 3.23902 17.3842 3.83137C17.0845 4.12755 16.7847 4.12755 16.1853 4.12755C17.6839 3.23902 19.4823 2.94284 20.9809 2.94284C21.8801 2.94284 22.4796 2.94284 23.079 3.23902C23.3787 3.23902 23.6785 3.23902 23.6785 3.23902C23.6785 3.23902 23.3787 3.23902 23.079 3.23902ZM22.1798 10.3473C21.2807 10.6434 20.3815 10.6434 19.4823 10.9396C19.782 10.9396 19.782 10.6434 20.0817 10.6434C20.9809 10.3473 21.8801 9.75492 22.7793 9.75492C23.9782 9.16256 25.1771 9.16256 26.376 9.16256C27.2752 9.16256 27.8747 9.16256 28.7738 9.45874C26.376 9.45874 24.2779 9.75492 22.1798 10.3473ZM106.703 30.1911C106.403 31.9682 105.804 33.7453 105.204 35.2262C104.905 35.2262 104.605 35.5223 104.305 35.5223C104.605 31.3759 103.106 28.1179 100.109 26.0447C97.4114 24.2676 94.4142 23.9714 91.4169 24.86L86.3215 26.3408L91.4169 27.8217C91.7166 27.8217 92.0163 27.8217 92.6158 28.1179C96.5123 28.7103 99.2098 31.9682 98.6104 35.8185C98.3106 37.5956 97.4114 39.3726 95.6131 40.5573C94.1144 41.7421 92.0163 42.3344 90.218 41.7421C87.5204 41.1497 85.7221 39.6688 84.5232 37.0032C84.2234 35.8185 83.3242 35.5223 82.7248 35.5223L51.8529 34.93C50.9537 34.93 50.3542 34.93 49.455 34.93C49.455 33.1529 49.1553 31.3759 48.2561 29.895C47.0572 28.1179 45.5586 26.637 43.1608 25.4523C40.7629 24.2676 36.8665 23.9714 34.7684 25.4523L31.4714 28.1179H36.5668C40.1635 28.1179 43.1608 30.7835 43.4605 34.0414C43.7602 36.4109 42.861 39.0765 40.7629 40.5573C38.6648 42.0382 36.267 42.3344 33.8692 41.4459C31.1717 40.2612 29.673 38.1879 29.3733 35.2262C29.3733 34.3376 29.0736 33.7453 28.1744 33.4491C27.8747 33.1529 27.5749 32.8567 27.2752 32.2644C26.9755 31.0797 26.6757 29.5988 26.9755 27.8217C27.2752 25.1561 28.1744 23.0829 29.9728 21.3058C30.2725 21.0096 30.5722 20.7135 30.8719 20.1211L32.0708 17.7517C32.6703 16.567 33.2698 15.3823 33.8692 14.1976C34.1689 13.9014 34.4687 13.309 34.7684 13.0129L35.6676 11.532C38.0654 12.4205 40.4632 13.6052 42.861 15.0861L44.6594 15.9746L46.158 13.6052L39.2643 8.57021C39.2643 8.57021 39.564 8.57021 39.564 8.27403C42.861 5.60844 46.4578 4.12755 50.3542 3.5352C52.752 3.23902 55.4496 2.94284 58.7466 3.23902C62.6431 3.5352 65.9401 4.12755 68.9373 5.01608C71.9346 6.20079 74.3324 7.3855 76.4305 8.86638C77.6294 9.75492 79.1281 10.9396 80.327 11.8282C81.5259 12.7167 82.7248 13.6052 83.624 14.4938C85.7221 15.9746 87.5204 17.1593 89.9183 17.7517C90.8174 18.0479 92.0163 18.3441 92.9155 18.6402L95.3133 19.2326C96.5123 19.5288 97.7112 19.8249 99.2098 19.8249C99.8093 19.8249 100.708 20.1211 101.308 20.1211C103.406 20.7135 104.905 22.4905 104.905 24.5638C104.905 25.1561 105.204 25.7485 105.504 26.0447C106.403 27.8217 107.003 28.7103 106.703 30.1911ZM60.545 30.1911L59.6458 32.2644H60.2452L60.545 31.9682H61.4441L61.7439 32.2644H62.3433L61.4441 30.1911H60.545ZM60.545 31.3759L60.8447 30.7835L61.1444 31.3759H60.545ZM53.6512 21.8982C53.3515 21.602 52.752 21.602 52.4523 21.8982C52.1526 22.1944 52.1526 22.4905 51.8529 22.7867C51.8529 23.3791 51.8529 23.9714 51.8529 24.86C51.8529 25.1561 51.8529 25.4523 51.8529 26.0447C51.8529 26.637 51.8529 26.9332 52.1526 27.5255C52.1526 27.8217 52.4523 28.1179 52.4523 28.1179C52.752 28.4141 53.0518 28.4141 53.3515 28.1179C53.6512 27.8217 53.6512 27.5255 53.951 27.2294C54.2507 25.7485 54.2507 24.2676 53.951 22.7867C54.2507 22.4905 53.951 22.1944 53.6512 21.8982ZM53.6512 26.637C53.6512 26.9332 53.6512 27.2294 53.3515 27.5255C53.0518 26.9332 53.0518 26.637 53.0518 26.0447C53.0518 25.1561 53.0518 24.5638 53.0518 23.6752C53.0518 23.3791 53.0518 23.0829 53.0518 23.0829C53.0518 22.7867 53.0518 22.7867 53.3515 22.4905L53.6512 22.7867C53.6512 23.3791 53.951 23.6752 53.951 24.2676C53.6512 24.86 53.6512 25.7485 53.6512 26.637ZM50.3542 27.5255C50.6539 27.5255 50.6539 27.8217 50.3542 28.1179C50.3542 28.4141 50.0545 28.4141 49.7548 28.4141C49.455 28.4141 49.455 28.1179 49.1553 27.8217C48.8556 27.2294 48.8556 26.9332 48.5559 26.3408C48.5559 26.0447 48.5559 26.0447 48.2561 25.7485C48.2561 26.0447 48.2561 26.3408 48.2561 26.637C48.2561 26.9332 48.2561 27.5255 48.2561 27.8217V28.1179L47.9564 28.4141C47.9564 28.4141 47.6567 28.4141 47.6567 28.1179C47.6567 27.8217 47.6567 27.5255 47.6567 26.9332C47.6567 25.1561 47.6567 23.6752 47.6567 21.8982C47.6567 21.602 47.9564 21.602 47.9564 21.602C48.2561 21.602 48.2561 21.8982 48.2561 21.8982C48.2561 22.1944 48.2561 22.4905 48.2561 22.7867C48.2561 22.4905 48.5559 22.1944 48.5559 21.8982C48.8556 21.602 49.1553 21.3058 49.455 21.3058C49.7548 21.3058 49.7548 21.3058 49.7548 21.602C49.7548 21.8982 49.7548 21.8982 49.455 21.8982C49.1553 21.8982 49.1553 21.8982 49.1553 22.1944C49.1553 22.4905 48.8556 22.7867 48.8556 22.7867C48.5559 23.0829 48.5559 23.6752 48.2561 23.9714C48.8556 24.2676 48.8556 25.1561 49.1553 25.7485C50.0545 26.637 50.0545 26.9332 50.3542 27.5255C50.0545 27.2294 50.3542 27.5255 50.3542 27.5255ZM57.8474 31.0797L58.7466 32.2644H58.1471L57.5477 31.3759V32.2644H56.9482V30.1911H57.5477V31.0797L58.1471 30.1911H58.7466L57.8474 31.0797ZM56.9482 27.8217C56.9482 25.7485 56.9482 24.2676 56.9482 22.4905C56.9482 22.4905 56.9482 22.4905 56.9482 22.1944C56.6485 22.1944 56.6485 22.1944 56.3488 22.1944C56.049 22.1944 56.049 21.8982 56.049 21.8982C56.049 21.602 56.3488 21.602 56.3488 21.602C56.9482 21.602 57.5477 21.602 58.1471 21.602C58.4469 21.602 58.4469 21.8982 58.4469 21.8982C58.4469 22.1944 58.1471 22.1944 58.1471 22.1944C58.1471 22.1944 57.8474 22.1944 57.5477 22.1944V22.4905C57.5477 24.2676 57.5477 25.7485 57.5477 27.5255C57.5477 27.5255 57.5477 27.5255 57.5477 27.8217C57.5477 28.1179 57.248 28.1179 57.248 28.1179C56.9482 28.1179 56.9482 28.1179 56.9482 27.8217ZM72.2343 17.4555C71.9346 18.3441 71.0354 17.4555 70.7357 17.4555C69.5368 17.1593 68.0381 17.4555 67.7384 18.0479C67.4387 18.6402 67.4387 18.9364 66.8392 19.2326C65.94 20.1211 64.4414 19.8249 63.5422 19.8249C62.0436 19.8249 58.1471 20.1211 57.248 19.8249C57.248 19.2326 57.248 19.5288 57.5477 19.2326C56.9482 18.6402 56.9482 18.9364 56.3488 18.0479C56.049 17.7517 55.7493 16.8632 55.7493 16.2708C56.3488 15.3823 57.248 17.1593 58.1471 16.8632C59.0463 16.2708 57.248 15.9746 58.4469 14.1976C59.0463 13.309 59.6458 13.309 59.6458 11.532C59.0463 11.2358 58.1471 10.9396 57.5477 10.6434C56.9482 10.3473 56.3488 9.45874 56.9482 9.16256C56.6485 8.57021 56.3488 7.97785 56.6485 7.08932C57.248 7.3855 57.8474 7.3855 58.4469 7.68168C59.0463 7.97785 59.9455 8.27403 60.2452 8.27403C61.1444 8.27403 61.7439 8.27403 62.3433 7.97785C62.643 7.97785 63.2425 7.97785 63.5422 7.97785C63.842 7.97785 64.1417 7.97785 64.4414 7.68168C64.4414 8.27403 64.4414 8.57021 64.4414 8.86638C64.1417 9.45874 64.1417 9.16256 63.842 9.45874C64.1417 9.75492 64.4414 9.75492 64.4414 10.3473C64.4414 10.6434 63.842 10.9396 63.5422 10.9396C63.2425 10.9396 62.643 11.2358 62.3433 11.2358C62.0436 11.2358 61.1444 11.2358 61.1444 11.532C60.8447 11.8282 61.1444 12.4205 61.4441 12.7167C62.0436 13.6052 62.3433 14.1976 62.3433 15.0861C62.3433 15.3823 62.643 15.6785 62.643 16.2708C63.2425 16.2708 63.2425 15.9746 63.842 16.2708C64.1417 16.2708 64.4414 16.8632 64.4414 17.1593C64.4414 17.7517 64.1417 18.0479 64.1417 18.3441C63.842 18.6402 63.5422 18.9364 63.5422 19.2326C64.7411 19.5288 65.9401 19.5288 66.5395 18.3441C67.139 16.8632 66.8392 16.2708 68.0381 15.6785C69.8365 14.7899 72.5341 16.567 72.2343 17.4555ZM61.7439 21.8982C61.4441 21.3058 60.8447 21.3058 60.2452 21.8982C59.9455 22.1944 59.9455 22.7867 59.9455 23.0829C59.9455 23.6752 59.9455 23.9714 59.9455 24.5638C59.9455 25.1561 59.9455 25.7485 59.9455 26.3408C59.9455 26.9332 60.2452 27.5255 60.545 27.8217C60.8447 28.1179 61.4441 28.1179 61.7439 27.8217C62.0436 27.5255 62.0436 27.2294 62.0436 26.9332C62.3433 25.7485 62.3433 24.5638 62.0436 23.3791C62.0436 22.7867 62.0436 22.4905 61.7439 21.8982ZM61.4441 25.4523C61.4441 26.0447 61.4441 26.637 61.1444 27.2294C61.1444 27.2294 61.1444 27.5255 60.8447 27.5255C60.545 26.9332 60.545 26.637 60.545 26.0447C60.545 25.1561 60.545 24.5638 60.545 23.6752C60.545 23.3791 60.545 23.0829 60.545 23.0829C60.545 22.7867 60.545 22.7867 60.8447 22.4905C61.1444 22.7867 61.1444 23.0829 61.1444 23.0829C61.4441 23.9714 61.4441 24.5638 61.4441 25.4523ZM70.7357 22.4905C70.7357 23.3791 70.7357 23.9714 70.7357 24.5638C71.0354 24.5638 71.0354 24.5638 71.3351 24.5638C71.6349 24.5638 71.9346 24.86 71.9346 24.86C71.9346 25.1561 71.6349 25.1561 71.3351 25.1561C71.0354 25.1561 71.0354 25.1561 70.7357 25.1561C70.7357 25.7485 70.7357 26.637 70.7357 27.2294C71.0354 27.2294 71.3351 27.2294 71.6349 27.2294C71.9346 27.2294 72.2343 27.5255 72.2343 27.5255C72.2343 27.8217 71.9346 27.8217 71.6349 27.8217C71.0354 27.8217 70.7357 27.8217 70.1362 27.8217C69.8365 27.8217 69.8365 27.5255 69.8365 27.5255C69.8365 26.0447 69.8365 24.5638 69.8365 23.3791C69.8365 22.7867 69.8365 22.1944 69.8365 21.8982C69.8365 21.602 70.1362 21.602 70.1362 21.602C70.7357 21.602 71.0354 21.602 71.6349 21.602C71.9346 21.602 71.9346 21.8982 71.9346 21.8982C71.9346 22.1944 71.6349 22.1944 71.6349 22.1944C71.3351 22.4905 71.0354 22.4905 70.7357 22.4905ZM76.1308 22.4905C76.1308 24.2676 76.1308 26.0447 76.1308 27.8217C76.1308 28.1179 75.8311 28.1179 75.8311 28.1179C75.5313 28.1179 75.5313 27.8217 75.5313 27.8217C75.5313 27.2294 75.5313 26.3408 75.5313 25.7485C75.5313 25.4523 75.5313 25.1561 75.5313 24.86C75.5313 25.1561 75.2316 25.7485 75.2316 26.0447C74.9319 26.637 74.6321 27.2294 74.3324 27.8217C74.3324 28.1179 74.0327 28.1179 73.733 28.1179C73.4332 28.1179 73.4332 27.8217 73.4332 27.8217C73.4332 26.9332 73.4332 26.0447 73.4332 25.1561C73.4332 23.9714 73.4332 23.0829 73.4332 21.8982C73.4332 21.602 73.4332 21.602 73.733 21.3058C74.0327 21.3058 74.0327 21.3058 74.0327 21.602C74.0327 22.1944 74.0327 22.4905 74.0327 23.0829C74.0327 23.6752 74.0327 23.9714 74.0327 24.5638V24.2676C74.3324 23.3791 74.3324 22.7867 74.6321 21.8982V21.602C74.9319 21.3058 75.2316 21.602 75.2316 21.8982C76.1308 22.1944 76.1308 22.4905 76.1308 22.4905ZM75.5313 21.602C75.2316 21.602 75.2316 21.602 74.9319 21.602C74.6321 21.602 74.3324 21.3058 74.0327 21.3058C74.0327 21.3058 74.0327 21.0096 74.0327 20.7135C74.0327 20.7135 74.3324 20.4173 74.6321 20.7135H74.9319C75.2316 20.7135 75.2316 20.7135 75.5313 20.7135C75.8311 21.0096 75.8311 21.3058 75.5313 21.602ZM67.139 30.1911H68.3379V30.4873H67.7384V30.7835H68.3379V31.0797H67.7384V31.672H68.3379V31.9682H67.139V30.1911ZM64.7411 30.1911L64.1417 29.895V30.1911C64.1417 30.1911 63.5422 30.1911 63.5422 30.4873C63.5422 30.4873 63.2425 30.7835 63.2425 31.0797C63.2425 31.3759 63.2425 31.672 63.5422 31.672C63.842 31.9682 64.1417 31.9682 64.1417 31.9682V32.2644H64.7411V31.9682C64.7411 31.9682 65.3406 31.9682 65.3406 31.672C65.3406 31.672 65.6403 31.3759 65.6403 31.0797C65.6403 30.7835 65.6403 30.4873 65.3406 30.4873C65.0409 30.4873 64.7411 30.1911 64.7411 30.1911ZM64.1417 31.672H63.842V31.3759C63.842 31.0797 63.842 31.0797 63.842 31.0797H64.1417V31.672ZM65.0409 31.3759H64.7411V30.4873H65.0409V30.7835C65.0409 31.3758 65.0409 31.3759 65.0409 31.3759ZM67.7384 26.637C68.0381 25.7485 68.0381 24.86 68.0381 23.9714C68.0381 23.3791 68.0381 23.0829 67.7384 22.4905C67.4387 22.1944 67.139 21.602 66.5395 21.8982V21.602C66.5395 21.3058 66.2398 21.3058 66.2398 21.3058C65.9401 21.3058 65.9401 21.3058 65.9401 21.8982C65.6403 21.602 65.0409 21.8982 64.7411 22.1944C64.7411 22.4905 64.4414 22.4905 64.4414 22.7867C64.1417 23.6752 64.1417 24.86 64.4414 25.7485C64.4414 26.3408 64.7411 26.637 65.0409 26.9332C65.3406 27.2294 65.6403 27.2294 65.9401 27.2294C65.9401 27.5255 66.2398 27.8217 66.2398 27.8217C66.5395 27.8217 66.5395 27.8217 66.5395 27.2294C66.8392 27.2294 67.139 27.2294 67.4387 26.9332C67.7384 27.2294 67.7384 26.9332 67.7384 26.637ZM65.3406 26.9332C65.0409 26.9332 65.0409 26.9332 65.3406 26.9332C65.0409 26.637 64.7411 26.3408 64.7411 26.0447C64.7411 25.1561 64.7411 24.2676 64.7411 23.3791V23.0829C64.7411 22.7867 65.0409 22.7867 65.0409 23.0829C65.3406 23.3791 65.3406 23.3791 65.3406 23.6752C65.3406 23.9714 65.3406 24.5638 65.3406 24.86C65.3406 25.1561 65.3406 25.4523 65.3406 26.0447C65.6403 26.3408 65.3406 26.637 65.3406 26.9332ZM67.139 26.3408C67.139 26.637 67.139 26.637 66.8392 26.9332H66.5395C66.2398 26.637 66.2398 26.3408 66.2398 26.0447C66.2398 25.7485 66.2398 25.1561 66.2398 24.86C66.2398 24.5638 66.2398 24.2676 66.2398 23.6752C66.2398 23.3791 66.2398 23.0829 66.5395 22.7867C66.5395 22.4905 66.8392 22.4905 66.8392 22.7867C66.8392 23.0829 67.139 23.3791 67.139 23.6752C67.139 24.5638 67.139 25.4523 67.139 26.3408Z" fill="#B4A49A"/>
</svg>
