<?xml version="1.0" standalone="no"?>
<!DOCTYPE svg PUBLIC "-//W3C//DTD SVG 1.1//EN" "http://www.w3.org/Graphics/SVG/1.1/DTD/svg11.dtd" >
<svg xmlns="http://www.w3.org/2000/svg" xmlns:xlink="http://www.w3.org/1999/xlink" version="1.1">
<metadata>
Created by FontForge 20170731 at Thu Apr 29 21:54:03 2010
 By Aleksey,,,
Copyright 1993 DoubleAlex Team. All rights reserved.
</metadata>
<defs>
<font id="FavoritC-BoldItalic" horiz-adv-x="686" >
  <font-face 
    font-family="FavoritC"
    font-weight="700"
    font-style="italic"
    font-stretch="normal"
    units-per-em="1000"
    panose-1="2 0 5 3 5 0 0 2 0 4"
    ascent="800"
    descent="-200"
    x-height="513"
    cap-height="754"
    bbox="-36 -256 1471.72 1078"
    underline-thickness="50"
    underline-position="-150"
    slope="-11"
    unicode-range="U+0020-2265"
  />
<missing-glyph horiz-adv-x="1000" 
 />
    <glyph glyph-name=".notdef" horiz-adv-x="1000" 
 />
    <glyph glyph-name=".null" horiz-adv-x="0" 
 />
    <glyph glyph-name="nonmarkingreturn" horiz-adv-x="343" 
 />
    <glyph glyph-name="space" unicode=" " horiz-adv-x="343" 
 />
    <glyph glyph-name="exclam" unicode="!" horiz-adv-x="384" 
d="M217 754h189l-78 -498h-189zM226 214q24 0 44 -9t33.5 -25t19 -37.5t1.5 -45.5t-16.5 -45.5t-30.5 -37t-41 -25t-47 -9.5t-44 9.5t-33.5 25t-19.5 37t-2 45.5t16.5 45.5t31 37.5t41.5 25t47 9z" />
    <glyph glyph-name="quotedbl" unicode="&#x22;" horiz-adv-x="500" 
d="M572 754l-79 -331h-116l25 331h170zM336 754l-79 -331h-116l25 331h170z" />
    <glyph glyph-name="numbersign" unicode="#" 
d="M332 286h102l46 124h-104zM486 726l-71 -203h101l71 203h105l-71 -203h80l-18 -113h-98l-44 -124h94l-18 -113h-118l-60 -173h-106l60 173h-101l-60 -173h-106l60 173h-91l18 113h113l44 124h-96l18 113h117l71 203h106z" />
    <glyph glyph-name="dollar" unicode="$" 
d="M188 238q15 -16 33.5 -31t40.5 -27t45.5 -19t47.5 -7q16 0 33.5 4.5t32.5 13.5t26 23t14 32q3 21 -8 34.5t-31.5 23t-47.5 18t-55 19.5q-27 11 -53 26t-44.5 37.5t-27 54.5t-1.5 78q7 44 28.5 85t53 73.5t72.5 53t87 23.5l19 121h93l-19 -121q47 -5 92 -18.5t81 -39.5
l-97 -145q-23 22 -54 35.5t-66 13.5q-33 0 -61 -13t-33 -43q-3 -17 5.5 -30t22.5 -22t30 -15.5t28 -10.5q40 -14 77 -30.5t63 -41t38 -60t4 -87.5q-8 -53 -29 -93t-53 -69.5t-74 -49.5t-93 -32l-19 -125h-93l18 119q-33 0 -64 6.5t-61 18.5q-29 12 -57.5 27.5t-49.5 38.5z
" />
    <glyph glyph-name="percent" unicode="%" horiz-adv-x="975" 
d="M791 259q-18 0 -34.5 -6.5t-29.5 -18t-22 -27t-12 -33.5q-6 -35 15 -59.5t56 -24.5q18 0 34.5 6.5t30 18t22.5 26.5t12 33q5 35 -16 60t-56 25zM807 359q42 0 77.5 -11.5t60 -35t35.5 -57.5t4 -79q-7 -46 -28.5 -80.5t-53.5 -58t-71.5 -35.5t-82.5 -12t-78.5 12
t-59.5 35.5t-34.5 58t-3.5 80.5q7 45 29 79t53.5 57.5t71 35t81.5 11.5zM874 754l-557 -754h-98l557 754h98zM330 664q-18 0 -34.5 -6.5t-29.5 -18t-22 -27t-12 -33.5q-6 -35 15 -59.5t56 -24.5q18 0 34.5 6.5t30 18t22.5 26.5t12 33q5 35 -16 60t-56 25zM346 764
q42 0 77.5 -11.5t60 -35t35.5 -57.5t4 -79q-7 -46 -28.5 -80.5t-53 -58t-71 -35.5t-82.5 -12t-79 12t-60 35.5t-34.5 58t-3.5 80.5q7 45 29 79t53.5 57.5t71 35t81.5 11.5z" />
    <glyph glyph-name="ampersand" unicode="&#x26;" horiz-adv-x="848" 
d="M549 70q-63 -38 -133 -64t-139 -26q-49 0 -90.5 14.5t-70.5 42t-42 67.5t-5 92q7 42 24 74.5t42 57.5t58 44t71 34l20 8l-13 22q-7 12 -14.5 25.5t-13 29t-7.5 34.5t2 42q7 49 33 87.5t62.5 65t81.5 40.5t90 14t85.5 -14t69 -40t42.5 -64.5t6 -86.5q-6 -35 -21 -62.5
t-37.5 -49t-50.5 -38t-60 -31.5l80 -100q32 25 61 51t55 56l94 -106l-111 -102l-11 -9l141 -178h-245zM469 479q28 14 53.5 37.5t30.5 54.5q5 29 -9.5 49.5t-44.5 20.5q-26 0 -47 -17t-26 -45q-2 -14 1.5 -27.5t10 -26.5t15 -24.5t16.5 -21.5zM362 315q-13 -8 -27 -17
t-26 -20t-21 -24t-11 -29q-3 -17 3 -30t16.5 -21.5t25 -13t29.5 -4.5q28 0 56 8.5t54 22.5z" />
    <glyph glyph-name="quotesingle" unicode="'" horiz-adv-x="250" 
d="M329 754l-79 -331h-116l25 331h170z" />
    <glyph glyph-name="parenleft" unicode="(" horiz-adv-x="352" 
d="M418 728q-39 -50 -69.5 -105t-53.5 -113.5t-39 -118t-25 -117.5q-9 -54 -11.5 -114t2 -120t17.5 -116.5t36 -101.5l-119 -62q-31 51 -48.5 116t-23.5 135t-3 141t13 134q10 62 29.5 129.5t48 134t65.5 128t82 112.5z" />
    <glyph glyph-name="parenright" unicode=")" horiz-adv-x="352" 
d="M283 790q29 -51 46.5 -112.5t25 -128t5.5 -134t-12 -129.5q-10 -63 -29 -134t-47.5 -141t-66 -135t-85.5 -116l-99 62q37 45 67.5 101.5t54 116.5t39.5 120t25 114q9 58 12 117.5t-1.5 118t-17.5 113.5t-36 105z" />
    <glyph glyph-name="asterisk" unicode="*" horiz-adv-x="483" 
d="M405 754l-22 -107l98 56l33 -76l-103 -50l86 -52l-57 -75l-79 57l-12 -101h-90l22 100l-93 -54l-33 76l98 50l-85 51l58 76l78 -55l11 104h90z" />
    <glyph glyph-name="plus" unicode="+" 
d="M349 513h150l-28 -181h181l-24 -150h-181l-29 -182h-150l29 182h-181l24 150h181z" />
    <glyph glyph-name="comma" unicode="," horiz-adv-x="343" 
d="M353 191l-236 -332h-117l182 332h171z" />
    <glyph glyph-name="hyphen" unicode="-" horiz-adv-x="392" 
d="M402 396l-24 -150h-286l24 150h286z" />
    <glyph glyph-name="hyphen" unicode="&#xad;" horiz-adv-x="392" 
d="M402 396l-24 -150h-286l24 150h286z" />
    <glyph glyph-name="period" unicode="." horiz-adv-x="343" 
d="M206 214q24 0 44 -9t33.5 -25t19 -37.5t1.5 -45.5t-16.5 -45.5t-30.5 -37t-41 -25t-47 -9.5t-44 9.5t-33.5 25t-19.5 37t-2 45.5t16.5 45.5t31 37.5t41.5 25t47 9z" />
    <glyph glyph-name="slash" unicode="/" horiz-adv-x="579" 
d="M683 830l-528 -923h-143l528 923h143z" />
    <glyph glyph-name="zero" unicode="0" 
d="M440 611q-38 0 -66.5 -26t-48.5 -63t-31.5 -77t-15.5 -67q-3 -18 -4.5 -42.5t-0.5 -50.5t6.5 -51.5t16 -45.5t28 -32.5t42.5 -12.5q38 0 66.5 26.5t48 63.5t31 77.5t16.5 67.5q4 27 5 67t-7 77t-28 63t-58 26zM467 784q84 0 139 -36t85 -94t37 -131t-5 -146
q-12 -74 -42 -146.5t-78 -130.5t-114.5 -94t-150.5 -36t-139 36t-84.5 94t-36.5 130.5t5 146.5q12 73 42 146t78 131t114 94t150 36z" />
    <glyph glyph-name="one" unicode="1" 
d="M254 588l26 166h304l-119 -754h-196l93 588h-108z" />
    <glyph glyph-name="two" unicode="2" 
d="M665 166l-26 -166h-606l361 335q19 18 38 39.5t35 45t27 49t15 51.5q3 18 -0.5 35.5t-12.5 31.5t-23.5 22.5t-33.5 8.5q-40 0 -65.5 -27t-31.5 -65q-1 -8 -1.5 -16t-0.5 -16h-216q13 65 42.5 118.5t73.5 91.5t100.5 59t123.5 21q59 0 109 -19t84.5 -53.5t50 -84.5
t5.5 -111q-6 -41 -20 -73.5t-34 -61t-46.5 -54t-59.5 -52.5l-135 -109h247z" />
    <glyph glyph-name="three" unicode="3" 
d="M158 537q16 60 45.5 105t71.5 77t93 48.5t109 16.5q51 0 92.5 -14.5t69.5 -42t40 -68.5t4 -94q-8 -45 -33 -88.5t-70 -66.5q29 -8 49 -28t31 -46t14 -56.5t-1 -59.5q-10 -62 -42 -108.5t-78 -78t-101.5 -47.5t-111.5 -16q-65 0 -119 19t-92 66q-14 17 -26.5 39.5
t-20.5 48t-11 51.5t2 51h200q-4 -23 0.5 -42.5t16.5 -33.5t30 -22.5t41 -8.5q45 0 79 27.5t42 73.5q3 21 -2.5 39.5t-17.5 32t-29.5 21.5t-38.5 8q-9 0 -18 -2t-17 -4l21 131h20q38 0 65.5 22t33.5 61q5 35 -13.5 55.5t-51.5 20.5q-38 0 -63.5 -25t-30.5 -62h-182z" />
    <glyph glyph-name="four" unicode="4" 
d="M476 596h-2l-222 -290h178zM703 306l-23 -150h-91l-25 -156h-182l25 156h-366l20 125l365 473h257l-71 -448h91z" />
    <glyph glyph-name="five" unicode="5" horiz-adv-x="689" 
d="M397 588l-26 -86l62 5q58 5 104 -14.5t76 -57t42 -89t3 -109.5q-9 -60 -43 -113t-87 -91q-51 -36 -112 -49.5t-118 -13.5q-65 0 -125 16.5t-110 51.5l58 185q38 -39 88 -63t109 -24q23 0 46 8t42 22.5t32 35t17 45.5q6 34 -5 58.5t-32 40t-49.5 23t-57.5 7.5
q-38 0 -75.5 -7.5t-73.5 -23.5l130 409h392l-26 -166h-261z" />
    <glyph glyph-name="six" unicode="6" 
d="M358 124q26 0 49.5 10t42 27t31.5 39.5t17 48.5q4 25 -1.5 47.5t-19 39.5t-34 26.5t-46.5 9.5t-50 -9.5t-43.5 -26.5t-33 -39.5t-17.5 -47.5q-4 -26 2.5 -48.5t20.5 -39.5t35 -27t47 -10zM647 754l-254 -255l2 -2q27 11 53 17t55 6q55 0 96.5 -22t67 -59t35 -84.5
t1.5 -99.5q-11 -69 -46 -122.5t-85 -89.5t-112 -54.5t-126 -18.5q-55 0 -110.5 15t-93.5 50q-40 38 -59.5 93t-9.5 114q6 41 22.5 81t39 78t50 73.5t57.5 67.5l195 212h222z" />
    <glyph glyph-name="seven" unicode="7" 
d="M164 588l26 166h619l-552 -754h-215l437 588h-315z" />
    <glyph glyph-name="eight" unicode="8" 
d="M467 784q48 0 92.5 -13.5t76 -40t47.5 -67t7 -94.5q-5 -30 -18 -57t-32.5 -49.5t-44 -39t-51.5 -25.5v-2q64 -23 97 -73t21 -125q-9 -59 -42.5 -101.5t-80 -71t-99.5 -42t-102 -13.5t-97.5 13.5t-86 42t-57.5 71t-11 101.5q12 75 61 125t121 73v2q-24 9 -43.5 25.5
t-32 39t-17 49.5t0.5 57q9 54 37 94.5t68.5 67t89 40t96.5 13.5zM393 317q-38 0 -68 -27.5t-37 -66.5q-3 -19 1.5 -36t15 -29.5t25.5 -19.5t34 -7t36.5 7t31.5 19.5t23.5 29.5t12.5 36t-1 36.5t-14.5 30t-25.5 20t-34 7.5zM446 648q-17 0 -33.5 -6.5t-29.5 -18t-22 -27
t-12 -33.5q-5 -35 15 -60t55 -25q17 0 33.5 6.5t29.5 18t21.5 27t11.5 33.5q6 35 -14 60t-55 25z" />
    <glyph glyph-name="nine" unicode="9" 
d="M448 629q-26 0 -49.5 -9.5t-42.5 -26.5t-32 -39.5t-17 -48.5t1.5 -48.5t19 -39.5t34 -26.5t46.5 -9.5t50.5 9.5t44 26.5t33 39.5t17.5 48.5t-2 48.5t-20.5 39.5t-35.5 26.5t-47 9.5zM158 0l255 254l-1 2q-28 -11 -54 -17t-56 -6q-56 0 -97 22t-66.5 59t-35 85t-1.5 100
q11 69 46 122.5t85 89.5t111.5 54.5t126.5 18.5q27 0 55.5 -3.5t55.5 -11.5t51 -20t43 -30q40 -37 58.5 -92.5t9.5 -115.5q-6 -41 -22.5 -81t-39 -78t-50 -73.5t-57.5 -67.5l-194 -211h-223z" />
    <glyph glyph-name="colon" unicode=":" horiz-adv-x="343" 
d="M259 551q24 0 44 -9t33.5 -25t19.5 -37.5t2 -45.5t-16.5 -45.5t-31 -37t-41.5 -25t-47 -9.5t-44 9.5t-33 25t-19 37t-2 45.5t16.5 45.5t30.5 37.5t41 25t47 9zM206 214q24 0 44 -9t33.5 -25t19 -37.5t1.5 -45.5t-16.5 -45.5t-30.5 -37t-41 -25t-47 -9.5t-44 9.5t-33.5 25
t-19.5 37t-2 45.5t16.5 45.5t31 37.5t41.5 25t47 9z" />
    <glyph glyph-name="semicolon" unicode=";" horiz-adv-x="343" 
d="M305 551q24 0 44 -9t33.5 -25t19.5 -37.5t2 -45.5t-16.5 -45.5t-31 -37t-41.5 -25t-47 -9.5t-44 9.5t-33 25t-19 37t-2 45.5t16.5 45.5t30.5 37.5t41 25t47 9zM339 191l-236 -332h-117l182 332h171z" />
    <glyph glyph-name="semicolon" unicode="&#x37e;" horiz-adv-x="343" 
d="M305 551q24 0 44 -9t33.5 -25t19.5 -37.5t2 -45.5t-16.5 -45.5t-31 -37t-41.5 -25t-47 -9.5t-44 9.5t-33 25t-19 37t-2 45.5t16.5 45.5t30.5 37.5t41 25t47 9zM339 191l-236 -332h-117l182 332h171z" />
    <glyph glyph-name="less" unicode="&#x3c;" 
d="M149 317l518 182l-24 -150l-288 -91v-2l259 -91l-24 -150l-460 182z" />
    <glyph glyph-name="equal" unicode="=" 
d="M633 212l-24 -150h-512l24 150h512zM671 452l-24 -150h-512l24 150h512z" />
    <glyph glyph-name="greater" unicode="&#x3e;" 
d="M619 197l-518 -182l24 150l289 91v2l-260 91l24 150l460 -182z" />
    <glyph glyph-name="question" unicode="?" horiz-adv-x="595" 
d="M315 214q24 0 44 -9t33.5 -25t19 -37.5t1.5 -45.5t-16.5 -45.5t-30.5 -37t-41 -25t-47 -9.5t-44 9.5t-33.5 25t-19.5 37t-2 45.5t16.5 45.5t31 37.5t41.5 25t47 9zM257 446q22 -5 41 -5q21 0 45 6t45 18.5t36 31t19 43.5q5 31 -12.5 53t-49.5 22q-35 0 -56 -22t-26 -54
h-199q9 57 39.5 101t73 73.5t94.5 45t105 15.5q48 0 90.5 -15t74.5 -47t49 -77.5t9 -95.5q-7 -42 -26.5 -76.5t-48 -61.5t-64.5 -46.5t-76 -31.5l-11 -71h-183z" />
    <glyph glyph-name="at" unicode="@" horiz-adv-x="740" 
d="M591 310q-3 -9 -7.5 -21t-6 -22.5t1.5 -17t14 -5.5q13 1 32 16.5t37 39.5t33.5 54.5t22.5 63.5q13 63 1 112t-43.5 82.5t-79 50.5t-104.5 17q-63 0 -119 -22.5t-100 -63t-74 -96t-40 -121.5q-11 -69 3.5 -125t48.5 -95.5t86 -61t116 -21.5q63 0 111 12.5t74 27.5l72 -66
q-57 -27 -128 -47.5t-152 -20.5t-146.5 30t-110 83t-63.5 125.5t-5 158.5q13 85 54.5 157.5t101.5 125.5t134.5 83.5t154.5 30.5q66 0 122 -21t99 -66q44 -45 65 -103.5t10 -130.5q-10 -63 -35 -118t-61 -95q-44 -48 -88 -69t-80 -19q-21 1 -36 17.5t-17 40.5
q-23 -23 -57.5 -40.5t-79.5 -17.5q-33 0 -61 14.5t-47 40t-27.5 59t-2.5 72.5q7 46 28.5 89.5t53.5 77t72.5 54t87.5 20.5q38 0 67 -15t46 -47l18 53h95zM336 354q-6 -37 9 -64.5t52 -27.5q23 0 41.5 10t32.5 26t23.5 35.5t14.5 38.5q12 43 -4 70t-53 27q-21 0 -40.5 -10
t-35.5 -26.5t-26.5 -37t-13.5 -41.5z" />
    <glyph glyph-name="A" unicode="A" horiz-adv-x="781" 
d="M476 521h-2l-119 -240h163zM277 131l-73 -131h-208l409 754h214l165 -754h-209l-28 131h-270z" />
    <glyph glyph-name="B" unicode="B" horiz-adv-x="677" 
d="M333 458h22q19 0 38.5 2.5t35.5 10t27.5 22t15.5 38.5q4 26 -4 40.5t-23 22t-35 9t-40 1.5h-14zM64 0l119 754h280q50 0 89.5 -10.5t65.5 -33.5t36 -60.5t2 -91.5q-8 -51 -32.5 -91t-74.5 -63v-2q79 -11 107.5 -62t15.5 -130q-9 -59 -39 -99.5t-72 -65t-92.5 -35
t-102.5 -10.5h-302zM284 150h25q22 0 49 1t52 8t43.5 23.5t23.5 47.5q6 34 -7.5 51t-37 24t-51.5 7h-52h-20z" />
    <glyph glyph-name="C" unicode="C" horiz-adv-x="660" 
d="M682 501q-23 41 -65.5 62t-93.5 21q-45 0 -84.5 -16t-70.5 -44.5t-51.5 -66.5t-27.5 -82q-7 -45 2 -82.5t31.5 -64.5t57.5 -42.5t81 -15.5q48 0 96.5 21.5t85.5 58.5l-38 -235q-51 -15 -91.5 -25t-86.5 -10q-79 0 -147 28.5t-119 82.5q-54 57 -71.5 128.5t-3.5 156.5
q12 78 51.5 149t102.5 127q65 57 146 89.5t161 32.5q48 0 89.5 -10t83.5 -28z" />
    <glyph glyph-name="D" unicode="D" horiz-adv-x="752" 
d="M286 166h44q44 0 85.5 12.5t75.5 38t57.5 65.5t32.5 95q8 51 -1.5 90t-34 66t-62 41t-84.5 14h-46zM183 754h278q79 0 144 -29t109 -80t63.5 -120t7.5 -148q-13 -80 -54.5 -148.5t-101.5 -119.5t-134.5 -80t-152.5 -29h-278z" />
    <glyph glyph-name="E" unicode="E" horiz-adv-x="550" 
d="M353 588l-20 -126h221l-26 -166h-221l-21 -130h233l-26 -166h-429l119 754h429l-26 -166h-233z" />
    <glyph glyph-name="F" unicode="F" horiz-adv-x="542" 
d="M353 588l-20 -126h215l-26 -166h-215l-47 -296h-196l119 754h433l-26 -166h-237z" />
    <glyph glyph-name="G" unicode="G" horiz-adv-x="842" 
d="M883 421q-8 -41 -16.5 -79.5t-22.5 -75.5t-34.5 -72.5t-51.5 -70.5q-68 -78 -153.5 -113t-180.5 -35q-89 0 -158 29t-114 81.5t-63 125.5t-4 162q15 92 56.5 167t103.5 128t142 82t171 29q117 0 196 -52.5t111 -158.5l-198 -78q-12 54 -48 87t-96 33q-48 0 -88.5 -21
t-70.5 -55t-49 -76.5t-26 -85.5q-7 -44 -1 -86.5t26.5 -75.5t54.5 -53.5t82 -20.5q64 0 113 32.5t65 98.5h-160l25 154h389z" />
    <glyph glyph-name="H" unicode="H" horiz-adv-x="803" 
d="M616 463l46 291h196l-119 -754h-196l49 309h-283l-49 -309h-196l119 754h196l-46 -291h283z" />
    <glyph glyph-name="I" unicode="I" horiz-adv-x="324" 
d="M260 0h-196l119 754h196z" />
    <glyph glyph-name="J" unicode="J" horiz-adv-x="489" 
d="M548 754l-80 -509q-9 -60 -32.5 -108.5t-60.5 -83.5t-86.5 -54t-112.5 -19t-107 29.5t-70 81.5l132 119q14 -23 31.5 -43.5t37.5 -20.5q22 0 35 11.5t21 28.5t11.5 36t6.5 35l78 497h196z" />
    <glyph glyph-name="K" unicode="K" horiz-adv-x="758" 
d="M618 754h243l-356 -357l264 -397h-254l-201 327h-2l-52 -327h-196l119 754h196l-49 -311h2z" />
    <glyph glyph-name="L" unicode="L" horiz-adv-x="495" 
d="M286 166h235l-26 -166h-431l119 754h196z" />
    <glyph glyph-name="M" unicode="M" horiz-adv-x="983" 
d="M266 754h193l90 -403l225 403h195l-5 -754h-196l14 434h-2l-250 -434h-78l-104 434h-2l-132 -434h-195z" />
    <glyph glyph-name="N" unicode="N" horiz-adv-x="881" 
d="M183 754h196l286 -461h2l73 461h196l-119 -754h-196l-286 462h-2l-73 -462h-196z" />
    <glyph glyph-name="O" unicode="O" horiz-adv-x="887" 
d="M536 589q-44 0 -85.5 -16.5t-74.5 -44t-55.5 -63.5t-28.5 -75q-8 -49 2.5 -90t34.5 -71t60 -47t80 -17t85.5 17t75 47t57 71t31.5 90q6 39 -5 75t-36 63.5t-61 44t-80 16.5zM566 779q81 0 152 -28.5t121 -80t73 -123t10 -156.5q-15 -92 -58 -168t-107.5 -131.5
t-145.5 -86t-172 -30.5t-162.5 30.5t-118.5 86t-66 131.5t-4 168q9 57 33 108t59 94t79.5 77.5t94.5 58.5t104 37t108 13z" />
    <glyph glyph-name="P" unicode="P" horiz-adv-x="661" 
d="M325 408h33q27 0 52.5 1.5t46.5 10t36 27t20 53.5q6 36 -2.5 55.5t-26.5 28.5t-43.5 10.5t-53.5 1.5h-33zM183 754h300q61 0 109 -14.5t79.5 -44.5t44 -77t2.5 -112q-21 -134 -99.5 -195t-207.5 -61h-111l-40 -250h-196z" />
    <glyph glyph-name="Q" unicode="Q" horiz-adv-x="887" 
d="M703 -47l-49 71q-48 -26 -101 -37.5t-114 -11.5q-91 0 -162.5 30.5t-118.5 86t-66 131.5t-4 168q9 57 33 108t59 94t79.5 77.5t94.5 58.5t104 37t108 13q88 0 159.5 -28.5t119.5 -81.5t68 -127.5t6 -166.5q-12 -75 -47 -140.5t-92 -124.5l107 -129zM663 263q21 24 34 53
t18 58q7 42 -3.5 81t-34.5 69t-60 47.5t-80 17.5t-85.5 -16.5t-75 -44t-56 -63.5t-28.5 -75q-8 -49 2.5 -90t35 -71t60.5 -47t80 -17q32 0 62 10l-102 120l188 23z" />
    <glyph glyph-name="R" unicode="R" horiz-adv-x="680" 
d="M326 416h19q24 0 49 3t46 13t36 28.5t20 49.5t-4.5 49.5t-27.5 28.5t-41.5 13t-47.5 3h-19zM691 0h-244l-139 290h-2l-46 -290h-196l119 754h293q56 0 102 -13.5t76.5 -42t44 -72.5t3.5 -104q-6 -39 -22.5 -74.5t-42 -64t-59.5 -48t-75 -26.5z" />
    <glyph glyph-name="S" unicode="S" horiz-adv-x="616" 
d="M567 560q-24 23 -55 36.5t-67 13.5q-14 0 -29.5 -4t-29 -12t-23.5 -19.5t-12 -27.5q-3 -17 4 -28.5t19 -20t26 -14t26 -9.5l48 -15q37 -12 68.5 -28.5t53 -40.5t30 -57.5t1.5 -79.5q-9 -57 -34 -111t-76 -92t-109.5 -54.5t-115.5 -16.5q-72 0 -136 22.5t-116 63.5
l109 158q32 -32 71.5 -55t90.5 -23q17 0 35 4.5t33 13.5t25.5 23.5t13.5 34.5q3 21 -7 35t-27 24t-36.5 16t-34.5 11q-44 13 -79.5 27.5t-58.5 37.5t-32 58t0 90q9 57 36 104t66.5 80t90 51t107.5 18t118.5 -16.5t107.5 -45.5z" />
    <glyph glyph-name="T" unicode="T" horiz-adv-x="533" 
d="M364 0h-196l93 588h-162l26 166h520l-26 -166h-162z" />
    <glyph glyph-name="U" unicode="U" horiz-adv-x="778" 
d="M837 754l-67 -424q-6 -36 -13 -72t-20.5 -70t-34 -65.5t-53.5 -58.5q-27 -23 -59.5 -39t-66.5 -26t-69 -14.5t-68 -4.5t-66.5 4.5t-65 14.5t-58.5 26t-47 39q-24 27 -34.5 58.5t-13 65.5t1 70t9.5 72l67 424h196l-62 -397q-6 -37 -8.5 -73.5t5.5 -66t32 -47.5t71 -18
t77 18t48 47.5t26.5 66t14.5 73.5l62 397h196z" />
    <glyph glyph-name="V" unicode="V" horiz-adv-x="761" 
d="M427 296l255 458h213l-441 -754h-152l-198 754h213z" />
    <glyph glyph-name="W" unicode="W" horiz-adv-x="1117" 
d="M362 267h2l235 487h156l71 -487h2l219 487h204l-360 -754h-200l-63 437h-2l-217 -437h-199l-106 754h204z" />
    <glyph glyph-name="X" unicode="X" horiz-adv-x="789" 
d="M165 754h241l85 -195l145 195h241l-296 -351l215 -403h-236l-119 246l-212 -246h-237l359 403z" />
    <glyph glyph-name="Y" unicode="Y" horiz-adv-x="714" 
d="M100 754h235l109 -205l173 205h235l-340 -392l-57 -362h-196l57 362z" />
    <glyph glyph-name="Z" unicode="Z" horiz-adv-x="707" 
d="M683 166l-26 -166h-646l450 588h-296l26 166h624l-448 -588h316z" />
    <glyph glyph-name="bracketleft" unicode="[" horiz-adv-x="350" 
d="M170 -134h107l-17 -106h-246l163 1030h246l-17 -106h-107z" />
    <glyph glyph-name="backslash" unicode="\" horiz-adv-x="579" 
d="M552 0v0h-142v0h142zM302 830l250 -830h-142l-252 830h144z" />
    <glyph glyph-name="bracketright" unicode="]" horiz-adv-x="350" 
d="M267 684h-107l17 106h246l-163 -1030h-246l17 106h107z" />
    <glyph glyph-name="asciicircum" unicode="^" 
d="M167 407l240 377h120l120 -377l-124 -67l-84 269l-168 -269z" />
    <glyph glyph-name="underscore" unicode="_" horiz-adv-x="500" 
d="M-30 -188l12 75h500l-12 -75h-500z" />
    <glyph glyph-name="grave" unicode="`" horiz-adv-x="402" 
d="M316 820l114 -172l-91 -59l-147 151z" />
    <glyph glyph-name="a" unicode="a" horiz-adv-x="682" 
d="M621 0h-182l9 57h-2q-30 -38 -76 -56t-91 -18q-57 0 -101 22t-72.5 59.5t-39.5 87.5t-2 105t35.5 104.5t66 87t90.5 59.5t108 22q45 0 85 -16.5t63 -50.5l8 50h182zM387 372q-28 0 -51 -9.5t-40.5 -25t-28.5 -36.5t-15 -45q-8 -49 17 -82t81 -33t92 33t44 82
q4 24 -0.5 45t-17.5 36.5t-33 25t-48 9.5z" />
    <glyph glyph-name="b" unicode="b" horiz-adv-x="682" 
d="M406 372q-28 0 -51 -9.5t-40.5 -25t-28.5 -36.5t-15 -45q-8 -49 17 -82t81 -33t92 33t44 82q4 24 -0.5 45t-17.5 36.5t-33 25t-48 9.5zM185 830h182l-58 -367q35 34 80 50.5t90 16.5q57 0 101 -22t72 -59.5t39 -87t2 -104.5q-9 -56 -36 -105.5t-67 -87t-91.5 -59.5
t-108.5 -22q-45 0 -84.5 18t-58.5 56h-2l-9 -57h-182z" />
    <glyph glyph-name="c" unicode="c" horiz-adv-x="483" 
d="M485 346q-18 15 -40.5 25.5t-48.5 10.5t-50.5 -9.5t-44 -26.5t-32.5 -39.5t-17 -49.5q-9 -56 21 -91t87 -35q24 0 50 9t46 26l-24 -154q-32 -15 -66 -22t-67 -7q-57 0 -104.5 20t-80 56t-46.5 85t-5 107q10 62 40 113.5t74.5 88t100.5 57t116 20.5q65 0 115 -30z" />
    <glyph glyph-name="d" unicode="d" horiz-adv-x="682" 
d="M394 372q-28 0 -51 -9.5t-40.5 -25t-28.5 -36.5t-15 -45q-8 -49 17 -82t81 -33t92 33t44 82q4 24 -0.5 45t-17.5 36.5t-33 25t-48 9.5zM455 57h-2q-30 -38 -76 -56t-91 -18q-57 0 -101 22t-72.5 59.5t-39.5 87.5t-2 105t35.5 104.5t66 87t90.5 59.5t108 22q45 0 85 -16.5
t63 -50.5l58 367h182l-131 -830h-182z" />
    <glyph glyph-name="e" unicode="e" horiz-adv-x="610" 
d="M623 226h-383q-9 -56 15 -85t81 -29q29 0 52 10.5t42 36.5h175q-18 -45 -49 -78.5t-69.5 -55t-82.5 -32t-88 -10.5q-64 0 -115.5 18t-85.5 52.5t-48.5 85.5t-3.5 117q10 64 39 115t72 86t98 54t118 19q67 0 116 -20t79 -57t40.5 -89.5t0.5 -118.5zM470 331q-1 37 -27 59
t-63 22q-40 0 -73 -20.5t-48 -60.5h211z" />
    <glyph glyph-name="f" unicode="f" horiz-adv-x="388" 
d="M260 0h-182l57 363h-64l24 150h64l11 65q4 27 9 50t13.5 45t22 43t35.5 42q40 40 90 61t102 21q21 0 39.5 -4t35.5 -14l-25 -157q-14 7 -28.5 12t-32.5 5q-35 0 -52.5 -21t-24.5 -65l-13 -83h127l-24 -150h-127z" />
    <glyph glyph-name="g" unicode="g" horiz-adv-x="677" 
d="M390 376q-28 0 -51 -9.5t-41 -25t-29 -36.5t-15 -45q-8 -49 17.5 -82t81.5 -33t91.5 33t43.5 82q4 24 -0.5 45t-17 36.5t-32.5 25t-48 9.5zM631 50q-13 -82 -42 -140t-73 -95t-102 -54t-129 -17q-44 0 -91 11.5t-85.5 35.5t-62.5 61t-22 88h204q2 -14 9.5 -23.5
t18.5 -15.5q22 -12 50 -12q37 0 61.5 11.5t40.5 31t25 46.5t14 58l4 24q-42 -35 -83 -52.5t-92 -17.5q-56 0 -99.5 20t-71.5 55.5t-38.5 83t-1.5 103.5t36 106.5t67.5 88.5t92.5 60.5t111 22.5q45 0 82 -16.5t58 -54.5h2l8 54h182z" />
    <glyph glyph-name="h" unicode="h" horiz-adv-x="661" 
d="M373 830l-60 -382h2q38 42 80.5 62t96.5 20q49 0 83 -15.5t53.5 -44t25 -68t-2.5 -88.5l-50 -314h-182l42 263q4 22 5 44t-5 39.5t-21 28t-42 10.5t-47 -10.5t-33.5 -28t-21.5 -39.5t-12 -44l-42 -263h-182l131 830h182z" />
    <glyph glyph-name="i" unicode="i" horiz-adv-x="302" 
d="M280 812q21 0 38 -8t28.5 -22t16.5 -32.5t2 -39.5t-14 -39.5t-27 -32.5t-36 -22t-41 -8t-38 8t-29 22t-17 32.5t-2 39.5t14.5 39.5t27.5 32.5t36 22t41 8zM242 0h-182l81 513h182z" />
    <glyph glyph-name="j" unicode="j" horiz-adv-x="302" 
d="M280 812q21 0 38 -8t28.5 -22t16.5 -32.5t2 -39.5t-14 -39.5t-27 -32.5t-36 -22t-41 -8t-38 8t-29 22t-17 32.5t-2 39.5t14.5 39.5t27.5 32.5t36 22t41 8zM201 -256h-182l122 769h182z" />
    <glyph glyph-name="k" unicode="k" horiz-adv-x="688" 
d="M294 328l218 185h249l-294 -237l229 -276h-255l-166 209l-33 -209h-182l131 830h182z" />
    <glyph glyph-name="l" unicode="l" horiz-adv-x="302" 
d="M242 0h-182l131 830h182z" />
    <glyph glyph-name="m" unicode="m" horiz-adv-x="989" 
d="M313 449h2q39 43 82 62t93 19q56 0 97.5 -23.5t61.5 -74.5q35 48 86 73t104 25q49 0 80 -15t47.5 -42t19.5 -64.5t-4 -81.5l-52 -327h-182l39 245q3 20 6 44.5t-0.5 45.5t-16.5 35.5t-42 14.5q-32 0 -51.5 -13.5t-31 -34t-17 -45t-9.5 -47.5l-39 -245h-182l39 245
q3 21 6 46.5t-1 47t-18.5 36t-44.5 14.5t-49 -14.5t-30 -36t-16.5 -47t-8.5 -46.5l-39 -245h-182l81 513h182z" />
    <glyph glyph-name="n" unicode="n" horiz-adv-x="661" 
d="M313 447h2q39 47 81 65t96 18q52 0 86 -15.5t52.5 -43.5t23 -67.5t-2.5 -86.5l-50 -317h-182l40 250q3 18 6.5 41.5t-0.5 44.5t-18.5 35t-48.5 14q-28 0 -48 -9.5t-33.5 -26t-21 -38t-11.5 -45.5l-42 -266h-182l81 513h182z" />
    <glyph glyph-name="o" unicode="o" horiz-adv-x="662" 
d="M390 372q-28 0 -51 -9.5t-40.5 -25t-28.5 -36.5t-15 -45q-8 -49 17 -82t81 -33t92 33t44 82q4 24 -0.5 45t-17.5 36.5t-33 25t-48 9.5zM415 530q62 0 115 -18t90 -53t54 -86t7 -117q-10 -65 -43.5 -116t-81.5 -86t-107 -53t-121 -18t-115 18t-89.5 53t-54 85.5
t-6.5 116.5q10 66 43 117t81 86t107 53t121 18z" />
    <glyph glyph-name="p" unicode="p" horiz-adv-x="682" 
d="M406 372q-28 0 -51 -9.5t-40.5 -25t-28.5 -36.5t-15 -45q-8 -49 17 -82t81 -33t92 33t44 82q4 24 -0.5 45t-17.5 36.5t-33 25t-48 9.5zM308 455h2q31 38 76.5 56.5t90.5 18.5q57 0 101 -22.5t72.5 -60t39.5 -87.5t2 -105q-9 -56 -35.5 -105t-66.5 -86.5t-90.5 -59
t-107.5 -21.5q-45 0 -84.5 16t-63.5 50l-49 -305h-182l122 769h182z" />
    <glyph glyph-name="q" unicode="q" horiz-adv-x="682" 
d="M394 372q-28 0 -51 -9.5t-40.5 -25t-28.5 -36.5t-15 -45q-8 -49 17 -82t81 -33t92 33t44 82q4 24 -0.5 45t-17.5 36.5t-33 25t-48 9.5zM587 -256h-182l49 305q-34 -34 -79.5 -50t-90.5 -16q-57 0 -101 21.5t-72 59t-39 86.5t-2 105q9 55 36 104.5t67.5 87.5t91.5 60.5
t108 22.5q45 0 85 -18.5t58 -56.5h2l9 58h182z" />
    <glyph glyph-name="r" unicode="r" horiz-adv-x="453" 
d="M310 429h2q34 48 80 69.5t100 21.5h35l-27 -175q-17 11 -35.5 14t-39.5 3q-38 0 -64 -12t-43.5 -32.5t-27.5 -49t-15 -61.5l-33 -207h-182l81 513h182z" />
    <glyph glyph-name="s" unicode="s" horiz-adv-x="513" 
d="M459 381q-19 11 -45 18t-49 7q-8 0 -18 -2t-19.5 -6t-16.5 -10.5t-8 -16.5q-2 -13 6 -21t20 -12.5t26 -7t23 -4.5q31 -6 56.5 -17.5t42.5 -29.5t24.5 -43.5t1.5 -61.5q-8 -51 -35 -87t-65 -59t-83 -34t-90 -11q-55 0 -105 15t-92 44l86 127q12 -10 28.5 -19t35 -16.5
t37 -12t35.5 -4.5q9 0 19 2t19 7t16 12t9 18q2 15 -6.5 23.5t-23.5 14t-35 9.5t-40 10q-21 6 -40 14.5t-32.5 24t-19.5 38.5t-1 58q7 47 32.5 81.5t60.5 57t77.5 33t84.5 10.5q44 0 85.5 -7.5t78.5 -25.5z" />
    <glyph glyph-name="t" unicode="t" horiz-adv-x="360" 
d="M259 0h-182l57 363h-59l24 150h59l25 154h182l-25 -154h103l-24 -150h-103z" />
    <glyph glyph-name="u" unicode="u" horiz-adv-x="659" 
d="M320 513l-43 -274q-4 -24 -3.5 -44.5t8 -35.5t24 -23t44.5 -8t47 8t31.5 23t19.5 35.5t11 44.5l43 274h182l-49 -309q-10 -63 -38 -105.5t-68.5 -68t-92 -36.5t-109.5 -11t-106 11t-81 36.5t-47 68t-4 105.5l49 309h182z" />
    <glyph glyph-name="v" unicode="v" horiz-adv-x="623" 
d="M352 250l163 263h204l-349 -513h-116l-188 513h204z" />
    <glyph glyph-name="w" unicode="w" horiz-adv-x="996" 
d="M352 235l173 278h108l85 -278l173 278h201l-349 -513h-118l-82 281l-172 -281h-118l-187 513h202z" />
    <glyph glyph-name="x" unicode="x" horiz-adv-x="712" 
d="M114 513h231l75 -106l109 106h235l-249 -235l212 -278h-239l-108 152l-156 -152h-239l300 278z" />
    <glyph glyph-name="y" unicode="y" horiz-adv-x="654" 
d="M66 513h210l96 -263l175 263h207l-533 -769h-204l227 326z" />
    <glyph glyph-name="z" unicode="z" horiz-adv-x="559" 
d="M552 151l-24 -151h-520l298 362h-209l24 151h512l-297 -362h216z" />
    <glyph glyph-name="braceleft" unicode="{" horiz-adv-x="352" 
d="M88 331q7 0 19.5 0.5t24.5 5t22 15.5t13 32l40 253q6 40 23.5 69t38 47.5t41 27.5t34.5 9h97l-19 -120h-25q-17 0 -27.5 -5.5t-16 -13.5t-8 -19t-3.5 -21l-36 -225q-5 -32 -19 -52t-31 -31t-34 -16t-29 -7v-2q11 -2 27 -5.5t29 -15t20 -34t1 -62.5l-35 -222
q-2 -11 -3 -21.5t2 -19t12 -13.5t26 -5h25l-19 -120h-97q-14 0 -31.5 9t-32.5 27.5t-23 47t-2 67.5l40 253q4 26 -2 39t-16.5 18.5t-22.5 5.5h-19z" />
    <glyph glyph-name="bar" unicode="|" horiz-adv-x="579" 
d="M365 0h-150l131 830h150z" />
    <glyph glyph-name="braceright" unicode="}" horiz-adv-x="352" 
d="M352 227h-19.5t-23.5 -5.5t-22.5 -18.5t-14.5 -39l-40 -253q-6 -39 -23.5 -67.5t-38 -47t-41.5 -27.5t-34 -9h-97l19 120h25q17 0 27 5t15.5 13.5t8 19t4.5 21.5l35 222q6 40 20.5 62.5t31.5 34t34 15t29 5.5v2q-11 2 -27 7t-29 16t-20.5 31t-2.5 52l36 225q1 10 2 21
t-2 19t-11.5 13.5t-25.5 5.5h-25l19 120h97q13 0 31 -9t33 -27.5t23 -47.5t2 -69l-40 -253q-3 -21 3 -32t16.5 -15.5t22 -5t19.5 -0.5z" />
    <glyph glyph-name="asciitilde" unicode="~" 
d="M681 276q-17 -22 -38.5 -49t-47 -51t-54.5 -40t-60 -16q-37 0 -64.5 16.5t-50.5 31.5q-15 10 -29 20t-26.5 18.5t-24.5 14t-23 5.5q-10 0 -20.5 -8.5t-21 -21.5t-20.5 -27.5t-17 -26.5l-97 96q19 19 41 46t47.5 52t53.5 42t59 17t62 -17t57 -39q21 -19 49 -34.5t51 -15.5
q10 0 21 9.5t21.5 22.5t19 27.5t13.5 24.5z" />
    <glyph glyph-name="nonbreakingspace" unicode="&#xa0;" horiz-adv-x="500" 
 />
    <glyph glyph-name="sterling" unicode="&#xa3;" 
d="M384 300q2 -12 1.5 -30t-3.5 -36.5t-8 -36.5t-12 -31l11 -4q13 -5 31.5 -11t38 -11t38.5 -8.5t34 -3.5q23 0 39 13t20 36h122q-9 -41 -27.5 -76.5t-45.5 -61.5t-62.5 -40.5t-79.5 -14.5q-37 0 -68 9t-65 19q-26 7 -61 16t-62 9q-19 0 -40 -8.5t-29 -28.5h-130
q11 32 30.5 63.5t45.5 56.5t57.5 41t66.5 16q20 32 18 63.5t-16 59.5h-161l12 76h108q-14 28 -17.5 60.5t1.5 67.5q8 54 37 103.5t74 87.5q51 42 107.5 57.5t115.5 15.5q148 0 201.5 -68.5t31.5 -215.5h-194l5 35q3 19 -1.5 36t-14.5 30t-25.5 21t-34.5 8q-46 0 -75.5 -31.5
t-36.5 -74.5q-5 -37 0.5 -70t20.5 -62h156l-12 -76h-142z" />
    <glyph glyph-name="currency" unicode="&#xa4;" 
d="M426 508q-28 0 -53.5 -10.5t-46 -28.5t-34.5 -42t-18 -52q-5 -29 2 -52t22 -39t37.5 -25t50.5 -9t53 9t45 25t33.5 39t18.5 52q4 28 -2 52t-20.5 42t-37 28.5t-50.5 10.5zM150 218q-19 31 -26 72t1 88t27.5 91t48.5 74l-55 67l72 63l56 -67q35 24 82 38t94 14
q46 0 86.5 -14t65.5 -38l78 67l52 -62l-72 -63q19 -32 27 -76.5t0 -91.5t-29.5 -89.5t-51.5 -71.5l55 -66l-70 -65l-57 66q-34 -26 -79.5 -40t-92.5 -14q-49 0 -90.5 14t-69.5 41l-77 -66l-52 63z" />
    <glyph glyph-name="brokenbar" unicode="&#xa6;" horiz-adv-x="579" 
d="M433 500h-150v330h150v-330zM433 0h-150v330h150v-330z" />
    <glyph glyph-name="section" unicode="&#xa7;" 
d="M499 589q-2 26 -17.5 43t-43.5 17q-23 0 -41.5 -13.5t-22.5 -37.5q-3 -19 4 -32.5t19.5 -23.5t27.5 -17.5t28 -14.5l102 -56q28 -16 52.5 -31.5t41 -36t23.5 -48t1 -66.5q-8 -48 -37.5 -88t-71.5 -69q23 -23 29.5 -59t1.5 -71q-9 -54 -37.5 -94.5t-69.5 -67.5t-90 -40
t-98 -13q-52 0 -100.5 14.5t-83.5 43.5t-52 72.5t-5 102.5h183q-4 -20 2 -36.5t18 -28.5t29 -19t35 -7q31 0 56.5 17.5t30.5 49.5q3 18 -3.5 30.5t-17.5 22t-24.5 16.5t-25.5 13l-146 77q-48 26 -74.5 65t-16.5 100q8 49 39 91t73 72q-19 21 -25.5 54.5t-1.5 62.5
q7 48 32.5 83.5t61.5 59.5t79 36t86 12q45 0 85 -10t69 -32.5t44 -57.5t9 -85h-157zM482 187q13 9 22.5 24.5t11.5 29.5q3 15 -2.5 26.5t-14.5 20t-21 15.5t-23 13l-151 83q-16 -8 -26.5 -22.5t-12.5 -31.5q-3 -16 2.5 -27.5t15 -20t22 -15t23.5 -12.5z" />
    <glyph glyph-name="copyright" unicode="&#xa9;" horiz-adv-x="800" 
d="M512 459q-6 37 -33.5 55t-64.5 18q-30 0 -52.5 -12.5t-38.5 -33t-24 -47.5t-8 -57q0 -28 9 -55.5t25.5 -49t39.5 -35t52 -13.5q35 0 64 20.5t31 56.5h90q-4 -36 -20.5 -64.5t-41.5 -48.5t-57 -30.5t-66 -10.5q-50 0 -90.5 18t-69.5 48.5t-44.5 72t-15.5 89.5q0 49 15 91
t43 73t68.5 48t91.5 17q36 0 67 -10t56 -29.5t41.5 -47.5t22.5 -63h-90zM400 74q64 0 119 22.5t95.5 62.5t64 95.5t23.5 121.5q0 67 -23.5 122.5t-64 96t-95.5 63t-119 22.5q-65 0 -120 -22.5t-95.5 -63t-63.5 -96t-23 -122.5q0 -66 23 -121.5t63.5 -95.5t95.5 -62.5
t120 -22.5zM400 -20q-83 0 -155 31t-125.5 85t-84.5 126t-31 154q0 83 31 155.5t84.5 126.5t125.5 85t155 31q82 0 154.5 -31t126 -85t84.5 -126.5t31 -155.5q0 -82 -31 -154t-84.5 -126t-126 -85t-154.5 -31z" />
    <glyph glyph-name="guillemotleft" unicode="&#xab;" horiz-adv-x="603" 
d="M324 146l-114 -72l-133 246l211 246l89 -69l-154 -177zM573 146l-114 -72l-133 246l211 246l89 -69l-154 -177z" />
    <glyph glyph-name="logicalnot" unicode="&#xac;" 
d="M497 302h-362l24 150h512l-50 -311h-150z" />
    <glyph glyph-name="registered" unicode="&#xae;" horiz-adv-x="800" 
d="M444 411q35 0 53.5 11.5t18.5 50.5q0 16 -9 24.5t-22.5 12.5t-30 4.5t-31.5 0.5h-89v-104h110zM590 175h-100l-92 174h-64v-174h-92v412h200q36 0 65.5 -4.5t50.5 -18t32.5 -38t11.5 -65.5q0 -57 -28.5 -82.5t-83.5 -29.5zM400 74q64 0 119 22.5t95.5 62.5t64 95.5
t23.5 121.5q0 67 -23.5 122.5t-64 96t-95.5 63t-119 22.5q-65 0 -120 -22.5t-95.5 -63t-63.5 -96t-23 -122.5q0 -66 23 -121.5t63.5 -95.5t95.5 -62.5t120 -22.5zM400 -20q-83 0 -155 31t-125.5 85t-84.5 126t-31 154q0 83 31 155.5t84.5 126.5t125.5 85t155 31
q82 0 154.5 -31t126 -85t84.5 -126.5t31 -155.5q0 -82 -31 -154t-84.5 -126t-126 -85t-154.5 -31z" />
    <glyph glyph-name="degree" unicode="&#xb0;" horiz-adv-x="400" 
d="M364 624q4 26 -12 45.5t-44 19.5q-26 0 -48 -19.5t-26 -45.5q-4 -27 12 -46t43 -19t48.5 19t26.5 46zM449 623q-5 -31 -21.5 -58t-40.5 -47.5t-53 -32t-60 -11.5q-32 0 -57 11.5t-41.5 32t-24 47.5t-2.5 58q4 31 20 58.5t39.5 48t52.5 32.5t61 12q31 0 56.5 -12
t42.5 -32.5t25 -48t3 -58.5z" />
    <glyph glyph-name="plusminus" unicode="&#xb1;" 
d="M623 150l-24 -150h-512l24 150h512zM372 654h150l-23 -142h181l-24 -150h-181l-22 -142h-150l22 142h-181l24 150h181z" />
    <glyph glyph-name="mu" unicode="&#xb5;" horiz-adv-x="659" 
d="M320 513l-43 -274q-4 -24 -3.5 -44.5t8 -35.5t24 -23t44.5 -8t47 8t31.5 23t19.5 35.5t11 44.5l43 274h182l-49 -309q-11 -65 -40.5 -108t-68.5 -68t-81.5 -35t-77.5 -10q-48 0 -78 16t-45 33l-46 -288h-182l122 769h182z" />
    <glyph glyph-name="mu" unicode="&#x3bc;" horiz-adv-x="659" 
d="M320 513l-43 -274q-4 -24 -3.5 -44.5t8 -35.5t24 -23t44.5 -8t47 8t31.5 23t19.5 35.5t11 44.5l43 274h182l-49 -309q-11 -65 -40.5 -108t-68.5 -68t-81.5 -35t-77.5 -10q-48 0 -78 16t-45 33l-46 -288h-182l122 769h182z" />
    <glyph glyph-name="paragraph" unicode="&#xb6;" 
d="M352 -170h-101h101zM758 754l-14 -91h-66l-132 -833h-101l132 832h-93l-132 -832h-101l73 460q-43 4 -80 16.5t-64 37t-41.5 64t-11.5 97.5q2 45 25.5 90t59.5 80t80.5 57t88.5 22h377z" />
    <glyph glyph-name="periodcentered" unicode="&#xb7;" horiz-adv-x="343" 
d="M231 373q24 0 44 -9t33.5 -25t19.5 -37.5t2 -45.5t-16.5 -45.5t-31 -37t-41.5 -25t-47 -9.5t-44 9.5t-33.5 25t-19 37t-1.5 45.5t16.5 45.5t30.5 37.5t41 25t47 9z" />
    <glyph glyph-name="periodcentered" unicode="&#x2219;" horiz-adv-x="343" 
d="M231 373q24 0 44 -9t33.5 -25t19.5 -37.5t2 -45.5t-16.5 -45.5t-31 -37t-41.5 -25t-47 -9.5t-44 9.5t-33.5 25t-19 37t-1.5 45.5t16.5 45.5t30.5 37.5t41 25t47 9z" />
    <glyph glyph-name="guillemotright" unicode="&#xbb;" horiz-adv-x="603" 
d="M482 320l-98 177l111 69l133 -246l-211 -246l-92 72zM233 320l-98 177l111 69l133 -246l-211 -246l-92 72z" />
    <glyph glyph-name="divide" unicode="&#xf7;" 
d="M427 531q30 0 48 -21t13 -51t-29.5 -51t-54.5 -21t-47.5 21t-12.5 51t29 51t54 21zM363 127q30 0 48 -21t13 -51t-29.5 -51t-54.5 -21t-47.5 21t-12.5 51t29 51t54 21zM652 332l-24 -150h-512l24 150h512z" />
    <glyph glyph-name="florin" unicode="&#x192;" 
d="M661 505l-25 -76h-110l-95 -279q-22 -65 -47.5 -123.5t-74.5 -111.5q-54 -57 -111.5 -79.5t-126.5 -16.5l-104 9l56 165l34 -6t35 -3q40 0 66 15t48 53q17 30 31.5 70.5t25.5 73.5l79 233h-86l24 76h88l37 108q15 43 33 79t53 69q38 36 81 52.5t91 16.5q34 0 66.5 -7
t58.5 -27l-54 -157q-14 12 -33.5 21t-39.5 9q-22 0 -36.5 -11t-25 -27t-17 -35.5t-12.5 -35.5l-19 -55h110z" />
    <glyph glyph-name="Delta" unicode="&#x394;" horiz-adv-x="667" 
d="M386 443l-243 -361h351zM2 1l462 688l201 -688h-663z" />
    <glyph glyph-name="Delta" unicode="&#x2206;" horiz-adv-x="667" 
d="M386 443l-243 -361h351zM2 1l462 688l201 -688h-663z" />
    <glyph glyph-name="afii10023" unicode="&#x401;" horiz-adv-x="550" 
d="M568 1041q41 0 64.5 -28.5t17.5 -69.5q-3 -21 -13.5 -38.5t-26 -31t-34.5 -21t-39 -7.5q-42 0 -66.5 28t-17.5 70q3 20 13.5 38t26.5 31.5t35 21t40 7.5zM312 1041q41 0 64.5 -28.5t17.5 -69.5q-3 -21 -13.5 -38.5t-26 -31t-34.5 -21t-39 -7.5q-42 0 -66.5 28t-17.5 70
q3 20 13.5 38t26.5 31.5t35 21t40 7.5zM353 588l-20 -126h221l-26 -166h-221l-21 -130h233l-26 -166h-429l119 754h429l-26 -166h-233z" />
    <glyph glyph-name="afii10051" unicode="&#x402;" horiz-adv-x="761" 
d="M785 251q-9 -58 -39.5 -107t-73 -85t-94.5 -56t-105 -20q-17 0 -40 2.5t-36 10.5l23 145q8 -5 19.5 -7.5t20.5 -2.5q24 0 47 9.5t42 26t31.5 39.5t17.5 51q4 27 -2 49.5t-20.5 39.5t-36 26.5t-47.5 9.5q-18 0 -36 -5.5t-35 -13.5l-57 -363h-196l93 588h-162l26 166h520
l-26 -166h-162l-12 -76q48 18 97 18q60 0 109.5 -20.5t82.5 -57t47 -88t4 -113.5z" />
    <glyph glyph-name="afii10052" unicode="&#x403;" horiz-adv-x="512" 
d="M444 783l-80 58l229 237l108 -88zM260 0h-196l119 754h433l-26 -166h-237z" />
    <glyph glyph-name="afii10053" unicode="&#x404;" horiz-adv-x="660" 
d="M613 5q-51 -15 -91 -20t-86 -5q-79 0 -147 28.5t-119 82.5q-54 57 -71.5 128.5t-3.5 156.5q12 78 51.5 149t102.5 127q65 57 146 89.5t161 32.5q48 0 90.5 -5t83.5 -23l-37 -235q-24 41 -67 57t-94 16q-67 0 -120 -34t-84 -90h268l-25 -154h-273q9 -62 54 -99t118 -37
q48 0 95.5 16.5t84.5 53.5z" />
    <glyph glyph-name="afii10054" unicode="&#x405;" horiz-adv-x="616" 
d="M567 560q-24 23 -55 36.5t-67 13.5q-14 0 -29.5 -4t-29 -12t-23.5 -19.5t-12 -27.5q-3 -17 4 -28.5t19 -20t26 -14t26 -9.5l48 -15q37 -12 68.5 -28.5t53 -40.5t30 -57.5t1.5 -79.5q-9 -57 -34 -111t-76 -92t-109.5 -54.5t-115.5 -16.5q-72 0 -136 22.5t-116 63.5
l109 158q32 -32 71.5 -55t90.5 -23q17 0 35 4.5t33 13.5t25.5 23.5t13.5 34.5q3 21 -7 35t-27 24t-36.5 16t-34.5 11q-44 13 -79.5 27.5t-58.5 37.5t-32 58t0 90q9 57 36 104t66.5 80t90 51t107.5 18t118.5 -16.5t107.5 -45.5z" />
    <glyph glyph-name="afii10056" unicode="&#x407;" horiz-adv-x="324" 
d="M455 1041q41 0 64.5 -28.5t17.5 -69.5q-3 -21 -13.5 -38.5t-26 -31t-34.5 -21t-39 -7.5q-42 0 -66.5 28t-17.5 70q3 20 13.5 38t26.5 31.5t35 21t40 7.5zM199 1041q41 0 64.5 -28.5t17.5 -69.5q-3 -21 -13.5 -38.5t-26 -31t-34.5 -21t-39 -7.5q-42 0 -66.5 28t-17.5 70
q3 20 13.5 38t26.5 31.5t35 21t40 7.5zM260 0h-196l119 754h196z" />
    <glyph glyph-name="afii10057" unicode="&#x408;" horiz-adv-x="489" 
d="M548 754l-80 -509q-9 -60 -32.5 -108.5t-60.5 -83.5t-86.5 -54t-112.5 -19t-107 29.5t-70 81.5l132 119q14 -23 31.5 -43.5t37.5 -20.5q22 0 35 11.5t21 28.5t11.5 36t6.5 35l78 497h196z" />
    <glyph glyph-name="afii10058" unicode="&#x409;" horiz-adv-x="1150" 
d="M951 241q5 31 -4.5 47.5t-28 23t-43.5 7t-52 0.5h-33l-26 -161h33q28 0 54 0.5t46.5 7.5t34.5 24.5t19 50.5zM437 599l-49 -309q-11 -69 -30.5 -122.5t-54.5 -91t-88.5 -57t-132.5 -19.5h-51l25 155h8q33 0 55 8t36.5 25t23 42t13.5 60l73 464h593l-44 -279h111
q129 0 188.5 -61t40.5 -179q-10 -62 -37 -106.5t-67.5 -73t-93 -42t-113.5 -13.5h-300l95 599h-201z" />
    <glyph glyph-name="afii10059" unicode="&#x40a;" horiz-adv-x="1150" 
d="M961 241q5 31 -4.5 47.5t-28 23t-43.5 7t-52 0.5h-33l-26 -161h33q28 0 54 0.5t46.5 7.5t34.5 24.5t19 50.5zM1164 235q-10 -62 -37 -106.5t-67.5 -73t-93 -42t-113.5 -13.5h-300l51 319h-293l-51 -319h-196l119 754h196l-44 -281h293l44 281h196l-44 -279h111
q129 0 188.5 -61t40.5 -179z" />
    <glyph glyph-name="afii10060" unicode="&#x40b;" horiz-adv-x="803" 
d="M548 -1l13 86q6 37 8.5 73.5t-5.5 65.5t-32 47.5t-71 18.5h-51l-46 -290h-196l93 588h-162l26 166h520l-26 -166h-162l-20 -127h51q33 0 66.5 -4.5t65 -14t58.5 -25.5t47 -39q24 -27 34.5 -58.5t13 -65.5t-1 -70t-9.5 -72q-1 -1 -3.5 -18.5l-5.5 -38.5q-4 -25 -9 -56
h-196z" />
    <glyph glyph-name="afii10061" unicode="&#x40c;" horiz-adv-x="758" 
d="M540 783l-80 58l229 237l108 -88zM618 754h243l-356 -357l264 -397h-254l-201 327h-2l-52 -327h-196l119 754h196l-49 -311h2z" />
    <glyph glyph-name="afii10062" unicode="&#x40e;" horiz-adv-x="727" 
d="M442 1028q2 -35 24.5 -53t60.5 -18t67 18t40 53l123 -21q-7 -33 -29 -62t-55 -50t-75 -33.5t-89 -12.5t-85 12t-64 33t-38.5 50t-9.5 63zM350 0h-200l149 224l-195 530h213l115 -333l222 333h213z" />
    <glyph glyph-name="afii10145" unicode="&#x40f;" horiz-adv-x="829" 
d="M491 0l-28 -179h-176l28 179h-251l119 754h196l-94 -599h283l94 599h196l-119 -754h-248z" />
    <glyph glyph-name="afii10017" unicode="&#x410;" horiz-adv-x="781" 
d="M476 521h-2l-119 -240h163zM277 131l-73 -131h-208l409 754h214l165 -754h-209l-28 131h-270z" />
    <glyph glyph-name="afii10018" unicode="&#x411;" horiz-adv-x="670" 
d="M284 150h35q22 0 47.5 1t48.5 8t40 23.5t22 47.5q5 33 -7 49.5t-33 24t-47.5 8t-50.5 0.5h-30zM333 463h96q58 0 108.5 -8.5t85 -34t49.5 -71t3 -119.5q-10 -62 -38 -106t-69.5 -71.5t-93 -40t-108.5 -12.5h-302l119 754h489l-26 -166h-293z" />
    <glyph glyph-name="afii10019" unicode="&#x412;" horiz-adv-x="677" 
d="M333 458h22q19 0 38.5 2.5t35.5 10t27.5 22t15.5 38.5q4 26 -4 40.5t-23 22t-35 9t-40 1.5h-14zM64 0l119 754h280q50 0 89.5 -10.5t65.5 -33.5t36 -60.5t2 -91.5q-8 -51 -32.5 -91t-74.5 -63v-2q79 -11 107.5 -62t15.5 -130q-9 -59 -39 -99.5t-72 -65t-92.5 -35
t-102.5 -10.5h-302zM284 150h25q22 0 49 1t52 8t43.5 23.5t23.5 47.5q6 34 -7.5 51t-37 24t-51.5 7h-52h-20z" />
    <glyph glyph-name="afii10020" unicode="&#x413;" horiz-adv-x="556" 
d="M260 0h-196l119 754h483l-26 -166h-287z" />
    <glyph glyph-name="afii10021" unicode="&#x414;" horiz-adv-x="814" 
d="M623 599h-173l-22 -136q-19 -115 -55.5 -193.5t-84.5 -114.5h265zM140 -179h-176l53 335l19 -1q32 -2 63 21.5t57 63.5t45 90.5t27 102.5l50 321h565l-94 -598h95l-53 -335h-176l28 179h-475z" />
    <glyph glyph-name="afii10022" unicode="&#x415;" horiz-adv-x="550" 
d="M353 588l-20 -126h221l-26 -166h-221l-21 -130h233l-26 -166h-429l119 754h429l-26 -166h-233z" />
    <glyph glyph-name="afii10024" unicode="&#x416;" horiz-adv-x="1180" 
d="M546 326h-2l-305 -327h-254l390 397l-244 357h243l188 -311h2l49 312h196l-49 -311h2l286 311h243l-356 -357l264 -397h-254l-201 327h-2l-52 -327h-196z" />
    <glyph glyph-name="afii10025" unicode="&#x417;" horiz-adv-x="629" 
d="M626 220q-10 -62 -44.5 -107t-83.5 -74.5t-107.5 -44t-115.5 -14.5q-72 -1 -136 22t-116 64l99 158q16 -16 36 -31.5t42.5 -27.5t46.5 -19.5t47 -7.5q22 0 45.5 7t43.5 20.5t34 32t18 41.5q3 21 -4 39.5t-21 32t-33 21.5t-40 8h-74l20 125h60q19 0 38.5 5t36 15
t28.5 24.5t15 34.5q3 17 -4.5 29.5t-21.5 20.5t-32.5 12t-37.5 4q-36 0 -72 -13.5t-66 -36.5l-54 152q27 14 58.5 25.5t63.5 19.5t63.5 12.5t60.5 4.5q51 0 95.5 -13t76.5 -39t47.5 -65t7.5 -92q-4 -23 -15 -45.5t-27.5 -43t-37.5 -37.5t-43 -29q58 -16 86.5 -65t16.5 -125z
" />
    <glyph glyph-name="afii10026" unicode="&#x418;" horiz-adv-x="803" 
d="M692 754h166l-119 -754h-196l69 434l-382 -434h-166l119 754h196l-65 -416z" />
    <glyph glyph-name="afii10027" unicode="&#x419;" horiz-adv-x="803" 
d="M692 754h166l-119 -754h-196l69 434l-382 -434h-166l119 754h196l-65 -416zM460 1028q2 -35 24.5 -53t60.5 -18t67 18t40 53l123 -21q-7 -33 -29 -62t-55 -50t-75 -33.5t-89 -12.5t-85 12t-64 33t-38.5 50t-9.5 63z" />
    <glyph glyph-name="afii10028" unicode="&#x41a;" horiz-adv-x="738" 
d="M618 754h243l-356 -357l264 -397h-254l-201 327h-2l-52 -327h-196l119 754h196l-49 -311h2z" />
    <glyph glyph-name="afii10029" unicode="&#x41b;" horiz-adv-x="803" 
d="M739 0h-196l95 599h-201l-49 -309q-11 -69 -30.5 -122.5t-54.5 -91t-88.5 -57t-132.5 -19.5h-51l25 155h8q33 0 55 8t36.5 25t23 42t13.5 60l73 464h593z" />
    <glyph glyph-name="afii10030" unicode="&#x41c;" horiz-adv-x="983" 
d="M266 754h193l90 -403l225 403h195l-5 -754h-196l14 434h-2l-250 -434h-78l-104 434h-2l-132 -434h-195z" />
    <glyph glyph-name="afii10031" unicode="&#x41d;" horiz-adv-x="803" 
d="M616 463l46 291h196l-119 -754h-196l49 309h-283l-49 -309h-196l119 754h196l-46 -291h283z" />
    <glyph glyph-name="afii10032" unicode="&#x41e;" horiz-adv-x="887" 
d="M536 589q-44 0 -85.5 -16.5t-74.5 -44t-55.5 -63.5t-28.5 -75q-8 -49 2.5 -90t34.5 -71t60 -47t80 -17t85.5 17t75 47t57 71t31.5 90q6 39 -5 75t-36 63.5t-61 44t-80 16.5zM566 779q81 0 152 -28.5t121 -80t73 -123t10 -156.5q-15 -92 -58 -168t-107.5 -131.5
t-145.5 -86t-172 -30.5t-162.5 30.5t-118.5 86t-66 131.5t-4 168q9 57 33 108t59 94t79.5 77.5t94.5 58.5t104 37t108 13z" />
    <glyph glyph-name="afii10033" unicode="&#x41f;" horiz-adv-x="803" 
d="M858 754l-119 -754h-196l95 599h-283l-95 -599h-196l119 754h675z" />
    <glyph glyph-name="afii10034" unicode="&#x420;" horiz-adv-x="661" 
d="M325 408h33q27 0 52.5 1.5t46.5 10t36 27t20 53.5q6 36 -2.5 55.5t-26.5 28.5t-43.5 10.5t-53.5 1.5h-33zM183 754h300q61 0 109 -14.5t79.5 -44.5t44 -77t2.5 -112q-21 -134 -99.5 -195t-207.5 -61h-111l-40 -250h-196z" />
    <glyph glyph-name="afii10035" unicode="&#x421;" horiz-adv-x="660" 
d="M682 501q-23 41 -65.5 62t-93.5 21q-45 0 -84.5 -16t-70.5 -44.5t-51.5 -66.5t-27.5 -82q-7 -45 2 -82.5t31.5 -64.5t57.5 -42.5t81 -15.5q48 0 96.5 21.5t85.5 58.5l-38 -235q-51 -15 -91.5 -25t-86.5 -10q-79 0 -147 28.5t-119 82.5q-54 57 -71.5 128.5t-3.5 156.5
q12 78 51.5 149t102.5 127q65 57 146 89.5t161 32.5q48 0 89.5 -10t83.5 -28z" />
    <glyph glyph-name="afii10036" unicode="&#x422;" horiz-adv-x="533" 
d="M364 0h-196l93 588h-162l26 166h520l-26 -166h-162z" />
    <glyph glyph-name="afii10037" unicode="&#x423;" horiz-adv-x="727" 
d="M350 0h-200l149 224l-195 530h213l115 -333l222 333h213z" />
    <glyph glyph-name="afii10038" unicode="&#x424;" horiz-adv-x="965" 
d="M474 541q-29 0 -58 -13t-53 -34.5t-40.5 -49t-20.5 -55.5q-5 -29 1.5 -58.5t22.5 -53t40.5 -38.5t56.5 -15zM794 389q4 28 -4 55.5t-25 49t-41.5 34.5t-53.5 13l-51 -317q32 0 61.5 15t53 38.5t39.5 53t21 58.5zM1003 399q-12 -75 -49.5 -138t-93 -109.5t-124.5 -72.5
t-144 -26l-8 -53h-196l8 53q-75 0 -136 26t-101.5 72.5t-58 109.5t-5.5 138q10 61 45 117t89 99.5t123.5 69.5t148.5 26l6 43h196l-6 -43q79 0 140 -26t101.5 -69.5t57.5 -99.5t7 -117z" />
    <glyph glyph-name="afii10039" unicode="&#x425;" horiz-adv-x="789" 
d="M165 754h241l85 -195l145 195h241l-296 -351l215 -403h-236l-119 246l-212 -246h-237l359 403z" />
    <glyph glyph-name="afii10040" unicode="&#x426;" horiz-adv-x="829" 
d="M658 0h-594l119 754h196l-94 -599h283l94 599h196l-94 -598h95l-53 -335h-176z" />
    <glyph glyph-name="afii10041" unicode="&#x427;" horiz-adv-x="763" 
d="M369 754q-16 -84 -22.5 -143.5t1 -97.5t32.5 -55t72 -16l121 3l49 309h196l-119 -754h-196l43 273l-121 -3q-33 -1 -66.5 3.5t-65 14.5t-58.5 26.5t-47 39.5q-24 27 -34.5 59t-11 77.5t8 109t22.5 154.5h196z" />
    <glyph glyph-name="afii10042" unicode="&#x428;" horiz-adv-x="1160" 
d="M704 155h223l94 599h196l-119 -754h-1034l119 754h196l-94 -599h223l94 599h196z" />
    <glyph glyph-name="afii10043" unicode="&#x429;" horiz-adv-x="1200" 
d="M989 -179l28 179h-953l119 754h196l-94 -599h223l94 599h196l-94 -599h223l94 599h196l-94 -598h95l-53 -335h-176z" />
    <glyph glyph-name="afii10044" unicode="&#x42a;" horiz-adv-x="831" 
d="M638 254q6 34 -3 53t-27.5 27.5t-43.5 10t-52 1.5h-33l-30 -188h33q28 0 54 1.5t47 10.5t35 28.5t20 55.5zM841 248q-10 -65 -37.5 -112t-68.5 -77t-93.5 -44.5t-113.5 -14.5h-300l93 588h-212l26 166h408l-39 -250h111q129 0 188 -61t38 -195z" />
    <glyph glyph-name="afii10045" unicode="&#x42b;" horiz-adv-x="971" 
d="M468 254q6 34 -3 53t-27.5 27.5t-43.5 10t-52 1.5h-33l-30 -188h33q28 0 54 1.5t47 10.5t35 28.5t20 55.5zM671 248q-10 -65 -37.5 -112t-68.5 -77t-93.5 -44.5t-113.5 -14.5h-300l119 754h196l-39 -250h111q129 0 188 -61t38 -195zM910 0h-196l119 754h196z" />
    <glyph glyph-name="afii10046" unicode="&#x42c;" horiz-adv-x="661" 
d="M468 254q6 34 -3 53t-27.5 27.5t-43.5 10t-52 1.5h-33l-30 -188h33q28 0 54 1.5t47 10.5t35 28.5t20 55.5zM671 248q-10 -65 -37.5 -112t-68.5 -77t-93.5 -44.5t-113.5 -14.5h-300l119 754h196l-39 -250h111q129 0 188 -61t38 -195z" />
    <glyph glyph-name="afii10047" unicode="&#x42d;" horiz-adv-x="660" 
d="M695 376q-14 -85 -54.5 -156.5t-112.5 -128.5q-67 -54 -144 -82.5t-156 -28.5q-46 0 -84 5t-85 20l37 235q25 -37 67.5 -53.5t90.5 -16.5q73 0 129 37t85 99h-273l25 154h268q-13 56 -56 90t-110 34q-51 0 -99 -16t-84 -57l37 235q47 18 91.5 23t92.5 5q80 0 150 -32.5
t117 -89.5q46 -56 63 -127t5 -149z" />
    <glyph glyph-name="afii10048" unicode="&#x42e;" horiz-adv-x="1217" 
d="M426 463q25 71 73 129t110 99.5t133.5 64.5t143.5 23q81 0 152 -28.5t121 -80t73 -123t10 -156.5q-15 -92 -58 -168t-107.5 -131.5t-145.5 -86t-172 -30.5q-80 0 -145.5 24t-112.5 68t-72.5 105.5t-26.5 136.5h-93l-49 -309h-196l119 754h196l-46 -291h93zM856 589
q-44 0 -85.5 -16.5t-74.5 -44t-55.5 -63.5t-28.5 -75q-8 -49 2.5 -90t34.5 -71t60 -47t80 -17t85.5 17t75 47t57 71t31.5 90q6 39 -5 75t-36 63.5t-61 44t-80 16.5z" />
    <glyph glyph-name="afii10049" unicode="&#x42f;" horiz-adv-x="680" 
d="M527 604h-19q-24 0 -49 -3t-46 -13t-36 -28.5t-20 -49.5t4.5 -49.5t27.5 -28.5t41.5 -13t47.5 -3h19zM286 309q-39 7 -66.5 26.5t-44 48t-21.5 64t1 74.5q10 60 36.5 104t66 72.5t89.5 42t106 13.5h293l-119 -754h-196l46 290h-2l-231 -290h-244z" />
    <glyph glyph-name="afii10065" unicode="&#x430;" horiz-adv-x="682" 
d="M621 0h-182l9 57h-2q-30 -38 -76 -56t-91 -18q-57 0 -101 22t-72.5 59.5t-39.5 87.5t-2 105t35.5 104.5t66 87t90.5 59.5t108 22q45 0 85 -16.5t63 -50.5l8 50h182zM387 372q-28 0 -51 -9.5t-40.5 -25t-28.5 -36.5t-15 -45q-8 -49 17 -82t81 -33t92 33t44 82
q4 24 -0.5 45t-17.5 36.5t-33 25t-48 9.5z" />
    <glyph glyph-name="afii10066" unicode="&#x431;" horiz-adv-x="682" 
d="M269 445q18 18 43.5 32t53.5 24.5t55.5 16t48.5 5.5q62 0 109.5 -18.5t77.5 -53t42 -84t2 -111.5q-11 -65 -44 -116t-81 -86t-107 -53t-121 -18q-66 0 -119.5 19t-89 57.5t-50 96.5t-2.5 135q22 139 74.5 241t123.5 168q37 34 76.5 55t81.5 34q11 3 24.5 7t26 9t22 11
t13.5 15h212q-8 -36 -36.5 -70.5t-73.5 -53.5q-27 -11 -59 -19.5t-65.5 -19.5t-67.5 -26.5t-64 -40.5q-35 -29 -66 -69.5t-45 -83.5zM509 256q4 24 -0.5 45t-17.5 36.5t-33 25t-48 9.5t-51 -9.5t-40.5 -25t-28.5 -36.5t-15 -45q-8 -49 17 -82t81 -33t92 33t44 82z" />
    <glyph glyph-name="afii10067" unicode="&#x432;" horiz-adv-x="630" 
d="M434 159q5 26 -8 42t-47 16h-103l-18 -118h95q38 0 57 14t24 46zM440 363q9 50 -50 50h-83l-15 -100h84q30 0 45 13t19 37zM634 161q-6 -35 -21 -64.5t-44.5 -51t-75.5 -33.5t-112 -12h-321l81 513h353q33 0 61 -6.5t47 -21t28 -36.5t4 -53q-6 -37 -30 -68t-60 -43v-2
q16 -3 33.5 -12t31.5 -25t21.5 -37t3.5 -48z" />
    <glyph glyph-name="afii10068" unicode="&#x433;" horiz-adv-x="480" 
d="M300 364l-58 -364h-182l81 513h402l-23 -149h-220z" />
    <glyph glyph-name="afii10069" unicode="&#x434;" horiz-adv-x="677" 
d="M479 367h-125l-14 -92q-6 -39 -23 -73.5t-52 -59.5h178zM152 -169h-172l49 311h8q33 0 55 14.5t36 39t22.5 56t13.5 64.5l31 197h489l-59 -371h69l-49 -311h-172l27 169h-321z" />
    <glyph glyph-name="afii10070" unicode="&#x435;" horiz-adv-x="610" 
d="M623 226h-383q-9 -56 15 -85t81 -29q29 0 52 10.5t42 36.5h175q-18 -45 -49 -78.5t-69.5 -55t-82.5 -32t-88 -10.5q-64 0 -115.5 18t-85.5 52.5t-48.5 85.5t-3.5 117q10 64 39 115t72 86t98 54t118 19q67 0 116 -20t79 -57t40.5 -89.5t0.5 -118.5zM470 331q-1 37 -27 59
t-63 22q-40 0 -73 -20.5t-48 -60.5h211z" />
    <glyph glyph-name="afii10072" unicode="&#x436;" horiz-adv-x="1008" 
d="M759 0l-132 213h-3l-34 -213h-172l34 213h-3l-200 -213h-255l307 276l-210 237h249l125 -198h3l31 198h172l-31 -198h3l187 198h249l-284 -237l219 -276h-255z" />
    <glyph glyph-name="afii10073" unicode="&#x437;" horiz-adv-x="534" 
d="M530 152q-7 -42 -32.5 -74t-64 -53.5t-86 -32.5t-98.5 -11q-35 0 -68 6.5t-61.5 18.5t-51 28.5t-35.5 36.5l121 90q3 -7 11 -15.5t21 -16t30 -12.5t38 -5q30 0 52.5 15t27.5 41q4 25 -14 38t-48 13h-44l16 104h33q23 0 46 11t28 37q3 18 -9 29.5t-40 11.5q-32 0 -60 -11
t-39 -30l-83 62q15 18 37 35.5t50 31t61.5 22t71.5 8.5q100 0 155 -35.5t44 -107.5q-2 -15 -10 -32t-20.5 -31.5t-29.5 -26t-38 -16.5q52 -11 74.5 -47.5t14.5 -81.5z" />
    <glyph glyph-name="afii10074" unicode="&#x438;" horiz-adv-x="661" 
d="M285 271l245 242h152l-81 -513h-182l41 261l-258 -261h-142l81 513h182z" />
    <glyph glyph-name="afii10075" unicode="&#x439;" horiz-adv-x="661" 
d="M285 271l245 242h152l-81 -513h-182l41 261l-258 -261h-142l81 513h182zM378 777q1 -32 22.5 -49.5t56.5 -17.5q36 0 63.5 17.5t38.5 49.5l116 -20q-7 -31 -27.5 -58t-52 -47.5t-71 -32t-83.5 -11.5t-80 11.5t-60.5 31.5t-36.5 47t-9 59z" />
    <glyph glyph-name="afii10076" unicode="&#x43a;" horiz-adv-x="668" 
d="M294 328h3l215 185h249l-304 -237l239 -276h-255l-163 209h-3l-33 -209h-182l81 513h182z" />
    <glyph glyph-name="afii10077" unicode="&#x43b;" horiz-adv-x="661" 
d="M323 235q-8 -49 -23 -92t-43 -74.5t-71 -50t-107 -18.5h-53l24 151h7q17 0 30.5 2.5t24 11t17.5 25t12 45.5l44 278h497l-81 -513h-182l57 362h-133z" />
    <glyph glyph-name="afii10078" unicode="&#x43c;" horiz-adv-x="826" 
d="M625 0l-28 239h-2l-138 -239h-88l-62 239h-2l-103 -239h-202l269 513h118l58 -295h4l152 295h118l107 -513h-201z" />
    <glyph glyph-name="afii10079" unicode="&#x43d;" horiz-adv-x="661" 
d="M298 353h177l25 160h182l-81 -513h-182l32 202h-177l-32 -202h-182l81 513h182z" />
    <glyph glyph-name="afii10080" unicode="&#x43e;" horiz-adv-x="662" 
d="M390 372q-28 0 -51 -9.5t-40.5 -25t-28.5 -36.5t-15 -45q-8 -49 17 -82t81 -33t92 33t44 82q4 24 -0.5 45t-17.5 36.5t-33 25t-48 9.5zM415 530q62 0 115 -18t90 -53t54 -86t7 -117q-10 -65 -43.5 -116t-81.5 -86t-107 -53t-121 -18t-115 18t-89.5 53t-54 85.5
t-6.5 116.5q10 66 43 117t81 86t107 53t121 18z" />
    <glyph glyph-name="afii10081" unicode="&#x43f;" horiz-adv-x="661" 
d="M682 513l-81 -513h-182l57 362h-177l-57 -362h-182l81 513h541z" />
    <glyph glyph-name="afii10082" unicode="&#x440;" horiz-adv-x="682" 
d="M406 372q-28 0 -51 -9.5t-40.5 -25t-28.5 -36.5t-15 -45q-8 -49 17 -82t81 -33t92 33t44 82q4 24 -0.5 45t-17.5 36.5t-33 25t-48 9.5zM308 455h2q31 38 76.5 56.5t90.5 18.5q57 0 101 -22.5t72.5 -60t39.5 -87.5t2 -105q-9 -56 -35.5 -105t-66.5 -86.5t-90.5 -59
t-107.5 -21.5q-45 0 -84.5 16t-63.5 50l-49 -305h-182l122 769h182z" />
    <glyph glyph-name="afii10083" unicode="&#x441;" horiz-adv-x="483" 
d="M485 346q-18 15 -40.5 25.5t-48.5 10.5t-50.5 -9.5t-44 -26.5t-32.5 -39.5t-17 -49.5q-9 -56 21 -91t87 -35q24 0 50 9t46 26l-24 -154q-32 -15 -66 -22t-67 -7q-57 0 -104.5 20t-80 56t-46.5 85t-5 107q10 62 40 113.5t74.5 88t100.5 57t116 20.5q65 0 115 -30z" />
    <glyph glyph-name="afii10084" unicode="&#x442;" horiz-adv-x="540" 
d="M422 364l-58 -364h-182l58 364h-160l23 149h502l-23 -149h-160z" />
    <glyph glyph-name="afii10085" unicode="&#x443;" horiz-adv-x="654" 
d="M66 513h210l96 -263l175 263h207l-533 -769h-204l227 326z" />
    <glyph glyph-name="afii10086" unicode="&#x444;" horiz-adv-x="847" 
d="M388 372q-27 0 -51.5 -9.5t-44 -25t-32 -36.5t-16.5 -45q-8 -49 22 -82t85 -33zM678 256q4 24 -2.5 45t-20.5 36.5t-36 25t-49 9.5l-37 -231q27 0 51.5 9t44 24.5t32.5 36.5t17 45zM860 256q-11 -66 -44 -115.5t-80.5 -83.5t-106.5 -51t-120 -17l-38 -244h-182l38 244
q-62 0 -115 17t-89.5 51t-54 83.5t-6.5 115.5q10 66 43 116t80.5 83.5t106 51t120.5 17.5l48 306h182l-48 -306q62 0 115 -17.5t90 -51t54 -83.5t7 -116z" />
    <glyph glyph-name="afii10087" unicode="&#x445;" horiz-adv-x="712" 
d="M114 513h231l75 -106l109 106h235l-249 -235l212 -278h-239l-108 152l-156 -152h-239l300 278z" />
    <glyph glyph-name="afii10088" unicode="&#x446;" horiz-adv-x="681" 
d="M503 0h-443l81 513h182l-59 -371h177l59 371h182l-59 -371h74l-49 -311h-172z" />
    <glyph glyph-name="afii10089" unicode="&#x447;" horiz-adv-x="628" 
d="M342 162q-58 0 -106 11t-80.5 36.5t-47 68t-4.5 105.5l20 130h182l-15 -95q-4 -24 -3.5 -44.5t8.5 -35.5t24.5 -23t44.5 -8h70l32 206h182l-81 -513h-182l26 162h-70z" />
    <glyph glyph-name="afii10090" unicode="&#x448;" horiz-adv-x="979" 
d="M60 0l81 513h182l-59 -371h157l59 371h182l-59 -371h157l59 371h182l-81 -513h-860z" />
    <glyph glyph-name="afii10091" unicode="&#x449;" horiz-adv-x="979" 
d="M821 0h-761l81 513h182l-59 -371h157l59 371h182l-59 -371h157l59 371h182l-59 -371h73l-49 -311h-172z" />
    <glyph glyph-name="afii10092" unicode="&#x44a;" horiz-adv-x="666" 
d="M499 185q5 34 -13 49.5t-68 15.5h-43l-21 -131h40q50 0 75 16.5t30 49.5zM676 185q-13 -83 -71.5 -134t-171.5 -51h-280l57 362h-140l24 151h322l-22 -142h106q40 0 75.5 -12t60.5 -35t36 -58t4 -81z" />
    <glyph glyph-name="afii10093" unicode="&#x44b;" horiz-adv-x="822" 
d="M261 119h40q50 0 75 16.5t30 49.5q5 34 -13 49.5t-68 15.5h-43zM60 0l81 513h182l-22 -142h106q40 0 75.5 -12t60.5 -35t36 -58t4 -81q-13 -83 -71.5 -134t-171.5 -51h-280zM768 0h-182l81 513h182z" />
    <glyph glyph-name="afii10094" unicode="&#x44c;" horiz-adv-x="575" 
d="M261 119h40q50 0 75 16.5t30 49.5q5 34 -13 49.5t-68 15.5h-43zM60 0l81 513h182l-22 -142h106q40 0 75.5 -12t60.5 -35t36 -58t4 -81q-13 -83 -71.5 -134t-171.5 -51h-280z" />
    <glyph glyph-name="afii10095" unicode="&#x44d;" horiz-adv-x="483" 
d="M505 251q-9 -58 -39.5 -107t-74 -85t-97.5 -56t-111 -20q-33 0 -64 7t-59 22l24 154q16 -17 39 -26t47 -9q42 0 77.5 19.5t55.5 52.5h-166l17 106h166q-9 33 -39 53t-69 20q-26 0 -51 -10.5t-48 -25.5l24 154q29 15 61 22.5t64 7.5q60 0 109.5 -20.5t82.5 -57t47 -88
t4 -113.5z" />
    <glyph glyph-name="afii10096" unicode="&#x44e;" horiz-adv-x="935" 
d="M598 -17q-55 0 -103.5 14.5t-85 43t-58.5 69t-23 93.5h-54l-32 -203h-182l81 513h182l-32 -204h55q18 53 52 94t79.5 69.5t98.5 43t109 14.5q62 0 115 -18t90 -53t54 -86t7 -117q-10 -65 -43.5 -116t-81.5 -86t-107 -53t-121 -18zM660 372q-28 0 -51 -9.5t-40.5 -25
t-28.5 -36.5t-15 -45q-8 -49 17 -82t81 -33t92 33t44 82q4 24 -0.5 45t-17.5 36.5t-33 25t-48 9.5z" />
    <glyph glyph-name="afii10097" unicode="&#x44f;" horiz-adv-x="625" 
d="M452 402h-54q-32 0 -60 -13.5t-33 -47.5q-3 -17 2 -29t15.5 -20t25 -12t30.5 -4h54zM-8 0l234 209q-67 10 -96 51t-21 95q7 41 30 71t56 49.5t73 28.5t80 9h304l-82 -513h-182l27 169h-35l-162 -169h-226z" />
    <glyph glyph-name="afii10071" unicode="&#x451;" horiz-adv-x="610" 
d="M545 790q37 0 58.5 -25.5t15.5 -62.5t-35.5 -62.5t-66.5 -25.5t-59 25.5t-16 62.5t36 62.5t67 25.5zM315 790q36 0 58 -25.5t16 -62.5q-3 -18 -12.5 -34t-23.5 -28t-31 -19t-35 -7q-38 0 -59.5 25.5t-15.5 62.5t35.5 62.5t67.5 25.5zM623 226h-383q-9 -56 15 -85t81 -29
q29 0 52 10.5t42 36.5h175q-18 -45 -49 -78.5t-69.5 -55t-82.5 -32t-88 -10.5q-64 0 -115.5 18t-85.5 52.5t-48.5 85.5t-3.5 117q10 64 39 115t72 86t98 54t118 19q67 0 116 -20t79 -57t40.5 -89.5t0.5 -118.5zM470 331q-1 37 -27 59t-63 22q-40 0 -73 -20.5t-48 -60.5h211z
" />
    <glyph glyph-name="afii10099" unicode="&#x452;" horiz-adv-x="679" 
d="M197 -256q39 33 85 79t88.5 103.5t75.5 127.5t46 152l9 57q3 22 4 44t-5 39.5t-20.5 28t-41.5 10.5t-47 -10.5t-33.5 -28t-21.5 -39.5t-12 -44l-42 -263h-182l94 591h-101l23 150h101l14 89h182l-14 -89h162l-23 -150h-162l-23 -143h2q38 42 80.5 62t96.5 20
q49 0 83 -15.5t53.5 -44t25 -68t-2.5 -88.5l-19 -120q-12 -75 -43 -143t-70.5 -125.5t-81.5 -103.5t-76 -78h-204z" />
    <glyph glyph-name="afii10100" unicode="&#x453;" horiz-adv-x="500" 
d="M383 565l-71 59l168 172l98 -80zM300 364l-58 -364h-182l81 513h422l-23 -149h-240z" />
    <glyph glyph-name="afii10101" unicode="&#x454;" horiz-adv-x="483" 
d="M439 12q-32 -15 -66 -22t-67 -7q-57 0 -104.5 20t-80 56t-46.5 85t-5 107q10 62 40 113.5t74.5 88t100.5 57t116 20.5q65 0 115 -30l-24 -154q-18 15 -40.5 25.5t-48.5 10.5q-39 0 -72 -20t-53 -53h161l-17 -106h-161q9 -33 36.5 -52.5t69.5 -19.5q24 0 50 9t46 26z" />
    <glyph glyph-name="afii10102" unicode="&#x455;" horiz-adv-x="513" 
d="M459 381q-19 11 -45 18t-49 7q-8 0 -18 -2t-19.5 -6t-16.5 -10.5t-8 -16.5q-2 -13 6 -21t20 -12.5t26 -7t23 -4.5q31 -6 56.5 -17.5t42.5 -29.5t24.5 -43.5t1.5 -61.5q-8 -51 -35 -87t-65 -59t-83 -34t-90 -11q-55 0 -105 15t-92 44l86 127q12 -10 28.5 -19t35 -16.5
t37 -12t35.5 -4.5q9 0 19 2t19 7t16 12t9 18q2 15 -6.5 23.5t-23.5 14t-35 9.5t-40 10q-21 6 -40 14.5t-32.5 24t-19.5 38.5t-1 58q7 47 32.5 81.5t60.5 57t77.5 33t84.5 10.5q44 0 85.5 -7.5t78.5 -25.5z" />
    <glyph glyph-name="afii10103" unicode="&#x456;" horiz-adv-x="302" 
d="M280 812q21 0 38 -8t28.5 -22t16.5 -32.5t2 -39.5t-14 -39.5t-27 -32.5t-36 -22t-41 -8t-38 8t-29 22t-17 32.5t-2 39.5t14.5 39.5t27.5 32.5t36 22t41 8zM242 0h-182l81 513h182z" />
    <glyph glyph-name="afii10104" unicode="&#x457;" horiz-adv-x="302" 
d="M406 800q41 0 65 -28.5t17 -69.5q-3 -21 -13.5 -38.5t-26 -31t-34.5 -21t-39 -7.5q-42 0 -66.5 28t-17.5 70q7 41 40 69.5t75 28.5zM150 800q41 0 65 -28.5t17 -69.5q-3 -21 -13.5 -38.5t-26 -31t-34.5 -21t-39 -7.5q-42 0 -66.5 28t-17.5 70q7 41 40 69.5t75 28.5z
M242 0h-182l81 513h182z" />
    <glyph glyph-name="afii10105" unicode="&#x458;" horiz-adv-x="302" 
d="M280 812q21 0 38 -8t28.5 -22t16.5 -32.5t2 -39.5t-14 -39.5t-27 -32.5t-36 -22t-41 -8t-38 8t-29 22t-17 32.5t-2 39.5t14.5 39.5t27.5 32.5t36 22t41 8zM201 -256h-182l122 769h182z" />
    <glyph glyph-name="afii10106" unicode="&#x459;" horiz-adv-x="896" 
d="M730 169q5 33 -17 41.5t-77 8.5l-16 -100q54 0 79.5 10t30.5 40zM343 362l-20 -127q-8 -49 -23 -92t-43 -74.5t-71 -50t-107 -18.5h-53l24 151h7q17 0 30.5 2.5t24 11t17.5 25t12 45.5l44 278h497l-25 -160h73q40 0 76 -10t61 -31t36.5 -54t4.5 -79q-6 -40 -23.5 -73
t-47 -56.5t-72 -36.5t-99.5 -13h-247l57 362h-133z" />
    <glyph glyph-name="afii10107" unicode="&#x45a;" horiz-adv-x="896" 
d="M720 169q5 33 -17 41.5t-77 8.5l-16 -100q54 0 79.5 10t30.5 40zM898 179q-6 -40 -23.5 -73t-47 -56.5t-72 -36.5t-99.5 -13h-247l35 219h-167l-35 -219h-182l81 513h182l-25 -160h167l25 160h182l-25 -160h73q40 0 76 -10t61 -31t36.5 -54t4.5 -79z" />
    <glyph glyph-name="afii10108" unicode="&#x45b;" horiz-adv-x="661" 
d="M336 591l-23 -143h2q38 42 80.5 62t96.5 20q49 0 83 -15.5t53.5 -44t25 -68t-2.5 -88.5l-50 -314h-182l42 263q4 22 5 44t-5 39.5t-21 28t-42 10.5t-47 -10.5t-33.5 -28t-21.5 -39.5t-12 -44l-42 -263h-182l94 591h-151l23 150h151l14 89h182l-14 -89h152l-23 -150h-152z
" />
    <glyph glyph-name="afii10109" unicode="&#x45c;" horiz-adv-x="688" 
d="M294 328h3l215 185h249l-304 -237l239 -276h-255l-163 209h-3l-33 -209h-182l81 513h182zM455 565l-71 59l168 172l98 -80z" />
    <glyph glyph-name="afii10110" unicode="&#x45e;" horiz-adv-x="654" 
d="M369 777q1 -32 22.5 -49.5t56.5 -17.5q36 0 63.5 17.5t38.5 49.5l116 -20q-7 -31 -27.5 -58t-52 -47.5t-71 -32t-83.5 -11.5t-80 11.5t-60.5 31.5t-36.5 47t-9 59zM66 513h210l96 -263l175 263h207l-533 -769h-204l227 326z" />
    <glyph glyph-name="afii10193" unicode="&#x45f;" horiz-adv-x="681" 
d="M420 0l-27 -169h-172l27 169h-188l81 513h182l-59 -371h177l59 371h182l-81 -513h-181z" />
    <glyph glyph-name="afii10050" unicode="&#x490;" horiz-adv-x="556" 
d="M353 588l-93 -588h-196l119 754h307l27 169h176l-53 -335h-287z" />
    <glyph glyph-name="afii10098" unicode="&#x491;" horiz-adv-x="480" 
d="M300 364l-58 -364h-182l81 513h230l26 162h172l-49 -311h-220z" />
    <glyph glyph-name="endash" unicode="&#x2013;" horiz-adv-x="500" 
d="M553 396l-24 -150h-480l24 150h480z" />
    <glyph glyph-name="emdash" unicode="&#x2014;" horiz-adv-x="1000" 
d="M1053 396l-24 -150h-980l24 150h980z" />
    <glyph glyph-name="quoteleft" unicode="&#x2018;" horiz-adv-x="372" 
d="M86 423l236 331h116l-182 -331h-170z" />
    <glyph glyph-name="quoteright" unicode="&#x2019;" horiz-adv-x="372" 
d="M472 754l-236 -331h-116l182 331h170z" />
    <glyph glyph-name="quotesinglbase" unicode="&#x201a;" horiz-adv-x="338" 
d="M179 191h170l-236 -331h-116l182 331v0z" />
    <glyph glyph-name="quotedblleft" unicode="&#x201c;" horiz-adv-x="628" 
d="M86 423l236 331h116l-182 -331h-170zM342 423l236 331h116l-182 -331h-170z" />
    <glyph glyph-name="quotedblright" unicode="&#x201d;" horiz-adv-x="628" 
d="M728 754l-236 -331h-116l182 331h170zM472 754l-236 -331h-116l182 331h170z" />
    <glyph glyph-name="quotedblbase" unicode="&#x201e;" horiz-adv-x="594" 
d="M605 191l-236 -331h-116l182 331h170zM349 191l-236 -331h-116l182 331h170z" />
    <glyph glyph-name="dagger" unicode="&#x2020;" 
d="M545 754l-32 -205h177l-23 -144h-177l-93 -585h-166l93 585h-176l23 144h176l32 205h166z" />
    <glyph glyph-name="daggerdbl" unicode="&#x2021;" 
d="M546 754l-29 -185h176l-23 -144h-176l-22 -142h176l-23 -144h-176l-50 -318h-166l50 318h-177l23 144h177l22 142h-177l23 144h177l29 185h166z" />
    <glyph glyph-name="bullet" unicode="&#x2022;" 
d="M344 566q40 0 74.5 -15t60 -40.5t39.5 -60t14 -73.5t-14 -73t-39.5 -59.5t-60 -40.5t-74.5 -15q-41 0 -75.5 15t-59.5 40.5t-39.5 59.5t-14.5 73t14.5 73.5t39.5 60t59.5 40.5t75.5 15z" />
    <glyph glyph-name="ellipsis" unicode="&#x2026;" horiz-adv-x="1000" 
d="M201 214q24 0 44 -9t33.5 -25t19 -37.5t1.5 -45.5t-16.5 -45.5t-30.5 -37t-41 -25t-47 -9.5t-44 9.5t-33.5 25t-19.5 37t-2 45.5t16.5 45.5t31 37.5t41.5 25t47 9zM867 214q24 0 44 -9t33.5 -25t19 -37.5t1.5 -45.5t-16.5 -45.5t-30.5 -37t-41 -25t-47 -9.5t-44 9.5
t-33.5 25t-19.5 37t-2 45.5t16.5 45.5t31 37.5t41.5 25t47 9zM534 214q24 0 44 -9t33.5 -25t19 -37.5t1.5 -45.5t-16.5 -45.5t-30.5 -37t-41 -25t-47 -9.5t-44 9.5t-33.5 25t-19.5 37t-2 45.5t16.5 45.5t31 37.5t41.5 25t47 9z" />
    <glyph glyph-name="perthousand" unicode="&#x2030;" horiz-adv-x="1460" 
d="M1276 259q-18 0 -34.5 -6.5t-29.5 -18t-22 -27t-12 -33.5q-6 -35 15 -59.5t56 -24.5q18 0 34.5 6.5t30 18t22.5 26.5t12 33q5 35 -16 60t-56 25zM1292 359q42 0 77.5 -11.5t60 -35t35.5 -57.5t4 -79q-7 -46 -28.5 -80.5t-53.5 -58t-71.5 -35.5t-82.5 -12t-78.5 12
t-59.5 35.5t-34.5 58t-3.5 80.5q7 45 29 79t53.5 57.5t71 35t81.5 11.5zM791 259q-18 0 -34.5 -6.5t-29.5 -18t-22 -27t-12 -33.5q-6 -35 15 -59.5t56 -24.5q18 0 34.5 6.5t30 18t22.5 26.5t12 33q5 35 -16 60t-56 25zM807 359q42 0 77.5 -11.5t60 -35t35.5 -57.5t4 -79
q-7 -46 -28.5 -80.5t-53.5 -58t-71.5 -35.5t-82.5 -12t-78.5 12t-59.5 35.5t-34.5 58t-3.5 80.5q7 45 29 79t53.5 57.5t71 35t81.5 11.5zM874 754l-557 -754h-98l557 754h98zM330 664q-18 0 -34.5 -6.5t-29.5 -18t-22 -27t-12 -33.5q-6 -35 15 -59.5t56 -24.5q18 0 34.5 6.5
t30 18t22.5 26.5t12 33q5 35 -16 60t-56 25zM346 764q42 0 77.5 -11.5t60 -35t35.5 -57.5t4 -79q-7 -46 -28.5 -80.5t-53 -58t-71 -35.5t-82.5 -12t-79 12t-60 35.5t-34.5 58t-3.5 80.5q7 45 29 79t53.5 57.5t71 35t81.5 11.5z" />
    <glyph glyph-name="guilsinglleft" unicode="&#x2039;" horiz-adv-x="354" 
d="M324 146l-114 -72l-133 246l211 246l89 -69l-154 -177z" />
    <glyph glyph-name="guilsinglright" unicode="&#x203a;" horiz-adv-x="354" 
d="M233 320l-98 177l111 69l133 -246l-211 -246l-92 72z" />
    <glyph glyph-name="afii61352" unicode="&#x2116;" horiz-adv-x="1360" 
d="M903 -3l15 100h401l-15 -100h-401zM1167 401q-32 0 -56.5 -20t-29.5 -49t13.5 -49t50.5 -20q31 0 56.5 20t30.5 49t-14 49t-51 20zM1182 496q40 0 74.5 -11t59 -32t36 -51.5t5.5 -69.5t-27.5 -69.5t-52.5 -51.5t-69 -32t-78 -11t-74.5 11t-59 32t-35.5 51.5t-5 69.5
t27 69.5t52 51.5t69 32t78 11zM183 754h196l286 -461h2l73 461h196l-119 -754h-196l-286 462h-2l-73 -462h-196z" />
    <glyph glyph-name="trademark" unicode="&#x2122;" horiz-adv-x="940" 
d="M384 676h-123v-326h-97v326h-123v78h343v-78zM899 350h-88v326h-2l-117 -326h-52l-117 326h-2v-326h-88v404h142l91 -239l91 239h142v-404z" />
    <glyph glyph-name="radical" unicode="&#x221a;" horiz-adv-x="549" 
d="M369 -38l-184 495l-102 -42l-25 63l197 82l124 -333l230 690l74 -9z" />
    <glyph glyph-name="infinity" unicode="&#x221e;" horiz-adv-x="839" 
d="M648 192q16 -4 33 -0.5t31.5 12.5t25.5 23t14 32q3 13 -1 29t-15.5 28t-30 16.5t-45.5 -4.5q-11 -4 -22 -9t-23 -12.5t-27 -18t-34 -25.5q15 -17 25.5 -28.5t20.5 -20t21 -13.5t27 -9zM276 328q-24 9 -44.5 4.5t-35.5 -16.5t-24 -28t-10 -29q-2 -18 4 -32t18 -23
t27.5 -12.5t32.5 0.5q18 4 30.5 9t25.5 13.5t27 20t35 28.5q-30 29 -48.5 43t-37.5 22zM637 416q46 19 87.5 15.5t71.5 -23.5t47 -53t15 -73q-2 -33 -19 -68t-45 -62t-64.5 -43t-77.5 -12q-46 4 -79.5 21t-57 37.5t-39 40t-25.5 28.5q-12 -9 -33.5 -28.5t-52 -40
t-69.5 -37.5t-86 -21q-42 -4 -73 12t-50 43t-25.5 62t2.5 68q10 40 37.5 73t64 53t78.5 23.5t83 -15.5q20 -9 35 -18.5t30 -22t32 -29.5t40 -42q31 25 53.5 42t41.5 29.5t37 22t41 18.5z" />
    <glyph glyph-name="approxequal" unicode="&#x2248;" horiz-adv-x="549" 
d="M591 232q-25 -28 -54 -46.5t-59 -28.5t-58.5 -11.5t-52.5 4.5l-145 35q-30 7 -51.5 3.5t-38 -12.5t-28 -20.5t-21.5 -20.5l-71 40q64 60 123.5 77t118.5 3l146 -35q24 -6 67 7q11 4 26 13.5t35 29.5zM611 357q-25 -29 -54 -47.5t-59 -28.5t-59 -11.5t-53 4.5l-144 36
q-30 7 -51.5 3.5t-38 -12.5t-28 -20.5t-21.5 -20.5l-71 40q64 59 123.5 76t118.5 3l146 -34q24 -8 67 6q10 3 25 13t35 30z" />
    <glyph glyph-name="notequal" unicode="&#x2260;" 
d="M288 62l-102 -137h-118l102 137h-73l24 150h160l66 90h-212l24 150h299l91 125h118l-91 -125h95l-24 -150h-182l-66 -90h234l-24 -150h-321z" />
    <glyph glyph-name="lessequal" unicode="&#x2264;" 
d="M614 165l-24 -150l-460 182l23 144zM181 517l518 182l-24 -150l-288 -91l-1 -2l260 -91l-24 -150l-460 182z" />
    <glyph glyph-name="greaterequal" unicode="&#x2265;" 
d="M100 15l24 150l517 176l-23 -144zM132 215l24 150l288 91l1 2l-260 91l24 150l460 -182l-19 -120z" />
    <glyph glyph-name="afii10055" horiz-adv-x="324" 
d="M260 0h-196l119 754h196z" />
    <glyph glyph-name="hyphenminus" horiz-adv-x="392" 
d="M402 396l-24 -150h-286l24 150h286z" />
  </font>
</defs>
</svg>
