<?xml version="1.0" standalone="no"?>
<!DOCTYPE svg PUBLIC "-//W3C//DTD SVG 1.1//EN" "http://www.w3.org/Graphics/SVG/1.1/DTD/svg11.dtd" >
<svg xmlns="http://www.w3.org/2000/svg" xmlns:xlink="http://www.w3.org/1999/xlink" version="1.1">
<metadata>
Created by FontForge 20170731 at Sat Mar  5 15:48:41 2005
 By Aleksey,,,
Copyright 1993 DoubleAlex Team. All rights reserved.
</metadata>
<defs>
<font id="FavoritCondC-Bold" horiz-adv-x="490" >
  <font-face 
    font-family="FavoritCondC"
    font-weight="700"
    font-stretch="normal"
    units-per-em="1000"
    panose-1="0 0 8 0 0 0 0 0 0 0"
    ascent="749"
    descent="-251"
    x-height="505"
    cap-height="754"
    bbox="-106 -251 1195 1003"
    underline-thickness="50"
    underline-position="-200"
    unicode-range="U+0020-2265"
  />
<missing-glyph horiz-adv-x="1000" 
 />
    <glyph glyph-name=".notdef" horiz-adv-x="1000" 
 />
    <glyph glyph-name=".null" horiz-adv-x="0" 
 />
    <glyph glyph-name="nonmarkingreturn" horiz-adv-x="333" 
 />
    <glyph glyph-name="space" unicode=" " horiz-adv-x="245" 
 />
    <glyph glyph-name="space" unicode="&#xa0;" horiz-adv-x="245" 
 />
    <glyph glyph-name="exclam" unicode="!" horiz-adv-x="246" 
d="M197 754v-528h-147v528h147zM123 178q39 0 67 -28t28 -67t-28 -67t-67 -28t-67 28t-28 67t28 67t67 28z" />
    <glyph glyph-name="quotedbl" unicode="&#x22;" horiz-adv-x="360" 
d="M326 463h-109l-15 291h139zM143 463h-109l-15 291h139z" />
    <glyph glyph-name="numbersign" unicode="#" 
d="M440 338v-100h-86l-29 -238h-83l28 238h-74l-29 -238h-84l28 238h-85v100h98l11 94h-84v100h95l27 222h83l-26 -222h75l26 222h84l-27 -222h76v-100h-88l-11 -94h75zM293 432h-74l-11 -94h73z" />
    <glyph glyph-name="dollar" unicode="$" 
d="M209 760v71h73v-71q105 -16 161 -88l-82 -90q-51 58 -115 58q-39 0 -62 -20t-23 -59q0 -35 20.5 -53.5t58.5 -34.5q45 -18 70.5 -30t61 -34.5t54 -45t32.5 -58.5t14 -79q0 -89 -51.5 -155.5t-138.5 -82.5v-86h-73v86q-119 17 -188 88l70 111q27 -26 44.5 -40t45.5 -26.5
t58 -12.5q40 0 65.5 28t25.5 70q0 21 -7 38t-22 29.5t-28.5 20t-34.5 17.5q-106 49 -143 79q-76 60 -76 157q0 89 50.5 143.5t139.5 69.5z" />
    <glyph glyph-name="percent" unicode="%" horiz-adv-x="858" 
d="M554 754h107l-357 -754h-107zM195 761q45 0 77 -18.5t48.5 -51.5t24 -69t7.5 -78t-7.5 -78t-24 -69t-48.5 -51.5t-77 -18.5t-77 18.5t-48.5 51.5t-24 69t-7.5 78t7.5 78t24 69t48.5 51.5t77 18.5zM195 647q-37 0 -37 -103t37 -103t37 103t-37 103zM662 427q45 0 77 -18.5
t48.5 -51.5t24 -69t7.5 -78t-7.5 -78t-24 -69t-48.5 -51.5t-77 -18.5t-77 18.5t-48.5 51.5t-24 69t-7.5 78t7.5 78t24 69t48.5 51.5t77 18.5zM662 313q-37 0 -37 -103t37 -103t37 103t-37 103z" />
    <glyph glyph-name="ampersand" unicode="&#x26;" horiz-adv-x="590" 
d="M243 497q52 28 52 80q0 17 -10.5 29t-27.5 12q-20 0 -33 -12.5t-13 -32.5q0 -10 4 -22t6.5 -17t11.5 -20t10 -17zM306 146l-99 151q-16 -12 -26 -33t-10 -41q0 -41 23.5 -69.5t59.5 -28.5q28 0 52 21zM402 0l-29 44q-62 -54 -138 -54q-90 0 -149.5 66t-59.5 157
q0 116 109 199q-53 92 -53 156q0 74 50.5 119.5t125.5 45.5q71 0 122 -40.5t51 -109.5q0 -101 -121 -204l100 -155q8 8 24.5 25t28.5 30.5t22 26.5l79 -107q-23 -28 -77 -74l-6 -5l79 -120h-158z" />
    <glyph glyph-name="quotesingle" unicode="'" horiz-adv-x="250" 
d="M180 463h-109l-15 291h139z" />
    <glyph glyph-name="parenleft" unicode="(" horiz-adv-x="300" 
d="M153 766l129 -28q-100 -208 -100 -430q0 -205 100 -415l-129 -29q-111 214 -111 447q0 249 111 455z" />
    <glyph glyph-name="parenright" unicode=")" horiz-adv-x="300" 
d="M147 -136l-129 28q100 208 100 430q0 205 -100 415l129 29q111 -214 111 -447q0 -249 -111 -455z" />
    <glyph glyph-name="asterisk" unicode="*" horiz-adv-x="376" 
d="M158 754h64v-119l99 63l32 -56l-105 -58l105 -59l-32 -57l-99 65v-123h-64v123l-103 -65l-32 57l104 59l-104 58l32 56l103 -63v119z" />
    <glyph glyph-name="plus" unicode="+" 
d="M190 311v188h110v-188h170v-110h-170v-194h-110v194h-169v110h169z" />
    <glyph glyph-name="comma" unicode="," horiz-adv-x="245" 
d="M67 162h151l-151 -306h-100z" />
    <glyph glyph-name="hyphen" unicode="-" horiz-adv-x="318" 
d="M34 397h250v-133h-250v133z" />
    <glyph glyph-name="hyphen" unicode="&#xad;" horiz-adv-x="318" 
d="M34 397h250v-133h-250v133z" />
    <glyph glyph-name="period" unicode="." horiz-adv-x="245" 
d="M122 178q40 0 67.5 -28t27.5 -67t-27.5 -67t-67.5 -28t-67.5 28t-27.5 67t27.5 67t67.5 28z" />
    <glyph glyph-name="slash" unicode="/" horiz-adv-x="547" 
d="M424 807h114l-393 -973h-114z" />
    <glyph glyph-name="zero" unicode="0" 
d="M245 766q52 0 91.5 -28.5t61.5 -70t36 -97t18.5 -101.5t4.5 -92t-4.5 -92t-18.5 -101.5t-36 -97t-61.5 -70t-91.5 -28.5t-91.5 28.5t-61.5 70t-36 97t-18.5 101.5t-4.5 92t4.5 92t18.5 101.5t36 97t61.5 70t91.5 28.5zM245 630q-69 0 -67 -241v-12q0 -141 16 -195
q18 -57 51 -58q69 0 67 241v12q0 141 -16 195q-17 58 -51 58z" />
    <glyph glyph-name="one" unicode="1" 
d="M110 754h217v-754h-145v624h-72v130z" />
    <glyph glyph-name="two" unicode="2" 
d="M190 492h-138l-2 41q-6 112 39.5 173t157.5 61q96 0 149.5 -49t53.5 -144q0 -86 -62 -205l-126 -239h175v-130h-396l170 312q32 58 45.5 84.5t32.5 80.5t19 92q0 37 -14 65t-46 28q-26 0 -41 -23.5t-17.5 -47.5t-1.5 -51z" />
    <glyph glyph-name="three" unicode="3" 
d="M174 198l-1 -21q-1 -22 13.5 -40.5t42.5 -18.5q22 0 36 9.5t19.5 27.5t7.5 33.5t2 36.5q0 62 -24.5 84.5t-88.5 20.5v130q64 0 89 19.5t25 79.5q0 77 -51 77q-50 0 -50 -78v-15h-129q-5 100 36.5 161.5t139.5 61.5q90 0 140.5 -53t50.5 -144q0 -141 -93 -178v-2
q59 -15 87.5 -64t28.5 -115q0 -103 -59.5 -162.5t-163.5 -59.5q-95 0 -149 57.5t-49 152.5h140z" />
    <glyph glyph-name="four" unicode="4" 
d="M228 754h164v-458h61v-114h-61v-182h-145v182h-219v112zM247 296v286h-2l-112 -286h114z" />
    <glyph glyph-name="five" unicode="5" 
d="M74 383l59 371h288v-130h-184l-20 -122q112 -6 168.5 -70.5t56.5 -178.5q0 -124 -63 -194.5t-185 -70.5q-76 0 -145 34l25 131q43 -35 92 -35q56 0 86.5 40t30.5 97q0 68 -41 101t-111 33q-21 0 -57 -6z" />
    <glyph glyph-name="six" unicode="6" 
d="M206 754h144l-144 -294l2 -2q46 41 94 41q40 0 71 -23.5t48 -60t25 -75t8 -75.5q0 -54 -11 -101t-34.5 -87.5t-66 -64.5t-99.5 -24q-54 0 -95 22.5t-64.5 61t-35 84t-11.5 97.5q0 93 27.5 179t79.5 194zM249 367q-26 0 -42 -26t-20.5 -52.5t-4.5 -51.5q0 -23 5 -48.5
t20 -49.5t38 -24q20 0 34 15t20 38.5t8 42.5t2 38q0 17 -2.5 34.5t-8.5 38t-18.5 33t-30.5 12.5z" />
    <glyph glyph-name="seven" unicode="7" 
d="M73 754h407l-284 -754h-155l235 624h-203v130z" />
    <glyph glyph-name="eight" unicode="8" 
d="M243 484q46 0 46 85q0 80 -46 80q-41 0 -41 -79q0 -86 41 -86zM244 334q-24 0 -38.5 -20t-19 -42.5t-4.5 -46.5t4.5 -46t19.5 -41.5t39 -19.5q34 0 49 34.5t15 72.5q0 37 -16 73t-49 36zM331 407v-1q131 -42 131 -200q0 -94 -61 -156t-155 -62t-155.5 62.5t-61.5 155.5
q0 157 131 200v2q-49 17 -76 60.5t-27 98.5q0 85 52 142t137 57q84 0 136 -57t52 -142q0 -55 -26.5 -98.5t-76.5 -61.5z" />
    <glyph glyph-name="nine" unicode="9" 
d="M285 0h-144l144 295l-2 2q-47 -42 -94 -42q-53 0 -89.5 41.5t-49.5 92t-13 101.5q0 42 6.5 80.5t22.5 75t39.5 62.5t60 42t82.5 16q105 0 155.5 -76.5t50.5 -188.5q0 -93 -27.5 -178.5t-79.5 -193.5zM246 637q-26 0 -41.5 -27t-19 -52.5t-3.5 -52.5q0 -17 2.5 -34.5
t8.5 -37.5t18.5 -33t30.5 -13q20 0 34.5 14.5t21 37.5t9 42t2.5 37q0 23 -4.5 47.5t-20 48t-38.5 23.5z" />
    <glyph glyph-name="colon" unicode=":" horiz-adv-x="245" 
d="M122 178q40 0 67.5 -28t27.5 -67t-27.5 -67t-67.5 -28t-67.5 28t-27.5 67t27.5 67t67.5 28zM122 515q40 0 67.5 -28t27.5 -67t-27.5 -67t-67.5 -28t-67.5 28t-27.5 67t27.5 67t67.5 28z" />
    <glyph glyph-name="semicolon" unicode=";" horiz-adv-x="245" 
d="M67 162h150l-150 -306h-100zM123 515q40 0 67.5 -28t27.5 -67t-27.5 -67t-67.5 -28t-67.5 28t-27.5 67t27.5 67t67.5 28z" />
    <glyph glyph-name="less" unicode="&#x3c;" 
d="M140 256l330 -162v-111l-450 225v99l450 227v-111z" />
    <glyph glyph-name="equal" unicode="=" 
d="M470 408v-110h-449v110h449zM470 213v-110h-449v110h449z" />
    <glyph glyph-name="greater" unicode="&#x3e;" 
d="M21 94l329 162l-329 167v111l449 -227v-99l-449 -225v111z" />
    <glyph glyph-name="question" unicode="?" horiz-adv-x="454" 
d="M166 564v-18h-141q-4 99 45.5 159.5t146.5 60.5t153.5 -63t56.5 -162q0 -70 -30.5 -130.5t-91.5 -76.5v-98h-149v186q14 -3 25 -3q46 0 66.5 35t20.5 84q0 21 -3 40.5t-16 38.5t-34 19q-25 0 -37 -22t-12 -50zM137 83q0 39 28 67t66 28q40 0 68 -28t28 -67t-28 -67
t-68 -28q-38 0 -66 28t-28 67z" />
    <glyph glyph-name="at" unicode="@" horiz-adv-x="833" 
d="M504 373q4 49 -17 83t-65 30q-46 -4 -78 -40.5t-35 -85.5q-3 -47 17.5 -75t53.5 -33q52 -8 86 32t38 89zM538 518l11 53h98l-53 -306q-4 -24 14 -22q27 2 61 47q45 61 48 136q3 122 -76.5 194.5t-208.5 72.5q-138 0 -227 -88.5t-89 -223.5q0 -149 91.5 -234.5
t241.5 -85.5q104 0 205 92h96q-120 -165 -309 -165q-184 0 -293.5 108.5t-109.5 284.5q0 47 11.5 96t41 102t73 93.5t114 67t157.5 26.5q155 0 257.5 -87.5t102.5 -224.5q0 -67 -22.5 -122t-54.5 -86.5t-70 -53t-66.5 -29t-46.5 -7.5q-20 0 -34 17.5t-8 44.5l-2 2
q-65 -60 -123 -60q-77 0 -123 52t-46 130q0 95 59.5 165.5t152.5 70.5q85 0 127 -60z" />
    <glyph glyph-name="A" unicode="A" horiz-adv-x="528" 
d="M183 754h157l181 -754h-159l-28 127h-151l-27 -127h-148zM312 245l-38 201l-17 114h-2l-16 -114l-32 -201h105z" />
    <glyph glyph-name="B" unicode="B" horiz-adv-x="479" 
d="M297 229q0 45 -26 73t-69 27v-204q44 -2 69.5 27t25.5 77zM198 0h-145v754h146q54 0 88.5 -7.5t67.5 -33.5q37 -29 57 -75t20 -95q0 -101 -81 -156q44 -21 68.5 -71.5t24.5 -103.5q0 -106 -68.5 -159t-177.5 -53zM291 540q0 42 -23.5 66.5t-65.5 22.5v-184q42 0 65.5 26
t23.5 69z" />
    <glyph glyph-name="C" unicode="C" horiz-adv-x="452" 
d="M429 749v-137q-30 8 -56 8q-92 0 -140 -69.5t-48 -165.5q0 -60 18.5 -115t63 -95t105.5 -40q22 0 57 11v-141q-32 -13 -69 -13q-103 0 -181 57.5t-115.5 145t-37.5 189.5q0 95 38.5 180.5t115 142t173.5 56.5q37 0 76 -14z" />
    <glyph glyph-name="D" unicode="D" horiz-adv-x="530" 
d="M186 0h-133v754h113h6q9 -1 25 1t37.5 -2t46.5 -8t51 -18t50.5 -31t46.5 -47.5t39 -68t26.5 -91.5t9.5 -118q0 -371 -318 -371zM202 134q42 -2 74 21t48 61.5t23.5 77.5t7.5 78q0 41 -7 80t-23 79t-47.5 64.5t-75.5 24.5v-486z" />
    <glyph glyph-name="E" unicode="E" horiz-adv-x="392" 
d="M53 754h300v-140h-151v-164h133v-140h-133v-170h153v-140h-302v754z" />
    <glyph glyph-name="F" unicode="F" horiz-adv-x="394" 
d="M53 754h301v-140h-152v-161h137v-140h-137v-313h-149v754z" />
    <glyph glyph-name="G" unicode="G" horiz-adv-x="563" 
d="M293 420h244v-59q0 -68 -10 -127t-34.5 -118t-75 -93.5t-122.5 -34.5t-127 36t-84.5 95t-43.5 123t-14 131q0 56 7.5 108t26.5 105t48 92t77.5 63.5t109.5 24.5q84 0 140.5 -48t81.5 -131l-145 -56q-5 26 -10 43t-22.5 35t-43.5 19q-35 1 -59.5 -26t-34.5 -72.5
t-13.5 -81t-3.5 -71.5q0 -251 115 -251q27 0 45.5 16t27 42t12 49t3.5 47h-95v140z" />
    <glyph glyph-name="H" unicode="H" horiz-adv-x="555" 
d="M53 754h149v-295h151v295h149v-754h-149v319h-151v-319h-149v754z" />
    <glyph glyph-name="I" unicode="I" horiz-adv-x="255" 
d="M53 754h149v-754h-149v754z" />
    <glyph glyph-name="J" unicode="J" horiz-adv-x="352" 
d="M304 754v-510v-35t-3 -42t-9 -51t-19 -45.5t-31.5 -43.5t-49 -27t-68.5 -12q-69 0 -112 23v149q32 -42 78 -42q23 0 37.5 10t20 31t6.5 35t1 41v9v510h149z" />
    <glyph glyph-name="K" unicode="K" horiz-adv-x="513" 
d="M53 754h149v-337h2l124 337h152l-139 -348l157 -406h-157l-137 384h-2v-384h-149v754z" />
    <glyph glyph-name="L" unicode="L" horiz-adv-x="373" 
d="M53 754h149v-614h156v-140h-305v754z" />
    <glyph glyph-name="M" unicode="M" horiz-adv-x="722" 
d="M89 754h196l73 -445h2l60 445h200l79 -754h-153l-36 543h-2l-24 -186l-64 -357h-115l-73 361l-25 168v14h-2l-22 -543h-160z" />
    <glyph glyph-name="N" unicode="N" horiz-adv-x="573" 
d="M53 754h143l186 -455l2 2q-12 48 -12 114v339h149v-754h-141l-184 455l-2 -2l7 -76l1 -31v-346h-149v754z" />
    <glyph glyph-name="O" unicode="O" horiz-adv-x="582" 
d="M291 766q52 0 98 -21.5t84 -66t60.5 -122t22.5 -179.5t-22.5 -179.5t-60.5 -122t-84 -66t-98 -21.5t-98 21.5t-84 66t-60.5 122t-22.5 179.5t22.5 179.5t60.5 122t84 66t98 21.5zM185 377q0 -33 3 -66.5t12.5 -80t32.5 -75.5t58 -29t58 29t32.5 75.5t12.5 80t3 66.5
q0 36 -3 69.5t-12.5 79.5t-32.5 74t-58 28t-58 -28t-32.5 -74t-12.5 -79.5t-3 -69.5z" />
    <glyph glyph-name="P" unicode="P" horiz-adv-x="487" 
d="M202 0h-149v754h155q71 0 108 -9q148 -39 148 -214q0 -106 -63 -167t-166 -55l-33 2v-311zM202 631v-199q113 -5 113 101q0 98 -85 98h-28z" />
    <glyph glyph-name="Q" unicode="Q" horiz-adv-x="582" 
d="M315 307l68 -75q14 50 14 145q0 36 -3 69.5t-12.5 79.5t-32.5 74t-58 28t-58 -28t-32.5 -74t-12.5 -79.5t-3 -69.5q0 -33 3 -66.5t12.5 -80t32.5 -75.5t58 -29q19 0 36 13l-89 93zM500 111l65 -66l-78 -74l-58 63q-59 -46 -138 -46q-52 0 -98 21.5t-84 66t-60.5 122
t-22.5 179.5t22.5 179.5t60.5 122t84 66t98 21.5t98 -21.5t84 -66t60.5 -122t22.5 -179.5q0 -173 -56 -266z" />
    <glyph glyph-name="R" unicode="R" horiz-adv-x="530" 
d="M202 0h-149v754h150q37 0 65 -2.5t68.5 -14.5t66.5 -33.5t45.5 -64t19.5 -101.5q0 -136 -107 -195l131 -343h-157l-131 348h-2v-348zM202 631v-201l26 -1q48 -2 71.5 28t23.5 80q0 94 -101 94h-20z" />
    <glyph glyph-name="S" unicode="S" horiz-adv-x="440" 
d="M363 729v-145q-55 48 -108 48q-35 0 -55 -20t-20 -54t23.5 -62t57 -51.5t66.5 -50.5t56.5 -71t23.5 -100q0 -104 -57.5 -169.5t-159.5 -65.5q-76 0 -128 38v142q58 -40 113 -40q37 0 61.5 22.5t24.5 59.5q0 12 -2 22.5t-8.5 20t-10 15.5t-15.5 15.5t-15 12t-19 13
t-18 11.5q-47 33 -75 60.5t-46 69t-18 94.5q0 94 52.5 158t144.5 64q69 0 132 -37z" />
    <glyph glyph-name="T" unicode="T" horiz-adv-x="414" 
d="M15 754h384v-140h-118v-614h-149v614h-117v140z" />
    <glyph glyph-name="U" unicode="U" horiz-adv-x="544" 
d="M49 754h149v-488q0 -75 9 -99q16 -44 65 -44q26 0 42 8.5t22.5 27t8 33.5t1.5 42v520h149v-550q0 -31 -2.5 -54t-15 -56t-34.5 -54t-66.5 -36.5t-105.5 -15.5q-107 0 -164.5 51t-57.5 155v560z" />
    <glyph glyph-name="V" unicode="V" horiz-adv-x="565" 
d="M8 754h160l90 -362q5 -20 9.5 -41.5t9.5 -47.5t8 -40h2q1 8 9 56.5t14 74.5l91 360h156l-209 -754h-122z" />
    <glyph glyph-name="W" unicode="W" horiz-adv-x="793" 
d="M8 754h152l64 -360q2 -12 16 -160h2q20 149 22 160l75 360h118l96 -520h2q2 18 4 50t4.5 58t6.5 50l59 362h156l-156 -754h-129l-77 398q-4 20 -7.5 43t-7.5 51.5t-6 43.5h-2q-3 -15 -7.5 -43.5t-8.5 -51.5t-8 -43l-86 -398h-130z" />
    <glyph glyph-name="X" unicode="X" horiz-adv-x="545" 
d="M22 754h168l43 -105q24 -59 36 -115h2q14 69 34 115l45 105h161l-161 -365l173 -389h-173l-48 120q-10 25 -33 113h-2q-32 -109 -33 -113l-44 -120h-168l160 389z" />
    <glyph glyph-name="Y" unicode="Y" horiz-adv-x="514" 
d="M4 754h164l78 -205l11 -37h2l17 56l67 186h167l-176 -393v-361h-149v361z" />
    <glyph glyph-name="Z" unicode="Z" horiz-adv-x="508" 
d="M50 754h443l-258 -614h237v-140h-454l251 614h-219v140z" />
    <glyph glyph-name="bracketleft" unicode="[" horiz-adv-x="320" 
d="M53 754h251v-98h-121v-682h123v-98h-253v878z" />
    <glyph glyph-name="backslash" unicode="\" horiz-adv-x="250" 
d="M-106 807h114l348 -807h-114zM242 0h114h-114z" />
    <glyph glyph-name="bracketright" unicode="]" horiz-adv-x="320" 
d="M16 754h251v-878h-253v98h123v682h-121v98z" />
    <glyph glyph-name="asciicircum" unicode="^" 
d="M121 330l-100 47l164 377h120l165 -377l-100 -47l-125 291z" />
    <glyph glyph-name="underscore" unicode="_" horiz-adv-x="500" 
d="M500 -187h-500v75h500v-75z" />
    <glyph glyph-name="grave" unicode="`" horiz-adv-x="300" 
d="M153 754l96 -144l-69 -40l-129 138z" />
    <glyph glyph-name="a" unicode="a" horiz-adv-x="433" 
d="M219 119q16 0 26.5 16.5t15 42t6 44t1.5 33.5q0 16 -1.5 33.5t-6 43.5t-15.5 42t-28 16q-16 0 -27.5 -16t-15.5 -41.5t-5.5 -43t-1.5 -34.5q0 -136 52 -136zM258 0v57h-2q-34 -67 -93 -67q-40 0 -69 28.5t-42.5 73.5t-19.5 85t-6 76q0 40 5 79t18 83.5t42 72t70 27.5
q67 0 95 -72h2v62h141v-505h-141z" />
    <glyph glyph-name="b" unicode="b" horiz-adv-x="433" 
d="M35 0v807h141v-364h2q28 72 94 72q42 0 71 -27.5t41.5 -72.5t17.5 -83.5t5 -78.5q0 -37 -5.5 -76.5t-19 -84.5t-42.5 -73.5t-69 -28.5q-61 0 -93 67h-2v-57h-141zM215 119q51 0 51 136q0 16 -1.5 34t-6 43.5t-15.5 41.5t-27 16q-50 0 -50 -135q0 -16 1.5 -33.5t5.5 -43.5
t15 -42.5t27 -16.5z" />
    <glyph glyph-name="c" unicode="c" horiz-adv-x="315" 
d="M292 137v-129q-39 -18 -81 -18q-64 0 -108 42t-60.5 98t-16.5 119q0 50 10.5 95.5t32.5 85t61.5 62.5t91.5 23q36 0 70 -15v-124q-17 16 -41 16q-46 0 -65 -42t-19 -93q0 -135 82 -135q21 0 43 15z" />
    <glyph glyph-name="d" unicode="d" horiz-adv-x="433" 
d="M258 0v57h-2q-34 -67 -93 -67q-40 0 -69 28.5t-42.5 73.5t-19.5 85t-6 76q0 40 5 79t18 83.5t42 72t70 27.5q67 0 95 -72h2v364h141v-807h-141zM219 119q16 0 26.5 16.5t15 42t6 44t1.5 33.5q0 16 -1.5 33.5t-6 43.5t-15.5 42t-28 16q-16 0 -27.5 -16t-15.5 -41.5
t-5.5 -43t-1.5 -34.5q0 -136 52 -136z" />
    <glyph glyph-name="e" unicode="e" horiz-adv-x="414" 
d="M266 302v12q0 93 -51 93q-20 0 -32.5 -16.5t-16 -35t-3.5 -38.5v-15h103zM388 273l-3 -58h-223q2 -74 17 -97q13 -20 36 -20q45 0 45 58h120q-10 -76 -48.5 -121t-111.5 -45q-99 0 -146.5 73t-47.5 179q0 49 9.5 94.5t30.5 87t60 66.5t91 25q75 0 126 -64.5t45 -177.5z
" />
    <glyph glyph-name="f" unicode="f" horiz-adv-x="299" 
d="M19 505h52v142q0 40 5 67.5t20 52.5t44.5 37.5t75.5 12.5q27 0 61 -12v-136q-14 8 -25 8q-7 0 -13 -1.5t-10 -5.5t-7 -7.5t-5 -10t-3 -10.5t-1.5 -12t-0.5 -12v-12.5v-10.5v-90h65v-116h-65v-389h-141v389h-52v116z" />
    <glyph glyph-name="g" unicode="g" horiz-adv-x="437" 
d="M220 119q16 0 26.5 16.5t14.5 42.5t5.5 43.5t1.5 33.5q0 135 -50 135q-17 0 -28 -16t-15.5 -41.5t-6 -43t-1.5 -34.5q0 -136 53 -136zM31 -67h125q4 -72 51 -72q13 0 23 5t15.5 15.5t9 19.5t5 26t2 25t0 26.5t-0.5 20.5v64h-2q-18 -35 -38 -54t-53 -19q-66 0 -109 84
q-33 66 -33 171q0 41 5 80.5t17.5 86t42 75t71.5 28.5q34 0 59 -19.5t38 -51.5h2v61h141v-549q0 -109 -47 -158t-142 -49q-171 0 -182 184z" />
    <glyph glyph-name="h" unicode="h" horiz-adv-x="424" 
d="M35 807h141v-380h2q15 38 46.5 63t70.5 25q23 0 40.5 -7t27.5 -23t16 -28.5t8.5 -38t2.5 -37v-39.5v-5v-5.5v-5.5v-326h-141v277q0 1 0.5 19t0 27t-3.5 23t-11 20.5t-21 6.5q-38 0 -38 -58v-315h-141v807z" />
    <glyph glyph-name="i" unicode="i" horiz-adv-x="209" 
d="M34 505h141v-505h-141v505zM104 565q-37 0 -63 26.5t-26 64.5t26.5 63.5t65.5 25.5q36 0 61.5 -27t25.5 -64q0 -36 -26.5 -62.5t-63.5 -26.5z" />
    <glyph glyph-name="j" unicode="j" horiz-adv-x="209" 
d="M34 505h141v-754h-141v754zM104 565q-37 0 -63 26.5t-26 64.5t26.5 63.5t65.5 25.5q36 0 61.5 -27t25.5 -64q0 -36 -26.5 -62.5t-63.5 -26.5z" />
    <glyph glyph-name="k" unicode="k" horiz-adv-x="440" 
d="M35 807h141v-479h2l77 177h153l-114 -206l139 -299h-155l-100 234h-2v-234h-141v807z" />
    <glyph glyph-name="l" unicode="l" horiz-adv-x="210" 
d="M35 807h141v-807h-141v807z" />
    <glyph glyph-name="m" unicode="m" horiz-adv-x="639" 
d="M176 505l1 -81h2q45 91 124 91q37 0 59 -24.5t28 -61.5h2q19 37 51 61.5t70 24.5q26 0 44.5 -12t27 -27t13.5 -41.5t5.5 -42.5t0.5 -43v-349h-141v274q0 2 0.5 13.5t0 18t-1 18.5t-3 19.5t-6 15t-10 11.5t-15.5 4q-38 0 -38 -57v-317h-141v283q0 3 0.5 13t0 16t-1 16
t-2.5 17t-5.5 13.5t-10 10t-14.5 3.5q-40 0 -40 -58v-31v-283h-141v505h141z" />
    <glyph glyph-name="n" unicode="n" horiz-adv-x="424" 
d="M176 505v-78h2q15 38 46.5 63t70.5 25q23 0 40.5 -7t27.5 -23t16 -28.5t8.5 -38t2.5 -37v-39.5v-5v-5.5v-5.5v-326h-141v277q0 1 0.5 19t0 27t-3.5 23t-11 20.5t-21 6.5q-38 0 -38 -58v-315h-141v505h141z" />
    <glyph glyph-name="o" unicode="o" horiz-adv-x="436" 
d="M218 515q54 0 93 -22.5t60 -61.5t30 -83t9 -96t-9 -96t-30 -83t-60 -61t-93 -22t-93 22t-60 61t-30 83t-9 96t9 96t30 83t60 61.5t93 22.5zM218 388q-51 0 -51 -136t51 -136t51 136t-51 136z" />
    <glyph glyph-name="p" unicode="p" horiz-adv-x="433" 
d="M215 119q51 0 51 136q0 16 -1.5 34t-6 43.5t-15.5 41.5t-27 16q-50 0 -50 -135q0 -16 1.5 -33.5t5.5 -43.5t15 -42.5t27 -16.5zM176 505v-62h2q28 72 94 72q42 0 71 -27.5t41.5 -72.5t17.5 -83.5t5 -78.5q0 -37 -5.5 -76.5t-19 -84.5t-42.5 -73.5t-69 -28.5q-61 0 -93 67
h-2v-306h-141v754h141z" />
    <glyph glyph-name="q" unicode="q" horiz-adv-x="433" 
d="M399 505v-754h-141v306h-2q-34 -67 -93 -67q-40 0 -69 28.5t-42.5 73.5t-19.5 85t-6 76q0 40 5 79t18 83.5t42 72t70 27.5q67 0 95 -72h2v62h141zM219 119q16 0 26.5 16.5t15 42t6 44t1.5 33.5q0 16 -1.5 33.5t-6 43.5t-15.5 42t-28 16q-16 0 -27.5 -16t-15.5 -41.5
t-5.5 -43t-1.5 -34.5q0 -136 52 -136z" />
    <glyph glyph-name="r" unicode="r" horiz-adv-x="315" 
d="M35 505h141v-61h2q43 73 115 80v-137q-14 2 -22 2q-27 0 -46 -8t-28.5 -18t-14 -31t-5.5 -36t-1 -44v-252h-141v505z" />
    <glyph glyph-name="s" unicode="s" horiz-adv-x="376" 
d="M323 484v-112q-39 30 -92 30q-48 0 -48 -37q0 -16 16.5 -28.5t40.5 -24t47.5 -27t40 -46t16.5 -72.5q0 -78 -43 -127.5t-119 -49.5q-70 0 -125 40v118q43 -33 85 -33q61 0 61 42q0 18 -16.5 31.5t-40 25.5t-47.5 28.5t-40.5 48.5t-16.5 76q0 69 49 108.5t120 39.5
q72 0 112 -31z" />
    <glyph glyph-name="t" unicode="t" horiz-adv-x="308" 
d="M79 645h141v-140h58v-116h-58v-389h-141v389h-49v116h49v140z" />
    <glyph glyph-name="u" unicode="u" horiz-adv-x="423" 
d="M35 505h141v-277q0 -2 -1 -21t0 -29.5t4 -25.5t11.5 -22.5t21.5 -7.5q36 0 35 70v5l1 308h140v-322q0 -91 -44.5 -142t-135.5 -51q-46 0 -79.5 14t-51 33.5t-27.5 50.5t-12.5 56t-2.5 58v303z" />
    <glyph glyph-name="v" unicode="v" horiz-adv-x="452" 
d="M15 505h140l68 -285h2l66 285h146l-146 -505h-131z" />
    <glyph glyph-name="w" unicode="w" horiz-adv-x="694" 
d="M15 505h137l68 -296h2l66 296h121l64 -296h2l10 54l60 242h134l-140 -505h-116l-46 171l-30 146h-2l-29 -161l-40 -156h-118z" />
    <glyph glyph-name="x" unicode="x" horiz-adv-x="489" 
d="M42 505h146l40 -77l15 -31l57 108h146l-129 -233l149 -272h-149l-74 139l-75 -139h-145l145 272z" />
    <glyph glyph-name="y" unicode="y" horiz-adv-x="452" 
d="M15 505h142l53 -204l17 -84h2l66 288h142l-217 -754h-139l81 259z" />
    <glyph glyph-name="z" unicode="z" horiz-adv-x="401" 
d="M39 505h339l-156 -388h139v-117h-338l160 388h-144v117z" />
    <glyph glyph-name="braceleft" unicode="{" horiz-adv-x="300" 
d="M303 -124h-65q-86 0 -115.5 36t-29.5 119v138q0 106 -75 106v76q75 0 75 106v162q0 70 28 102.5t95 32.5h87v-76q-47 0 -63.5 -25.5t-16.5 -74.5v-132q0 -59 -17 -89.5t-65 -41.5v-2q48 -8 65 -45.5t17 -96.5v-119q0 -46 17 -73t63 -27v-76z" />
    <glyph glyph-name="bar" unicode="|" horiz-adv-x="250" 
d="M70 0v807h110v-807h-110z" />
    <glyph glyph-name="braceright" unicode="}" horiz-adv-x="300" 
d="M62 -124h-65v76q46 0 63 27t17 73v119q0 59 17 96.5t65 45.5v2q-48 11 -65 41.5t-17 89.5v132q0 49 -16.5 74.5t-63.5 25.5v76h87q67 0 95 -32.5t28 -102.5v-162q0 -106 75 -106v-76q-75 0 -75 -106v-138q0 -83 -29.5 -119t-115.5 -36z" />
    <glyph glyph-name="asciitilde" unicode="~" 
d="M414 359l56 -73q-39 -69 -62 -89q-30 -28 -67 -28q-33 0 -103 33t-83 33q-10 0 -19 -4t-15 -9t-13.5 -16t-10.5 -16.5t-10 -19.5t-9 -17l-57 74q27 55 58 89.5t75 34.5q35 0 102 -33t85 -33q13 0 25 8.5t17.5 15.5t17 27t13.5 23z" />
    <glyph glyph-name="sterling" unicode="&#xa3;" 
d="M44 0v113q63 65 60 167h-93v77h86q-2 24 -13 85t-11 96q0 100 57 161t156 61q197 0 194 -225h-128l1 16q2 34 -12 60t-46 26q-39 0 -57.5 -28.5t-18.5 -66.5q0 -32 10.5 -94t11.5 -91h127v-77h-130q-6 -88 -47 -158l21 1q27 1 78 -9.5t76 -10.5q60 0 109 25v-118
q-36 -21 -87 -21q-41 0 -118.5 14.5t-117.5 14.5q-52 0 -108 -18z" />
    <glyph glyph-name="currency" unicode="&#xa4;" 
d="M4 137l42 44q-35 65 -35 128q0 69 35 129l-42 42l76 80l42 -43q62 38 123 38q67 0 127 -38l43 43l72 -80l-41 -42q36 -60 36 -128q0 -76 -36 -129l41 -44l-72 -79l-43 43q-63 -38 -123 -38q-69 0 -127 38l-42 -43zM247 437q-49 0 -83.5 -38.5t-34.5 -88.5t35 -89.5
t83 -39.5q49 0 83 39.5t34 89.5t-34 88.5t-83 38.5z" />
    <glyph glyph-name="brokenbar" unicode="&#xa6;" horiz-adv-x="250" 
d="M70 0v329h110v-329h-110zM180 807v-328h-110v328h110z" />
    <glyph glyph-name="section" unicode="&#xa7;" horiz-adv-x="491" 
d="M261 211l11 -7q59 20 59 75q0 12 -3 23t-10.5 20.5t-13.5 16t-18.5 14.5t-18.5 12t-21 12t-19 10l-23 13q-45 -26 -45 -72q0 -15 5 -28.5t10.5 -22.5t18.5 -20t19.5 -15.5t25 -16t23.5 -14.5zM188 10v-13q0 -72 67 -72q24 0 36 19t12 48q0 12 -3 23t-5 18.5t-10.5 17
t-11.5 13.5t-16.5 13t-16 11t-19.5 12t-18 11q-7 4 -31 18t-32 19.5t-28 19t-27.5 21.5t-20.5 23t-18.5 28.5t-10.5 32t-5 38.5q-2 90 79 145q-28 21 -44.5 56t-15.5 74q1 90 55 135t136 45q92 0 144 -48.5t52 -139.5v-21h-133v23q0 79 -65 79q-58 0 -58 -62q2 -14 7 -26
t14 -22.5t15.5 -17.5t21 -16t20 -12.5t23 -12.5t21.5 -11q81 -43 106 -65q49 -45 52 -120q3 -104 -92 -158q75 -50 75 -153q0 -78 -54.5 -121.5t-134.5 -43.5q-87 0 -145 44.5t-58 128.5v19h137z" />
    <glyph glyph-name="copyright" unicode="&#xa9;" horiz-adv-x="830" 
d="M416 -12q-164 0 -279 114t-115 277q0 161 115 274t279 113q163 0 277.5 -113t114.5 -274q0 -163 -114.5 -277t-277.5 -114zM416 61q130 0 222 93.5t92 224.5q0 130 -92 222t-222 92q-132 0 -224 -92t-92 -222q0 -132 92 -225t224 -93zM528 638v-96q-20 6 -39 6
q-65 0 -98.5 -48.5t-33.5 -116.5q0 -67 34 -121t97 -54q14 0 40 8v-99q-22 -9 -48 -9q-108 0 -171 82t-63 193q0 104 63.5 184.5t165.5 80.5q29 0 53 -10z" />
    <glyph glyph-name="guillemotleft" unicode="&#xab;" horiz-adv-x="433" 
d="M406 525l-103 -195l103 -189l-77 -43l-130 232l130 234zM233 525l-102 -195l102 -189l-76 -43l-131 232l131 234z" />
    <glyph glyph-name="logicalnot" unicode="&#xac;" 
d="M360 112v186h-339v110h449v-296h-110z" />
    <glyph glyph-name="registered" unicode="&#xae;" horiz-adv-x="830" 
d="M416 -12q-164 0 -279 114t-115 277q0 161 115 274t279 113q163 0 277.5 -113t114.5 -274q0 -163 -114.5 -277t-277.5 -114zM416 61q130 0 222 93.5t92 224.5q0 130 -92 222t-222 92q-132 0 -224 -92t-92 -222q0 -132 92 -225t224 -93zM393 120h-104v528h105
q26 0 45.5 -1.5t48 -10t47 -23.5t32 -45t13.5 -71q0 -94 -75 -137l91 -240h-110l-91 244h-2v-244zM393 562v-141l19 -1q33 -1 49.5 20t16.5 56q0 66 -71 66h-14z" />
    <glyph glyph-name="degree" unicode="&#xb0;" horiz-adv-x="400" 
d="M200 766q62 0 106 -44t44 -106t-44 -106t-106 -44t-105.5 44t-44.5 106q0 62 44 106t106 44zM200 687q-29 0 -50 -21t-21 -50q1 -30 21.5 -50.5t50.5 -20.5q29 0 49.5 20.5t20.5 50.5q0 29 -20.5 50t-50.5 21z" />
    <glyph glyph-name="plusminus" unicode="&#xb1;" 
d="M190 394v134h110v-134h170v-110h-170v-134h-110v134h-169v110h169zM21 0v110h449v-110h-449z" />
    <glyph glyph-name="mu" unicode="&#xb5;" horiz-adv-x="423" 
d="M248 505h141v-326v-16q0 -25 -0.5 -39t-2.5 -38t-8 -38t-16 -29t-27.5 -22t-40.5 -7q-39 0 -70.5 25t-46.5 63h-2v-327h-141v754h141v-315q0 -58 38 -58q13 0 21 6.5t11 20.5t3.5 23t0 27t-0.5 19v277z" />
    <glyph glyph-name="mu" unicode="&#x3bc;" horiz-adv-x="423" 
d="M248 505h141v-326v-16q0 -25 -0.5 -39t-2.5 -38t-8 -38t-16 -29t-27.5 -22t-40.5 -7q-39 0 -70.5 25t-46.5 63h-2v-327h-141v754h141v-315q0 -58 38 -58q13 0 21 6.5t11 20.5t3.5 23t0 27t-0.5 19v277z" />
    <glyph glyph-name="paragraph" unicode="&#xb6;" horiz-adv-x="600" 
d="M371 -112v748h-68v-748h-118v517q-76 0 -116.5 47t-40.5 124q0 97 50.5 137.5t149.5 40.5h303v-118h-42v-748h-118zM185 -112h118h-118z" />
    <glyph glyph-name="periodcentered" unicode="&#xb7;" horiz-adv-x="245" 
d="M122 351q40 0 67.5 -28t27.5 -67t-27.5 -67t-67.5 -28t-67.5 28t-27.5 67t27.5 67t67.5 28z" />
    <glyph glyph-name="periodcentered" unicode="&#x2219;" horiz-adv-x="245" 
d="M122 351q40 0 67.5 -28t27.5 -67t-27.5 -67t-67.5 -28t-67.5 28t-27.5 67t27.5 67t67.5 28z" />
    <glyph glyph-name="guillemotright" unicode="&#xbb;" horiz-adv-x="433" 
d="M103 564l131 -234l-131 -232l-76 43l102 189l-102 195zM276 564l131 -234l-131 -232l-76 43l102 189l-102 195z" />
    <glyph glyph-name="divide" unicode="&#xf7;" 
d="M21 201v110h449v-110h-449zM308 384h-127v115h127v-115zM308 13h-127v115h127v-115z" />
    <glyph glyph-name="florin" unicode="&#x192;" 
d="M492 747l-22 -103q-22 12 -42 12q-17 0 -30 -6.5t-20.5 -13.5t-13 -23t-7 -25.5t-4.5 -30t-4 -27.5l-5 -31h111v-95h-124l-48 -295q-27 -159 -61 -224q-17 -33 -52 -51.5t-74 -18.5q-37 0 -87 12l17 110q18 -16 45.5 -15t38.5 24q13 24 23 80l65 378h-111v95h126l16 78
q17 86 58 136t120 50q28 0 78 -14q1 -1 3.5 -1t3.5 -1z" />
    <glyph glyph-name="Delta" unicode="&#x394;" horiz-adv-x="667" 
d="M665 1h-663l353 688zM481 82l-165 361l-186 -361h351z" />
    <glyph glyph-name="Delta" unicode="&#x2206;" horiz-adv-x="667" 
d="M665 1h-663l353 688zM481 82l-165 361l-186 -361h351z" />
    <glyph glyph-name="afii10023" unicode="&#x401;" horiz-adv-x="392" 
d="M53 754h300v-140h-151v-164h133v-140h-133v-170h153v-140h-302v754zM167 908q0 -30 -22 -51.5t-53 -21.5q-30 0 -52 21.5t-22 51.5q0 32 22 54t54 22q30 0 51.5 -22.5t21.5 -53.5zM375 908q0 -30 -22 -51.5t-53 -21.5q-30 0 -52 21.5t-22 51.5q0 32 22 54t54 22
q30 0 51.5 -22.5t21.5 -53.5z" />
    <glyph glyph-name="afii10051" unicode="&#x402;" horiz-adv-x="578" 
d="M543 218q0 -114 -53.5 -172t-170.5 -58v135q50 0 62.5 18t12.5 65q0 53 -17 73.5t-79 20.5h-17v-300h-149v614h-117v140h384v-140h-118v-179h58q111 0 157.5 -52.5t46.5 -164.5z" />
    <glyph glyph-name="afii10052" unicode="&#x403;" horiz-adv-x="382" 
d="M261 1003l102 -46l-129 -138l-69 40zM53 754h301v-140h-152v-614h-149v754z" />
    <glyph glyph-name="afii10053" unicode="&#x404;" horiz-adv-x="452" 
d="M436 5q-32 -13 -69 -13q-103 0 -181 57.5t-115.5 145t-37.5 189.5q0 95 38.5 180.5t115 142t173.5 56.5q37 0 76 -14v-137q-30 8 -56 8q-75 0 -121 -47.5t-61 -122.5h199v-140h-197q17 -75 62.5 -125t116.5 -50q22 0 57 11v-141z" />
    <glyph glyph-name="afii10054" unicode="&#x405;" horiz-adv-x="440" 
d="M363 729v-145q-55 48 -108 48q-35 0 -55 -20t-20 -54t23.5 -62t57 -51.5t66.5 -50.5t56.5 -71t23.5 -100q0 -104 -57.5 -169.5t-159.5 -65.5q-76 0 -128 38v142q58 -40 113 -40q37 0 61.5 22.5t24.5 59.5q0 12 -2 22.5t-8.5 20t-10 15.5t-15.5 15.5t-15 12t-19 13
t-18 11.5q-47 33 -75 60.5t-46 69t-18 94.5q0 94 52.5 158t144.5 64q69 0 132 -37z" />
    <glyph glyph-name="afii10055" unicode="&#x406;" horiz-adv-x="255" 
d="M53 754h149v-754h-149v754z" />
    <glyph glyph-name="afii10056" unicode="&#x407;" horiz-adv-x="255" 
d="M53 754h149v-754h-149v754zM99 908q0 -30 -22 -51.5t-53 -21.5q-30 0 -52 21.5t-22 51.5q0 32 22 54t54 22q30 0 51.5 -22.5t21.5 -53.5zM307 908q0 -30 -22 -51.5t-53 -21.5q-30 0 -52 21.5t-22 51.5q0 32 22 54t54 22q30 0 51.5 -22.5t21.5 -53.5z" />
    <glyph glyph-name="afii10057" unicode="&#x408;" horiz-adv-x="352" 
d="M304 754v-510v-35t-3 -42t-9 -51t-19 -45.5t-31.5 -43.5t-49 -27t-68.5 -12q-69 0 -112 23v149q32 -42 78 -42q23 0 37.5 10t20 31t6.5 35t1 41v9v510h149z" />
    <glyph glyph-name="afii10058" unicode="&#x409;" horiz-adv-x="776" 
d="M353 614h-104v-324q0 -143 -51.5 -216.5t-168.5 -73.5h-17v140h2q51 0 69 33.5t18 107.5v473h401v-309h20q96 0 159 -54.5t63 -158.5q0 -123 -67 -177.5t-179 -54.5h-145v614zM597 229q0 45 -26 73t-69 27v-204q44 -2 69.5 27t25.5 77z" />
    <glyph glyph-name="afii10059" unicode="&#x40a;" horiz-adv-x="776" 
d="M353 319h-151v-319h-149v754h149v-295h151v295h149v-309h20q96 0 159 -54.5t63 -158.5q0 -123 -67 -177.5t-179 -54.5h-145v319zM597 229q0 45 -26 73t-69 27v-204q44 -2 69.5 27t25.5 77z" />
    <glyph glyph-name="afii10060" unicode="&#x40b;" horiz-adv-x="578" 
d="M281 0h-149v614h-117v140h384v-140h-118v-179h58q112 0 158 -53.5t46 -173.5v-208h-149v158q0 87 -16 114.5t-80 27.5h-17v-300z" />
    <glyph glyph-name="afii10061" unicode="&#x40c;" horiz-adv-x="513" 
d="M53 754h149v-337h2l124 337h152l-139 -348l157 -406h-157l-137 384h-2v-384h-149v754zM281 1003l102 -46l-129 -138l-69 40z" />
    <glyph glyph-name="afii10062" unicode="&#x40e;" horiz-adv-x="565" 
d="M282 427l106 327h161l-275 -754h-152l92 226l-200 528h165zM283 824q-60 0 -108 29t-64 82l89 29q17 -51 83 -51q65 0 84 50l85 -28q-11 -52 -60 -81.5t-109 -29.5z" />
    <glyph glyph-name="afii10145" unicode="&#x40f;" horiz-adv-x="555" 
d="M502 0h-151v-196h-149v196h-149v754h149v-614h151v614h149v-754z" />
    <glyph glyph-name="afii10017" unicode="&#x410;" horiz-adv-x="528" 
d="M183 754h157l181 -754h-159l-28 127h-151l-27 -127h-148zM312 245l-38 201l-17 114h-2l-16 -114l-32 -201h105z" />
    <glyph glyph-name="afii10018" unicode="&#x411;" horiz-adv-x="479" 
d="M297 229q0 45 -26 73t-69 27v-204q44 -2 69.5 27t25.5 77zM444 232q0 -123 -67 -177.5t-179 -54.5h-145v754h321v-140h-172v-169h20q96 0 159 -54.5t63 -158.5z" />
    <glyph glyph-name="afii10019" unicode="&#x412;" horiz-adv-x="479" 
d="M297 229q0 45 -26 73t-69 27v-204q44 -2 69.5 27t25.5 77zM198 0h-145v754h146q54 0 88.5 -7.5t67.5 -33.5q37 -29 57 -75t20 -95q0 -101 -81 -156q44 -21 68.5 -71.5t24.5 -103.5q0 -106 -68.5 -159t-177.5 -53zM291 540q0 42 -23.5 66.5t-65.5 22.5v-184q42 0 65.5 26
t23.5 69z" />
    <glyph glyph-name="afii10020" unicode="&#x413;" horiz-adv-x="382" 
d="M53 754h301v-140h-152v-614h-149v754z" />
    <glyph glyph-name="afii10021" unicode="&#x414;" horiz-adv-x="555" 
d="M556 -196h-149v196h-255v-196h-149v336h7q49 0 78.5 69.5t29.5 168.5v376h384v-614h54v-336zM353 140v474h-86v-206q0 -213 -62 -268h148z" />
    <glyph glyph-name="afii10022" unicode="&#x415;" horiz-adv-x="392" 
d="M53 754h300v-140h-151v-164h133v-140h-133v-170h153v-140h-302v754z" />
    <glyph glyph-name="afii10024" unicode="&#x416;" horiz-adv-x="760" 
d="M751 0h-157l-137 384h-2v-384h-149v384h-2l-137 -384h-157l157 406l-139 348h152l124 -337h2v337h149v-337h2l124 337h152l-139 -348z" />
    <glyph glyph-name="afii10025" unicode="&#x417;" horiz-adv-x="440" 
d="M375 569q0 -141 -93 -178v-2q110 -27 110 -166q0 -104 -57.5 -169.5t-159.5 -65.5q-76 0 -128 38v142q58 -40 113 -40q37 0 61.5 25t24.5 67q0 62 -29 87t-93 23v130q64 0 89 19.5t25 79.5q0 27 -22.5 50t-55.5 23q-53 0 -108 -48v145q63 37 132 37q92 0 141.5 -55
t49.5 -142z" />
    <glyph glyph-name="afii10026" unicode="&#x418;" horiz-adv-x="555" 
d="M53 754h149v-305l-15 -147h5l161 452h149v-754h-149v336l15 118h-5l-161 -454h-149v754z" />
    <glyph glyph-name="afii10027" unicode="&#x419;" horiz-adv-x="555" 
d="M502 0h-149v336l15 118h-5l-161 -454h-149v754h149v-305l-15 -147h5l161 452h149v-754zM276 824q-60 0 -108 29t-64 82l89 29q17 -51 83 -51q65 0 84 50l85 -28q-11 -52 -60 -81.5t-109 -29.5z" />
    <glyph glyph-name="afii10028" unicode="&#x41a;" horiz-adv-x="513" 
d="M53 754h149v-337h2l124 337h152l-139 -348l157 -406h-157l-137 384h-2v-384h-149v754z" />
    <glyph glyph-name="afii10029" unicode="&#x41b;" horiz-adv-x="555" 
d="M502 754v-754h-149v614h-104v-324q0 -143 -51.5 -216.5t-168.5 -73.5h-17v140h2q51 0 69 33.5t18 107.5v473h401z" />
    <glyph glyph-name="afii10030" unicode="&#x41c;" horiz-adv-x="722" 
d="M89 754h196l73 -445h2l60 445h200l79 -754h-153l-36 543h-2l-24 -186l-64 -357h-115l-73 361l-25 168v14h-2l-22 -543h-160z" />
    <glyph glyph-name="afii10031" unicode="&#x41d;" horiz-adv-x="555" 
d="M53 754h149v-295h151v295h149v-754h-149v319h-151v-319h-149v754z" />
    <glyph glyph-name="afii10032" unicode="&#x41e;" horiz-adv-x="582" 
d="M291 766q52 0 98 -21.5t84 -66t60.5 -122t22.5 -179.5t-22.5 -179.5t-60.5 -122t-84 -66t-98 -21.5t-98 21.5t-84 66t-60.5 122t-22.5 179.5t22.5 179.5t60.5 122t84 66t98 21.5zM185 377q0 -33 3 -66.5t12.5 -80t32.5 -75.5t58 -29t58 29t32.5 75.5t12.5 80t3 66.5
q0 36 -3 69.5t-12.5 79.5t-32.5 74t-58 28t-58 -28t-32.5 -74t-12.5 -79.5t-3 -69.5z" />
    <glyph glyph-name="afii10033" unicode="&#x41f;" horiz-adv-x="555" 
d="M53 754h449v-754h-149v614h-151v-614h-149v754z" />
    <glyph glyph-name="afii10034" unicode="&#x420;" horiz-adv-x="487" 
d="M202 0h-149v754h155q71 0 108 -9q148 -39 148 -214q0 -106 -63 -167t-166 -55l-33 2v-311zM202 631v-199q113 -5 113 101q0 98 -85 98h-28z" />
    <glyph glyph-name="afii10035" unicode="&#x421;" horiz-adv-x="452" 
d="M429 749v-137q-30 8 -56 8q-92 0 -140 -69.5t-48 -165.5q0 -60 18.5 -115t63 -95t105.5 -40q22 0 57 11v-141q-32 -13 -69 -13q-103 0 -181 57.5t-115.5 145t-37.5 189.5q0 95 38.5 180.5t115 142t173.5 56.5q37 0 76 -14z" />
    <glyph glyph-name="afii10036" unicode="&#x422;" horiz-adv-x="414" 
d="M15 754h384v-140h-118v-614h-149v614h-117v140z" />
    <glyph glyph-name="afii10037" unicode="&#x423;" horiz-adv-x="565" 
d="M282 427l106 327h161l-275 -754h-152l92 226l-200 528h165z" />
    <glyph glyph-name="afii10038" unicode="&#x424;" horiz-adv-x="647" 
d="M621 386q0 -84 -20 -148t-54 -100t-72.5 -53.5t-81.5 -19.5v-65h-139v65q-43 2 -81.5 19.5t-72.5 53.5t-54 100t-20 148q0 85 20 149t54 99.5t72.5 53t81.5 19.5v47h139v-47q43 -2 81.5 -19.5t72.5 -53t54 -99.5t20 -149zM474 386q0 69 -22 127t-59 67v-388q38 9 59.5 64
t21.5 130zM254 192v388q-37 -9 -59 -67t-22 -127q0 -75 21.5 -130t59.5 -64z" />
    <glyph glyph-name="afii10039" unicode="&#x425;" horiz-adv-x="545" 
d="M22 754h168l43 -105q24 -59 36 -115h2q14 69 34 115l45 105h161l-161 -365l173 -389h-173l-48 120q-10 25 -33 113h-2q-32 -109 -33 -113l-44 -120h-168l160 389z" />
    <glyph glyph-name="afii10040" unicode="&#x426;" horiz-adv-x="555" 
d="M407 0h-354v754h149v-614h151v614h149v-614h54v-336h-149v196z" />
    <glyph glyph-name="afii10041" unicode="&#x427;" horiz-adv-x="509" 
d="M249 318q-112 0 -158 53.5t-46 173.5v208h149v-158q0 -87 16 -114.5t80 -27.5h17v301h149v-754h-149v318h-58z" />
    <glyph glyph-name="afii10042" unicode="&#x428;" horiz-adv-x="785" 
d="M472 140h121v614h149v-754h-689v754h149v-614h121v614h149v-614z" />
    <glyph glyph-name="afii10043" unicode="&#x429;" horiz-adv-x="785" 
d="M53 0v754h149v-614h121v614h149v-614h121v614h149v-614h54v-336h-149v196h-594z" />
    <glyph glyph-name="afii10044" unicode="&#x42a;" horiz-adv-x="555" 
d="M382 229q0 45 -26 73t-69 27v-204q44 -2 69.5 27t25.5 77zM138 614h-123v140h272v-309h20q96 0 159 -54.5t63 -158.5q0 -123 -67 -177.5t-179 -54.5h-145v614z" />
    <glyph glyph-name="afii10045" unicode="&#x42b;" horiz-adv-x="702" 
d="M503 754h149v-754h-149v754zM297 229q0 45 -26 73t-69 27v-204q44 -2 69.5 27t25.5 77zM444 232q0 -123 -67 -177.5t-179 -54.5h-145v754h149v-309h20q96 0 159 -54.5t63 -158.5z" />
    <glyph glyph-name="afii10046" unicode="&#x42c;" horiz-adv-x="470" 
d="M297 229q0 45 -26 73t-69 27v-204q44 -2 69.5 27t25.5 77zM444 232q0 -123 -67 -177.5t-179 -54.5h-145v754h149v-309h20q96 0 159 -54.5t63 -158.5z" />
    <glyph glyph-name="afii10047" unicode="&#x42d;" horiz-adv-x="452" 
d="M434 384q0 -102 -37.5 -189.5t-115.5 -145t-181 -57.5q-37 0 -69 13v141q35 -11 57 -11q71 0 116.5 50t62.5 125h-197v140h199q-15 75 -61 122.5t-121 47.5q-26 0 -56 -8v137q39 14 76 14q97 0 173.5 -56.5t115 -142t38.5 -180.5z" />
    <glyph glyph-name="afii10048" unicode="&#x42e;" horiz-adv-x="815" 
d="M796 377q0 -102 -22.5 -179.5t-60.5 -122t-84 -66t-98 -21.5q-102 0 -176.5 81.5t-86.5 249.5h-66v-319h-149v754h149v-295h68q16 156 89.5 231.5t171.5 75.5q52 0 98 -21.5t84 -66t60.5 -122t22.5 -179.5zM637 377q0 36 -3 69.5t-12.5 79.5t-32.5 74t-58 28t-58 -28
t-32.5 -74t-12.5 -79.5t-3 -69.5q0 -33 3 -66.5t12.5 -80t32.5 -75.5t58 -29t58 29t32.5 75.5t12.5 80t3 66.5z" />
    <glyph glyph-name="afii10049" unicode="&#x42f;" horiz-adv-x="530" 
d="M471 0h-149v348h-2l-131 -348h-157l131 343q-107 59 -107 195q0 59 19.5 101.5t45.5 64t66.5 33.5t68.5 14.5t65 2.5h150v-754zM322 430v201h-20q-101 0 -101 -94q0 -50 23.5 -80t71.5 -28z" />
    <glyph glyph-name="afii10065" unicode="&#x430;" horiz-adv-x="433" 
d="M219 119q16 0 26.5 16.5t15 42t6 44t1.5 33.5q0 16 -1.5 33.5t-6 43.5t-15.5 42t-28 16q-16 0 -27.5 -16t-15.5 -41.5t-5.5 -43t-1.5 -34.5q0 -136 52 -136zM258 0v57h-2q-34 -67 -93 -67q-40 0 -69 28.5t-42.5 73.5t-19.5 85t-6 76q0 40 5 79t18 83.5t42 72t70 27.5
q67 0 95 -72h2v62h141v-505h-141z" />
    <glyph glyph-name="afii10066" unicode="&#x431;" horiz-adv-x="436" 
d="M248 505q81 0 121.5 -73t40.5 -180q0 -52 -9 -96t-30 -83t-60 -61t-93 -22q-137 0 -177 142q-15 54 -15 159q0 133 25.5 236.5t70.5 154.5q26 29 83.5 63.5t69.5 61.5h137q0 -20 -10.5 -47.5t-24.5 -41.5q-26 -28 -78 -55.5t-69 -38.5q-81 -55 -96 -172l3 -3
q42 56 111 56zM269 252q0 136 -51 136t-51 -136t51 -136t51 136z" />
    <glyph glyph-name="afii10067" unicode="&#x432;" horiz-adv-x="414" 
d="M387 156q0 -68 -44 -112t-120 -44h-188v505h183q78 0 113.5 -36.5t35.5 -96.5q0 -31 -12 -56t-27 -34q23 -9 41 -44t18 -82zM242 351q0 16 -13.5 29.5t-32.5 13.5h-30v-86h28q19 0 33.5 12t14.5 31zM255 164q0 24 -16.5 39t-37.5 15h-34v-109h33q22 0 38.5 17t16.5 38z
" />
    <glyph glyph-name="afii10068" unicode="&#x433;" horiz-adv-x="315" 
d="M304 505v-116h-128v-389h-141v505h269z" />
    <glyph glyph-name="afii10069" unicode="&#x434;" horiz-adv-x="473" 
d="M473 -180h-131v180h-200v-180h-131v297h21q19 12 30 24.5t16 34t5.5 36.5t0.5 51v19v223h337v-388h52v-297zM280 117v271h-55v-76q0 -154 -35 -195h90z" />
    <glyph glyph-name="afii10070" unicode="&#x435;" horiz-adv-x="414" 
d="M266 302v12q0 93 -51 93q-20 0 -32.5 -16.5t-16 -35t-3.5 -38.5v-15h103zM388 273l-3 -58h-223q2 -74 17 -97q13 -20 36 -20q45 0 45 58h120q-10 -76 -48.5 -121t-111.5 -45q-99 0 -146.5 73t-47.5 179q0 49 9.5 94.5t30.5 87t60 66.5t91 25q75 0 126 -64.5t45 -177.5z
" />
    <glyph glyph-name="afii10072" unicode="&#x436;" horiz-adv-x="667" 
d="M656 0h-155l-98 250h-4v-250h-136v250h-4l-98 -250h-155l139 273l-119 232h153l80 -213h4v213h136v-213h4l80 213h153l-119 -232z" />
    <glyph glyph-name="afii10073" unicode="&#x437;" horiz-adv-x="356" 
d="M329 158q0 -70 -41.5 -118.5t-131.5 -48.5q-73 0 -130 42v127q13 -20 40.5 -36t55.5 -16q34 0 50.5 17.5t16.5 44.5q0 57 -54 57h-53v87h37q60 0 60 50q0 20 -15.5 33t-44.5 13q-21 0 -45 -13t-39 -32v122q38 28 120 28q79 0 117.5 -40.5t38.5 -88.5q0 -43 -18 -71.5
t-38 -35.5v-2q25 -6 49.5 -37t24.5 -82z" />
    <glyph glyph-name="afii10074" unicode="&#x438;" horiz-adv-x="424" 
d="M163 0h-128v505h136v-172l-5 -86h2l96 258h128v-505h-136v184l5 76h-2z" />
    <glyph glyph-name="afii10075" unicode="&#x439;" horiz-adv-x="424" 
d="M213 582q-57 0 -102 27.5t-60 77.5l84 27q16 -48 78 -48q61 0 80 47l80 -26q-11 -49 -57 -77t-103 -28zM163 0h-128v505h136v-172l-5 -86h2l96 258h128v-505h-136v184l5 76h-2z" />
    <glyph glyph-name="afii10076" unicode="&#x43a;" horiz-adv-x="440" 
d="M35 505h141v-213h4l80 213h153l-119 -232l139 -273h-155l-98 250h-4v-250h-141v505z" />
    <glyph glyph-name="afii10077" unicode="&#x43b;" horiz-adv-x="424" 
d="M392 0h-141v388h-55v-183q0 -103 -40 -154t-135 -51h-17v117h2q27 0 38 16t11 64v308h337v-505z" />
    <glyph glyph-name="afii10078" unicode="&#x43c;" horiz-adv-x="654" 
d="M385 0h-116l-60 275h-2l-44 -275h-149l110 505h126l60 -232l16 -85h2l16 85l60 232h126l110 -505h-149l-44 275h-2z" />
    <glyph glyph-name="afii10079" unicode="&#x43d;" horiz-adv-x="424" 
d="M176 215v-215h-141v505h141v-173h75v173h141v-505h-141v215h-75z" />
    <glyph glyph-name="afii10080" unicode="&#x43e;" horiz-adv-x="436" 
d="M218 515q54 0 93 -22.5t60 -61.5t30 -83t9 -96t-9 -96t-30 -83t-60 -61t-93 -22t-93 22t-60 61t-30 83t-9 96t9 96t30 83t60 61.5t93 22.5zM218 388q-51 0 -51 -136t51 -136t51 136t-51 136z" />
    <glyph glyph-name="afii10081" unicode="&#x43f;" horiz-adv-x="424" 
d="M176 388v-388h-141v505h357v-505h-141v388h-75z" />
    <glyph glyph-name="afii10082" unicode="&#x440;" horiz-adv-x="433" 
d="M215 119q51 0 51 136q0 16 -1.5 34t-6 43.5t-15.5 41.5t-27 16q-50 0 -50 -135q0 -16 1.5 -33.5t5.5 -43.5t15 -42.5t27 -16.5zM176 505v-62h2q28 72 94 72q42 0 71 -27.5t41.5 -72.5t17.5 -83.5t5 -78.5q0 -37 -5.5 -76.5t-19 -84.5t-42.5 -73.5t-69 -28.5q-61 0 -93 67
h-2v-306h-141v754h141z" />
    <glyph glyph-name="afii10083" unicode="&#x441;" horiz-adv-x="315" 
d="M292 137v-129q-39 -18 -81 -18q-64 0 -108 42t-60.5 98t-16.5 119q0 50 10.5 95.5t32.5 85t61.5 62.5t91.5 23q36 0 70 -15v-124q-17 16 -41 16q-46 0 -65 -42t-19 -93q0 -135 82 -135q21 0 43 15z" />
    <glyph glyph-name="afii10084" unicode="&#x442;" horiz-adv-x="338" 
d="M323 505v-116h-83v-389h-141v389h-83v116h307z" />
    <glyph glyph-name="afii10085" unicode="&#x443;" horiz-adv-x="452" 
d="M15 505h142l53 -204l17 -84h2l66 288h142l-217 -754h-139l81 259z" />
    <glyph glyph-name="afii10086" unicode="&#x444;" horiz-adv-x="591" 
d="M565 252q0 -116 -49.5 -187t-152.5 -75v-240h-135v240q-103 4 -152.5 75t-49.5 187q0 119 49.5 189t152.5 74l1 292h134v-292q103 -4 152.5 -74t49.5 -189zM429 252q0 60 -17.5 101t-48.5 49v-300q66 18 66 150zM228 102v300q-31 -8 -48.5 -49t-17.5 -101q0 -132 66 -150
z" />
    <glyph glyph-name="afii10087" unicode="&#x445;" horiz-adv-x="489" 
d="M42 505h146l40 -77l15 -31l57 108h146l-129 -233l149 -272h-149l-74 139l-75 -139h-145l145 272z" />
    <glyph glyph-name="afii10088" unicode="&#x446;" horiz-adv-x="444" 
d="M313 0h-278v505h141v-388h75v388h141v-388h52v-297h-131v180z" />
    <glyph glyph-name="afii10089" unicode="&#x447;" horiz-adv-x="400" 
d="M176 184q-75 0 -114.5 44.5t-39.5 132.5v144h141v-114q0 -45 13.5 -67.5t47.5 -22.5h3v204h141v-505h-141v184h-51z" />
    <glyph glyph-name="afii10090" unicode="&#x448;" horiz-adv-x="627" 
d="M35 0v505h141v-388h67v388h141v-388h67v388h141v-505h-557z" />
    <glyph glyph-name="afii10091" unicode="&#x449;" horiz-adv-x="644" 
d="M35 0v505h141v-388h67v388h141v-388h67v388h141v-388h52v-297h-131v180h-478z" />
    <glyph glyph-name="afii10092" unicode="&#x44a;" horiz-adv-x="452" 
d="M431 171q0 -69 -40.5 -120t-125.5 -51h-163v389h-89v116h227v-171h30q83 0 122 -46.5t39 -116.5zM298 167q0 26 -17 47t-45 21h-5v-135h6q28 0 44.5 17.5t16.5 49.5z" />
    <glyph glyph-name="afii10093" unicode="&#x44b;" horiz-adv-x="574" 
d="M401 505h141v-505h-141v505zM364 171q0 -69 -40.5 -120t-125.5 -51h-163v505h138v-171h30q83 0 122 -46.5t39 -116.5zM231 167q0 26 -17 47t-45 21h-5v-135h6q28 0 44.5 17.5t16.5 49.5z" />
    <glyph glyph-name="afii10094" unicode="&#x44c;" horiz-adv-x="385" 
d="M364 171q0 -69 -40.5 -120t-125.5 -51h-163v505h138v-171h30q83 0 122 -46.5t39 -116.5zM231 167q0 26 -17 47t-45 21h-5v-135h6q28 0 44.5 17.5t16.5 49.5z" />
    <glyph glyph-name="afii10095" unicode="&#x44d;" horiz-adv-x="315" 
d="M149 215h-98v87h97q-14 90 -80 90q-24 0 -41 -16v124q35 15 70 15q52 0 91.5 -23t61.5 -62.5t32.5 -85t10.5 -95.5q0 -63 -16.5 -119t-60.5 -98t-108 -42q-42 0 -81 18v129q22 -15 43 -15q67 0 79 93z" />
    <glyph glyph-name="afii10096" unicode="&#x44e;" horiz-adv-x="616" 
d="M590 252q0 -52 -9 -96t-30 -83t-60 -61t-93 -22q-95 0 -139.5 63t-51.5 162h-31v-215h-141v505h141v-173h36q30 183 186 183q54 0 93 -22.5t60 -61.5t30 -83t9 -96zM449 252q0 136 -51 136t-51 -136t51 -136t51 136z" />
    <glyph glyph-name="afii10097" unicode="&#x44f;" horiz-adv-x="411" 
d="M379 0h-141v215h-7l-75 -215h-158l107 237q-25 8 -49 43t-24 80q0 66 40 105.5t104 39.5h203v-505zM243 294v108h-28q-19 0 -33.5 -16.5t-14.5 -36.5q0 -27 18 -41t43 -14h15z" />
    <glyph glyph-name="afii10071" unicode="&#x451;" horiz-adv-x="414" 
d="M266 302v12q0 93 -51 93q-20 0 -32.5 -16.5t-16 -35t-3.5 -38.5v-15h103zM388 273l-3 -58h-223q2 -74 17 -97q13 -20 36 -20q45 0 45 58h120q-10 -76 -48.5 -121t-111.5 -45q-99 0 -146.5 73t-47.5 179q0 49 9.5 94.5t30.5 87t60 66.5t91 25q75 0 126 -64.5t45 -177.5z
M178 659q0 -30 -22 -51.5t-53 -21.5q-30 0 -52 21.5t-22 51.5q0 32 22 54t54 22q30 0 51.5 -22.5t21.5 -53.5zM386 659q0 -30 -22 -51.5t-53 -21.5q-30 0 -52 21.5t-22 51.5q0 32 22 54t54 22q30 0 51.5 -22.5t21.5 -53.5z" />
    <glyph glyph-name="afii10099" unicode="&#x452;" horiz-adv-x="424" 
d="M9 572v116h26v119h141v-119h91v-116h-91v-145h2q15 38 46.5 63t70.5 25q23 0 40.5 -7t27.5 -23t16 -28.5t8.5 -38t2.5 -37v-39.5v-5v-5.5v-5.5v-326q0 -52 -15 -102.5t-30.5 -79.5t-40.5 -67h-148q93 161 93 259v267v13v18t-1 17.5t-3 18t-6 14.5t-10.5 11.5t-14.5 3.5
q-38 0 -38 -58v-315h-141v572h-26z" />
    <glyph glyph-name="afii10100" unicode="&#x453;" horiz-adv-x="315" 
d="M304 505v-116h-128v-389h-141v505h269zM187 754l102 -46l-129 -138l-69 40z" />
    <glyph glyph-name="afii10101" unicode="&#x454;" horiz-adv-x="315" 
d="M298 8q-39 -18 -81 -18q-64 0 -108 42t-60.5 98t-16.5 119q0 50 10.5 95.5t32.5 85t61.5 62.5t91.5 23q36 0 70 -15v-124q-17 16 -41 16q-66 0 -80 -90h97v-87h-98q12 -93 79 -93q21 0 43 15v-129z" />
    <glyph glyph-name="afii10102" unicode="&#x455;" horiz-adv-x="376" 
d="M323 484v-112q-39 30 -92 30q-48 0 -48 -37q0 -16 16.5 -28.5t40.5 -24t47.5 -27t40 -46t16.5 -72.5q0 -78 -43 -127.5t-119 -49.5q-70 0 -125 40v118q43 -33 85 -33q61 0 61 42q0 18 -16.5 31.5t-40 25.5t-47.5 28.5t-40.5 48.5t-16.5 76q0 69 49 108.5t120 39.5
q72 0 112 -31z" />
    <glyph glyph-name="afii10103" unicode="&#x456;" horiz-adv-x="209" 
d="M34 505h141v-505h-141v505zM104 565q-37 0 -63 26.5t-26 64.5t26.5 63.5t65.5 25.5q36 0 61.5 -27t25.5 -64q0 -36 -26.5 -62.5t-63.5 -26.5z" />
    <glyph glyph-name="afii10104" unicode="&#x457;" horiz-adv-x="209" 
d="M34 505h141v-505h-141v505zM76 659q0 -30 -22 -51.5t-53 -21.5q-30 0 -52 21.5t-22 51.5q0 32 22 54t54 22q30 0 51.5 -22.5t21.5 -53.5zM284 659q0 -30 -22 -51.5t-53 -21.5q-30 0 -52 21.5t-22 51.5q0 32 22 54t54 22q30 0 51.5 -22.5t21.5 -53.5z" />
    <glyph glyph-name="afii10105" unicode="&#x458;" horiz-adv-x="209" 
d="M34 505h141v-754h-141v754zM104 565q-37 0 -63 26.5t-26 64.5t26.5 63.5t65.5 25.5q36 0 61.5 -27t25.5 -64q0 -36 -26.5 -62.5t-63.5 -26.5z" />
    <glyph glyph-name="afii10106" unicode="&#x459;" horiz-adv-x="607" 
d="M251 388h-55v-183q0 -103 -40 -154t-135 -51h-17v117h2q27 0 38 16t11 64v308h337v-171h27q83 0 122 -46.5t39 -116.5q0 -69 -40.5 -120t-125.5 -51h-163v388zM439 167q0 52 -43 52h-4v-104h5q42 0 42 52z" />
    <glyph glyph-name="afii10107" unicode="&#x45a;" horiz-adv-x="607" 
d="M251 215h-75v-215h-141v505h141v-173h75v173h141v-171h27q83 0 122 -46.5t39 -116.5q0 -69 -40.5 -120t-125.5 -51h-163v215zM439 167q0 52 -43 52h-4v-104h5q42 0 42 52z" />
    <glyph glyph-name="afii10108" unicode="&#x45b;" horiz-adv-x="424" 
d="M9 572v116h26v119h141v-119h91v-116h-91v-145h2q15 38 46.5 63t70.5 25q23 0 40.5 -7t27.5 -23t16 -28.5t8.5 -38t2.5 -37v-39.5v-5v-5.5v-5.5v-326h-141v277q0 1 0.5 19t0 27t-3.5 23t-11 20.5t-21 6.5q-38 0 -38 -58v-315h-141v572h-26z" />
    <glyph glyph-name="afii10109" unicode="&#x45c;" horiz-adv-x="440" 
d="M237 754l102 -46l-129 -138l-69 40zM35 505h141v-213h4l80 213h153l-119 -232l139 -273h-155l-98 250h-4v-250h-141v505z" />
    <glyph glyph-name="afii10110" unicode="&#x45e;" horiz-adv-x="452" 
d="M15 505h142l53 -204l17 -84h2l66 288h142l-217 -754h-139l81 259zM218 582q-57 0 -102 27.5t-60 77.5l84 27q16 -48 78 -48q61 0 80 47l80 -26q-11 -49 -57 -77t-103 -28z" />
    <glyph glyph-name="afii10193" unicode="&#x45f;" horiz-adv-x="444" 
d="M392 0h-116v-180h-131v180h-110v505h141v-388h75v388h141v-505z" />
    <glyph glyph-name="afii10050" unicode="&#x490;" horiz-adv-x="382" 
d="M354 614h-152v-614h-149v754h162v186h139v-326z" />
    <glyph glyph-name="afii10098" unicode="&#x491;" horiz-adv-x="315" 
d="M304 389h-128v-389h-141v505h148v161h121v-277z" />
    <glyph glyph-name="endash" unicode="&#x2013;" horiz-adv-x="500" 
d="M0 397h500v-133h-500v133z" />
    <glyph glyph-name="emdash" unicode="&#x2014;" horiz-adv-x="1000" 
d="M0 397h1000v-133h-1000v133z" />
    <glyph glyph-name="quoteleft" unicode="&#x2018;" horiz-adv-x="302" 
d="M176 448h-150l150 306h100z" />
    <glyph glyph-name="quoteright" unicode="&#x2019;" horiz-adv-x="302" 
d="M126 754h150l-150 -306h-100z" />
    <glyph glyph-name="quotesinglbase" unicode="&#x201a;" horiz-adv-x="303" 
d="M126 162h151l-151 -306h-100z" />
    <glyph glyph-name="quotedblleft" unicode="&#x201c;" horiz-adv-x="491" 
d="M365 448h-150l150 306h100zM176 448h-150l150 306h100z" />
    <glyph glyph-name="quotedblright" unicode="&#x201d;" horiz-adv-x="491" 
d="M126 754h150l-150 -306h-100zM315 754h150l-150 -306h-100z" />
    <glyph glyph-name="quotedblbase" unicode="&#x201e;" horiz-adv-x="491" 
d="M126 162h150l-150 -306h-100zM315 162h150l-150 -306h-100z" />
    <glyph glyph-name="dagger" unicode="&#x2020;" horiz-adv-x="491" 
d="M177 754h137v-241h128v-128h-128v-549h-137v549h-127v128h127v241z" />
    <glyph glyph-name="daggerdbl" unicode="&#x2021;" 
d="M176 754h137v-216h127v-128h-127v-172h127v-128h-127v-274h-137v274h-126v128h126v172h-126v128h126v216z" />
    <glyph glyph-name="bullet" unicode="&#x2022;" horiz-adv-x="420" 
d="M209 559q78 0 133.5 -55t55.5 -132q0 -79 -55.5 -134.5t-133.5 -55.5q-79 0 -133.5 55.5t-54.5 134.5q0 78 54.5 132.5t133.5 54.5z" />
    <glyph glyph-name="ellipsis" unicode="&#x2026;" horiz-adv-x="1000" 
d="M167 -12q-40 0 -67.5 28t-27.5 67t27.5 67t67.5 28t67.5 -28t27.5 -67t-27.5 -67t-67.5 -28zM500 -12q-40 0 -67.5 28t-27.5 67t27.5 67t67.5 28t67.5 -28t27.5 -67t-27.5 -67t-67.5 -28zM833 -12q-40 0 -67.5 28t-27.5 67t27.5 67t67.5 28t67.5 -28t27.5 -67t-27.5 -67
t-67.5 -28z" />
    <glyph glyph-name="perthousand" unicode="&#x2030;" horiz-adv-x="1234" 
d="M304 0h-107l357 754h107zM195 761q45 0 77 -18.5t48.5 -51.5t24 -69t7.5 -78t-7.5 -78t-24 -69t-48.5 -51.5t-77 -18.5t-77 18.5t-48.5 51.5t-24 69t-7.5 78t7.5 78t24 69t48.5 51.5t77 18.5zM195 647q-37 0 -37 -103t37 -103t37 103t-37 103zM662 -7q-45 0 -77 18.5
t-48.5 51.5t-24 69t-7.5 78t7.5 78t24 69t48.5 51.5t77 18.5t77 -18.5t48.5 -51.5t24 -69t7.5 -78t-7.5 -78t-24 -69t-48.5 -51.5t-77 -18.5zM662 107q37 0 37 103t-37 103t-37 -103t37 -103zM1038 -7q-45 0 -77 18.5t-48.5 51.5t-24 69t-7.5 78t7.5 78t24 69t48.5 51.5
t77 18.5t77 -18.5t48.5 -51.5t24 -69t7.5 -78t-7.5 -78t-24 -69t-48.5 -51.5t-77 -18.5zM1038 107q37 0 37 103t-37 103t-37 -103t37 -103z" />
    <glyph glyph-name="guilsinglleft" unicode="&#x2039;" horiz-adv-x="260" 
d="M26 332l130 232l77 -43l-103 -189l103 -195l-77 -39z" />
    <glyph glyph-name="guilsinglright" unicode="&#x203a;" horiz-adv-x="260" 
d="M104 564l130 -232l-130 -234l-77 39l103 195l-103 189z" />
    <glyph glyph-name="Euro" unicode="&#x20ac;" 
d="M450 732v-138q-34 40 -106 40q-100 0 -116 -129h195l-28 -98h-176q0 -4 -0.5 -13.5t-0.5 -14.5q0 -6 0.5 -18t0.5 -16h157l-28 -98h-119q16 -127 116 -127q69 0 105 38v-138q-38 -31 -131 -31q-199 0 -231 258h-72l28 98h35q-1 9 -1 33q0 19 1 29h-63l28 98h42
q35 261 233 261q90 0 131 -34z" />
    <glyph glyph-name="afii61352" unicode="&#x2116;" horiz-adv-x="837" 
d="M53 754h143l186 -455l2 2q-12 48 -12 114v339h149v-754h-141l-184 455l-2 -2l7 -76l1 -31v-346h-149v754zM562 67h235v-67h-235v67zM680 420q67 0 96 -45t29 -113q0 -67 -29 -112t-96 -45t-96 45t-29 112q0 68 29 113t96 45zM680 344q-33 0 -33 -82q0 -81 33 -81t33 81
q0 82 -33 82z" />
    <glyph glyph-name="trademark" unicode="&#x2122;" horiz-adv-x="745" 
d="M736 226h-107l-25 380h-1l-17 -130l-45 -250h-81l-51 253l-17 117v10h-2l-15 -380h-112l46 528h137l52 -312h1l42 312h140zM1 754h269v-98h-82v-430h-105v430h-82v98z" />
    <glyph glyph-name="radical" unicode="&#x221a;" horiz-adv-x="549" 
d="M539 908l-164 -946l-262 495l-96 -42l-35 63l184 82l177 -333l121 690z" />
    <glyph glyph-name="infinity" unicode="&#x221e;" horiz-adv-x="839" 
d="M571 416q84 38 158.5 -7t83.5 -127q8 -71 -44.5 -132t-131.5 -53q-43 4 -84 23t-61 34.5t-48 42.5l-28 27l-28 -27q-28 -27 -48 -42.5t-61 -34.5t-84 -23q-79 -8 -131.5 53t-44.5 132q9 82 83.5 127t158.5 7q41 -18 68.5 -38.5t86.5 -73.5q59 53 86.5 73.5t68.5 38.5z
M224 328q-46 16 -75 -10.5t-28 -58.5q1 -35 30 -55t63 -12q8 2 15.5 4.5t13 4t12.5 6.5t10.5 7t12 10t11.5 10t15 13.5t16 15.5q-63 53 -96 65zM618 192q34 -8 63 12t30 55q1 32 -28 58.5t-75 10.5q-33 -12 -96 -65q4 -4 16 -15.5t15 -13.5t11.5 -10t12 -10t10.5 -7
t12.5 -6.5t13 -4t15.5 -4.5z" />
    <glyph glyph-name="approxequal" unicode="&#x2248;" horiz-adv-x="549" 
d="M554 357q-38 -54 -98 -75t-113 -8l-150 36q-20 5 -37 4.5t-28 -3t-23 -10.5t-17 -12.5t-14.5 -15.5t-11.5 -13l-78 40q101 108 230 79l151 -34q29 -7 66 6q26 10 54 43zM554 232q-38 -53 -97.5 -73.5t-113.5 -8.5l-150 35q-17 4 -31.5 4.5t-26.5 -2.5t-21 -6.5
t-17.5 -10.5t-13 -11.5t-12 -13t-9.5 -10.5l-78 40q102 110 230 80l151 -35q27 -7 66 7q28 11 54 43z" />
    <glyph glyph-name="notequal" unicode="&#x2260;" horiz-adv-x="578" 
d="M545 79h-296l-58 -110l-89 47l33 63h-102v118h164l62 118v0v0v0h-1v0v0h-1v0h-1v0h-1v0h-1h-1h-1h-1h-1h-1h-1h-1h-1h-1h-1h-1h-1h-1h-1h-1h-1h-1h-1h-1h-1h-1h-1h-1h-1h-1h-1h-1h-1h-1h-1h-1h-1h-1h-1h-1h-1h-1h-1h-1h-1h-1h-1h-1h-2h-1h-1h-1h-1h-1h-2h-1h-1h-1h-1h-2
h-1h-1h-1h-2h-1h-1h-1h-2h-1h-1h-2h-1h-1h-1h-2h-1h-2h-1h-1h-2h-1h-1h-2h-1h-2h-1h-1h-2h-1h-2h-1h-2h-1h-2h-1h-2h-1h-2h-1h-2h-1h-2h-1h-2h-1h-2h-1h-2h-2h-1h-2h-1h-2h-1h-2h-2h-1h-2h-2h-1h-2h-2h-1h-2h-2h-1h-2h-2h-1h-2h-2h-1h-2h-2h-1h-2h-2h-2h-1h-2h-2h-2h-2h-1
h-2h-2h-2h-1h-2h-2h-2h-2h-1h-2h-2h-2h-2h-2h-1h-9v118h289l63 119l88 -46q-16 -31 -38 -73h110v-118h-172q-62 -118 -63 -118h235v-118z" />
    <glyph glyph-name="lessequal" unicode="&#x2264;" 
d="M140 466l330 -162v-111l-450 225v99l450 227v-111zM470 106v-111l-450 225v106z" />
    <glyph glyph-name="greaterequal" unicode="&#x2265;" 
d="M351 466l-330 -162v-111l450 225v99l-450 227v-111zM21 106v-111l450 225v106z" />
    <glyph glyph-name="nbspace" horiz-adv-x="500" 
 />
    <glyph glyph-name="hyphenminus" horiz-adv-x="318" 
d="M34 397h250v-133h-250v133z" />
    </font>
</defs>
</svg>
