<?xml version="1.0" standalone="no"?>
<!DOCTYPE svg PUBLIC "-//W3C//DTD SVG 1.1//EN" "http://www.w3.org/Graphics/SVG/1.1/DTD/svg11.dtd" >
<svg xmlns="http://www.w3.org/2000/svg" xmlns:xlink="http://www.w3.org/1999/xlink" version="1.1">
<metadata>
Created by FontForge 20170731 at Sat Mar  5 15:48:41 2005
 By Aleksey,,,
Copyright 1993 DoubleAlex Team. All rights reserved.
</metadata>
<defs>
<font id="FavoritCondC-Italic" horiz-adv-x="411" >
  <font-face 
    font-family="FavoritCondC"
    font-weight="400"
    font-style="italic"
    font-stretch="normal"
    units-per-em="1000"
    panose-1="0 0 5 0 0 0 0 0 0 0"
    ascent="785"
    descent="-215"
    x-height="505"
    cap-height="754"
    bbox="-79 -215 1047 995"
    underline-thickness="50"
    underline-position="-200"
    slope="-11"
    unicode-range="U+0020-2265"
  />
<missing-glyph horiz-adv-x="1000" 
 />
    <glyph glyph-name=".notdef" horiz-adv-x="1000" 
 />
    <glyph glyph-name=".null" horiz-adv-x="0" 
 />
    <glyph glyph-name="nonmarkingreturn" horiz-adv-x="333" 
 />
    <glyph glyph-name="space" unicode=" " horiz-adv-x="205" 
 />
    <glyph glyph-name="space" unicode="&#xa0;" horiz-adv-x="205" 
 />
    <glyph glyph-name="exclam" unicode="!" horiz-adv-x="252" 
d="M125 -8q-25 0 -40 17.5t-11 42.5t24.5 42.5t45.5 17.5t39.5 -17.5t10.5 -42.5t-24 -42.5t-45 -17.5zM196 754h100l-90 -573h-100z" />
    <glyph glyph-name="quotedbl" unicode="&#x22;" horiz-adv-x="250" 
d="M113 528l23 226h86l-47 -226h-62zM244 528l23 226h86l-47 -226h-62z" />
    <glyph glyph-name="numbersign" unicode="#" 
d="M-12 0l121 258h-107l26 59h108l58 124h-109l26 59h109l119 254h55l-118 -254h88l117 254h56l-118 -254h111l-26 -59h-112l-58 -124h112l-24 -59h-115l-120 -258h-55l120 258h-87l-122 -258h-55zM192 317h87l58 124h-88z" />
    <glyph glyph-name="dollar" unicode="$" 
d="M312 819h45l-11 -65q117 -8 129 -111l-84 -46q-2 33 -23 53t-54 20q-81 0 -97 -98q-2 -12 -2 -23.5t1 -20t5 -18t6.5 -15t10.5 -14.5t11 -12.5t14.5 -12t15 -11.5t17 -12t17.5 -12q24 -17 38 -28t29.5 -26t22.5 -29t12 -33t4.5 -42t-4.5 -52q-31 -194 -188 -211l-11 -67
h-45l11 67q-58 5 -88.5 32t-40.5 82l89 40q8 -70 74 -70q82 0 101 113q2 16 2 29.5t-0.5 22.5t-7 19.5t-8.5 15.5t-13.5 14.5t-14 12t-19 14t-19.5 13.5q-52 37 -76.5 61t-37.5 66t-3 102q12 77 58.5 128.5t122.5 58.5z" />
    <glyph glyph-name="percent" unicode="%" horiz-adv-x="553" 
d="M270 763q35 0 55.5 -16.5t25.5 -46.5t4 -56t-7 -60q-27 -179 -135 -179q-46 0 -67 30.5t-18.5 70t6.5 78.5q4 27 9 47.5t15.5 46.5t24 43.5t36.5 29.5t51 12zM223 465q7 0 13.5 3t11.5 9t9 12.5t7.5 16.5t5.5 17.5t4 18.5l3 16.5t2.5 15t1.5 10.5t1.5 10.5t2.5 15
t2.5 16.5t1.5 18t-0.5 17t-2.5 16.5t-5 13t-8.5 9.5t-12.5 3t-13.5 -3t-11.5 -9.5t-9.5 -13t-7.5 -16.5t-5.5 -17t-4.5 -18l-3 -16.5t-2.5 -15t-1.5 -10.5t-1.5 -11t-2.5 -15t-2 -16.5t-1 -18v-17t2.5 -16.5t5.5 -12.5t8.5 -9.5t12.5 -3zM551 754h62l-493 -754h-62zM458 349
q46 0 67 -30t18.5 -70t-6.5 -79q-27 -179 -135 -179q-46 0 -67 30.5t-18.5 70t6.5 78.5q4 26 8.5 47t15 47t24 43.5t36.5 29.5t51 12zM449 289q-7 0 -13.5 -3t-11.5 -9t-9 -12.5t-7.5 -16.5t-6 -17t-4.5 -18.5t-3 -16.5t-2.5 -14.5t-1.5 -10.5q0 -2 -1.5 -11l-2.5 -15
t-2.5 -16.5t-1.5 -18.5t0.5 -17.5t2.5 -16.5t5 -13t8.5 -9t12.5 -3t13.5 3t11.5 9.5t9 12.5t7.5 16.5t6 17.5t4.5 19t3 16.5t2 14.5l2 11q0 1 1.5 10.5t2.5 15t2.5 16t1.5 18t-0.5 17.5t-2.5 16.5t-5 12.5t-8.5 9t-12.5 3z" />
    <glyph glyph-name="ampersand" unicode="&#x26;" horiz-adv-x="494" 
d="M274 441q29 26 41 37.5t29 36.5t21 50q4 27 -7.5 43.5t-37.5 16.5q-25 0 -45 -20.5t-24 -45.5q0 -18 -1.5 -25.5t3 -24t6.5 -23t7.5 -23zM302 128l-76 174q-67 -60 -76 -120q-7 -42 11.5 -74t56.5 -32q46 0 84 52zM360 0l-27 59q-60 -69 -141 -69q-71 0 -111 56.5
t-28 131.5q16 98 137 202q-45 90 -32 177q10 63 57 103.5t110 40.5q64 0 98 -36t24 -100q-9 -56 -45.5 -102t-97.5 -97l73 -164l76 88l56 -52l-98 -112l60 -126h-111z" />
    <glyph glyph-name="quotesingle" unicode="'" horiz-adv-x="250" 
d="M178 528l23 226h86l-47 -226h-62z" />
    <glyph glyph-name="parenleft" unicode="(" horiz-adv-x="276" 
d="M251 764l89 -23q-122 -226 -150 -403q-33 -203 19 -427l-97 -24q-54 218 -18 445q36 228 157 432z" />
    <glyph glyph-name="parenright" unicode=")" horiz-adv-x="276" 
d="M288 332q-36 -225 -160 -445l-89 24q122 225 155 427q27 172 -24 403l97 23q56 -207 21 -432z" />
    <glyph glyph-name="asterisk" unicode="*" horiz-adv-x="357" 
d="M276 754h39l-21 -133l122 70l16 -34l-126 -66l105 -64l-26 -34l-100 67l-17 -129h-43l25 132l-120 -70l-18 34l124 64l-104 60l25 36l102 -66z" />
    <glyph glyph-name="plus" unicode="+" horiz-adv-x="500" 
d="M261 291l34 216h70l-34 -216h172l-11 -70h-172l-35 -219h-70l35 219h-171l11 70h171z" />
    <glyph glyph-name="comma" unicode="," horiz-adv-x="205" 
d="M93 106l77 -25l-139 -265l-49 14z" />
    <glyph glyph-name="hyphen" unicode="-" horiz-adv-x="242" 
d="M79 297h178l-12 -76h-178z" />
    <glyph glyph-name="hyphen" unicode="&#xad;" horiz-adv-x="242" 
d="M79 297h178l-12 -76h-178z" />
    <glyph glyph-name="period" unicode="." horiz-adv-x="205" 
d="M102 -8q-25 0 -40 18t-11 43q4 24 24.5 41.5t45.5 17.5t39.5 -17.5t10.5 -41.5q-4 -25 -24 -43t-45 -18z" />
    <glyph glyph-name="slash" unicode="/" horiz-adv-x="407" 
d="M489 830h79l-532 -933h-81z" />
    <glyph glyph-name="zero" unicode="0" 
d="M326 763q41 0 69.5 -16t40.5 -55t19 -64.5t1.5 -86t-7 -75.5t-11.5 -74q-1 -10 -2 -15q-24 -152 -49 -220q-60 -166 -183 -166q-41 0 -69.5 16t-40.5 55t-19 64.5t-1.5 86t7 75.5t11.5 74q1 10 2 15q24 152 49 220q60 166 183 166zM338 377q7 46 11.5 77t8 69t2.5 62
t-5 45.5t-15 32t-28 10.5t-31 -10.5t-25.5 -32.5t-20 -45.5t-17 -61.5t-14 -68.5t-12.5 -77.5q-7 -46 -11.5 -77t-8 -69t-2.5 -62t5 -45.5t15 -32t28 -10.5t31 10.5t25.5 32.5t20 45.5t17 61.5t14 68.5t12.5 77.5z" />
    <glyph glyph-name="one" unicode="1" 
d="M202 754h172l-119 -754h-98l106 667h-74z" />
    <glyph glyph-name="two" unicode="2" 
d="M329 763q90 0 121.5 -47t16.5 -139q-19 -120 -188 -368l-83 -122h187l-14 -87h-332l24 38l220 349q72 113 85 196q13 90 -52 90q-14 0 -25.5 -6t-19.5 -17.5t-13.5 -22.5t-10 -28.5t-6 -27t-4 -25.5t-2.5 -17l-3 -20h-102l4 27q8 52 18.5 87.5t31.5 70t57.5 52t89.5 17.5
z" />
    <glyph glyph-name="three" unicode="3" 
d="M237 347h-29l14 90h12q62 0 86 24.5t35 90.5q3 17 3.5 23.5t2 25t-0.5 28t-6 21.5t-13.5 17.5t-23.5 5.5q-58 0 -75 -98l-4 -23h-96l2 7q8 49 18 81t29.5 62.5t53.5 45.5t83 15q88 0 114 -51.5t12 -143.5q-5 -33 -11 -55.5t-17.5 -50t-32.5 -45.5t-51 -27l-1 -2
q38 -10 55.5 -38t16.5 -62.5t-6 -73.5q-35 -223 -208 -223q-162 0 -132 175l4 23h96l-4 -24q-6 -35 5.5 -59.5t44.5 -24.5q20 0 36 10.5t25 23.5t16.5 36.5t9.5 36t6 34.5q4 33 3.5 61t-18.5 46t-54 18z" />
    <glyph glyph-name="four" unicode="4" 
d="M449 754l-74 -473h48l-12 -74h-48l-33 -207h-98l33 207h-203l13 86l276 461h98zM277 281l50 320h-2l-172 -320h124z" />
    <glyph glyph-name="five" unicode="5" 
d="M240 754h240l-13 -87h-163l-54 -190q98 4 138.5 -54t24.5 -158q-19 -117 -81.5 -195.5t-173.5 -78.5q-49 0 -113 31l41 89q20 -12 27 -16t23.5 -9t32.5 -5q59 0 94.5 52.5t44.5 115.5q24 148 -107 148q-25 0 -63 -9z" />
    <glyph glyph-name="six" unicode="6" 
d="M315 754h108l-198 -322l2 -2q43 34 82 34q36 0 59 -16.5t33 -39.5t12 -58.5t-0.5 -62t-8.5 -60.5q-8 -51 -18.5 -87t-32 -73t-58.5 -56.5t-90 -19.5q-36 0 -62 10.5t-40 30.5t-22 42.5t-8.5 54t2 58t7.5 59.5q11 69 28.5 127t51.5 124.5t54.5 100.5t74.5 118q16 25 24 38
zM302 226l4 28t3.5 30t0.5 34t-6 26.5t-13.5 22.5t-24.5 7q-8 0 -12.5 -0.5t-16.5 -8t-20.5 -21t-18.5 -44t-17 -73.5q-24 -146 39 -146q58 0 82 145z" />
    <glyph glyph-name="seven" unicode="7" 
d="M157 754h337l-348 -754h-108l316 667h-210z" />
    <glyph glyph-name="eight" unicode="8" 
d="M218 81q61 0 82 126q3 18 4 27t3 30.5t0 34t-6 27.5t-14.5 22t-25.5 7q-21 0 -36.5 -14.5t-24.5 -40t-13 -43.5t-8 -43q-1 -5 -1 -7q-21 -126 40 -126zM197 408v2q-78 26 -56 168q14 87 55 136t124 49q91 0 120.5 -45t13.5 -140q-22 -141 -109 -169v1v-2q85 -22 60 -182
q-8 -49 -19.5 -86t-33.5 -73.5t-59 -56t-88 -19.5q-48 0 -79 19t-42 49.5t-13.5 70.5t6.5 82q6 38 11.5 60.5t18.5 55t35.5 52.5t54.5 28zM278 453q53 0 73 115q17 105 -38 105t-73 -105q-2 -20 -4 -45.5t8.5 -47.5t33.5 -22z" />
    <glyph glyph-name="nine" unicode="9" 
d="M211 0h-109l200 315l-2 2q-36 -30 -81 -30q-129 0 -95 219q7 43 13.5 72.5t22 67.5t35.5 61t53.5 39.5t77.5 16.5t72.5 -16t41.5 -39t16.5 -60.5t1 -68t-9.5 -72.5q-18 -115 -58.5 -204t-120.5 -213zM265 377q18 0 33 12.5t23 27t14.5 40.5t8.5 37t5 33q24 146 -37 146
q-62 0 -83 -152q-3 -18 -4 -27t-3 -29.5t0 -33t5.5 -26.5t13.5 -21t24 -7z" />
    <glyph glyph-name="colon" unicode=":" horiz-adv-x="205" 
d="M102 -8q-25 0 -40 18t-11 43q4 24 24.5 41.5t45.5 17.5t39.5 -17.5t10.5 -41.5q-4 -25 -24 -43t-45 -18zM165 392q-25 0 -39.5 18t-10.5 43q4 24 24 41.5t45 17.5t40 -17.5t11 -41.5q-4 -25 -24.5 -43t-45.5 -18z" />
    <glyph glyph-name="semicolon" unicode=";" horiz-adv-x="205" 
d="M94 106l77 -25l-138 -265l-50 14zM165 392q-25 0 -39.5 18t-10.5 43q4 24 24 41.5t45 17.5t40 -17.5t11 -41.5q-4 -25 -24.5 -43t-45.5 -18z" />
    <glyph glyph-name="less" unicode="&#x3c;" horiz-adv-x="500" 
d="M79 222l10 64l450 232l-12 -73l-365 -191l305 -191l-12 -73z" />
    <glyph glyph-name="equal" unicode="=" horiz-adv-x="500" 
d="M518 384l-11 -70h-413l11 70h413zM488 194l-11 -70h-413l11 70h413z" />
    <glyph glyph-name="greater" unicode="&#x3e;" horiz-adv-x="500" 
d="M502 286l-10 -64l-450 -232l12 73l365 191l-305 191l12 73z" />
    <glyph glyph-name="question" unicode="?" horiz-adv-x="341" 
d="M239 178h-88l36 227l23 -1q26 -1 43.5 8.5t27 30.5t14 37.5t8.5 46.5q0 1 2.5 14.5t3.5 19.5t3 21t1.5 23.5t-0.5 21t-2.5 20.5t-6 16t-10.5 11.5t-16 3.5q-20 0 -33 -16t-16 -30.5t-7 -38.5q-1 -5 -1 -7l-3 -18h-94l2 12q6 35 11.5 58t17.5 49t28 41t43 25.5t62 10.5
q41 0 67.5 -13t38.5 -32t15.5 -51.5t1 -60t-9.5 -69.5q-4 -26 -7 -42t-10.5 -43t-17 -44.5t-23 -35.5t-33.5 -26.5t-45 -8.5zM165 -8q-25 0 -40 17.5t-11 42.5t24.5 42.5t45.5 17.5t39.5 -17.5t10.5 -42.5t-24 -42.5t-45 -17.5z" />
    <glyph glyph-name="at" unicode="@" horiz-adv-x="800" 
d="M367 211q47 0 95 50.5t76.5 110t35.5 102.5q5 30 -10.5 49.5t-46.5 19.5q-74 0 -135.5 -79.5t-74.5 -159.5q-6 -40 8.5 -66.5t51.5 -26.5zM631 540l22 48h69l-153 -309q-19 -38 -21 -52q-2 -13 5 -21.5t20 -8.5q53 0 120 70t84 178q18 118 -55.5 187.5t-194.5 69.5
q-139 0 -246.5 -95.5t-129.5 -233.5q-22 -135 58 -228t217 -93q81 0 158.5 33.5t130.5 95.5h63q-62 -88 -161 -139.5t-201 -51.5q-166 0 -260.5 114t-67.5 277q27 159 159 271t293 112q142 0 232.5 -92.5t68.5 -230.5q-10 -63 -50.5 -130.5t-106 -117t-133.5 -49.5
q-29 0 -52.5 13.5t-27.5 39.5q-57 -51 -129 -51q-64 0 -96 44.5t-22 108.5q11 70 53 140t109.5 119.5t139.5 49.5q37 0 66 -17.5t39 -50.5z" />
    <glyph glyph-name="A" unicode="A" horiz-adv-x="414" 
d="M287 754h79l43 -754h-101l-5 147h-150l-51 -147h-98zM301 225l2 383h-2l-120 -383h120z" />
    <glyph glyph-name="B" unicode="B" horiz-adv-x="418" 
d="M210 342l-41 -257q62 -3 90.5 27.5t38.5 96.5q11 69 -6.5 101.5t-81.5 31.5zM181 0h-120l119 754h125q97 0 127.5 -50t14.5 -152q-11 -66 -37.5 -109.5t-83.5 -57.5v-2q57 -19 73 -63t5 -114q-17 -106 -69 -156t-154 -50zM350 556q17 113 -71 113h-17l-39 -247
q63 -3 89.5 31t37.5 103z" />
    <glyph glyph-name="C" unicode="C" horiz-adv-x="369" 
d="M471 742l-15 -91q-34 19 -61 19q-33 0 -61 -14.5t-47 -43t-32.5 -55.5t-23.5 -67t-14.5 -62t-9.5 -56q-46 -288 99 -288q32 0 63 15l-14 -88q-37 -21 -84 -21q-230 0 -171 375q63 399 287 399q49 0 84 -22z" />
    <glyph glyph-name="D" unicode="D" horiz-adv-x="466" 
d="M180 754h112q25 0 40 -0.5t38 -4.5t37.5 -11t32 -21t27.5 -33.5t19 -49t11 -67t-1 -89.5t-13 -114q-12 -73 -28 -129.5t-34 -95t-44.5 -65t-49.5 -41t-59 -22t-64.5 -9.5t-73.5 -2h-69zM377 364q21 129 18 180q-8 132 -128 125l-93 -584q38 -1 68.5 9t50.5 30.5t34 43.5
t23 57.5t14 61t11 63.5q0 3 0.5 5t1 4.5t0.5 4.5z" />
    <glyph glyph-name="E" unicode="E" horiz-adv-x="347" 
d="M180 754h269l-13 -87h-169l-38 -237h151l-14 -87h-151l-40 -256h169l-14 -87h-269z" />
    <glyph glyph-name="F" unicode="F" horiz-adv-x="342" 
d="M180 754h271l-13 -87h-171l-38 -237h154l-14 -87h-154l-54 -343h-100z" />
    <glyph glyph-name="G" unicode="G" horiz-adv-x="460" 
d="M301 398h184l-2 -12l-7 -45.5t-8 -51.5t-10 -51.5t-13 -53.5t-17 -49.5t-22.5 -47t-28.5 -39t-36.5 -32t-45.5 -19t-55 -7.5q-44 0 -75 13t-48 40t-26 59t-8.5 79t5 91t13.5 103q11 72 22 122.5t31 104.5t45.5 87t64.5 54t90 21q78 0 114.5 -38t45.5 -116l-102 -39
q-1 23 -3.5 37.5t-9 30t-21 23.5t-36.5 8q-24 0 -42.5 -14t-31.5 -36t-24 -63t-18.5 -79t-17.5 -102q-12 -76 -15.5 -131t-0.5 -85.5t12 -48t19.5 -22.5t25.5 -5q16 0 26 2t25 12t25.5 28.5t21.5 55t18 88.5l6 41h-84z" />
    <glyph glyph-name="H" unicode="H" horiz-adv-x="473" 
d="M180 754h100l-46 -294h151l46 294h100l-119 -754h-100l59 373h-151l-59 -373h-100z" />
    <glyph glyph-name="I" unicode="I" horiz-adv-x="222" 
d="M280 754l-119 -754h-100l119 754h100z" />
    <glyph glyph-name="J" unicode="J" horiz-adv-x="303" 
d="M361 754l-89 -567q-7 -45 -17 -76.5t-29.5 -61t-53 -44.5t-80.5 -15q-51 0 -82 20l16 102q39 -26 62 -26q24 0 40 8.5t24.5 26.5t12 32t7.5 39l89 562h100z" />
    <glyph glyph-name="K" unicode="K" horiz-adv-x="424" 
d="M423 754h103l-205 -365l98 -389h-115l-82 388zM161 0h-100l119 754h100z" />
    <glyph glyph-name="L" unicode="L" horiz-adv-x="331" 
d="M180 754h100l-105 -667h168l-14 -87h-268z" />
    <glyph glyph-name="M" unicode="M" horiz-adv-x="561" 
d="M205 754h86l21 -544h2l8 31l59 181l117 332h88l-49 -754h-98l27 281l16 140l13 99h-2l-34 -108l-143 -412h-69l-15 520h-2l-111 -520h-95z" />
    <glyph glyph-name="N" unicode="N" horiz-adv-x="473" 
d="M232 579l-2 -49l-25 -253l-44 -277h-100l119 754h96l86 -573l2 2l24 302l42 269h100l-119 -754h-93l-84 581z" />
    <glyph glyph-name="O" unicode="O" horiz-adv-x="476" 
d="M359 764q40 0 69.5 -15t46 -37t25.5 -58.5t11 -66t-1 -75t-6.5 -70t-9.5 -65.5q-6 -40 -11 -65t-16 -70.5t-23 -75t-32 -66t-44 -58.5t-58 -37t-74 -15t-69.5 15t-46 37t-25.5 58.5t-11 66.5t1.5 74.5t7 70.5t9.5 65t10.5 65t15.5 70.5t23 75t32 66.5t44 58t58 37t74 15z
M344 670q-29 0 -51 -22t-37.5 -65.5t-26 -90.5t-21.5 -115q-7 -44 -11.5 -78t-6.5 -69t0.5 -60t8.5 -45.5t19.5 -30.5t32.5 -10q29 0 51 22t38 66t26.5 90.5t21.5 114.5q7 44 11 77.5t6.5 69t0 60.5t-9 45.5t-20 30.5t-32.5 10z" />
    <glyph glyph-name="P" unicode="P" horiz-adv-x="388" 
d="M161 0h-100l119 754h120q17 0 29.5 -0.5t29.5 -2.5t29 -6t26 -11.5t23 -17.5t17 -25.5t11.5 -35t3.5 -45.5t-5 -58q-18 -117 -77 -169.5t-173 -48.5zM281 669h-14l-40 -250q61 -4 90.5 27t39.5 98q20 125 -76 125z" />
    <glyph glyph-name="Q" unicode="Q" horiz-adv-x="479" 
d="M455 -12l-72 -46l-41 79q-42 -31 -106 -31q-40 0 -69.5 15t-46 37t-25.5 58.5t-11 66.5t1.5 74.5t7 70.5t9.5 65t10.5 65t15.5 70.5t23 75t32 66.5t44 58t58 37t74 15t69.5 -15t46 -37t25.5 -58.5t11 -66t-1 -75t-6.5 -70t-9.5 -65.5q-33 -202 -92 -295zM344 670
q-29 0 -51 -22t-37.5 -65.5t-26 -90.5t-21.5 -115q-7 -44 -11.5 -78t-6.5 -69t0.5 -60t8.5 -45.5t19.5 -30.5t32.5 -10q27 0 44 16l-49 91l69 48l29 -54h2q27 105 42 192q7 44 11 77.5t6.5 69t0 60.5t-9 45.5t-20 30.5t-32.5 10z" />
    <glyph glyph-name="R" unicode="R" horiz-adv-x="416" 
d="M61 0l119 754h120q15 0 25.5 -0.5t27 -2.5t27.5 -5t25 -10t23 -16.5t17.5 -24.5t12.5 -33.5t4 -44t-5 -56.5q-10 -67 -44 -125.5t-91 -68.5l81 -367h-104l-78 369h-2l-58 -369h-100zM228 420q99 -7 119 119q5 37 5.5 66t-16.5 46.5t-53 17.5h-16z" />
    <glyph glyph-name="S" unicode="S" horiz-adv-x="354" 
d="M411 739l-17 -101q-39 32 -80 32q-40 0 -69 -28.5t-35 -68.5q-7 -46 15 -82l63 -83q16 -22 25.5 -34.5t20.5 -31t16.5 -33.5t10 -34.5t4 -41t-4.5 -46.5q-13 -83 -70.5 -140t-138.5 -57q-65 0 -104 36l16 101q48 -39 93 -39q44 0 71 30t34 75q6 41 -10 77t-42.5 65
t-52.5 60t-41 76t-6 100q13 84 66 138.5t134 54.5q64 0 102 -25z" />
    <glyph glyph-name="T" unicode="T" horiz-adv-x="323" 
d="M115 754h331l-13 -87h-113l-106 -667h-100l106 667h-118z" />
    <glyph glyph-name="U" unicode="U" horiz-adv-x="467" 
d="M180 754h100l-87 -553q-10 -68 3.5 -92.5t47.5 -24.5q47 0 65.5 26t27.5 80l89 564h100l-84 -535q-4 -26 -6.5 -39t-8.5 -38t-13 -39.5t-18 -35t-25.5 -32t-34 -23t-46 -17t-58.5 -5.5q-46 0 -76.5 13t-45.5 33t-19.5 54.5t-2 65.5t9.5 78z" />
    <glyph glyph-name="V" unicode="V" horiz-adv-x="387" 
d="M126 754h100l-3 -567h2l12 47l80 254l88 266h95l-267 -754h-80z" />
    <glyph glyph-name="W" unicode="W" horiz-adv-x="592" 
d="M121 754h98l-10 -511l-4 -56h2l70 253l101 314h78l-7 -562h2l66 242l96 320h97l-251 -754h-80l-1 351l7 190l2 19h-2l-54 -203l-14 -43l-103 -314h-82z" />
    <glyph glyph-name="X" unicode="X" horiz-adv-x="427" 
d="M152 754h99l27 -134q18 -90 18 -138h2l44 104l79 168h102l-197 -371l78 -383h-102l-25 132q-20 106 -17 150h-2q-6 -28 -33 -87l-93 -195h-108l204 383z" />
    <glyph glyph-name="Y" unicode="Y" horiz-adv-x="392" 
d="M121 754h108l37 -349h2l32 97l103 252h107l-208 -429l-51 -325h-100l51 325z" />
    <glyph glyph-name="Z" unicode="Z" horiz-adv-x="393" 
d="M161 754h333l-332 -667h215l-14 -87h-348l335 667h-202z" />
    <glyph glyph-name="bracketleft" unicode="[" horiz-adv-x="300" 
d="M157 754h219l-10 -68h-133l-115 -721h133l-10 -68h-219z" />
    <glyph glyph-name="backslash" unicode="\" horiz-adv-x="250" 
d="M223 0l-143 830h78l143 -830h-78zM223 0h78h-78z" />
    <glyph glyph-name="bracketright" unicode="]" horiz-adv-x="300" 
d="M162 754h219l-135 -857h-219l10 68h133l115 721h-133z" />
    <glyph glyph-name="asciicircum" unicode="^" horiz-adv-x="500" 
d="M344 754h49l117 -417h-67l-89 324l-191 -324h-66z" />
    <glyph glyph-name="underscore" unicode="_" horiz-adv-x="500" 
d="M470 -187h-500l12 75h500z" />
    <glyph glyph-name="grave" unicode="`" horiz-adv-x="280" 
d="M177 703l74 43l59 -149l-55 -29z" />
    <glyph glyph-name="a" unicode="a" horiz-adv-x="380" 
d="M199 76q60 0 87 177q16 106 5 143q-10 32 -36 33q-14 0 -26.5 -7t-21 -21.5t-15 -27t-11.5 -34.5t-7 -32.5t-5.5 -31.5t-3.5 -22q-16 -99 -9 -135q11 -41 43 -42zM243 0l10 65h-2q-22 -38 -44.5 -55.5t-59.5 -17.5q-28 0 -47 13.5t-27.5 38.5t-12.5 50t-1.5 60t4.5 56
t7 49q4 28 8.5 48.5t13 54t20 57t28 46.5t40.5 35.5t52 12.5q61 0 80 -64h2l9 56h94l-80 -505h-94z" />
    <glyph glyph-name="b" unicode="b" horiz-adv-x="380" 
d="M43 0l131 830h94l-60 -381h2q41 64 100 64q28 0 48 -12t29 -35.5t13.5 -47t2.5 -57t-4.5 -53.5t-6.5 -49q-6 -35 -10.5 -60t-18 -68t-29 -70t-43 -48t-60.5 -21q-38 0 -55 18t-27 55h-2l-10 -65h-94zM205 76q66 0 89 168q0 3 0.5 5t0.5 4q17 102 8 139q-12 36 -42 37
q-61 0 -87 -176q-16 -109 -5 -146q10 -31 36 -31z" />
    <glyph glyph-name="c" unicode="c" horiz-adv-x="278" 
d="M333 496l-15 -95h-2q-13 24 -41 24q-84 0 -109 -168q-28 -177 53 -177q22 0 51 19l-14 -87q-37 -20 -79 -20q-150 0 -109 256q6 38 13 68t22 69.5t34.5 65t51.5 44t71 18.5t73 -17z" />
    <glyph glyph-name="d" unicode="d" horiz-adv-x="380" 
d="M243 0l10 65h-2q-22 -37 -44.5 -55t-59.5 -18q-28 0 -47 13.5t-27.5 38.5t-12.5 50t-1.5 60t4.5 56t7 49q4 28 8.5 48.5t13 54t20 57t28 46.5t40.5 35.5t52 12.5q34 0 51.5 -16t28.5 -48h2l60 381h94l-131 -830h-94zM199 76q60 0 87 177q16 106 5 143q-10 32 -36 33
q-14 0 -26.5 -7t-21 -21.5t-15 -27t-11.5 -34.5t-7 -32.5t-5.5 -31.5t-3.5 -22q-16 -99 -9 -135q11 -41 43 -42z" />
    <glyph glyph-name="e" unicode="e" horiz-adv-x="361" 
d="M173 301h112q20 128 -37 128q-20 0 -34 -12t-22 -34.5t-11.5 -37.5t-6.5 -37q-1 -5 -1 -7zM370 234h-208q-26 -158 34 -158t74 94h87q-12 -77 -56.5 -127.5t-118.5 -50.5q-34 0 -58.5 11t-37.5 32t-20 45t-7 55.5t2 57t7 56.5q6 38 13 68t22 69t34.5 64.5t51.5 44
t72 18.5q48 0 76.5 -25t35.5 -70t6.5 -82t-7.5 -87z" />
    <glyph glyph-name="f" unicode="f" horiz-adv-x="249" 
d="M101 505h47l26 163q6 39 13 64t22 52t41.5 40.5t64.5 13.5q30 0 60 -14l-15 -98q-21 12 -37 12q-14 0 -24 -6t-15 -11.5t-9.5 -21t-5 -20t-3.5 -22.5l-24 -152h78l-12 -74h-78l-68 -431h-94l68 431h-47z" />
    <glyph glyph-name="g" unicode="g" horiz-adv-x="382" 
d="M285 250q26 179 -33 179q-10 0 -19.5 -4.5t-17 -13.5t-13.5 -18.5t-11 -24.5l-8.5 -25.5t-7 -27t-4.5 -24t-3.5 -21.5t-2.5 -15q-17 -109 -5 -147q12 -31 39 -32q14 0 25.5 7t20 21t14.5 27.5t10.5 33.5t7 32t5 31t3.5 22zM419 505l-81 -509q-20 -127 -62.5 -169
t-124.5 -42q-69 0 -102.5 38t-23.5 108l2 14h91q-6 -31 5 -53.5t43 -22.5q11 0 20.5 3t16 7t12.5 12.5t9 13.5t6 17.5t4 17t3 19t3 17.5l14 84h-2q-34 -69 -101 -68q-25 0 -43 10.5t-28.5 25.5t-15.5 39t-6.5 44.5t0.5 49.5t4 46t6 42q4 28 6.5 41t10 46t14.5 52t20 46
t28 42t37 26t47 11q35 0 52.5 -17t28.5 -51l3 2l9 58h95z" />
    <glyph glyph-name="h" unicode="h" horiz-adv-x="388" 
d="M175 830h94l-60 -383h2q43 66 112 66q47 0 67.5 -26t17.5 -63t-8 -77l-55 -347h-94l55 349q14 80 -43 80q-9 0 -17 -2.5t-14 -5t-11.5 -9t-9 -11t-7 -13.5t-5 -14t-4 -16t-3 -14.5t-2.5 -15t-2 -13.5l-50 -315h-94z" />
    <glyph glyph-name="i" unicode="i" horiz-adv-x="180" 
d="M217 505l-80 -505h-94l80 505h94zM185 595q-26 0 -41.5 18.5t-11.5 44.5q4 25 25.5 43.5t47.5 18.5q25 0 40.5 -18.5t11.5 -43.5q-4 -26 -25.5 -44.5t-46.5 -18.5z" />
    <glyph glyph-name="j" unicode="j" horiz-adv-x="180" 
d="M217 505l-113 -712h-94l113 712h94zM185 595q-26 1 -41.5 19t-11.5 44t25.5 44.5t47.5 17.5q25 0 40.5 -19t11.5 -44q-4 -26 -25.5 -44t-46.5 -18z" />
    <glyph glyph-name="k" unicode="k" horiz-adv-x="395" 
d="M175 830h94l-86 -549h2l152 224h105l-164 -224l101 -281h-109l-88 268h-2l-42 -268h-94z" />
    <glyph glyph-name="l" unicode="l" horiz-adv-x="180" 
d="M268 830l-131 -830h-94l131 830h94z" />
    <glyph glyph-name="m" unicode="m" horiz-adv-x="590" 
d="M218 505l-10 -62h2q43 70 110 70q34 0 56 -18.5t24 -51.5h2q43 70 115 70q112 0 92 -122l-62 -391h-94l56 354q6 35 -1 55t-38 20q-11 0 -20 -2t-16 -7t-12 -9t-9.5 -12.5t-6.5 -13.5t-4.5 -16.5t-3.5 -15.5t-3 -17t-2 -15l-51 -321h-94l54 343q9 30 2.5 58t-42.5 28
q-17 0 -30 -8t-19.5 -16.5t-12.5 -28t-7.5 -27t-4.5 -28.5l-51 -321h-94l80 505h95z" />
    <glyph glyph-name="n" unicode="n" horiz-adv-x="388" 
d="M218 505l-9 -58h2q43 66 112 66q29 0 47.5 -10.5t26.5 -25t9.5 -39.5t0 -43.5t-6.5 -47.5l-55 -347h-94l55 349q14 80 -43 80q-9 0 -17 -2.5t-14 -5t-11.5 -9t-9 -11t-7 -13.5t-5 -14t-4 -16t-3 -14.5t-2.5 -15t-2 -13.5l-50 -315h-94l80 505h94z" />
    <glyph glyph-name="o" unicode="o" horiz-adv-x="375" 
d="M187 -8q-160 0 -118 259q6 39 13.5 70t23 69t36 63t53.5 42.5t74 17.5q35 0 60 -11.5t38.5 -32.5t21 -45t7.5 -56.5t-2 -58.5t-7 -58q-6 -38 -13.5 -68.5t-23 -68t-36 -62.5t-53.5 -42.5t-74 -17.5zM200 78q13 0 24.5 6.5t19.5 15.5t15 24t11 27t8.5 30t6 27.5t4 25
t2.5 17.5q0 1 3.5 21.5t5 31.5t3 32.5t-0.5 34.5t-6.5 27.5t-14.5 21.5t-25 7q-12 0 -22 -4.5t-18 -13.5t-14.5 -18t-11.5 -24.5t-8.5 -25.5t-6.5 -27t-4.5 -24t-3.5 -22.5t-2 -16.5q0 -2 -2.5 -15.5t-3.5 -21.5t-3.5 -24t-2.5 -26.5t0.5 -25t4 -24t8.5 -18.5t13.5 -13.5
t20.5 -4.5z" />
    <glyph glyph-name="p" unicode="p" horiz-adv-x="380" 
d="M205 76q28 0 47 29t27 61.5t16 85.5q0 1 3.5 22t4.5 31.5t3 32.5t-0.5 35t-6.5 27.5t-14 21.5t-24 7q-61 0 -87 -177q-16 -106 -5 -143q10 -32 36 -33zM217 505l-10 -65h2q20 36 44 54.5t60 18.5q28 0 47 -13t27.5 -38.5t12.5 -50t1.5 -60t-4.5 -56t-7 -48.5
q-5 -35 -10.5 -60.5t-18 -65t-28.5 -65t-43.5 -45t-61.5 -19.5q-35 0 -52 16t-28 49h-2l-42 -264h-94l113 712h94z" />
    <glyph glyph-name="q" unicode="q" horiz-adv-x="380" 
d="M199 76q61 0 87 176q15 103 7 139q-9 38 -38 38q-14 0 -26.5 -7t-21 -21.5t-15 -27t-11.5 -35t-7 -32.5t-6 -32l-3 -22q-17 -102 -7.5 -139t41.5 -37zM417 505l-113 -712h-94l42 264h-2q-20 -33 -42.5 -49t-57.5 -16q-28 0 -48 12t-29 36t-13.5 47t-2.5 57t4.5 54t6.5 49
q5 29 9 49t12.5 55.5t20.5 60t28 50t39.5 38.5t51.5 13q37 0 55 -18.5t27 -54.5h2l10 65h94z" />
    <glyph glyph-name="r" unicode="r" horiz-adv-x="269" 
d="M218 505l-10 -62h2q46 70 118 70l-14 -93l-16 1q-92 5 -109 -103l-50 -318h-95l80 505h94z" />
    <glyph glyph-name="s" unicode="s" horiz-adv-x="276" 
d="M312 491l-14 -89q-27 27 -66 27q-27 0 -48 -14.5t-25 -39.5q-3 -23 10 -42.5t34 -35.5t41 -34.5t31 -49.5t5 -71q-11 -68 -56 -109t-112 -41q-43 0 -78 24l14 92q35 -32 73 -32q30 0 49 17t24 47q4 24 -9 44.5t-34 37t-41 35.5t-31.5 49t-5.5 69q10 60 53.5 99t103.5 39
q48 0 82 -22z" />
    <glyph glyph-name="t" unicode="t" horiz-adv-x="221" 
d="M166 648h94l-23 -143h50l-12 -74h-50l-68 -431h-94l68 431h-51l12 74h51z" />
    <glyph glyph-name="u" unicode="u" horiz-adv-x="389" 
d="M124 505h94l-50 -316q0 -3 -2.5 -15.5t-3 -17t-1.5 -16t0 -16.5t2 -14t4.5 -13.5t8.5 -9.5t13.5 -7t18.5 -2t18.5 2t15 6.5t11.5 8.5t9 12.5t6.5 13.5t4.5 16t3 15t3 16.5t2 15.5l51 321h94l-54 -341q-13 -84 -52 -128t-121 -44q-66 0 -98 24t-34 67t6 101z" />
    <glyph glyph-name="v" unicode="v" horiz-adv-x="358" 
d="M93 505h100l7 -382h2l8 30l70 204l54 148h91l-213 -505h-62z" />
    <glyph glyph-name="w" unicode="w" horiz-adv-x="487" 
d="M77 505h99l-2 -352l-1 -10h2l47 157l71 205h67l1 -352l-1 -10h2l55 188l61 174h92l-199 -505h-64l-10 259l5 84l3 28h-2l-51 -181l-67 -190h-65z" />
    <glyph glyph-name="x" unicode="x" horiz-adv-x="395" 
d="M94 505h110l44 -173l35 75l57 98h98l-152 -238l96 -267h-111l-33 109q-18 62 -18 96h-2q-9 -39 -51 -111l-55 -94h-98l168 267z" />
    <glyph glyph-name="y" unicode="y" horiz-adv-x="373" 
d="M84 505h105l18 -352h2l141 352h95l-319 -712h-99l117 248z" />
    <glyph glyph-name="z" unicode="z" horiz-adv-x="335" 
d="M107 505h294l-236 -421h160l-13 -84h-298l242 421h-162z" />
    <glyph glyph-name="braceleft" unicode="{" horiz-adv-x="258" 
d="M50 301l8 52q92 11 103 81l30 188q12 74 50 103t102 29h31l-9 -57q-44 -4 -64.5 -22.5t-27.5 -64.5l-26 -159q-9 -54 -33 -83t-80 -40v-2q53 -11 67.5 -40.5t6.5 -82.5l-25 -159q-7 -46 7.5 -64.5t57.5 -22.5l-9 -57h-31q-64 0 -93.5 29.5t-17.5 102.5l30 188
q7 42 -15.5 59t-61.5 22z" />
    <glyph glyph-name="bar" unicode="|" horiz-adv-x="250" 
d="M90 0l131 830h70l-131 -830h-70z" />
    <glyph glyph-name="braceright" unicode="}" horiz-adv-x="258" 
d="M-13 -100l9 57q44 4 65 22.5t28 64.5l25 159q8 53 32.5 82.5t81.5 40.5v2q-54 11 -69 40.5t-6 82.5l26 159q7 46 -7.5 64.5t-58.5 22.5l9 57h31q64 0 94 -29.5t18 -102.5l-30 -188q-7 -42 15.5 -59t61.5 -22l-8 -52q-92 -11 -103 -81l-30 -188q-12 -73 -50.5 -102.5
t-102.5 -29.5h-31z" />
    <glyph glyph-name="asciitilde" unicode="~" horiz-adv-x="500" 
d="M213 331q31 0 91 -35q58 -35 79 -35q46 0 94 83l27 -47q-68 -111 -134 -111q-9 0 -19.5 3t-23.5 9t-21.5 10t-22.5 12t-17 10q-43 25 -65 25q-20 0 -40 -16t-30 -31t-27 -43l-26 48q33 54 64.5 86t70.5 32z" />
    <glyph glyph-name="sterling" unicode="&#xa3;" 
d="M134 125l15 -1q25 37 31 74q7 39 -6 89h-88l7 39h74q-34 112 -39 160q-3 41 3 79q14 91 72 144.5t148 53.5q69 0 104 -39.5t27 -108.5l-84 -38q21 104 -61 104q-43 0 -71.5 -27t-35.5 -70q-3 -21 -3 -44.5t2 -43t7 -45.5t8.5 -41.5t10.5 -43.5l10 -40h97l-7 -39h-91
q7 -35 1 -67q-9 -64 -43 -115q4 -2 14 -8.5t16.5 -9.5t16 -6.5t17.5 -3.5q24 0 42 34l77 -27q-46 -93 -121 -93q-35 0 -81.5 24t-64.5 24q-27 0 -39 -34l-72 31q9 35 41 63t66 26z" />
    <glyph glyph-name="currency" unicode="&#xa4;" 
d="M1 110l46 42q-31 70 -19 148q15 86 66 151l-32 43l56 53l32 -43q66 49 147 49q68 0 123 -49l47 43l38 -53l-45 -43q31 -69 18 -156q-11 -70 -65 -143l31 -42l-55 -53l-33 43q-68 -50 -147 -50q-67 0 -123 50l-46 -43zM285 481q-70 0 -121 -51t-64 -130q-11 -74 23.5 -126
t98.5 -52q67 0 120 52t65 129q11 73 -23.5 125.5t-98.5 52.5z" />
    <glyph glyph-name="brokenbar" unicode="&#xa6;" horiz-adv-x="250" 
d="M153 0v340h70v-340h-70zM153 830h70v-340h-70v340z" />
    <glyph glyph-name="section" unicode="&#xa7;" horiz-adv-x="415" 
d="M269 220l14 -9q56 39 67 92q5 27 -7.5 48.5t-23.5 29t-44 25.5q-5 3 -8 5l-22 12q-49 -36 -57 -85q-3 -22 1.5 -39.5t21 -33.5t25 -22.5t33.5 -22.5zM465 598h-102q0 17 -0.5 27.5t-4 24.5t-13 21t-25.5 7q-58 0 -69 -81q-8 -47 12.5 -70t69.5 -43q129 -54 115 -170
q-6 -46 -34.5 -90t-69.5 -69q50 -47 36 -127q-12 -77 -59.5 -121.5t-124.5 -44.5q-78 0 -115 42t-25 120l3 19h102q-16 -95 45 -95q63 0 76 80q5 31 -9 56t-29 36t-46 31q-4 3 -19.5 12.5t-20 12.5t-17 12t-16 13t-12.5 13.5t-11.5 16.5t-7.5 18t-6 21.5t-1 24.5t2 30
q13 97 102 142q-53 38 -38 137q11 71 60.5 115.5t119.5 44.5q75 0 108 -45t24 -121z" />
    <glyph glyph-name="copyright" unicode="&#xa9;" horiz-adv-x="800" 
d="M401 -10q-161 0 -274.5 113t-113.5 275q0 160 113.5 273t274.5 113t274 -113t113 -273q0 -162 -113 -275t-274 -113zM76 377q0 -138 93.5 -231t231.5 -93t231 93.5t93 230.5q0 136 -93.5 230t-230.5 94t-231 -94t-94 -230zM480 596v-54q-22 11 -39 11q-29 0 -48 -18
t-26 -52t-8.5 -55t-1.5 -54q0 -173 87 -173q18 0 36 9v-52q-20 -13 -48 -13q-139 0 -139 225q0 239 135 239q29 0 52 -13z" />
    <glyph glyph-name="guillemotleft" unicode="&#xab;" horiz-adv-x="357" 
d="M186 260l164 222l41 -27l-146 -195l73 -199l-48 -25zM67 260l164 222l41 -27l-146 -195l73 -199l-48 -25z" />
    <glyph glyph-name="logicalnot" unicode="&#xac;" horiz-adv-x="500" 
d="M406 117l31 197h-343l11 70h413l-42 -267h-70z" />
    <glyph glyph-name="registered" unicode="&#xae;" horiz-adv-x="800" 
d="M788 378q0 -162 -113 -275t-274 -113t-274.5 113t-113.5 275q0 160 113.5 273t274.5 113t274 -113t113 -273zM725 377q0 136 -93.5 230t-230.5 94t-231 -94t-94 -230q0 -138 93.5 -231t231.5 -93t231 93.5t93 230.5zM519 151h-63l-81 221h-1v-221h-60v452h72
q17 0 28.5 -1t29 -7t28 -17.5t18.5 -34.5t8 -55q0 -25 -5 -48t-20 -44t-38 -25zM434 474q0 39 -10 58.5t-41 19.5h-9v-149q32 -2 46 16.5t14 54.5z" />
    <glyph glyph-name="degree" unicode="&#xb0;" horiz-adv-x="400" 
d="M319 754q62 0 99.5 -44.5t27.5 -105.5q-10 -62 -61 -106t-113 -44t-99 44t-27 106t61 106t112 44zM310 692q-36 0 -66.5 -26t-35.5 -62q-6 -37 16 -62.5t58 -25.5t66 25.5t36 62.5q5 36 -16.5 62t-57.5 26z" />
    <glyph glyph-name="plusminus" unicode="&#xb1;" horiz-adv-x="500" 
d="M271 351l24 156h70l-24 -156h172l-11 -70h-172l-26 -159h-70l26 159h-171l11 70h171zM44 2l11 70h413l-11 -70h-413z" />
    <glyph glyph-name="mu" unicode="&#xb5;" horiz-adv-x="388" 
d="M331 505h94l-55 -347q-5 -30 -8.5 -47.5t-13 -43t-22 -40t-34.5 -25t-51 -10.5q-68 0 -92 66h-2l-41 -262h-94l112 709h94l-50 -315q-11 -68 -3 -89q12 -24 42 -25q55 0 69 80z" />
    <glyph glyph-name="mu" unicode="&#x3bc;" horiz-adv-x="388" 
d="M331 505h94l-55 -347q-5 -30 -8.5 -47.5t-13 -43t-22 -40t-34.5 -25t-51 -10.5q-68 0 -92 66h-2l-41 -262h-94l112 709h94l-50 -315q-11 -68 -3 -89q12 -24 42 -25q55 0 69 80z" />
    <glyph glyph-name="paragraph" unicode="&#xb6;" horiz-adv-x="440" 
d="M139 -112l77 482q-63 -1 -101 56t-26 134q15 90 75 146q32 30 62.5 39t75.5 9h208l-137 -866h-79l127 799h-76l-127 -799h-79zM139 -112h79h-79z" />
    <glyph glyph-name="periodcentered" unicode="&#xb7;" horiz-adv-x="205" 
d="M134 195q-25 0 -39.5 18t-10.5 43q4 24 24 41.5t45 17.5t40 -17.5t11 -41.5q-4 -25 -24.5 -43t-45.5 -18z" />
    <glyph glyph-name="periodcentered" unicode="&#x2219;" horiz-adv-x="205" 
d="M134 195q-25 0 -39.5 18t-10.5 43q4 24 24 41.5t45 17.5t40 -17.5t11 -41.5q-4 -25 -24.5 -43t-45.5 -18z" />
    <glyph glyph-name="guillemotright" unicode="&#xbb;" horiz-adv-x="357" 
d="M253 260l-154 -224l-40 25l135 199l-84 195l49 27zM372 260l-154 -224l-40 25l135 199l-84 195l49 27z" />
    <glyph glyph-name="divide" unicode="&#xf7;" horiz-adv-x="500" 
d="M79 221l11 70h413l-11 -70h-413zM353 407h-79l16 100h79zM290 5h-79l16 100h79z" />
    <glyph glyph-name="florin" unicode="&#x192;" 
d="M366 508h129l-20 -74h-131l-103 -300q-2 -5 -9 -27t-10.5 -30.5t-10.5 -28.5t-12.5 -31l-13.5 -27t-16 -28.5t-17 -23.5q-35 -43 -92 -65t-115 -22h-24l29 84h19q41 4 68 17t51 45q25 33 58 132l102 305h-65l20 74h70l41 121q34 101 85 154t144 53q34 0 59 -7l-29 -84
q-17 7 -40 7q-54 0 -82 -38q-19 -27 -45 -96z" />
    <glyph glyph-name="Delta" unicode="&#x394;" horiz-adv-x="612" 
d="M608 0h-602l429 688zM80 49h412l-120 468z" />
    <glyph glyph-name="Delta" unicode="&#x2206;" horiz-adv-x="612" 
d="M608 0h-602l429 688zM80 49h412l-120 468z" />
    <glyph glyph-name="afii10023" unicode="&#x401;" horiz-adv-x="347" 
d="M180 754h269l-13 -87h-169l-38 -237h151l-14 -87h-151l-40 -256h169l-14 -87h-269zM230 853q-24 0 -38.5 15.5t-10.5 39.5t23 41t44 17q22 0 35.5 -16.5t10.5 -38.5q-4 -23 -22.5 -40.5t-41.5 -17.5zM391 853q-24 0 -38.5 15.5t-10.5 39.5t23 41t44 17q22 0 35.5 -16.5
t10.5 -38.5q-4 -23 -22.5 -40.5t-41.5 -17.5z" />
    <glyph glyph-name="afii10051" unicode="&#x402;" horiz-adv-x="460" 
d="M214 0h-100l106 667h-118l13 87h331l-13 -87h-113l-27 -171q37 17 77 17q156 0 113 -265q-7 -44 -19 -83t-33.5 -81t-58 -67t-83.5 -25q-28 0 -52 9l13 84q12 -5 25 -5q19 0 34.5 8.5t26 27t17.5 33t13 41t7.5 35.5t5.5 32q14 95 2 130q-14 38 -54 38q-31 0 -49 -24z" />
    <glyph glyph-name="afii10052" unicode="&#x403;" horiz-adv-x="342" 
d="M413 952l-121 -135l-45 29l106 149zM180 754h279l-13 -87h-179l-106 -667h-100z" />
    <glyph glyph-name="afii10053" unicode="&#x404;" horiz-adv-x="369" 
d="M350 11q-37 -21 -84 -21q-230 0 -171 375q63 399 287 399q49 0 84 -22l-15 -91q-34 19 -61 19q-130 0 -178 -240h143l-14 -87h-144q-35 -259 104 -259q31 0 63 15z" />
    <glyph glyph-name="afii10054" unicode="&#x405;" horiz-adv-x="354" 
d="M411 739l-17 -101q-39 32 -80 32q-40 0 -69 -28.5t-35 -68.5q-7 -46 15 -82l63 -83q16 -22 25.5 -34.5t20.5 -31t16.5 -33.5t10 -34.5t4 -41t-4.5 -46.5q-13 -83 -70.5 -140t-138.5 -57q-65 0 -104 36l16 101q48 -39 93 -39q44 0 71 30t34 75q6 41 -10 77t-42.5 65
t-52.5 60t-41 76t-6 100q13 84 66 138.5t134 54.5q64 0 102 -25z" />
    <glyph glyph-name="afii10055" unicode="&#x406;" horiz-adv-x="222" 
d="M280 754l-119 -754h-100l119 754h100z" />
    <glyph glyph-name="afii10056" unicode="&#x407;" horiz-adv-x="222" 
d="M280 754l-119 -754h-100l119 754h100zM167 853q-24 0 -38.5 15.5t-10.5 39.5t23 41t44 17q22 0 35.5 -16.5t10.5 -38.5q-4 -23 -22.5 -40.5t-41.5 -17.5zM328 853q-24 0 -38.5 15.5t-10.5 39.5t23 41t44 17q22 0 35.5 -16.5t10.5 -38.5q-4 -23 -22.5 -40.5t-41.5 -17.5z
" />
    <glyph glyph-name="afii10057" unicode="&#x408;" horiz-adv-x="303" 
d="M361 754l-89 -567q-7 -45 -17 -76.5t-29.5 -61t-53 -44.5t-80.5 -15q-51 0 -82 20l16 102q39 -26 62 -26q24 0 40 8.5t24.5 26.5t12 32t7.5 39l89 562h100z" />
    <glyph glyph-name="afii10058" unicode="&#x409;" horiz-adv-x="644" 
d="M480 427h53q161 0 128 -211q-18 -114 -69.5 -165t-154.5 -51h-125l106 667h-101l-65 -405q-40 -262 -216 -262h-31l13 85h3q34 0 58.5 15.5t39 47t23 62.5t15.5 78l73 466h301zM554 209q11 69 -6.5 101.5t-81.5 31.5l-41 -257q62 -3 90.5 27.5t38.5 96.5z" />
    <glyph glyph-name="afii10059" unicode="&#x40a;" horiz-adv-x="644" 
d="M661 216q-18 -114 -69.5 -165t-154.5 -51h-125l54 342h-151l-54 -342h-100l119 754h100l-51 -327h151l51 327h100l-51 -327h53q161 0 128 -211zM554 209q11 69 -6.5 101.5t-81.5 31.5l-41 -257q62 -3 90.5 27.5t38.5 96.5z" />
    <glyph glyph-name="afii10060" unicode="&#x40b;" horiz-adv-x="487" 
d="M447 0h-100l31 198q13 83 -6.5 112.5t-96.5 29.5h-7l-54 -340h-100l106 667h-118l13 87h331l-13 -87h-113l-39 -243h29q115 0 152.5 -45t18.5 -162z" />
    <glyph glyph-name="afii10061" unicode="&#x40c;" horiz-adv-x="424" 
d="M423 754h103l-205 -365l98 -389h-115l-82 388zM161 0h-100l119 754h100zM466 952l-121 -135l-45 29l106 149z" />
    <glyph glyph-name="afii10062" unicode="&#x40e;" horiz-adv-x="387" 
d="M253 419h3l45 111l107 224h97l-373 -754h-100l164 313l-79 441h102l29 -222zM480 902q-14 -38 -57.5 -61t-96.5 -23t-89 22.5t-40 61.5l64 21q8 -43 74 -43q67 0 89 42z" />
    <glyph glyph-name="afii10145" unicode="&#x40f;" horiz-adv-x="473" 
d="M412 0h-123l-27 -170h-100l27 170h-128l119 754h100l-105 -667h151l105 667h100z" />
    <glyph glyph-name="afii10017" unicode="&#x410;" horiz-adv-x="414" 
d="M287 754h79l43 -754h-101l-5 147h-150l-51 -147h-98zM301 225l2 383h-2l-120 -383h120z" />
    <glyph glyph-name="afii10018" unicode="&#x411;" horiz-adv-x="404" 
d="M410 216q-18 -114 -69.5 -165t-154.5 -51h-125l119 754h269l-13 -87h-169l-38 -240h53q161 0 128 -211zM303 209q11 69 -6.5 101.5t-81.5 31.5l-41 -257q62 -3 90.5 27.5t38.5 96.5z" />
    <glyph glyph-name="afii10019" unicode="&#x412;" horiz-adv-x="418" 
d="M404 206q-17 -106 -69 -156t-154 -50h-120l119 754h125q97 0 127.5 -50t14.5 -152q-11 -66 -37.5 -109.5t-83.5 -57.5v-2q57 -19 73 -63t5 -114zM350 556q17 113 -71 113h-17l-39 -247q63 -3 89.5 31t37.5 103zM298 209q11 69 -6.5 101.5t-81.5 31.5l-41 -257
q62 -3 90.5 27.5t38.5 96.5z" />
    <glyph glyph-name="afii10020" unicode="&#x413;" horiz-adv-x="342" 
d="M180 754h279l-13 -87h-179l-106 -667h-100z" />
    <glyph glyph-name="afii10021" unicode="&#x414;" horiz-adv-x="473" 
d="M444 -170h-100l27 170h-268l-27 -170h-100l41 257h2q49 0 89 69.5t56 168.5l68 429h299l-105 -667h59zM326 87l92 580h-99l-50 -312q-34 -214 -104 -268h161z" />
    <glyph glyph-name="afii10022" unicode="&#x415;" horiz-adv-x="347" 
d="M180 754h269l-13 -87h-169l-38 -237h151l-14 -87h-151l-40 -256h169l-14 -87h-269z" />
    <glyph glyph-name="afii10024" unicode="&#x416;" horiz-adv-x="624" 
d="M322 388l-204 -388h-115l222 389l-91 365h103zM619 0h-115l-82 388l201 366h103l-205 -365zM361 0h-100l119 754h100z" />
    <glyph glyph-name="afii10025" unicode="&#x417;" horiz-adv-x="400" 
d="M399 222q-15 -90 -80 -161t-157 -71q-73 0 -121 37l20 123q16 -19 27.5 -30t34 -21.5t49.5 -10.5q51 0 82 40t39 96q13 78 -3.5 110.5t-88.5 32.5h-20l15 91h12q67 0 91.5 25.5t35.5 95.5q14 91 -74 91q-54 0 -113 -55l18 114q56 35 126 35q86 0 124 -49.5t26 -129.5
q-18 -118 -99 -168q78 -50 56 -195z" />
    <glyph glyph-name="afii10026" unicode="&#x418;" horiz-adv-x="473" 
d="M412 0h-96l47 299l48 214h-2l-272 -513h-76l119 754h96l-48 -307l-53 -224h2l281 531h73z" />
    <glyph glyph-name="afii10027" unicode="&#x419;" horiz-adv-x="473" 
d="M371 814q-53 0 -89 24t-42 64l69 22q3 -24 24 -35t48 -11q65 0 88 45l59 -21q-15 -39 -59.5 -63.5t-97.5 -24.5zM412 0h-96l47 299l48 214h-2l-272 -513h-76l119 754h96l-48 -307l-53 -224h2l281 531h73z" />
    <glyph glyph-name="afii10028" unicode="&#x41a;" horiz-adv-x="424" 
d="M423 754h103l-205 -365l98 -389h-115l-82 388zM161 0h-100l119 754h100z" />
    <glyph glyph-name="afii10029" unicode="&#x41b;" horiz-adv-x="473" 
d="M412 0h-100l106 667h-101l-65 -405q-40 -262 -216 -262h-31l13 85h3q34 0 58.5 15.5t39 47t23 62.5t15.5 78l73 466h301z" />
    <glyph glyph-name="afii10030" unicode="&#x41c;" horiz-adv-x="561" 
d="M205 754h86l21 -544h2l8 31l59 181l117 332h88l-49 -754h-98l27 281l16 140l13 99h-2l-34 -108l-143 -412h-69l-15 520h-2l-111 -520h-95z" />
    <glyph glyph-name="afii10031" unicode="&#x41d;" horiz-adv-x="473" 
d="M180 754h100l-46 -294h151l46 294h100l-119 -754h-100l59 373h-151l-59 -373h-100z" />
    <glyph glyph-name="afii10032" unicode="&#x41e;" horiz-adv-x="476" 
d="M359 764q40 0 69.5 -15t46 -37t25.5 -58.5t11 -66t-1 -75t-6.5 -70t-9.5 -65.5q-6 -40 -11 -65t-16 -70.5t-23 -75t-32 -66t-44 -58.5t-58 -37t-74 -15t-69.5 15t-46 37t-25.5 58.5t-11 66.5t1.5 74.5t7 70.5t9.5 65t10.5 65t15.5 70.5t23 75t32 66.5t44 58t58 37t74 15z
M344 670q-29 0 -51 -22t-37.5 -65.5t-26 -90.5t-21.5 -115q-7 -44 -11.5 -78t-6.5 -69t0.5 -60t8.5 -45.5t19.5 -30.5t32.5 -10q29 0 51 22t38 66t26.5 90.5t21.5 114.5q7 44 11 77.5t6.5 69t0 60.5t-9 45.5t-20 30.5t-32.5 10z" />
    <glyph glyph-name="afii10033" unicode="&#x41f;" horiz-adv-x="473" 
d="M180 754h351l-119 -754h-100l106 667h-151l-106 -667h-100z" />
    <glyph glyph-name="afii10034" unicode="&#x420;" horiz-adv-x="388" 
d="M161 0h-100l119 754h120q17 0 29.5 -0.5t29.5 -2.5t29 -6t26 -11.5t23 -17.5t17 -25.5t11.5 -35t3.5 -45.5t-5 -58q-18 -117 -77 -169.5t-173 -48.5zM281 669h-14l-40 -250q61 -4 90.5 27t39.5 98q20 125 -76 125z" />
    <glyph glyph-name="afii10035" unicode="&#x421;" horiz-adv-x="369" 
d="M471 742l-15 -91q-34 19 -61 19q-33 0 -61 -14.5t-47 -43t-32.5 -55.5t-23.5 -67t-14.5 -62t-9.5 -56q-46 -288 99 -288q32 0 63 15l-14 -88q-37 -21 -84 -21q-230 0 -171 375q63 399 287 399q49 0 84 -22z" />
    <glyph glyph-name="afii10036" unicode="&#x422;" horiz-adv-x="323" 
d="M115 754h331l-13 -87h-113l-106 -667h-100l106 667h-118z" />
    <glyph glyph-name="afii10037" unicode="&#x423;" horiz-adv-x="400" 
d="M262 419h3l45 111l107 224h97l-373 -754h-100l164 313l-79 441h102l29 -222z" />
    <glyph glyph-name="afii10038" unicode="&#x424;" horiz-adv-x="510" 
d="M543 395q-26 -158 -76 -238.5t-153 -86.5l-11 -70h-96l11 70q-70 4 -104 45.5t-35 112.5t14 167q10 63 23.5 110.5t38.5 94.5t66.5 74t97.5 32l7 48h96l-7 -48q55 -5 87.5 -32t42.5 -74t9 -94t-11 -111zM438 401q16 107 11 145q-8 57 -49 69l-72 -455q26 5 43 21t29.5 51
t19.5 69t18 100zM232 160l72 455q-27 -7 -46.5 -29t-31 -60.5t-16 -59.5t-10.5 -65q-22 -109 -18 -170.5t50 -70.5z" />
    <glyph glyph-name="afii10039" unicode="&#x425;" horiz-adv-x="427" 
d="M152 754h99l27 -134q18 -90 18 -138h2l44 104l79 168h102l-197 -371l78 -383h-102l-25 132q-20 106 -17 150h-2q-6 -28 -33 -87l-93 -195h-108l204 383z" />
    <glyph glyph-name="afii10040" unicode="&#x426;" horiz-adv-x="473" 
d="M444 -170h-100l27 170h-310l119 754h100l-105 -667h151l105 667h100l-105 -667h59z" />
    <glyph glyph-name="afii10041" unicode="&#x427;" horiz-adv-x="438" 
d="M377 0h-100l52 330h-29q-115 0 -152.5 45t-18.5 162l34 217h100l-31 -198q-13 -83 7 -112.5t97 -29.5h7l53 340h100z" />
    <glyph glyph-name="afii10042" unicode="&#x428;" horiz-adv-x="652" 
d="M593 0h-532l119 754h100l-105 -667h116l105 667h100l-105 -667h116l105 667h100z" />
    <glyph glyph-name="afii10043" unicode="&#x429;" horiz-adv-x="652" 
d="M61 0l119 754h100l-105 -667h116l105 667h100l-105 -667h116l105 667h100l-105 -667h59l-41 -257h-100l27 170h-491z" />
    <glyph glyph-name="afii10044" unicode="&#x42a;" horiz-adv-x="400" 
d="M460 216q-18 -114 -69.5 -165t-154.5 -51h-125l106 667h-115l13 87h215l-51 -327h53q161 0 128 -211zM353 209q11 69 -6.5 101.5t-81.5 31.5l-41 -257q62 -3 90.5 27.5t38.5 96.5z" />
    <glyph glyph-name="afii10045" unicode="&#x42b;" horiz-adv-x="580" 
d="M519 0h-100l119 754h100zM410 216q-18 -114 -69.5 -165t-154.5 -51h-125l119 754h100l-51 -327h53q161 0 128 -211zM303 209q11 69 -6.5 101.5t-81.5 31.5l-41 -257q62 -3 90.5 27.5t38.5 96.5z" />
    <glyph glyph-name="afii10046" unicode="&#x42c;" horiz-adv-x="400" 
d="M410 216q-18 -114 -69.5 -165t-154.5 -51h-125l119 754h100l-51 -327h53q161 0 128 -211zM303 209q11 69 -6.5 101.5t-81.5 31.5l-41 -257q62 -3 90.5 27.5t38.5 96.5z" />
    <glyph glyph-name="afii10047" unicode="&#x42d;" horiz-adv-x="369" 
d="M392 365q-59 -375 -291 -375q-47 0 -76 21l14 88q25 -15 57 -15q141 0 186 259h-144l14 87h143q29 240 -102 240q-25 0 -67 -19l15 91q40 22 90 22q224 0 161 -399z" />
    <glyph glyph-name="afii10048" unicode="&#x42e;" horiz-adv-x="650" 
d="M668 377q-6 -40 -11 -65t-16 -70.5t-23 -75t-32 -66t-44 -58.5t-58 -37t-74 -15q-37 0 -65 12.5t-44.5 32.5t-26.5 50.5t-13.5 59.5t-2.5 67.5t4 66.5t8 64h-55l-54 -343h-100l119 754h100l-51 -324h55q9 49 19 89t30 88t45.5 80.5t65.5 54.5t89 22q40 0 69.5 -15t46 -37
t25.5 -58.5t11 -66t-1 -75t-6.5 -70t-9.5 -65.5zM562 377q7 44 11 77.5t6.5 69t0 60.5t-9 45.5t-20 30.5t-32.5 10q-29 0 -51 -22t-37.5 -65.5t-26 -90.5t-21.5 -115q-7 -44 -11.5 -78t-6.5 -69t0.5 -60t8.5 -45.5t19.5 -30.5t32.5 -10q29 0 51 22t38 66t26.5 90.5
t21.5 114.5z" />
    <glyph glyph-name="afii10049" unicode="&#x42f;" horiz-adv-x="416" 
d="M356 0h-100l58 369h-2l-194 -369h-104l197 367q-54 10 -69 68t-4 126q9 54 28 92.5t39.5 57.5t51 29.5t50 12t48.5 1.5h120zM323 420l39 249h-16q-52 0 -73.5 -33t-32.5 -97q-20 -126 83 -119z" />
    <glyph glyph-name="afii10065" unicode="&#x430;" horiz-adv-x="380" 
d="M199 76q60 0 87 177q16 106 5 143q-10 32 -36 33q-14 0 -26.5 -7t-21 -21.5t-15 -27t-11.5 -34.5t-7 -32.5t-5.5 -31.5t-3.5 -22q-16 -99 -9 -135q11 -41 43 -42zM243 0l10 65h-2q-22 -38 -44.5 -55.5t-59.5 -17.5q-28 0 -47 13.5t-27.5 38.5t-12.5 50t-1.5 60t4.5 56
t7 49q4 28 8.5 48.5t13 54t20 57t28 46.5t40.5 35.5t52 12.5q61 0 80 -64h2l9 56h94l-80 -505h-94z" />
    <glyph glyph-name="afii10066" unicode="&#x431;" horiz-adv-x="375" 
d="M387 251q-6 -38 -13.5 -68.5t-23 -68t-36 -62.5t-53.5 -42.5t-74 -17.5q-124 0 -127 149q-1 46 19 173q23 148 74 257t106 160q12 11 40.5 30.5t46.5 36t20 32.5h106q-5 -22 -15 -39t-26.5 -30.5t-32 -24t-41 -27t-44.5 -30.5q-71 -54 -129 -212h3q38 38 95 38
q47 0 74 -23t34 -64.5t6 -79t-9 -87.5zM291 251q0 1 3.5 21.5t5 31.5t3 32.5t-0.5 34.5t-6.5 27.5t-14.5 21.5t-25 7q-12 0 -22 -4.5t-18 -13.5t-14.5 -18t-11.5 -24.5t-8.5 -25.5t-6.5 -27t-4.5 -24t-3.5 -22.5t-2 -16.5q0 -2 -2.5 -15.5t-3.5 -21.5t-3.5 -24t-2.5 -26.5
t0.5 -25t4 -24t8.5 -18.5t13.5 -13.5t20.5 -4.5q13 0 24.5 6.5t19.5 15.5t15 24t11 27t8.5 30t6 27.5t4 25t2.5 17.5z" />
    <glyph glyph-name="afii10067" unicode="&#x432;" horiz-adv-x="356" 
d="M352 148q-10 -64 -55 -106t-112 -42h-141l80 505h136q67 0 92.5 -34t16.5 -90q-9 -58 -57 -96q56 -36 40 -137zM273 369q8 59 -33 59h-34l-19 -118h8q38 0 55.5 13.5t22.5 45.5zM258 156q11 79 -59 79h-24l-25 -158h39q29 0 46.5 25t22.5 54z" />
    <glyph glyph-name="afii10068" unicode="&#x433;" horiz-adv-x="266" 
d="M344 505l-13 -84h-126l-67 -421h-94l80 505h220z" />
    <glyph glyph-name="afii10069" unicode="&#x434;" horiz-adv-x="400" 
d="M375 -156h-94l25 156h-219l-25 -156h-94l38 240q47 0 85 62.5t50 135.5l35 223h252l-67 -421h52zM267 84l54 337h-64l-18 -109q-29 -177 -95 -228h123z" />
    <glyph glyph-name="afii10070" unicode="&#x435;" horiz-adv-x="361" 
d="M173 301h112q20 128 -37 128q-20 0 -34 -12t-22 -34.5t-11.5 -37.5t-6.5 -37q-1 -5 -1 -7zM370 234h-208q-26 -158 34 -158t74 94h87q-12 -77 -56.5 -127.5t-118.5 -50.5q-34 0 -58.5 11t-37.5 32t-20 45t-7 55.5t2 57t7 56.5q6 38 13 68t22 69t34.5 64.5t51.5 44
t72 18.5q48 0 76.5 -25t35.5 -70t6.5 -82t-7.5 -87z" />
    <glyph glyph-name="afii10072" unicode="&#x436;" horiz-adv-x="583" 
d="M579 0h-109l-89 258h-2l-41 -258h-94l41 258h-2l-171 -258h-109l189 271l-92 234h105l80 -234h2l37 234h94l-37 -234h2l154 234h105l-166 -234z" />
    <glyph glyph-name="afii10073" unicode="&#x437;" horiz-adv-x="300" 
d="M304 149q-10 -63 -58.5 -110t-112.5 -47q-67 0 -102 33l14 88h2q17 -37 86 -37q31 0 55 26t28 54q7 38 -13 59.5t-59 21.5h-33l12 81h17q43 0 66 16t29 57q3 21 -7.5 35t-35.5 14q-24 0 -49.5 -13.5t-42.5 -32.5h-1l15 95q13 12 42.5 22.5t63.5 10.5q63 0 86.5 -35.5
t14.5 -91.5q-5 -33 -23.5 -64.5t-45.5 -46.5q29 -15 44 -52t8 -83z" />
    <glyph glyph-name="afii10074" unicode="&#x438;" horiz-adv-x="388" 
d="M108 0h-64l80 505h94l-20 -127l-41 -198h2l202 325h64l-80 -505h-94l19 122l41 195h-2z" />
    <glyph glyph-name="afii10075" unicode="&#x439;" horiz-adv-x="388" 
d="M297 607q-51 0 -84.5 22t-38.5 61l66 21q7 -43 67 -43q58 0 81 42l57 -20q-14 -38 -55.5 -60.5t-92.5 -22.5zM108 0h-64l80 505h94l-20 -127l-41 -198h2l202 325h64l-80 -505h-94l19 122l41 195h-2z" />
    <glyph glyph-name="afii10076" unicode="&#x43a;" horiz-adv-x="395" 
d="M124 505h94l-37 -234h2l154 234h105l-166 -234l103 -271h-109l-89 258h-2l-41 -258h-94z" />
    <glyph glyph-name="afii10077" unicode="&#x43b;" horiz-adv-x="388" 
d="M345 0h-94l67 421h-83l-44 -274q-11 -68 -54 -107.5t-97 -39.5h-32l13 81h2q64 0 77 85l54 339h271z" />
    <glyph glyph-name="afii10078" unicode="&#x43c;" horiz-adv-x="467" 
d="M384 349h-2l-115 -349h-63l-5 349h-2l-29 -123l-66 -226h-96l175 505h73l9 -256l-8 -121h2l31 119l90 258h72l11 -505h-96l9 226z" />
    <glyph glyph-name="afii10079" unicode="&#x43d;" horiz-adv-x="388" 
d="M175 232l-37 -232h-94l80 505h94l-30 -189h113l30 189h94l-80 -505h-94l37 232h-113z" />
    <glyph glyph-name="afii10080" unicode="&#x43e;" horiz-adv-x="375" 
d="M187 -8q-160 0 -118 259q6 39 13.5 70t23 69t36 63t53.5 42.5t74 17.5q35 0 60 -11.5t38.5 -32.5t21 -45t7.5 -56.5t-2 -58.5t-7 -58q-6 -38 -13.5 -68.5t-23 -68t-36 -62.5t-53.5 -42.5t-74 -17.5zM200 78q13 0 24.5 6.5t19.5 15.5t15 24t11 27t8.5 30t6 27.5t4 25
t2.5 17.5q0 1 3.5 21.5t5 31.5t3 32.5t-0.5 34.5t-6.5 27.5t-14.5 21.5t-25 7q-12 0 -22 -4.5t-18 -13.5t-14.5 -18t-11.5 -24.5t-8.5 -25.5t-6.5 -27t-4.5 -24t-3.5 -22.5t-2 -16.5q0 -2 -2.5 -15.5t-3.5 -21.5t-3.5 -24t-2.5 -26.5t0.5 -25t4 -24t8.5 -18.5t13.5 -13.5
t20.5 -4.5z" />
    <glyph glyph-name="afii10081" unicode="&#x43f;" horiz-adv-x="388" 
d="M205 421l-67 -421h-94l80 505h301l-80 -505h-94l67 421h-113z" />
    <glyph glyph-name="afii10082" unicode="&#x440;" horiz-adv-x="380" 
d="M205 76q28 0 47 29t27 61.5t16 85.5q0 1 3.5 22t4.5 31.5t3 32.5t-0.5 35t-6.5 27.5t-14 21.5t-24 7q-61 0 -87 -177q-16 -106 -5 -143q10 -32 36 -33zM217 505l-10 -65h2q20 36 44 54.5t60 18.5q28 0 47 -13t27.5 -38.5t12.5 -50t1.5 -60t-4.5 -56t-7 -48.5
q-5 -35 -10.5 -60.5t-18 -65t-28.5 -65t-43.5 -45t-61.5 -19.5q-35 0 -52 16t-28 49h-2l-42 -264h-94l113 712h94z" />
    <glyph glyph-name="afii10083" unicode="&#x441;" horiz-adv-x="278" 
d="M333 496l-15 -95h-2q-13 24 -41 24q-84 0 -109 -168q-28 -177 53 -177q22 0 51 19l-14 -87q-37 -20 -79 -20q-150 0 -109 256q6 38 13 68t22 69.5t34.5 65t51.5 44t71 18.5t73 -17z" />
    <glyph glyph-name="afii10084" unicode="&#x442;" horiz-adv-x="280" 
d="M353 505l-13 -84h-86l-67 -421h-94l67 421h-86l13 84h266z" />
    <glyph glyph-name="afii10085" unicode="&#x443;" horiz-adv-x="373" 
d="M84 505h105l18 -352h2l141 352h95l-319 -712h-99l117 248z" />
    <glyph glyph-name="afii10086" unicode="&#x444;" horiz-adv-x="471" 
d="M483 255q-21 -136 -67.5 -194t-136.5 -69l-32 -199h-88l32 198q-87 11 -115 69.5t-7 194.5q22 134 70.5 191t133.5 67l50 317h88l-50 -317q81 -10 112 -67.5t10 -190.5zM390 260q12 73 2 113.5t-44 55.5l-56 -355q38 14 61 55.5t37 130.5zM204 74l56 355
q-39 -14 -61.5 -54t-34.5 -115q-13 -94 -3.5 -133t43.5 -53z" />
    <glyph glyph-name="afii10087" unicode="&#x445;" horiz-adv-x="375" 
d="M219 199l-24 -56l-83 -143h-105l171 268l-84 237h105l41 -171l96 171h105l-164 -237l89 -268h-103l-38 143z" />
    <glyph glyph-name="afii10088" unicode="&#x446;" horiz-adv-x="397" 
d="M303 0h-259l80 505h94l-67 -421h113l67 421h94l-67 -421h52l-38 -240h-94z" />
    <glyph glyph-name="afii10089" unicode="&#x447;" horiz-adv-x="359" 
d="M316 0h-94l33 210h-41q-75 0 -107.5 44.5t-18.5 132.5l19 118h94l-20 -123q-7 -45 3 -67.5t44 -22.5h40l34 213h94z" />
    <glyph glyph-name="afii10090" unicode="&#x448;" horiz-adv-x="577" 
d="M532 0h-488l80 505h94l-67 -421h103l67 421h94l-67 -421h103l67 421h94z" />
    <glyph glyph-name="afii10091" unicode="&#x449;" horiz-adv-x="584" 
d="M559 -156h-94l25 156h-446l80 505h94l-67 -421h103l67 421h94l-67 -421h103l67 421h94l-67 -421h52z" />
    <glyph glyph-name="afii10092" unicode="&#x44a;" horiz-adv-x="387" 
d="M295 160q12 76 -51 76h-24l-24 -152h25q63 0 74 76zM156 421h-86l13 84h180l-29 -185h40q73 0 99.5 -44.5t16.5 -111.5q-10 -66 -53.5 -115t-118.5 -49h-129z" />
    <glyph glyph-name="afii10093" unicode="&#x44b;" horiz-adv-x="493" 
d="M345 164q-10 -66 -53.5 -115t-118.5 -49h-129l80 505h94l-29 -185h40q73 0 99.5 -44.5t16.5 -111.5zM250 160q12 76 -51 76h-24l-24 -152h25q63 0 74 76zM436 505h94l-80 -505h-94z" />
    <glyph glyph-name="afii10094" unicode="&#x44c;" horiz-adv-x="342" 
d="M345 164q-10 -66 -53.5 -115t-118.5 -49h-129l80 505h94l-29 -185h40q73 0 99.5 -44.5t16.5 -111.5zM250 160q12 76 -51 76h-24l-24 -152h25q63 0 74 76z" />
    <glyph glyph-name="afii10095" unicode="&#x44d;" horiz-adv-x="278" 
d="M289 248q-41 -256 -189 -256q-42 0 -73 20l14 87q22 -19 45 -19q76 0 104 149h-89l12 77h87q11 119 -62 119q-28 0 -47 -24h-2l15 95q37 17 77 17q151 0 108 -265z" />
    <glyph glyph-name="afii10096" unicode="&#x44e;" horiz-adv-x="525" 
d="M537 251q-6 -38 -13.5 -68.5t-23 -68t-36 -62.5t-53.5 -42.5t-74 -17.5q-149 0 -123 222h-42l-34 -214h-94l80 505h94l-34 -213h42q45 221 193 221q35 0 60 -11.5t38.5 -32.5t21 -45t7.5 -56.5t-2 -58.5t-7 -58zM441 251q0 1 3.5 21.5t5 31.5t3 32.5t-0.5 34.5t-6.5 27.5
t-14.5 21.5t-25 7q-12 0 -22 -4.5t-18 -13.5t-14.5 -18t-11.5 -24.5t-8.5 -25.5t-6.5 -27t-4.5 -24t-3.5 -22.5t-2 -16.5q0 -2 -2.5 -15.5t-3.5 -21.5t-3.5 -24t-2.5 -26.5t0.5 -25t4 -24t8.5 -18.5t13.5 -13.5t20.5 -4.5q13 0 24.5 6.5t19.5 15.5t15 24t11 27t8.5 30
t6 27.5t4 25t2.5 17.5z" />
    <glyph glyph-name="afii10097" unicode="&#x44f;" horiz-adv-x="370" 
d="M327 0h-94l35 219h-6l-151 -219h-111l171 227q-33 11 -54.5 49t-13.5 92q9 58 60.5 97.5t118.5 39.5h125zM277 279l24 148h-30q-26 0 -48.5 -20.5t-26.5 -49.5q-13 -78 57 -78h24z" />
    <glyph glyph-name="afii10071" unicode="&#x451;" horiz-adv-x="361" 
d="M173 301h112q20 128 -37 128q-20 0 -34 -12t-22 -34.5t-11.5 -37.5t-6.5 -37q-1 -5 -1 -7zM370 234h-208q-26 -158 34 -158t74 94h87q-12 -77 -56.5 -127.5t-118.5 -50.5q-34 0 -58.5 11t-37.5 32t-20 45t-7 55.5t2 57t7 56.5q6 38 13 68t22 69t34.5 64.5t51.5 44
t72 18.5q48 0 76.5 -25t35.5 -70t6.5 -82t-7.5 -87zM198 604q-24 0 -39 15.5t-11 39.5t23.5 41t44.5 17q22 0 35.5 -16.5t10.5 -38.5q-4 -23 -22.5 -40.5t-41.5 -17.5zM359 604q-24 0 -39 15.5t-11 39.5t23.5 41t44.5 17q22 0 35.5 -16.5t10.5 -38.5q-4 -23 -22.5 -40.5
t-41.5 -17.5z" />
    <glyph glyph-name="afii10099" unicode="&#x452;" horiz-adv-x="378" 
d="M289 240l17 109q2 19 2.5 36.5t-11 30.5t-34.5 13q-9 0 -17 -2.5t-14 -5t-11.5 -9t-9 -11t-7 -13.5t-5 -14t-4 -16t-3 -14.5t-2.5 -15t-2 -13.5l-50 -315h-94l90 571h-38l12 74h38l29 185h94l-29 -185h87l-12 -74h-87l-19 -124h2q43 66 112 66q47 0 67.5 -26t17.5 -63
t-8 -77l-15 -95q-22 -143 -73 -269.5t-106 -189.5h-102q53 56 109 186.5t76 260.5z" />
    <glyph glyph-name="afii10100" unicode="&#x453;" horiz-adv-x="266" 
d="M344 505l-13 -84h-126l-67 -421h-94l80 505h220zM338 700l-121 -135l-45 29l106 149z" />
    <glyph glyph-name="afii10101" unicode="&#x454;" horiz-adv-x="278" 
d="M260 12q-37 -20 -79 -20q-150 0 -109 256q6 38 13 68t22 69.5t34.5 65t51.5 44t71 18.5t73 -17l-15 -95h-2q-13 24 -41 24q-72 0 -100 -119h87l-12 -77h-89q-18 -149 58 -149q22 0 51 19z" />
    <glyph glyph-name="afii10102" unicode="&#x455;" horiz-adv-x="276" 
d="M312 491l-14 -89q-27 27 -66 27q-27 0 -48 -14.5t-25 -39.5q-3 -23 10 -42.5t34 -35.5t41 -34.5t31 -49.5t5 -71q-11 -68 -56 -109t-112 -41q-43 0 -78 24l14 92q35 -32 73 -32q30 0 49 17t24 47q4 24 -9 44.5t-34 37t-41 35.5t-31.5 49t-5.5 69q10 60 53.5 99t103.5 39
q48 0 82 -22z" />
    <glyph glyph-name="afii10103" unicode="&#x456;" horiz-adv-x="180" 
d="M217 505l-80 -505h-94l80 505h94zM185 595q-26 0 -41.5 18.5t-11.5 44.5q4 25 25.5 43.5t47.5 18.5q25 0 40.5 -18.5t11.5 -43.5q-4 -26 -25.5 -44.5t-46.5 -18.5z" />
    <glyph glyph-name="afii10104" unicode="&#x457;" horiz-adv-x="180" 
d="M123 505h94l-80 -505h-94zM107 604q-24 0 -39 15.5t-11 39.5t23.5 41t44.5 17q22 0 35.5 -16.5t10.5 -38.5q-4 -23 -22.5 -40.5t-41.5 -17.5zM268 604q-24 0 -39 15.5t-11 39.5t23.5 41t44.5 17q22 0 35.5 -16.5t10.5 -38.5q-4 -23 -22.5 -40.5t-41.5 -17.5z" />
    <glyph glyph-name="afii10105" unicode="&#x458;" horiz-adv-x="180" 
d="M217 505l-113 -712h-94l113 712h94zM185 595q-26 1 -41.5 19t-11.5 44t25.5 44.5t47.5 17.5q25 0 40.5 -19t11.5 -44q-4 -26 -25.5 -44t-46.5 -18z" />
    <glyph glyph-name="afii10106" unicode="&#x459;" horiz-adv-x="546" 
d="M552 162q-10 -66 -53.5 -114t-118.5 -48h-129l67 421h-83l-44 -274q-11 -68 -54 -107.5t-97 -39.5h-32l13 81h2q64 0 77 85l54 339h271l-30 -189h40q73 0 100 -44t17 -110zM457 158q12 74 -51 74h-24l-24 -148h25q62 0 74 74z" />
    <glyph glyph-name="afii10107" unicode="&#x45a;" horiz-adv-x="546" 
d="M552 162q-10 -66 -53.5 -114t-118.5 -48h-129l37 232h-113l-37 -232h-94l80 505h94l-30 -189h113l30 189h94l-30 -189h40q73 0 100 -44t17 -110zM457 158q12 74 -51 74h-24l-24 -148h25q62 0 74 74z" />
    <glyph glyph-name="afii10108" unicode="&#x45b;" horiz-adv-x="388" 
d="M345 0h-94l55 349q14 80 -43 80q-9 0 -17 -2.5t-14 -5t-11.5 -9t-9 -11t-7 -13.5t-5 -14t-4 -16t-3 -14.5t-2.5 -15t-2 -13.5l-50 -315h-94l90 571h-38l12 74h38l29 185h94l-29 -185h87l-12 -74h-87l-19 -124h2q43 66 112 66q47 0 67.5 -26t17.5 -63t-8 -77z" />
    <glyph glyph-name="afii10109" unicode="&#x45c;" horiz-adv-x="395" 
d="M124 505h94l-37 -234h2l154 234h105l-166 -234l103 -271h-109l-89 258h-2l-41 -258h-94zM398 700l-121 -135l-45 29l106 149z" />
    <glyph glyph-name="afii10110" unicode="&#x45e;" horiz-adv-x="373" 
d="M84 505h105l18 -352h2l141 352h95l-319 -712h-99l117 248zM286 607q-51 0 -84.5 22t-38.5 61l66 21q7 -43 67 -43q58 0 81 42l57 -20q-14 -38 -55.5 -60.5t-92.5 -22.5z" />
    <glyph glyph-name="afii10193" unicode="&#x45f;" horiz-adv-x="388" 
d="M345 0h-103l-25 -156h-94l25 156h-104l80 505h94l-67 -421h113l67 421h94z" />
    <glyph glyph-name="afii10050" unicode="&#x490;" horiz-adv-x="342" 
d="M446 667h-179l-106 -667h-100l119 754h179l27 170h100z" />
    <glyph glyph-name="afii10098" unicode="&#x491;" horiz-adv-x="266" 
d="M331 421h-126l-67 -421h-94l80 505h126l25 156h94z" />
    <glyph glyph-name="endash" unicode="&#x2013;" horiz-adv-x="500" 
d="M47 296h500l-12 -74h-500z" />
    <glyph glyph-name="emdash" unicode="&#x2014;" horiz-adv-x="1000" 
d="M47 296h1000l-12 -74h-1000z" />
    <glyph glyph-name="quoteleft" unicode="&#x2018;" horiz-adv-x="213" 
d="M183 474l-77 24l138 266l50 -15z" />
    <glyph glyph-name="quoteright" unicode="&#x2019;" horiz-adv-x="213" 
d="M226 764l77 -24l-139 -265l-49 14z" />
    <glyph glyph-name="quotesinglbase" unicode="&#x201a;" horiz-adv-x="213" 
d="M122 106l77 -25l-139 -265l-49 14z" />
    <glyph glyph-name="quotedblleft" unicode="&#x201c;" horiz-adv-x="344" 
d="M314 474l-77 24l138 266l50 -15zM177 474l-77 24l138 266l50 -15z" />
    <glyph glyph-name="quotedblright" unicode="&#x201d;" horiz-adv-x="344" 
d="M226 764l77 -24l-139 -265l-49 14zM363 764l77 -24l-139 -265l-49 14z" />
    <glyph glyph-name="quotedblbase" unicode="&#x201e;" horiz-adv-x="344" 
d="M122 106l77 -25l-139 -265l-49 14zM259 106l77 -25l-139 -265l-49 14z" />
    <glyph glyph-name="dagger" unicode="&#x2020;" horiz-adv-x="359" 
d="M252 754h94l-39 -249h103l-13 -82h-103l-89 -560h-94l89 560h-104l13 82h104z" />
    <glyph glyph-name="daggerdbl" unicode="&#x2021;" horiz-adv-x="359" 
d="M252 754h94l-36 -229h103l-13 -82h-103l-29 -184h103l-13 -82h-103l-50 -314h-94l50 314h-104l13 82h104l29 184h-104l13 82h104z" />
    <glyph glyph-name="bullet" unicode="&#x2022;" horiz-adv-x="400" 
d="M12 377q0 78 54.5 133.5t132.5 55.5q79 0 134.5 -55.5t55.5 -133.5q0 -77 -55.5 -132.5t-134.5 -55.5q-78 0 -132.5 55.5t-54.5 132.5z" />
    <glyph glyph-name="ellipsis" unicode="&#x2026;" horiz-adv-x="1000" 
d="M165 -10q-25 0 -39.5 17.5t-10.5 43.5q4 24 24 41.5t45 17.5t40 -17.5t11 -41.5q-4 -25 -24.5 -43t-45.5 -18zM498 -10q-25 0 -39.5 17.5t-10.5 43.5q4 24 24 41.5t45 17.5t40 -17.5t11 -41.5q-4 -25 -24.5 -43t-45.5 -18zM831 -10q-25 0 -39.5 17.5t-10.5 43.5
q4 24 24 41.5t45 17.5t40 -17.5t11 -41.5q-4 -25 -24.5 -43t-45.5 -18z" />
    <glyph glyph-name="perthousand" unicode="&#x2030;" horiz-adv-x="817" 
d="M213 405q-46 0 -67 30.5t-18.5 70t6.5 78.5q4 27 9 47.5t15.5 46.5t24 43.5t36.5 29.5t51 12q35 0 55.5 -16.5t25.5 -46.5t4 -56t-7 -60q-27 -179 -135 -179zM223 465q7 0 13.5 3t11.5 9t9 12.5t7.5 16.5t5.5 17.5t4 18.5l3 16.5t2.5 15t1.5 10.5t1.5 10.5t2.5 15
t2.5 16.5t1.5 18t-0.5 17t-2.5 16.5t-5 13t-8.5 9.5t-12.5 3t-13.5 -3t-11.5 -9.5t-9.5 -13t-7.5 -16.5t-5.5 -17t-4.5 -18l-3 -16.5t-2.5 -15t-1.5 -10.5t-1.5 -11t-2.5 -15t-2 -16.5t-1 -18v-17t2.5 -16.5t5.5 -12.5t8.5 -9.5t12.5 -3zM551 754h62l-493 -754h-62zM458 349
q46 0 67 -30t18.5 -70t-6.5 -79q-27 -179 -135 -179q-46 0 -67 30.5t-18.5 70t6.5 78.5q4 26 8.5 47t15 47t24 43.5t36.5 29.5t51 12zM411 51q7 0 12.5 3t10.5 7t9 11t7 13t6 15.5t4.5 16t3.5 16.5t2.5 14.5t2 13t1.5 9.5t1.5 10.5t2.5 15t2.5 16.5t1.5 18t-0.5 17
t-2.5 16.5t-5 13t-8.5 9.5t-12.5 3t-13.5 -3t-11.5 -9.5t-9.5 -13t-7.5 -16.5t-5.5 -17t-4.5 -18l-3 -16.5t-2.5 -15t-1.5 -10.5q0 -2 -1.5 -11l-2.5 -15t-2.5 -16.5t-1.5 -18t0.5 -17t2.5 -16.5t5 -13t8.5 -9t12.5 -3zM722 349q46 0 67 -30t18.5 -70t-6.5 -79
q-27 -179 -135 -179q-46 0 -67 30.5t-18.5 70t6.5 78.5q4 26 8.5 47t15 47t24 43.5t36.5 29.5t51 12zM675 51q7 0 12.5 3t10.5 7t9 11t7 13t6 15.5t4.5 16t3.5 16.5t2.5 14.5t2 13t1.5 9.5t1.5 10.5t2.5 15t2.5 16.5t1.5 18t-0.5 17t-2.5 16.5t-5 13t-8.5 9.5t-12.5 3
t-13.5 -3t-11.5 -9.5t-9.5 -13t-7.5 -16.5t-5.5 -17t-4.5 -18l-3 -16.5t-2.5 -15t-1.5 -10.5q0 -2 -1.5 -11l-2.5 -15t-2.5 -16.5t-1.5 -18t0.5 -17t2.5 -16.5t5 -13t8.5 -9t12.5 -3z" />
    <glyph glyph-name="guilsinglleft" unicode="&#x2039;" horiz-adv-x="238" 
d="M67 260l164 222l41 -27l-146 -195l73 -199l-48 -25z" />
    <glyph glyph-name="guilsinglright" unicode="&#x203a;" horiz-adv-x="238" 
d="M253 260l-154 -224l-40 25l135 199l-84 195l49 27z" />
    <glyph glyph-name="Euro" unicode="&#x20ac;" 
d="M507 733l-20 -100q-23 34 -87 34q-100 0 -144 -170h177l-36 -81h-163l-3.5 -17.5t-3.5 -18.5q-1 -4 -7 -37h144l-37 -81h-117q-22 -175 78 -175q61 0 100 34l-20 -102q-37 -27 -115 -27q-164 0 -136 270h-62l37 81h34q2 21 6 37q3 15 8 36h-55l36 81h40q77 266 242 266
q74 0 104 -30z" />
    <glyph glyph-name="afii61352" unicode="&#x2116;" horiz-adv-x="674" 
d="M232 579l-2 -49l-25 -253l-44 -277h-100l119 754h96l86 -573l2 2l24 302l42 269h100l-119 -754h-93l-84 581zM460 59h190l-9 -59h-190zM560 90q-104 0 -78 155q24 158 128 158q33 0 53 -14.5t25.5 -41t5 -49t-5.5 -53.5q-26 -155 -128 -155zM601 340q-38 0 -51 -95
q-17 -93 21 -93q36 0 49 93q17 95 -19 95z" />
    <glyph glyph-name="trademark" unicode="&#x2122;" horiz-adv-x="750" 
d="M719 754v-421h-55v361h-2l-118 -361h-32l-115 361h-2v-361h-55v421h89l98 -297h2l102 297h88zM280 754v-60h-109v-361h-61v361h-110v60h280z" />
    <glyph glyph-name="radical" unicode="&#x221a;" horiz-adv-x="549" 
d="M81 450l158 72l133 -403l253 798l34 -5l-300 -950l-164 502l-103 -47z" />
    <glyph glyph-name="infinity" unicode="&#x221e;" horiz-adv-x="713" 
d="M548 391q76 31 132 -6t52 -106q-3 -59 -55 -109.5t-116 -44.5q-29 3 -54 12.5t-44 24t-30.5 25.5t-24 26.5t-14.5 17.5q-1 -1 -27.5 -23t-45.5 -35.5t-55.5 -29t-72.5 -18.5q-67 -6 -102.5 44.5t-20.5 109.5q18 68 86.5 105.5t133.5 6.5q31 -15 51.5 -32t62.5 -62
q57 45 83 62t61 32zM260 345q-55 20 -96 -12.5t-47 -73.5q-6 -43 26.5 -68.5t76.5 -15.5q28 6 51 18t37 23t58 48q-41 39 -62 55.5t-44 25.5zM550 175q41 -10 81 15.5t48 68.5q7 41 -23.5 73.5t-91.5 12.5q-43 -14 -132 -81q32 -37 42.5 -48t30 -23t45.5 -18z" />
    <glyph glyph-name="approxequal" unicode="&#x2248;" horiz-adv-x="549" 
d="M586 370q-36 -48 -91.5 -67.5t-98.5 -6.5l-143 43q-19 6 -36 7t-31 -3t-25 -8.5t-21.5 -12.5t-16 -13.5t-13 -13.5t-8.5 -9l-38 27q95 104 206 72l144 -42q33 -10 81 9q36 15 57 42zM562 219q-36 -48 -91.5 -67.5t-98.5 -6.5l-143 43q-19 6 -36 7t-31 -3t-25 -8.5
t-21.5 -12.5t-16 -13.5t-13 -13.5t-8.5 -9l-38 27q95 104 206 72l144 -42q33 -10 81 9q36 15 57 42z" />
    <glyph glyph-name="notequal" unicode="&#x2260;" horiz-adv-x="500" 
d="M477 124h-240l-82 -124h-72l82 124h-101l11 70h135q36 55 79 120v0v0v0h-1v0h-1v0h-1v0h-1h-1h-1h-1h-1h-1h-1h-1h-1h-1h-1h-1h-1h-1h-1h-1h-1h-1h-1h-1h-1h-1h-1h-1h-1h-1h-1h-1h-1h-1h-1h-1h-1h-1h-2h-1h-1h-1h-1h-1h-1h-1h-2h-1h-1h-1h-1h-2h-1h-1h-1h-2h-1h-1h-1h-2
h-1h-1h-2h-1h-1h-2h-1h-1h-2h-1h-2h-1h-1h-2h-1h-2h-1h-1h-2h-1h-2h-1h-2h-1h-2h-1h-2h-1h-2h-1h-2h-2h-1h-2h-1h-2h-1h-2h-2h-1h-2h-1h-2h-2h-1h-2h-2h-1h-2h-2h-1h-2h-2h-1h-2h-2h-2h-1h-2h-2h-2h-1h-2h-2h-2h-1h-2h-2h-2h-2h-1h-2h-2h-2h-2h-1h-2h-9l11 70h230l85 130h72
q-39 -61 -85 -130h111l-11 -70h-146q-17 -26 -38 -58t-31 -47l-10 -15h206z" />
    <glyph glyph-name="lessequal" unicode="&#x2264;" horiz-adv-x="500" 
d="M476 121l-376 232l10 64l450 232l-12 -73l-365 -191l305 -191zM456 -9l-377 232l12 76l376 -235z" />
    <glyph glyph-name="greaterequal" unicode="&#x2265;" horiz-adv-x="500" 
d="M511 353l-450 -232l12 73l365 191l-305 191l12 73l376 -232zM490 223l-449 -232l11 73l450 235z" />
    <glyph glyph-name="nbspace" horiz-adv-x="500" 
 />
    <glyph glyph-name="hyphenminus" horiz-adv-x="242" 
d="M79 297h178l-12 -76h-178z" />
  </font>
</defs>
</svg>
