<?xml version="1.0" standalone="no"?>
<!DOCTYPE svg PUBLIC "-//W3C//DTD SVG 1.1//EN" "http://www.w3.org/Graphics/SVG/1.1/DTD/svg11.dtd" >
<svg xmlns="http://www.w3.org/2000/svg" xmlns:xlink="http://www.w3.org/1999/xlink" version="1.1">
<metadata>
Created by FontForge 20170731 at Thu Apr 29 21:54:03 2010
 By Aleksey,,,
Copyright 1993 DoubleAlex Team. All rights reserved.
</metadata>
<defs>
<font id="FavoritC-Italic" horiz-adv-x="578" >
  <font-face 
    font-family="FavoritC"
    font-weight="400"
    font-style="italic"
    font-stretch="normal"
    units-per-em="1000"
    panose-1="2 0 5 3 3 0 0 2 0 4"
    ascent="800"
    descent="-200"
    x-height="468"
    cap-height="754"
    bbox="-30 -268 1159 1020"
    underline-thickness="50"
    underline-position="-150"
    slope="-11"
    unicode-range="U+0020-2265"
  />
<missing-glyph horiz-adv-x="1000" 
 />
    <glyph glyph-name=".notdef" horiz-adv-x="1000" 
 />
    <glyph glyph-name=".null" horiz-adv-x="0" 
 />
    <glyph glyph-name="nonmarkingreturn" horiz-adv-x="289" 
 />
    <glyph glyph-name="space" unicode=" " horiz-adv-x="289" 
 />
    <glyph glyph-name="exclam" unicode="!" horiz-adv-x="321" 
d="M235 754h90l-91 -580h-90zM177 100q24 0 38.5 -17.5t10.5 -40.5q-4 -24 -24 -41t-44 -17t-38 17t-10 41q4 23 23.5 40.5t43.5 17.5z" />
    <glyph glyph-name="quotedbl" unicode="&#x22;" horiz-adv-x="439" 
d="M468 754l-70 -328h-62l34 328h98zM307 754l-70 -328h-62l34 328h98z" />
    <glyph glyph-name="numbersign" unicode="#" 
d="M264 290h123l51 154h-123zM408 718l-67 -194h124l66 194h79l-66 -194h92l-13 -80h-107l-51 -154h101l-13 -80h-117l-71 -210h-76l70 210h-123l-73 -210h-75l70 210h-100l13 80h115l51 154h-105l13 80h119l67 194h77z" />
    <glyph glyph-name="dollar" unicode="$" 
d="M391 683q-40 -6 -71.5 -34.5t-37.5 -68.5q-3 -22 1.5 -39t15.5 -29.5t26 -22.5t33 -17zM419 860h50l-14 -90q56 -5 94.5 -35t58.5 -81l-87 -45q-11 30 -30 47t-50 27l-37 -235q35 -17 67 -37.5t55 -48t33.5 -63t3.5 -81.5q-7 -41 -28.5 -80.5t-53 -71.5t-70.5 -54
t-81 -28l-15 -95h-50l15 95q-44 1 -80.5 17.5t-63 45t-41 66.5t-14.5 81l93 19q2 -64 28.5 -98.5t91.5 -42.5l48 300l-33 18q-27 15 -51 31.5t-40 38t-23 49t-1 64.5t25.5 71.5t48 61.5t64 44t73.5 20zM345 78q24 5 45.5 18t38.5 31t28 40.5t15 46.5q4 25 -1.5 45.5
t-17.5 36.5t-29 29t-36 24z" />
    <glyph glyph-name="percent" unicode="%" horiz-adv-x="708" 
d="M558 267q-23 0 -45.5 -9t-41 -24t-31 -35.5t-15.5 -43.5q-4 -23 2 -43t19.5 -35t33.5 -24t43 -9t45.5 9t41 24t31 35t16.5 43q3 23 -3 43.5t-19.5 35.5t-33.5 24t-43 9zM568 327q36 0 65.5 -13.5t50 -36.5t30 -54.5t3.5 -67.5t-25 -67t-47 -54t-62.5 -36.5t-69.5 -13.5
t-65 13.5t-50 36.5t-29.5 54t-3.5 67t25 67.5t46.5 54.5t61.5 36.5t70 13.5zM715 744l-561 -760l-42 25l562 761zM305 710q-23 0 -45.5 -9t-40.5 -24t-30.5 -35.5t-16.5 -43.5t2 -43t19.5 -35t33.5 -24t43 -9t45.5 9t41 24t31 35t16.5 43t-2.5 43.5t-20 35.5t-33.5 24t-43 9
zM315 770q36 0 65.5 -13.5t50 -36.5t30 -54.5t3.5 -67.5t-25 -67t-47 -54t-62 -36.5t-69 -13.5t-65 13.5t-50.5 36.5t-30 54t-3.5 67t25 67.5t46.5 54.5t61.5 36.5t70 13.5z" />
    <glyph glyph-name="ampersand" unicode="&#x26;" horiz-adv-x="692" 
d="M526 102q-25 -25 -54 -46.5t-60.5 -37.5t-64.5 -25t-66 -9q-47 0 -86.5 16.5t-66 46t-38.5 70t-4 89.5q6 36 20.5 64.5t36.5 52t49 43.5t57 40l53 34q-14 17 -26 36t-20 39.5t-11.5 43t0.5 46.5q6 39 24 69.5t45 52t60.5 32.5t70.5 11q34 0 64 -10.5t51 -31t30.5 -49.5
t3.5 -66q-5 -32 -21.5 -59t-40 -50t-51 -42.5t-54.5 -36.5l127 -190l104 102l51 -62l-110 -108l109 -167h-116zM398 498q16 10 34 21.5t33.5 26t26.5 31t14 37.5q7 40 -15 61t-60 21q-17 0 -33 -6t-29 -16.5t-22 -25t-12 -32.5q-2 -14 -0.5 -26.5t6 -24t11 -22.5t13.5 -21
l20 -32zM336 366q-22 -13 -48.5 -29.5t-50.5 -36t-41.5 -43t-21.5 -50.5q-5 -27 3 -52t24.5 -44.5t40 -31t50.5 -11.5q26 0 51 9t49 23.5t46 32t43 35.5l-135 204z" />
    <glyph glyph-name="quotesingle" unicode="'" horiz-adv-x="277" 
d="M307 754l-70 -328h-62l34 328h98z" />
    <glyph glyph-name="parenleft" unicode="(" horiz-adv-x="292" 
d="M354 754q-31 -50 -56 -105t-44.5 -112.5t-33 -115.5t-22.5 -113t-13.5 -113t-3.5 -115.5t8.5 -113t23.5 -104.5l-83 -55q-19 54 -29 116.5t-12 128t2.5 131t14.5 125.5q9 61 25.5 126.5t39 130.5t52.5 127.5t66 116.5z" />
    <glyph glyph-name="parenright" unicode=")" horiz-adv-x="292" 
d="M259 809q19 -54 29 -116.5t12 -127.5t-2.5 -130.5t-13.5 -126.5q-10 -60 -26 -125.5t-39 -131t-53 -128t-66 -116.5l-65 55q31 49 56.5 104.5t45 113t33 115.5t22.5 113t13.5 113t3.5 115.5t-9 112.5t-24 105z" />
    <glyph glyph-name="asterisk" unicode="*" horiz-adv-x="432" 
d="M372 754l-15 -95l89 48l26 -59l-93 -50l77 -50l-44 -58l-73 50l-16 -96h-69l16 97l-95 -49l-25 57l93 49l-76 50l40 57l81 -49l15 98h69z" />
    <glyph glyph-name="plus" unicode="+" 
d="M413 512l-34 -213h213l-13 -86h-213l-34 -213h-86l34 213h-213l13 86h213l34 213h86z" />
    <glyph glyph-name="comma" unicode="," horiz-adv-x="289" 
d="M256 88l-175 -267l-52 23l154 275z" />
    <glyph glyph-name="hyphen" unicode="-" horiz-adv-x="332" 
d="M345 308l-12 -75h-259l12 75h259z" />
    <glyph glyph-name="hyphen" unicode="&#xad;" horiz-adv-x="332" 
d="M345 308l-12 -75h-259l12 75h259z" />
    <glyph glyph-name="period" unicode="." horiz-adv-x="289" 
d="M161 100q24 0 38.5 -17.5t10.5 -40.5q-4 -24 -24 -41t-44 -17t-38 17t-10 41q4 23 23.5 40.5t43.5 17.5z" />
    <glyph glyph-name="slash" unicode="/" horiz-adv-x="551" 
d="M652 836l-569 -962l-66 32l568 962z" />
    <glyph glyph-name="zero" unicode="0" 
d="M398 690q-51 0 -89.5 -34t-66 -83t-44 -102.5t-22.5 -92.5q-4 -26 -6 -59t0.5 -67.5t10.5 -67.5t23 -59t38.5 -41.5t57.5 -15.5t62.5 15.5t51.5 41.5t41 59t31.5 67.5t22.5 67.5t13 59t5.5 59t-1 68t-10 68t-22.5 59t-38.5 42t-57.5 16zM286 -16q-49 0 -84 18.5t-59.5 49
t-38.5 71t-20 84t-5 88t7 82.5q6 39 19 83t32.5 87.5t46.5 84t61.5 71t75.5 49t90 18.5t84.5 -18.5t59.5 -49t38.5 -71t20.5 -84t5 -87.5t-7 -83t-19 -83t-33.5 -87.5t-47.5 -84t-61 -71t-75.5 -49t-89.5 -18.5z" />
    <glyph glyph-name="one" unicode="1" 
d="M229 668l65 86h169l-119 -754h-90l106 668h-131z" />
    <glyph glyph-name="two" unicode="2" 
d="M546 86l-14 -86h-487l394 405q28 29 55.5 63t33.5 72q4 30 -4 56t-25.5 45.5t-42.5 31t-54 11.5t-56 -11t-49.5 -29.5t-38.5 -44t-23 -53.5h-94q14 50 39.5 91.5t60.5 71t79.5 45.5t95.5 16q48 0 88.5 -17t68.5 -47t40.5 -71.5t4.5 -90.5q-7 -42 -27.5 -82.5t-52.5 -72.5
l-296 -303h304z" />
    <glyph glyph-name="three" unicode="3" 
d="M344 438q30 0 58 6t50.5 20.5t38 37.5t21.5 57q4 28 -2 52t-21 41t-37.5 26.5t-50.5 9.5q-51 0 -89 -29.5t-53 -78.5h-93q29 94 93 142t158 48q45 0 82.5 -14t63 -40.5t36.5 -64t4 -84.5q-9 -56 -39.5 -99.5t-83.5 -70.5q51 -26 69 -76t8 -111q-8 -53 -33.5 -95
t-62.5 -71t-83.5 -44.5t-97.5 -15.5q-44 0 -82.5 14t-65.5 40.5t-41 63.5t-9 84h91q-1 -28 8.5 -50t27 -37.5t41 -24t50.5 -8.5q31 0 59.5 11.5t51 31.5t37.5 47t20 58q11 72 -27 111.5t-109 34.5z" />
    <glyph glyph-name="four" unicode="4" 
d="M459 503h-2l-262 -311h214zM585 192l-13 -82h-86l-17 -110h-90l17 110h-372l569 676l-94 -594h86z" />
    <glyph glyph-name="five" unicode="5" 
d="M397 668l-72 -155l54 3q55 3 96.5 -18.5t67 -58.5t35 -86t1.5 -101q-9 -60 -39 -109t-73.5 -84.5t-97.5 -55t-112 -19.5q-35 0 -67.5 9t-60 26t-48.5 41.5t-33 55.5l81 66q5 -24 19.5 -44.5t35 -35.5t45 -23.5t49.5 -8.5q38 0 73.5 14.5t64 40t48 59t25.5 71.5
q6 36 -3 68.5t-30 57t-51.5 39t-66.5 14.5q-40 0 -81 -17.5t-71 -49.5h-18l177 387h302l-13 -86h-237z" />
    <glyph glyph-name="six" unicode="6" 
d="M301 68q31 0 62 12t56.5 33t43 49t22.5 60q6 35 -3 65t-28 51.5t-46 33.5t-57 12q-31 0 -62 -13t-56.5 -35t-43.5 -50t-23 -59q-5 -33 3 -61.5t27 -50.5t46 -34.5t59 -12.5zM562 724l-244 -272l1 -2q18 8 37.5 13t39.5 5q46 0 83 -20t61 -53t34 -75.5t3 -87.5
q-8 -52 -35 -97t-66.5 -78.5t-88 -53t-99.5 -19.5q-49 0 -91 19t-71.5 51.5t-43.5 76.5t-6 94q9 57 41 105.5t72 93.5l312 346z" />
    <glyph glyph-name="seven" unicode="7" 
d="M153 668l13 86h543l-592 -770l-65 45l491 639h-390z" />
    <glyph glyph-name="eight" unicode="8" 
d="M398 690q-26 0 -50.5 -10t-45 -28t-34.5 -41.5t-18 -50.5q-4 -23 3.5 -45.5t22.5 -41t36 -30t45 -11.5t48.5 11.5t45.5 30t36 41t19 45.5q4 27 -2.5 50.5t-21.5 41.5t-37 28t-47 10zM86 210q5 30 17 58.5t31 52.5t44 42t56 28q-43 26 -62 69.5t-10 99.5q7 46 30 84.5
t56.5 66.5t75.5 43.5t87 15.5t82 -15.5t61.5 -43.5t35.5 -66.5t4 -84.5q-9 -56 -42 -99.5t-84 -69.5q28 -10 47 -28t30.5 -42t14.5 -52.5t-2 -58.5q-8 -53 -33.5 -94.5t-62.5 -71t-82.5 -45t-93.5 -15.5t-88.5 15.5t-68 45t-39.5 71t-4 94.5zM345 352q-29 0 -57 -11t-51 -30
t-39.5 -45t-21.5 -56q-5 -29 3.5 -54.5t26 -45t42 -31t52.5 -11.5t56 11.5t51.5 31t39.5 45t21 54.5q5 30 -3 56t-25 45t-42 30t-53 11z" />
    <glyph glyph-name="nine" unicode="9" 
d="M361 370q36 0 67.5 13t56 35t40.5 50.5t21 59.5q4 30 -4 58.5t-25.5 50.5t-43 35.5t-56.5 13.5q-34 0 -66 -12.5t-58.5 -34t-44 -50.5t-22.5 -61q-6 -34 3.5 -63t29 -50t46.5 -33t56 -12zM150 31l244 271l-2 2q-18 -8 -36.5 -11t-38.5 -3q-47 0 -84 19.5t-61 51.5t-34 74
t-3 87q8 52 35 97t66 78.5t87.5 53t99.5 19.5q49 0 91 -19t72 -51.5t44 -76.5t6 -94q-9 -57 -41 -105.5t-73 -93.5l-312 -346z" />
    <glyph glyph-name="colon" unicode=":" horiz-adv-x="289" 
d="M221 482q24 0 38.5 -17.5t10.5 -40.5q-4 -24 -23.5 -41t-43.5 -17t-38.5 17t-10.5 41q4 23 23.5 40.5t43.5 17.5zM161 100q24 0 38.5 -17.5t10.5 -40.5q-4 -24 -24 -41t-44 -17t-38 17t-10 41q4 23 23.5 40.5t43.5 17.5z" />
    <glyph glyph-name="semicolon" unicode=";" horiz-adv-x="289" 
d="M268 482q24 0 38.5 -17.5t10.5 -40.5q-4 -24 -23.5 -41t-43.5 -17t-38.5 17t-10.5 41q4 23 23.5 40.5t43.5 17.5zM248 88l-175 -267l-52 23l154 275z" />
    <glyph glyph-name="semicolon" unicode="&#x37e;" horiz-adv-x="289" 
d="M268 482q24 0 38.5 -17.5t10.5 -40.5q-4 -24 -23.5 -41t-43.5 -17t-38.5 17t-10.5 41q4 23 23.5 40.5t43.5 17.5zM248 88l-175 -267l-52 23l154 275z" />
    <glyph glyph-name="less" unicode="&#x3c;" 
d="M609 404l-407 -148l360 -148l-15 -94l-479 207l11 70l545 207z" />
    <glyph glyph-name="equal" unicode="=" 
d="M579 213l-14 -86h-512l14 86h512zM606 385l-14 -86h-512l14 86h512z" />
    <glyph glyph-name="greater" unicode="&#x3e;" 
d="M112 498l479 -207l-11 -70l-545 -207l15 94l408 148l-361 148z" />
    <glyph glyph-name="question" unicode="?" horiz-adv-x="453" 
d="M245 100q24 0 38.5 -17.5t10.5 -40.5q-4 -24 -24 -41t-44 -17t-38 17t-10 41q4 23 23.5 40.5t43.5 17.5zM446 345q-4 -33 -22 -62t-44 -51t-58 -35t-64 -13q-33 0 -60.5 12.5t-46 34t-26.5 50.5t-3 63q6 36 21 60t35 40.5t44.5 27t49.5 19.5q24 9 48 17t43.5 19.5
t32.5 27.5t17 41q7 42 -15.5 65.5t-62.5 23.5q-18 0 -34.5 -7t-30 -18.5t-22.5 -27t-12 -33.5q-2 -8 -1 -16l2 -16h-94l3 33q4 37 23.5 68t48 53.5t64 35.5t70.5 13q38 0 68.5 -13.5t51 -37t29.5 -56t3 -70.5q-5 -35 -24.5 -68t-49.5 -56q-28 -22 -64 -34t-69 -22
q-14 -4 -28 -10t-25.5 -14.5t-19.5 -20.5t-11 -28q-5 -30 11.5 -51t46.5 -21q32 0 55.5 22.5t28.5 54.5h91z" />
    <glyph glyph-name="at" unicode="@" horiz-adv-x="800" 
d="M632 568h71l-91 -257q-5 -13 -10 -28t-7 -28t1.5 -21.5t16.5 -8.5q17 0 38.5 16t41.5 43t36 61.5t22 71.5q10 63 -2.5 113.5t-43.5 86t-77.5 54.5t-103.5 19q-63 0 -121.5 -24.5t-105.5 -67t-79 -99.5t-42 -122q-11 -69 5 -126.5t53 -99t90.5 -64.5t117.5 -23
q63 0 112.5 12t81.5 36l65 -60q-29 -14 -58 -26.5t-62 -21.5t-72 -14.5t-88 -5.5q-81 0 -146.5 29.5t-110 82t-63.5 124.5t-5 157q13 84 54 156t101 124.5t134.5 82.5t154.5 30q66 0 122 -21t99 -66q44 -45 65.5 -102.5t10.5 -127.5q-10 -63 -35 -118t-61 -94
q-44 -48 -88 -68.5t-80 -18.5q-20 1 -32 17t-12 45q-29 -26 -65 -44t-81 -18q-33 0 -61 14.5t-47.5 39.5t-27.5 58.5t-2 72.5q7 45 28 88t53 76.5t72.5 53.5t87.5 20q38 0 68 -16t54 -55zM562 372q17 61 -6.5 94t-75.5 33q-30 0 -57 -13.5t-47.5 -35.5t-34 -49.5
t-17.5 -54.5q-4 -22 -0.5 -42.5t14 -36.5t28 -25.5t40.5 -9.5q33 0 59 11.5t45 31t31.5 45t20.5 52.5z" />
    <glyph glyph-name="A" unicode="A" horiz-adv-x="703" 
d="M444 580l-182 -305h268zM209 189l-116 -189h-101l484 786l236 -786h-101l-56 189h-346z" />
    <glyph glyph-name="B" unicode="B" horiz-adv-x="535" 
d="M183 754h92q53 0 101.5 -8.5t83.5 -31.5t52 -63t7 -104q-3 -21 -12 -42.5t-22.5 -41t-31 -35t-38.5 -24.5v-2q32 -6 57 -24t40.5 -44.5t21.5 -58t1 -64.5q-9 -57 -37.5 -97t-69 -65.5t-89.5 -37t-99 -11.5h-176zM171 84h72q33 0 65.5 5.5t60 20.5t47.5 41t26 66t-8 65
t-39.5 39t-59 19t-64.5 5h-58zM225 420h24q33 0 63 4.5t54 18t41 38t23 65.5q6 40 -2.5 64t-28 37.5t-48 18t-61.5 4.5h-26z" />
    <glyph glyph-name="C" unicode="C" horiz-adv-x="661" 
d="M718 610q-35 36 -84.5 55t-103.5 19q-63 0 -121.5 -24.5t-105 -66.5t-78 -98t-41.5 -119q-10 -62 3.5 -117.5t46.5 -97.5t83.5 -66.5t113.5 -24.5q56 0 110.5 20t102.5 58l-17 -111q-48 -26 -102.5 -39.5t-104.5 -13.5q-81 0 -147.5 30t-111.5 82.5t-65 123.5t-7 153
q13 84 56 156.5t106 126t141 84t161 30.5q50 0 96.5 -12.5t85.5 -38.5z" />
    <glyph glyph-name="D" unicode="D" horiz-adv-x="665" 
d="M172 86h33q72 0 139 14.5t121.5 48.5t92.5 90t51 138t-7 138t-64 90t-106.5 48.5t-134.5 14.5h-33zM183 754h156q87 0 160 -23t123.5 -69.5t73 -116.5t7.5 -164q-15 -96 -59.5 -168t-109.5 -119t-146.5 -70.5t-170.5 -23.5h-153z" />
    <glyph glyph-name="E" unicode="E" horiz-adv-x="521" 
d="M191 754h405l-13 -86h-311l-34 -211h302l-13 -86h-302l-45 -285h311l-14 -86h-405z" />
    <glyph glyph-name="F" unicode="F" horiz-adv-x="474" 
d="M271 668l-34 -212h262l-13 -86h-262l-59 -370h-94l119 754h365l-13 -86h-271z" />
    <glyph glyph-name="G" unicode="G" horiz-adv-x="780" 
d="M819 380l-5 -30q-12 -78 -48.5 -144.5t-91.5 -116t-125.5 -77.5t-149.5 -28t-143.5 31.5t-107.5 85.5t-61.5 125t-6.5 149q13 81 55 153t103.5 126t138 85t157.5 31q88 0 163.5 -38t120.5 -108l-76 -63q-32 55 -90.5 89t-127.5 34q-63 0 -122 -24t-106 -65.5t-79 -97.5
t-42 -119q-9 -59 5 -114.5t46.5 -98.5t82 -69t110.5 -26q44 0 90.5 17.5t86 48t68.5 71.5t38 87h-195l13 86h299z" />
    <glyph glyph-name="H" unicode="H" horiz-adv-x="675" 
d="M588 450l48 304h94l-119 -754h-94l57 362h-359l-57 -362h-94l119 754h94l-48 -304h359z" />
    <glyph glyph-name="I" unicode="I" horiz-adv-x="232" 
d="M163 0h-94l119 754h94z" />
    <glyph glyph-name="J" unicode="J" horiz-adv-x="362" 
d="M422 754l-75 -479q-9 -54 -24.5 -106.5t-44 -93.5t-72.5 -66t-110 -25q-33 0 -60 8t-52 25l59 80q30 -25 71 -25q40 0 65 21t40 51.5t22 66t12 64.5l75 479h94z" />
    <glyph glyph-name="K" unicode="K" horiz-adv-x="600" 
d="M605 754h123l-392 -339l279 -415h-127l-228 351l-44 -36l-50 -315h-94l119 754h94l-51 -327z" />
    <glyph glyph-name="L" unicode="L" horiz-adv-x="385" 
d="M180 86h229l-14 -86h-323l119 754h94z" />
    <glyph glyph-name="M" unicode="M" horiz-adv-x="851" 
d="M279 498h-2l-167 -498h-97l278 786l165 -594l353 594l30 -786h-97l-9 498h-2l-308 -514z" />
    <glyph glyph-name="N" unicode="N" horiz-adv-x="785" 
d="M188 790l472 -593l88 557h94l-124 -785l-472 593l-89 -562h-94z" />
    <glyph glyph-name="O" unicode="O" horiz-adv-x="828" 
d="M425 72q61 0 119.5 23.5t106 64.5t80.5 96.5t44 120.5q10 62 -3.5 117.5t-47 97t-85 66t-117.5 24.5t-125.5 -24.5t-106 -66t-77 -97t-40.5 -117.5q-11 -65 4.5 -120.5t50 -96.5t85.5 -64.5t112 -23.5zM536 770q81 0 148 -31t112.5 -84.5t65.5 -125t7 -152.5
q-14 -84 -56.5 -156t-104.5 -124.5t-138.5 -82.5t-158.5 -30t-149 30t-112 82.5t-65 124.5t-6 156q13 81 55.5 152.5t104.5 125t139 84.5t158 31z" />
    <glyph glyph-name="P" unicode="P" horiz-adv-x="495" 
d="M229 400h30q36 0 72.5 4.5t67.5 19.5t53 42t29 72q7 44 -7.5 70.5t-42.5 40t-63.5 17.5t-70.5 4h-25zM166 0h-94l119 754h108q87 0 143 -14.5t87 -42.5t39.5 -68.5t0.5 -92.5q-9 -60 -37 -101.5t-68.5 -68t-90 -38.5t-103.5 -12h-54z" />
    <glyph glyph-name="Q" unicode="Q" horiz-adv-x="828" 
d="M653 166q25 19 45.5 44.5t36 53.5t25.5 57t15 56q10 62 -3.5 117.5t-47 97t-85 66t-117.5 24.5t-125.5 -24.5t-106 -66t-77 -97t-40.5 -117.5q-11 -65 4.5 -120.5t50 -96.5t85.5 -64.5t112 -23.5q35 0 77 10.5t80 32.5l-146 169h117zM691 -16l-54 67q-52 -32 -112 -49.5
t-114 -17.5q-82 0 -149 30t-112 82.5t-65 124.5t-6 156q13 81 55.5 152.5t104.5 125t139 84.5t158 31t148 -31t112.5 -84.5t65.5 -125t7 -152.5t-55.5 -153t-106.5 -125l98 -115h-114z" />
    <glyph glyph-name="R" unicode="R" horiz-adv-x="543" 
d="M229 397h30q36 0 72.5 4.5t67.5 19.5t53 42t29 72q7 44 -8 70.5t-42.5 41t-63 19t-70.5 4.5h-25zM541 0h-114l-171 319h-39l-51 -319h-94l119 754h114q25 0 51 -0.5t51 -4t48.5 -10.5t43.5 -20q43 -28 61 -77t9 -103q-6 -41 -25 -77t-47 -64t-64 -46.5t-78 -23.5z" />
    <glyph glyph-name="S" unicode="S" horiz-adv-x="537" 
d="M504 611q-16 35 -41.5 53t-68.5 18q-23 0 -46.5 -7.5t-43.5 -21.5t-34.5 -33.5t-18.5 -44.5q-3 -22 4 -39t20 -30t30 -22.5t34 -16.5l51 -21q37 -16 68.5 -35.5t52 -46.5t29 -62.5t1.5 -82.5q-8 -51 -34 -94.5t-63.5 -74.5t-84 -48.5t-97.5 -17.5q-46 0 -83 16t-63.5 44
t-40 67t-12.5 84l98 20q-5 -31 2 -57.5t24 -45.5t42 -29.5t55 -10.5t57.5 12t49.5 32t36.5 46.5t19.5 56.5t-3 52.5t-23.5 39t-37 29t-44.5 22.5l-48 22q-30 13 -57.5 30t-46.5 39.5t-27.5 52.5t-2.5 69q7 46 31.5 82t59.5 61t77 38.5t85 13.5q63 0 108 -29.5t68 -84.5z" />
    <glyph glyph-name="T" unicode="T" horiz-adv-x="456" 
d="M275 0h-94l106 668h-179l13 86h452l-13 -86h-179z" />
    <glyph glyph-name="U" unicode="U" horiz-adv-x="669" 
d="M272 754l-70 -445q-8 -46 -6.5 -89t16.5 -76t47.5 -52.5t86.5 -19.5t92.5 19.5t64.5 52.5t40.5 76t22.5 89l70 445h94l-75 -477q-10 -62 -37 -115.5t-69 -93t-97 -62t-120 -22.5t-112.5 22.5t-76.5 62t-39.5 93t-0.5 115.5l75 477h94z" />
    <glyph glyph-name="V" unicode="V" horiz-adv-x="640" 
d="M352 196l312 558h103l-452 -794l-203 794h103z" />
    <glyph glyph-name="W" unicode="W" horiz-adv-x="1027" 
d="M335 214l301 556l125 -556l296 540h102l-437 -784l-125 553l-301 -553l-189 784h102z" />
    <glyph glyph-name="X" unicode="X" horiz-adv-x="574" 
d="M148 754h107l111 -275l207 275h107l-273 -359l166 -395h-105l-129 309l-234 -309h-105l300 395z" />
    <glyph glyph-name="Y" unicode="Y" horiz-adv-x="573" 
d="M113 754h108l134 -322l236 322h108l-313 -426l-52 -328h-94l52 328z" />
    <glyph glyph-name="Z" unicode="Z" horiz-adv-x="552" 
d="M558 86l-14 -86h-535l488 668h-328l13 86h481l-487 -668h382z" />
    <glyph glyph-name="bracketleft" unicode="[" horiz-adv-x="311" 
d="M136 -109h98l-14 -84h-190l159 1002h190l-13 -84h-98z" />
    <glyph glyph-name="backslash" unicode="\" horiz-adv-x="551" 
d="M519 0h-84h84zM252 868l267 -868h-84l-267 868h84z" />
    <glyph glyph-name="bracketright" unicode="]" horiz-adv-x="311" 
d="M273 725h-98l13 84h190l-159 -1002h-190l14 84h98z" />
    <glyph glyph-name="asciicircum" unicode="^" 
d="M352 754h112l130 -446h-94l-105 362l-220 -362h-93z" />
    <glyph glyph-name="underscore" unicode="_" horiz-adv-x="500" 
d="M470 -188h-500l12 75h500z" />
    <glyph glyph-name="grave" unicode="`" horiz-adv-x="360" 
d="M275 734l99 -166l-48 -27l-141 149z" />
    <glyph glyph-name="a" unicode="a" horiz-adv-x="556" 
d="M501 0h-90l12 73h-2q-34 -40 -78.5 -64.5t-95.5 -24.5q-54 0 -92 20.5t-61 55.5t-30.5 81t0.5 96q7 48 29.5 92.5t56.5 78t78 54t95 20.5q52 0 89.5 -25t58.5 -67h2l12 78h90zM274 64q37 0 67.5 13.5t53.5 37t37.5 54t20.5 65.5q5 34 0 64.5t-21 53.5t-42 36.5t-62 13.5
q-35 0 -64.5 -14t-52.5 -37.5t-38 -53.5t-20 -63t0 -63.5t20 -54.5t40 -38t61 -14z" />
    <glyph glyph-name="b" unicode="b" horiz-adv-x="556" 
d="M192 868h90l-75 -478h2q35 42 79.5 67t97.5 25q51 0 88.5 -20.5t60.5 -54t31.5 -78t1.5 -92.5q-8 -50 -30.5 -96t-56.5 -81t-79 -55.5t-99 -20.5q-50 0 -87 24.5t-57 64.5h-2l-12 -73h-90zM298 64q37 0 67.5 13.5t53.5 37t37.5 54t20.5 65.5q5 34 0 64.5t-21 53.5
t-42 36.5t-62 13.5q-35 0 -64.5 -14t-52.5 -37.5t-38 -53.5t-20 -63t0 -63.5t20 -54.5t40 -38t61 -14z" />
    <glyph glyph-name="c" unicode="c" horiz-adv-x="441" 
d="M459 335q-45 63 -124 63q-33 0 -63.5 -13.5t-55 -36t-41.5 -52.5t-22 -62q-6 -36 1.5 -66.5t25.5 -52.5t45.5 -34.5t63.5 -12.5q39 0 73.5 16.5t64.5 45.5l-19 -115q-33 -17 -66 -24t-68 -7q-52 0 -94.5 18.5t-71.5 51.5t-41.5 78t-4.5 98q9 54 36 100.5t66.5 80
t89.5 52.5t104 19q32 0 63.5 -7.5t55.5 -23.5z" />
    <glyph glyph-name="d" unicode="d" horiz-adv-x="556" 
d="M423 73h-2q-34 -40 -79 -64.5t-95 -24.5q-54 0 -92.5 20.5t-61.5 55.5t-30 81t1 96q7 48 29.5 92.5t56.5 78t77.5 54t94.5 20.5q53 0 90.5 -25t58.5 -67h2l75 478h90l-137 -868h-90zM274 64q37 0 67.5 13.5t53.5 37t37.5 54t20.5 65.5q5 34 0 64.5t-21 53.5t-42 36.5
t-62 13.5q-35 0 -64.5 -14t-52.5 -37.5t-38 -53.5t-20 -63t0 -63.5t20 -54.5t40 -38t61 -14z" />
    <glyph glyph-name="e" unicode="e" horiz-adv-x="488" 
d="M428 287q1 53 -27.5 85t-82.5 32q-53 0 -94 -33t-58 -84h262zM151 219q-5 -30 0.5 -58t20.5 -49.5t39 -34.5t56 -13q52 0 87.5 24.5t67.5 66.5l69 -43q-43 -61 -106 -94.5t-132 -33.5q-54 0 -93.5 19t-63.5 52t-33 78t-1 97q9 54 30.5 100t55.5 80t79.5 53t102.5 19
q56 0 94 -19.5t60 -53t28 -79t-2 -97.5l-2 -14h-357z" />
    <glyph glyph-name="f" unicode="f" horiz-adv-x="275" 
d="M417 777q-13 6 -28 12.5t-29 6.5q-24 0 -39 -13.5t-24 -33t-13.5 -41.5t-7.5 -39l-32 -201h124l-13 -84h-124l-61 -384h-90l61 384h-41l13 84h41l36 228q6 38 18.5 71.5t34 58.5t52.5 39.5t75 14.5q34 0 61 -12z" />
    <glyph glyph-name="g" unicode="g" horiz-adv-x="555" 
d="M501 9q-9 -60 -27 -111t-49.5 -88t-79 -57.5t-115.5 -20.5q-49 0 -88 14.5t-64.5 42t-36.5 66.5t-4 89h90q-10 -63 23.5 -97.5t95.5 -34.5q42 0 70 13.5t46.5 36.5t28.5 54.5t16 67.5l15 89h-2q-34 -40 -79 -64.5t-95 -24.5q-54 0 -92.5 20.5t-61.5 55.5t-30 81t1 96
q7 48 29.5 92.5t56.5 78t77.5 54t94.5 20.5q53 0 90.5 -25t57.5 -69h2l13 80h90zM273 64q37 0 67.5 13.5t53.5 37t37.5 54t20.5 65.5q5 34 0 64.5t-21 53.5t-42 36.5t-62 13.5q-35 0 -64.5 -14t-52.5 -37.5t-38 -53.5t-20 -63t0 -63.5t20 -54.5t40 -38t61 -14z" />
    <glyph glyph-name="h" unicode="h" horiz-adv-x="523" 
d="M289 868l-73 -463h2q27 38 68.5 57.5t84.5 19.5q49 0 79 -15.5t44.5 -43t16 -64.5t-5.5 -80l-44 -279h-90l42 268q5 30 6 54.5t-7 42.5t-27 27.5t-53 9.5q-44 0 -70 -17.5t-41 -44.5t-22.5 -60t-12.5 -65l-34 -215h-90l137 868h90z" />
    <glyph glyph-name="i" unicode="i" horiz-adv-x="254" 
d="M245 745q26 0 41.5 -18.5t10.5 -44.5q-4 -26 -25 -43.5t-47 -17.5t-41 17.5t-11 43.5q5 26 25.5 44.5t46.5 18.5zM172 0h-90l74 468h90z" />
    <glyph glyph-name="j" unicode="j" horiz-adv-x="254" 
d="M245 745q26 0 41.5 -18.5t10.5 -44.5q-4 -26 -25 -43.5t-47 -17.5t-41 17.5t-11 43.5q5 26 25.5 44.5t46.5 18.5zM130 -268h-90l116 736h90z" />
    <glyph glyph-name="k" unicode="k" horiz-adv-x="462" 
d="M204 292l204 176h119l-231 -194l177 -274h-117l-133 213l-36 -31l-29 -182h-90l137 868h90z" />
    <glyph glyph-name="l" unicode="l" horiz-adv-x="222" 
d="M156 0h-90l137 868h90z" />
    <glyph glyph-name="m" unicode="m" horiz-adv-x="767" 
d="M214 409h2q24 31 60.5 52t74.5 21q46 0 75.5 -22t46.5 -61q28 38 70 60.5t87 22.5q46 0 73.5 -16.5t40.5 -44.5t14 -64.5t-5 -76.5l-44 -280h-90l42 265q3 22 4.5 46.5t-4 44.5t-20.5 33t-45 13q-36 0 -59.5 -17t-37.5 -42.5t-22 -55.5t-12 -57l-36 -230h-90l39 248
q4 23 6.5 50t-2 50t-19.5 38.5t-46 15.5q-36 0 -59.5 -16.5t-38 -42t-22.5 -56t-12 -57.5l-36 -230h-90l74 468h90z" />
    <glyph glyph-name="n" unicode="n" horiz-adv-x="523" 
d="M216 405h2q27 38 68.5 57.5t84.5 19.5q49 0 79 -15.5t44.5 -43t16 -64.5t-5.5 -80l-44 -279h-90l42 268q5 30 6 54.5t-7 42.5t-27 27.5t-53 9.5q-44 0 -70 -17.5t-41 -44.5t-22.5 -60t-12.5 -65l-34 -215h-90l74 468h90z" />
    <glyph glyph-name="o" unicode="o" horiz-adv-x="540" 
d="M333 396q-33 0 -64.5 -13t-56.5 -35t-42.5 -52t-22.5 -63t2.5 -62.5t25.5 -52t45.5 -35.5t60.5 -13t64.5 13t56.5 35.5t42.5 52t22.5 62.5t-2.5 63t-25.5 52t-45.5 35t-60.5 13zM346 482q52 0 95 -19t71.5 -52.5t40.5 -79t4 -98.5t-35 -98.5t-66 -79t-88 -52.5t-101 -19
q-53 0 -95 19t-70.5 52.5t-40.5 79t-4 98.5t34.5 98.5t65.5 79t87.5 52.5t101.5 19z" />
    <glyph glyph-name="p" unicode="p" horiz-adv-x="556" 
d="M207 390h2q35 42 79.5 67t97.5 25q51 0 88.5 -20.5t60.5 -54t31.5 -78t1.5 -92.5q-8 -50 -30.5 -96t-56.5 -81t-79 -55.5t-99 -20.5q-50 0 -87 24.5t-57 64.5h-2l-54 -341h-90l116 736h90zM298 64q37 0 67.5 13.5t53.5 37t37.5 54t20.5 65.5q5 34 0 64.5t-21 53.5
t-42 36.5t-62 13.5q-35 0 -64.5 -14t-52.5 -37.5t-38 -53.5t-20 -63t0 -63.5t20 -54.5t40 -38t61 -14z" />
    <glyph glyph-name="q" unicode="q" horiz-adv-x="556" 
d="M459 -268h-90l54 341h-2q-34 -40 -79 -64.5t-95 -24.5q-54 0 -92.5 20.5t-61.5 55.5t-30 81t1 96q7 48 29.5 92.5t56.5 78t77.5 54t94.5 20.5q53 0 90.5 -25t58.5 -67h2l12 78h90zM274 64q37 0 67.5 13.5t53.5 37t37.5 54t20.5 65.5q5 34 0 64.5t-21 53.5t-42 36.5
t-62 13.5q-35 0 -64.5 -14t-52.5 -37.5t-38 -53.5t-20 -63t0 -63.5t20 -54.5t40 -38t61 -14z" />
    <glyph glyph-name="r" unicode="r" horiz-adv-x="351" 
d="M220 392h3q23 42 60 66t82 24q20 0 38 -6t33 -17l-54 -82q-11 11 -23.5 15t-28.5 4q-36 0 -60.5 -15.5t-39.5 -39.5t-23.5 -53.5t-12.5 -57.5l-36 -230h-90l74 468h90z" />
    <glyph glyph-name="s" unicode="s" horiz-adv-x="384" 
d="M307 361q-5 17 -19 29t-34 12q-19 0 -36 -13t-21 -33q-2 -15 5.5 -26.5t21 -21.5t32 -18.5t37.5 -17.5t36.5 -20.5t30.5 -27.5t18.5 -36.5t1.5 -48.5q-5 -33 -22.5 -61.5t-43 -49.5t-56.5 -32.5t-64 -11.5q-26 0 -49.5 7t-43 20.5t-33 33t-19.5 44.5l83 35
q10 -26 26.5 -43t48.5 -17q29 0 53 18t29 48q3 19 -4 29.5t-21 21.5l-81 47q-18 10 -33 21t-24.5 24.5t-13.5 31t0 41.5q4 28 19 53t36.5 43.5t48 29t55.5 10.5q43 0 72.5 -22t42.5 -60z" />
    <glyph glyph-name="t" unicode="t" horiz-adv-x="240" 
d="M165 0h-90l61 384h-49l13 84h49l28 179h90l-28 -179h88l-13 -84h-88z" />
    <glyph glyph-name="u" unicode="u" horiz-adv-x="512" 
d="M222 468l-41 -259q-5 -28 -4.5 -53.5t9.5 -45t28.5 -31t52.5 -11.5t56 11.5t38 31t23 45t13 53.5l41 259h90l-42 -269q-8 -48 -26 -87.5t-46.5 -68t-68.5 -44t-92 -15.5t-87 15.5t-54.5 44t-24.5 68t3 87.5l42 269h90z" />
    <glyph glyph-name="v" unicode="v" horiz-adv-x="445" 
d="M250 176l181 292h101l-313 -484l-158 484h101z" />
    <glyph glyph-name="w" unicode="w" horiz-adv-x="718" 
d="M249 170l189 324l86 -324l183 298h102l-315 -484l-87 313l-188 -313l-161 484h102z" />
    <glyph glyph-name="x" unicode="x" horiz-adv-x="489" 
d="M101 468h106l87 -151l145 151h109l-206 -214l161 -254h-105l-124 190l-179 -190h-109l249 254z" />
    <glyph glyph-name="y" unicode="y" horiz-adv-x="484" 
d="M61 468h105l111 -297l194 297h101l-495 -736h-102l239 348z" />
    <glyph glyph-name="z" unicode="z" horiz-adv-x="495" 
d="M494 84l-13 -84h-479l378 384h-263l13 84h438l-378 -384h304z" />
    <glyph glyph-name="braceleft" unicode="{" horiz-adv-x="334" 
d="M102 344q41 17 66 55.5t33 95.5l29 182q5 30 18 54.5t28.5 41.5t32 26.5t27.5 9.5h78l-13 -84h-40q-23 0 -30 -18.5t-11 -43.5l-29 -184q-7 -43 -22 -74t-31 -51.5t-30.5 -32t-19.5 -14.5q4 -3 15 -14t20.5 -31.5t15 -51.5t-1.5 -74l-30 -184q-4 -25 -2.5 -43.5
t24.5 -18.5h40l-14 -84h-78q-11 0 -24 9.5t-23.5 26.5t-16 41.5t-0.5 54.5l29 182q9 57 -3.5 95.5t-47.5 55.5z" />
    <glyph glyph-name="bar" unicode="|" horiz-adv-x="570" 
d="M328 0h-86l137 868h86z" />
    <glyph glyph-name="braceright" unicode="}" horiz-adv-x="334" 
d="M329 271q-41 -17 -65.5 -55.5t-33.5 -95.5l-29 -182q-5 -30 -17.5 -54.5t-28.5 -41.5t-32.5 -26.5t-27.5 -9.5h-78l14 84h40q23 0 29.5 18.5t10.5 43.5l30 184q7 43 21.5 74t31 51.5t30.5 31.5t20 14q-5 3 -15.5 14.5t-20.5 32t-15 51.5t2 74l29 184q4 25 3 43.5
t-24 18.5h-40l13 84h78q11 0 24.5 -9.5t24 -26.5t15.5 -41.5t0 -54.5l-29 -182q-8 -57 4 -95.5t47 -55.5z" />
    <glyph glyph-name="asciitilde" unicode="~" 
d="M590 284q-15 -21 -33 -42.5t-40 -39t-46.5 -29t-51.5 -11.5q-28 0 -55 16t-52 35t-45.5 35t-36.5 16q-26 0 -50.5 -21.5t-54.5 -60.5l-56 45q16 19 35 41t40.5 40t45.5 30t51 12q37 0 64.5 -16t49.5 -35t40 -35t36 -16q29 0 50 24t50 62z" />
    <glyph glyph-name="nonbreakingspace" unicode="&#xa0;" horiz-adv-x="500" 
 />
    <glyph glyph-name="sterling" unicode="&#xa3;" 
d="M15 24q34 47 73.5 79t98.5 34q20 43 27.5 83.5t-9.5 80.5h-129l9 58h100q-15 40 -26 87.5t-4 92.5q8 49 35.5 91t67.5 73t87 49t94 18q53 0 93.5 -17t66.5 -48t37.5 -74t5.5 -95l-95 -34l4 28q5 31 -1.5 58.5t-22.5 48.5t-41 33t-57 12q-31 0 -62 -13.5t-57 -35
t-44 -48.5t-22 -54q-4 -26 -0.5 -49t11 -44t17 -40.5t16.5 -38.5h148l-9 -58h-124q7 -47 0 -86t-28 -86l70 -26q20 -8 43.5 -18.5t46.5 -10.5q15 0 28.5 7t25 18t21.5 24t19 25l68 -46q-29 -50 -73.5 -84t-101.5 -34q-32 0 -63.5 10t-61.5 23t-57.5 22.5t-53.5 9.5
q-35 0 -58.5 -17.5t-40.5 -47.5z" />
    <glyph glyph-name="currency" unicode="&#xa4;" 
d="M310 130q36 0 70 13.5t61.5 36.5t46 54t24.5 66q6 37 -2.5 68.5t-28.5 54t-50.5 35t-67.5 12.5q-38 0 -72 -12.5t-61 -35t-45 -54t-23 -68.5q-5 -35 4 -66t29 -54t49.5 -36.5t65.5 -13.5zM620 486l-48 -44q15 -31 21 -65t-1 -77q-8 -43 -24 -77t-41 -65l34 -44l-69 -60
l-39 44q-32 -22 -70 -35t-86 -13t-81.5 13t-58.5 35l-53 -44l-51 60l48 44q-14 31 -20.5 65t1.5 77q7 43 23.5 77t40.5 65l-34 44l69 60l40 -44q32 22 69.5 35t85.5 13t81.5 -13t59.5 -35l52 44z" />
    <glyph glyph-name="brokenbar" unicode="&#xa6;" horiz-adv-x="570" 
d="M391 521h-86v347h86v-347zM391 0h-86v347h86v-347z" />
    <glyph glyph-name="section" unicode="&#xa7;" 
d="M210 261q-25 13 -46 26.5t-36 31t-21 41.5t-1 58q9 55 41.5 92.5t80.5 69.5q-17 24 -24.5 51.5t-2.5 59.5q6 38 27.5 70.5t51.5 56t66.5 37t73.5 13.5q38 0 71.5 -11t57 -32.5t36 -53t8.5 -71.5h-87q2 22 -5.5 38.5t-21.5 27.5t-32.5 17t-38.5 6q-21 0 -40.5 -8
t-35.5 -21.5t-27 -31.5t-14 -39q-3 -20 2 -35t15 -27t23.5 -21.5t28.5 -17.5l123 -67q21 -12 43 -25.5t39.5 -31t26.5 -40t5 -52.5q-8 -50 -39.5 -95t-76.5 -74q45 -49 34 -122q-7 -45 -30.5 -80.5t-57 -60.5t-74 -38.5t-82.5 -13.5q-48 0 -87 14.5t-65 42.5t-37 68t-3 90
l3 15h89q-6 -30 -1 -57t19.5 -47.5t38 -32t55.5 -11.5q24 0 47.5 8t43.5 23t33.5 36t17.5 46q3 22 -3.5 38.5t-19.5 29.5t-29.5 22.5t-32.5 18.5zM428 248q29 17 50.5 45.5t26.5 59.5q3 18 -1.5 31.5t-13.5 23.5t-21.5 18t-25.5 15l-169 93q-30 -17 -51 -45.5t-26 -60.5
q-3 -19 2.5 -33t16 -25t24 -19.5t27.5 -15.5z" />
    <glyph glyph-name="copyright" unicode="&#xa9;" horiz-adv-x="800" 
d="M612 458q-3 42 -32.5 63.5t-79.5 21.5q-41 0 -72 -14t-53 -37t-35.5 -51.5t-17.5 -58.5q-6 -35 -0.5 -65t22 -52t43 -34.5t64.5 -12.5q100 0 137 89h61q-10 -36 -31 -64t-49.5 -48t-61.5 -30.5t-67 -10.5q-50 0 -87.5 17.5t-61.5 48.5t-33 72t-1 88q8 49 29.5 90.5
t54.5 72t76 47.5t94 17q70 0 114.5 -39.5t47.5 -109.5h-61zM512 706q-68 0 -132 -25.5t-116 -69.5t-87.5 -104t-46.5 -130q-11 -69 5.5 -129.5t54.5 -104.5t94 -69.5t124 -25.5q67 0 131 25.5t116 69.5t88 104.5t47 129.5q11 70 -6 130t-55 104t-94 69.5t-123 25.5zM397 -16
q-83 0 -149.5 30.5t-111.5 84t-64 125t-6 153.5t55 153.5t103.5 125t138 84t159.5 30.5q82 0 149 -30.5t112 -84t64.5 -125t6.5 -153.5t-55 -153.5t-104 -125t-139 -84t-159 -30.5z" />
    <glyph glyph-name="guillemotleft" unicode="&#xab;" horiz-adv-x="523" 
d="M288 129l-62 -41l-145 232l220 240l49 -41l-180 -199zM480 129l-62 -41l-145 232l220 240l49 -41l-180 -199z" />
    <glyph glyph-name="logicalnot" unicode="&#xac;" 
d="M506 299h-426l14 86h512l-43 -270h-86z" />
    <glyph glyph-name="registered" unicode="&#xae;" horiz-adv-x="800" 
d="M396 531l-17 -110h68q22 0 47 -0.5t46.5 3t37 14t19.5 33.5q3 21 -3.5 33t-19 18t-30.5 7.5t-38 1.5h-110zM604 153h-73l-80 204h-82l-33 -204h-64l70 442h186q30 0 56.5 -5t45.5 -18.5t28 -36t4 -57.5q-5 -33 -19 -55.5t-32.5 -37t-41 -21t-44.5 -7.5zM512 706
q-68 0 -132 -25.5t-116 -69.5t-87.5 -104t-46.5 -130q-11 -69 5.5 -129.5t54.5 -104.5t94 -69.5t124 -25.5q67 0 131 25.5t116 69.5t88 104.5t47 129.5q11 70 -6 130t-55 104t-94 69.5t-123 25.5zM397 -16q-83 0 -149.5 30.5t-111.5 84t-64 125t-6 153.5t55 153.5t103.5 125
t138 84t159.5 30.5q82 0 149 -30.5t112 -84t64.5 -125t6.5 -153.5t-55 -153.5t-104 -125t-139 -84t-159 -30.5z" />
    <glyph glyph-name="degree" unicode="&#xb0;" horiz-adv-x="400" 
d="M313 720q-21 0 -40.5 -8t-35 -21.5t-26 -31.5t-13.5 -39q-6 -43 17.5 -71.5t66.5 -28.5q21 0 40.5 7.5t35 21t26.5 32t14 39.5t-1.5 39t-16 31.5t-29 21.5t-38.5 8zM448 620q-5 -31 -21 -58.5t-40 -47.5t-53 -32t-60 -12t-56.5 12t-42.5 32t-24.5 47.5t-2.5 58.5t21 58
t39.5 47.5t53 32.5t60.5 12t56 -12t42.5 -32.5t25 -47.5t2.5 -58z" />
    <glyph glyph-name="plusminus" unicode="&#xb1;" 
d="M421 562l-27 -173h213l-14 -86h-213l-27 -173h-86l27 173h-213l14 86h213l27 173h86zM47 86h512l-14 -86h-512z" />
    <glyph glyph-name="mu" unicode="&#xb5;" horiz-adv-x="512" 
d="M222 468l-41 -259q-5 -28 -4.5 -53.5t9.5 -45t28.5 -31t52.5 -11.5t56 11.5t38 31t23 45t13 53.5l41 259h90l-42 -269q-8 -48 -26 -87.5t-46.5 -68t-68.5 -44t-92 -15.5q-30 0 -57 13.5t-44 30.5l-46 -296h-90l116 736h90z" />
    <glyph glyph-name="mu" unicode="&#x3bc;" horiz-adv-x="512" 
d="M222 468l-41 -259q-5 -28 -4.5 -53.5t9.5 -45t28.5 -31t52.5 -11.5t56 11.5t38 31t23 45t13 53.5l41 259h90l-42 -269q-8 -48 -26 -87.5t-46.5 -68t-68.5 -44t-92 -15.5q-30 0 -57 13.5t-44 30.5l-46 -296h-90l116 736h90z" />
    <glyph glyph-name="paragraph" unicode="&#xb6;" 
d="M307 -153h-84h84zM644 670h-61l-130 -823h-84l130 823h-62l-130 -823h-84l69 436q-42 0 -76 14.5t-57 42t-33.5 67t-5.5 90.5q4 45 25.5 91t56 83t79 60t94.5 23h282z" />
    <glyph glyph-name="periodcentered" unicode="&#xb7;" horiz-adv-x="289" 
d="M195 314q24 0 38 -17.5t11 -40.5q-5 -24 -24.5 -41t-43.5 -17t-38.5 17t-9.5 41q3 23 23 40.5t44 17.5z" />
    <glyph glyph-name="periodcentered" unicode="&#x2219;" horiz-adv-x="289" 
d="M195 314q24 0 38 -17.5t11 -40.5q-5 -24 -24.5 -41t-43.5 -17t-38.5 17t-9.5 41q3 23 23 40.5t44 17.5z" />
    <glyph glyph-name="guillemotright" unicode="&#xbb;" horiz-adv-x="523" 
d="M455 320l-118 199l63 41l144 -240l-219 -232l-50 41zM263 320l-118 199l63 41l144 -240l-219 -232l-50 41z" />
    <glyph glyph-name="divide" unicode="&#xf7;" 
d="M370 512q26 0 41.5 -18.5t10.5 -44.5q-4 -26 -25 -43.5t-47 -17.5t-41 17.5t-11 43.5q5 26 25.5 44.5t46.5 18.5zM309 124q26 0 41 -18.5t11 -44.5q-5 -26 -25.5 -43.5t-46.5 -17.5t-41.5 17.5t-10.5 43.5q4 26 25 44.5t47 18.5zM80 299h512l-13 -86h-512z" />
    <glyph glyph-name="florin" unicode="&#x192;" 
d="M564 505l-20 -68h-131l-103 -303q-21 -61 -42.5 -112.5t-54 -89.5t-80 -59.5t-119.5 -21.5h-24l29 86h19q43 0 71.5 16t48 42.5t32.5 61t25 72.5l102 308h-65l20 68h70l41 124q14 44 32.5 82t45.5 65.5t63.5 43.5t87.5 16q34 0 59 -7l-29 -84q-17 7 -40 7
q-30 0 -50.5 -11.5t-34.5 -30.5t-23.5 -43t-18.5 -49l-40 -113h129z" />
    <glyph glyph-name="Delta" unicode="&#x394;" horiz-adv-x="612" 
d="M492 49l-120 468l-292 -468h412zM6 0l429 688l173 -688h-602z" />
    <glyph glyph-name="Delta" unicode="&#x2206;" horiz-adv-x="612" 
d="M492 49l-120 468l-292 -468h412zM6 0l429 688l173 -688h-602z" />
    <glyph glyph-name="afii10023" unicode="&#x401;" horiz-adv-x="521" 
d="M534 980q25 0 40 -17.5t11 -42.5q-5 -26 -25 -43.5t-45 -17.5q-26 0 -41 17.5t-10 43.5q4 25 24 42.5t46 17.5zM323 980q25 0 40 -17.5t11 -42.5q-5 -26 -25 -43.5t-45 -17.5q-26 0 -41 17.5t-10 43.5q4 25 24 42.5t46 17.5zM191 754h405l-13 -86h-311l-34 -211h302
l-13 -86h-302l-45 -285h311l-14 -86h-405z" />
    <glyph glyph-name="afii10051" unicode="&#x402;" horiz-adv-x="657" 
d="M275 0h-94l106 668h-179l13 86h452l-13 -86h-179l-33 -208q26 11 54.5 16.5t55.5 5.5q54 0 97.5 -19t73 -52.5t42 -80t3.5 -100.5q-8 -53 -33 -98t-60 -78t-78.5 -51.5t-88.5 -18.5q-35 0 -59.5 4.5t-32.5 8.5l16 104q5 -10 26 -21.5t63 -11.5q29 0 55.5 12.5t47.5 34.5
t35 52.5t20 66.5q5 32 -2 62t-24.5 52.5t-44 36t-59.5 13.5q-35 0 -64 -7t-58 -24z" />
    <glyph glyph-name="afii10052" unicode="&#x403;" horiz-adv-x="450" 
d="M271 668l-106 -668h-94l119 754h357l-13 -86h-263zM554 976l-188 -149l-40 27l152 166z" />
    <glyph glyph-name="afii10053" unicode="&#x404;" horiz-adv-x="661" 
d="M635 37q-48 -26 -102.5 -39.5t-104.5 -13.5q-81 0 -147.5 30t-111.5 82.5t-65 123.5t-7 153q13 84 56 156.5t106 126t141 84t161 30.5q50 0 96.5 -12.5t85.5 -38.5l-17 -109q-35 36 -84.5 55t-103.5 19t-104 -18t-93 -49.5t-76.5 -74t-52.5 -92.5h397l-14 -88h-406
q-7 -60 8.5 -113t48.5 -92.5t82.5 -63t110.5 -23.5q56 0 110.5 20t102.5 58z" />
    <glyph glyph-name="afii10054" unicode="&#x405;" horiz-adv-x="537" 
d="M504 611q-16 35 -41.5 53t-68.5 18q-23 0 -46.5 -7.5t-43.5 -21.5t-34.5 -33.5t-18.5 -44.5q-3 -22 4 -39t20 -30t30 -22.5t34 -16.5l51 -21q37 -16 68.5 -35.5t52 -46.5t29 -62.5t1.5 -82.5q-8 -51 -34 -94.5t-63.5 -74.5t-84 -48.5t-97.5 -17.5q-46 0 -83 16t-63.5 44
t-40 67t-12.5 84l98 20q-5 -31 2 -57.5t24 -45.5t42 -29.5t55 -10.5t57.5 12t49.5 32t36.5 46.5t19.5 56.5t-3 52.5t-23.5 39t-37 29t-44.5 22.5l-48 22q-30 13 -57.5 30t-46.5 39.5t-27.5 52.5t-2.5 69q7 46 31.5 82t59.5 61t77 38.5t85 13.5q63 0 108 -29.5t68 -84.5z" />
    <glyph glyph-name="afii10056" unicode="&#x407;" horiz-adv-x="232" 
d="M377 980q25 0 40 -17.5t11 -42.5q-5 -26 -25 -43.5t-45 -17.5q-26 0 -41 17.5t-10 43.5q4 25 24 42.5t46 17.5zM166 980q25 0 40 -17.5t11 -42.5q-5 -26 -25 -43.5t-45 -17.5q-26 0 -41 17.5t-10 43.5q4 25 24 42.5t46 17.5zM163 0h-94l119 754h94z" />
    <glyph glyph-name="afii10057" unicode="&#x408;" horiz-adv-x="362" 
d="M422 754l-75 -479q-9 -54 -24.5 -106.5t-44 -93.5t-72.5 -66t-110 -25q-33 0 -60 8t-52 25l59 80q30 -25 71 -25q40 0 65 21t40 51.5t22 66t12 64.5l75 479h94z" />
    <glyph glyph-name="afii10058" unicode="&#x409;" horiz-adv-x="962" 
d="M885 217q6 40 -6.5 66t-37.5 42t-58.5 22.5t-67.5 6.5h-48l-43 -270h62q33 0 65.5 5.5t60 20.5t47.5 41t26 66zM978 211q-9 -57 -37.5 -97t-69 -65.5t-89.5 -37t-99 -11.5h-166l105 666h-268l-63 -399q-9 -59 -27 -108t-45 -84t-64.5 -55t-85.5 -20h-41l13 80h19
q36 0 60 18t40 48t25.5 68.5t15.5 78.5l73 461h456l-50 -316h66q58 0 105 -14t78 -42.5t44.5 -71t4.5 -99.5z" />
    <glyph glyph-name="afii10059" unicode="&#x40a;" horiz-adv-x="962" 
d="M213 350l-55 -350h-94l119 754h94l-50 -316h329l50 316h94l-50 -316h66q58 0 105 -14t78 -42.5t44.5 -71t4.5 -99.5t-37.5 -97t-69 -65.5t-89.5 -37t-99 -11.5h-166l55 350h-329zM594 84h62q33 0 65.5 5.5t60 20.5t47.5 41t26 66t-6.5 66t-37.5 42t-58.5 22.5t-67.5 6.5
h-48z" />
    <glyph glyph-name="afii10060" unicode="&#x40b;" horiz-adv-x="681" 
d="M345 440q32 3 70.5 5.5t68.5 2.5q45 0 84 -11.5t66 -34.5t39.5 -56.5t5.5 -77.5l-42 -268h-94l42 266q4 28 -4.5 47t-27.5 30.5t-46.5 16t-59.5 4.5q-22 0 -54.5 -2t-60.5 -5l-57 -357h-94l106 668h-179l13 86h452l-13 -86h-179z" />
    <glyph glyph-name="afii10061" unicode="&#x40c;" horiz-adv-x="600" 
d="M614 976l-188 -149l-40 27l152 166zM605 754h123l-392 -339l279 -415h-127l-228 351l-44 -36l-50 -315h-94l119 754h94l-51 -327z" />
    <glyph glyph-name="afii10062" unicode="&#x40e;" horiz-adv-x="575" 
d="M625 962q-11 -27 -31 -51.5t-47 -43t-59 -29.5t-65 -11t-61 10t-48.5 28t-33 42t-14.5 52l73 17q10 -37 31.5 -58t63.5 -21q43 0 71 21t51 58zM197 0h-96l177 266l-176 488h103l137 -392l262 392h103z" />
    <glyph glyph-name="afii10145" unicode="&#x40f;" horiz-adv-x="705" 
d="M64 0l119 754h94l-105 -666h359l105 666h94l-119 -754h-219l-28 -178h-94l28 178h-234z" />
    <glyph glyph-name="afii10017" unicode="&#x410;" horiz-adv-x="703" 
d="M444 580l-182 -305h268zM209 189l-116 -189h-101l484 786l236 -786h-101l-56 189h-346z" />
    <glyph glyph-name="afii10018" unicode="&#x411;" horiz-adv-x="525" 
d="M226 430h76q58 0 105 -13t78.5 -39.5t45 -68t4.5 -98.5t-37.5 -97t-69 -65.5t-89.5 -37t-99 -11.5h-176l119 754h363l-13 -86h-269zM171 84h72q33 0 65.5 5.5t60 20.5t47.5 41t26 66t-8 65t-39.5 39t-59 19t-64.5 5h-58z" />
    <glyph glyph-name="afii10019" unicode="&#x412;" horiz-adv-x="535" 
d="M183 754h92q53 0 101.5 -8.5t83.5 -31.5t52 -63t7 -104q-3 -21 -12 -42.5t-22.5 -41t-31 -35t-38.5 -24.5v-2q32 -6 57 -24t40.5 -44.5t21.5 -58t1 -64.5q-9 -57 -37.5 -97t-69 -65.5t-89.5 -37t-99 -11.5h-176zM171 84h72q33 0 65.5 5.5t60 20.5t47.5 41t26 66t-8 65
t-39.5 39t-59 19t-64.5 5h-58zM225 420h24q33 0 63 4.5t54 18t41 38t23 65.5q6 40 -2.5 64t-28 37.5t-48 18t-61.5 4.5h-26z" />
    <glyph glyph-name="afii10020" unicode="&#x413;" horiz-adv-x="464" 
d="M271 668l-106 -668h-94l119 754h387l-13 -86h-293z" />
    <glyph glyph-name="afii10021" unicode="&#x414;" horiz-adv-x="675" 
d="M587 666h-220l-42 -270q-18 -115 -55 -193.5t-86 -114.5h312zM64 -178h-94l42 266h22q32 0 63 24t57 63t45 89t27 102l61 388h408l-105 -666h96l-42 -266h-94l28 178h-486z" />
    <glyph glyph-name="afii10022" unicode="&#x415;" horiz-adv-x="521" 
d="M191 754h405l-13 -86h-311l-34 -211h302l-13 -86h-302l-45 -285h311l-14 -86h-405z" />
    <glyph glyph-name="afii10024" unicode="&#x416;" horiz-adv-x="903" 
d="M780 0l-216 342l-17 -15l-52 -327h-94l52 327l-13 15l-324 -342h-125l395 404l-272 350h123l231 -315h3l49 315h94l-49 -315h3l329 315h123l-382 -350l267 -404h-125z" />
    <glyph glyph-name="afii10025" unicode="&#x417;" horiz-adv-x="548" 
d="M257 365l13 82h61q30 0 57.5 5t50 18t38 35.5t20.5 56.5q9 57 -23 89t-89 32q-51 0 -87 -27.5t-59 -68.5l-69 40q16 28 37.5 54t50 45.5t64.5 31.5t80 12q45 0 83.5 -13.5t65 -39t38.5 -63t5 -84.5q-8 -56 -41 -97.5t-87 -68.5q53 -25 73 -77.5t10 -113.5
q-9 -53 -35.5 -95.5t-64.5 -72t-85.5 -45.5t-98.5 -16q-44 0 -84 14.5t-69.5 40.5t-45.5 63.5t-13 82.5l93 19q-1 -28 10 -52t30 -42t44 -28.5t52 -10.5q31 0 60 11.5t52 31t38.5 46t20.5 57.5q12 72 -26.5 110t-108.5 38h-61z" />
    <glyph glyph-name="afii10026" unicode="&#x418;" horiz-adv-x="675" 
d="M518 0l85 537l-546 -568l124 785h94l-83 -525l545 561l-125 -790h-94z" />
    <glyph glyph-name="afii10027" unicode="&#x419;" horiz-adv-x="675" 
d="M518 0l85 537l-546 -568l124 785h94l-83 -525l545 561l-125 -790h-94zM681 957q-11 -27 -31 -51.5t-47 -42.5t-59 -29t-65 -11t-61 10t-48.5 28t-33 42t-14.5 52l73 17q10 -38 31.5 -58.5t63.5 -20.5q44 0 71.5 20.5t50.5 58.5z" />
    <glyph glyph-name="afii10028" unicode="&#x41a;" horiz-adv-x="600" 
d="M605 754h123l-392 -339l279 -415h-127l-228 351l-44 -36l-50 -315h-94l119 754h94l-51 -327z" />
    <glyph glyph-name="afii10029" unicode="&#x41b;" horiz-adv-x="675" 
d="M291 267q-9 -59 -27 -108t-45 -84t-64.5 -55t-85.5 -20h-41l13 80h19q36 0 60 18t40 48t25.5 68.5t15.5 78.5l73 461h456l-119 -754h-94l105 666h-268z" />
    <glyph glyph-name="afii10030" unicode="&#x41c;" horiz-adv-x="851" 
d="M279 498h-2l-167 -498h-97l278 786l165 -594l353 594l30 -786h-97l-9 498h-2l-308 -514z" />
    <glyph glyph-name="afii10031" unicode="&#x41d;" horiz-adv-x="675" 
d="M588 450l48 304h94l-119 -754h-94l57 362h-359l-57 -362h-94l119 754h94l-48 -304h359z" />
    <glyph glyph-name="afii10032" unicode="&#x41e;" horiz-adv-x="828" 
d="M425 72q61 0 119.5 23.5t106 64.5t80.5 96.5t44 120.5q10 62 -3.5 117.5t-47 97t-85 66t-117.5 24.5t-125.5 -24.5t-106 -66t-77 -97t-40.5 -117.5q-11 -65 4.5 -120.5t50 -96.5t85.5 -64.5t112 -23.5zM536 770q81 0 148 -31t112.5 -84.5t65.5 -125t7 -152.5
q-14 -84 -56.5 -156t-104.5 -124.5t-138.5 -82.5t-158.5 -30t-149 30t-112 82.5t-65 124.5t-6 156q13 81 55.5 152.5t104.5 125t139 84.5t158 31z" />
    <glyph glyph-name="afii10033" unicode="&#x41f;" horiz-adv-x="675" 
d="M611 0h-94l105 666h-359l-105 -666h-94l119 754h547z" />
    <glyph glyph-name="afii10034" unicode="&#x420;" horiz-adv-x="495" 
d="M229 400h30q36 0 72.5 4.5t67.5 19.5t53 42t29 72q7 44 -7.5 70.5t-42.5 40t-63.5 17.5t-70.5 4h-25zM166 0h-94l119 754h108q87 0 143 -14.5t87 -42.5t39.5 -68.5t0.5 -92.5q-9 -60 -37 -101.5t-68.5 -68t-90 -38.5t-103.5 -12h-54z" />
    <glyph glyph-name="afii10035" unicode="&#x421;" horiz-adv-x="661" 
d="M718 610q-35 36 -84.5 55t-103.5 19q-63 0 -121.5 -24.5t-105 -66.5t-78 -98t-41.5 -119q-10 -62 3.5 -117.5t46.5 -97.5t83.5 -66.5t113.5 -24.5q56 0 110.5 20t102.5 58l-17 -111q-48 -26 -102.5 -39.5t-104.5 -13.5q-81 0 -147.5 30t-111.5 82.5t-65 123.5t-7 153
q13 84 56 156.5t106 126t141 84t161 30.5q50 0 96.5 -12.5t85.5 -38.5z" />
    <glyph glyph-name="afii10036" unicode="&#x422;" horiz-adv-x="456" 
d="M275 0h-94l106 668h-179l13 86h452l-13 -86h-179z" />
    <glyph glyph-name="afii10037" unicode="&#x423;" horiz-adv-x="600" 
d="M212 0h-96l177 266l-176 488h103l137 -392l262 392h103z" />
    <glyph glyph-name="afii10038" unicode="&#x424;" horiz-adv-x="863" 
d="M488 610q-54 0 -105 -11t-92.5 -36t-70.5 -65.5t-38 -99.5q-9 -55 4.5 -96t45 -68t79.5 -40.5t109 -13.5zM820 398q9 59 -6.5 99.5t-49 65.5t-81 36t-101.5 11l-68 -430q61 0 113 13.5t92 40.5t66 68t35 96zM908 396q-11 -66 -44 -121t-84.5 -94.5t-118.5 -61t-146 -21.5
h-14l-16 -98h-94l16 98h-14q-79 0 -139.5 21.5t-99.5 61t-55 94.5t-5 121q10 64 39.5 118t79.5 93.5t120.5 61.5t162.5 22h4l10 63h94l-10 -63h4q92 0 155.5 -22t101.5 -61.5t50.5 -93.5t2.5 -118z" />
    <glyph glyph-name="afii10039" unicode="&#x425;" horiz-adv-x="574" 
d="M148 754h107l111 -275l207 275h107l-273 -359l166 -395h-105l-129 309l-234 -309h-105l300 395z" />
    <glyph glyph-name="afii10040" unicode="&#x426;" horiz-adv-x="705" 
d="M64 0l119 754h94l-105 -666h359l105 666h94l-105 -666h96l-42 -266h-94l28 178h-549z" />
    <glyph glyph-name="afii10041" unicode="&#x427;" horiz-adv-x="598" 
d="M224 488q-5 -29 4.5 -47.5t28.5 -30t46.5 -16t59.5 -4.5q14 0 32 0.5t37.5 2t38 3.5t33.5 4l56 354h94l-119 -754h-94l50 316q-17 -2 -38 -3.5t-43.5 -3t-44.5 -2.5t-40 -1q-45 0 -84 11.5t-66 34.5t-39.5 56.5t-5.5 77.5l42 268h94z" />
    <glyph glyph-name="afii10042" unicode="&#x428;" horiz-adv-x="997" 
d="M858 88l105 666h94l-119 -754h-874l119 754h94l-105 -666h296l105 666h94l-105 -666h296z" />
    <glyph glyph-name="afii10043" unicode="&#x429;" horiz-adv-x="1024" 
d="M858 88l105 666h94l-105 -666h96l-42 -266h-94l28 178h-876l119 754h94l-105 -666h296l105 666h94l-105 -666h296z" />
    <glyph glyph-name="afii10044" unicode="&#x42a;" horiz-adv-x="605" 
d="M108 668l13 86h256l-50 -316h66q58 0 105 -14t78 -42.5t44.5 -71t4.5 -99.5t-37.5 -97t-69 -65.5t-89.5 -37t-99 -11.5h-166l106 668h-162zM271 84h62q33 0 65.5 5.5t60 20.5t47.5 41t26 66t-6.5 66t-37.5 42t-58.5 22.5t-67.5 6.5h-48z" />
    <glyph glyph-name="afii10045" unicode="&#x42b;" horiz-adv-x="715" 
d="M770 754l-119 -754h-94l119 754h94zM227 438h66q58 0 105 -14t78 -42.5t44.5 -71t4.5 -99.5t-37.5 -97t-69 -65.5t-89.5 -37t-99 -11.5h-166l119 754h94zM171 84h62q33 0 65.5 5.5t60 20.5t47.5 41t26 66t-6.5 66t-37.5 42t-58.5 22.5t-67.5 6.5h-48z" />
    <glyph glyph-name="afii10046" unicode="&#x42c;" horiz-adv-x="505" 
d="M227 438h66q58 0 105 -14t78 -42.5t44.5 -71t4.5 -99.5t-37.5 -97t-69 -65.5t-89.5 -37t-99 -11.5h-166l119 754h94zM171 84h62q33 0 65.5 5.5t60 20.5t47.5 41t26 66t-6.5 66t-37.5 42t-58.5 22.5t-67.5 6.5h-48z" />
    <glyph glyph-name="afii10047" unicode="&#x42d;" horiz-adv-x="661" 
d="M687 373q-13 -82 -55.5 -153t-104.5 -123.5t-138 -82.5t-157 -30q-50 0 -100 13.5t-89 39.5l17 111q37 -38 85 -58t104 -20q61 0 117.5 23.5t102.5 63t78 92.5t44 113h-406l14 88h397q-4 50 -23.5 92.5t-52.5 74t-77.5 49.5t-98.5 18t-109 -19t-101 -55l17 109
q47 26 97.5 38.5t100.5 12.5q83 0 151.5 -30.5t114 -84t65.5 -126t7 -156.5z" />
    <glyph glyph-name="afii10048" unicode="&#x42e;" horiz-adv-x="1028" 
d="M975 377q10 62 -3.5 117.5t-47 97t-85 66t-117.5 24.5t-125.5 -24.5t-106 -66t-77 -97t-40.5 -117.5q-11 -65 4.5 -120.5t50 -96.5t85.5 -64.5t112 -23.5t119.5 23.5t106 64.5t80.5 96.5t44 120.5zM1069 377q-14 -84 -56.5 -156t-104.5 -124.5t-138.5 -82.5t-158.5 -30
q-80 0 -146 28.5t-111 79.5t-66.5 120t-11.5 150h-61l-57 -362h-94l119 754h94l-48 -304h68q24 68 68.5 126.5t103 101.5t127 67.5t140.5 24.5q81 0 148 -31t112.5 -84.5t65.5 -125t7 -152.5z" />
    <glyph glyph-name="afii10049" unicode="&#x42f;" horiz-adv-x="543" 
d="M497 670h-25q-35 0 -72 -4.5t-69 -19t-55 -41t-30 -70.5q-7 -45 6.5 -72t39.5 -42t61 -19.5t71 -4.5h30zM391 0l51 319h-39l-273 -319h-114l290 328q-40 5 -70.5 23.5t-50 46.5t-26.5 64t-1 77q9 54 42.5 103t85.5 77q49 25 101.5 30t102.5 5h114l-119 -754h-94z" />
    <glyph glyph-name="afii10065" unicode="&#x430;" horiz-adv-x="556" 
d="M501 0h-90l12 73h-2q-34 -40 -78.5 -64.5t-95.5 -24.5q-54 0 -92 20.5t-61 55.5t-30.5 81t0.5 96q7 48 29.5 92.5t56.5 78t78 54t95 20.5q52 0 89.5 -25t58.5 -67h2l12 78h90zM274 64q37 0 67.5 13.5t53.5 37t37.5 54t20.5 65.5q5 34 0 64.5t-21 53.5t-42 36.5t-62 13.5
q-35 0 -64.5 -14t-52.5 -37.5t-38 -53.5t-20 -63t0 -63.5t20 -54.5t40 -38t61 -14z" />
    <glyph glyph-name="afii10066" unicode="&#x431;" horiz-adv-x="540" 
d="M366 482q42 0 80.5 -18t66 -50.5t40.5 -78.5t4 -102q-8 -53 -35 -98.5t-66 -79t-88 -52.5t-101 -19q-55 0 -98 19t-70 57t-36.5 93.5t2.5 129.5q19 122 56 210t86.5 149.5t109 100t124.5 59.5q27 9 46.5 16t32.5 14.5t20.5 16t11.5 19.5h99q-3 -23 -21 -45.5t-45 -41
t-60 -33t-66 -21.5q-48 -10 -93.5 -40.5t-84.5 -75.5t-68.5 -101t-44.5 -116h3q34 45 86 66.5t109 21.5zM333 396q-33 0 -64.5 -13t-56.5 -35t-42.5 -52t-22.5 -63t2.5 -62.5t25.5 -52t45.5 -35.5t60.5 -13t64.5 13t56.5 35.5t42.5 52t22.5 62.5t-2.5 63t-25.5 52t-45.5 35
t-60.5 13z" />
    <glyph glyph-name="afii10067" unicode="&#x432;" horiz-adv-x="510" 
d="M301 80q11 0 28 2.5t33.5 9.5t30 20t16.5 34q2 12 -0.5 22.5t-11.5 19t-27 13.5t-46 5h-139l-20 -126h136zM308 281q40 0 66 12t31 44q3 18 -6 28t-22.5 15t-28.5 6t-24 1h-111l-16 -106h111zM380 468q43 0 67.5 -11.5t36.5 -29.5t14 -39t-1 -39q-9 -64 -77 -93l-1 -2
q40 -5 63 -37.5t16 -78.5q-3 -19 -12.5 -43t-29.5 -45t-53 -35.5t-83 -14.5h-258l74 468h244z" />
    <glyph glyph-name="afii10068" unicode="&#x433;" horiz-adv-x="381" 
d="M213 384l-61 -384h-90l74 468h310l-13 -84h-220z" />
    <glyph glyph-name="afii10069" unicode="&#x434;" horiz-adv-x="515" 
d="M226 217q-6 -39 -22.5 -73.5t-51.5 -59.5h222l48 300h-169zM70 -144h-90l36 228q33 2 55 17t36 39t22.5 54.5t13.5 63.5l33 210h349l-61 -384h62l-36 -228h-90l23 144h-330z" />
    <glyph glyph-name="afii10070" unicode="&#x435;" horiz-adv-x="488" 
d="M428 287q1 53 -27.5 85t-82.5 32q-53 0 -94 -33t-58 -84h262zM151 219q-5 -30 0.5 -58t20.5 -49.5t39 -34.5t56 -13q52 0 87.5 24.5t67.5 66.5l69 -43q-43 -61 -106 -94.5t-132 -33.5q-54 0 -93.5 19t-63.5 52t-33 78t-1 97q9 54 30.5 100t55.5 80t79.5 53t102.5 19
q56 0 94 -19.5t60 -53t28 -79t-2 -97.5l-2 -14h-357z" />
    <glyph glyph-name="afii10072" unicode="&#x436;" horiz-adv-x="685" 
d="M566 0l-132 208l-15 -11l-31 -197h-90l31 197l-11 11l-198 -208h-117l261 257l-177 210h119l136 -178h2l28 179h90l-28 -179h2l192 178h119l-243 -210l179 -257h-117z" />
    <glyph glyph-name="afii10073" unicode="&#x437;" horiz-adv-x="440" 
d="M256 282q89 0 100 65q5 29 -14.5 42t-57.5 13t-63 -12.5t-44 -36.5l-67 39q32 44 82.5 67t108.5 23q37 0 66 -8t48.5 -24.5t28 -41.5t2.5 -59q-5 -32 -30.5 -56.5t-60.5 -36.5l-1 -2q40 -6 63 -38t16 -78q-6 -36 -25.5 -65t-49 -48.5t-68.5 -30t-84 -10.5q-27 0 -55.5 7
t-52.5 20t-41.5 32t-22.5 44l82 35q11 -26 38.5 -42t64.5 -16q14 0 34 3t38.5 11t33 22t18.5 36q2 16 0.5 29.5t-10 24t-25.5 16.5t-45 6h-53l11 70h35z" />
    <glyph glyph-name="afii10074" unicode="&#x438;" horiz-adv-x="523" 
d="M372 0l46 288l-359 -309l77 489h90l-45 -288l358 309l-77 -489h-90z" />
    <glyph glyph-name="afii10075" unicode="&#x439;" horiz-adv-x="523" 
d="M554 678q-9 -26 -28 -49t-44.5 -40t-56 -27.5t-61.5 -10.5t-57 9.5t-45.5 26.5t-31.5 39.5t-14 49.5l69 16q9 -35 29.5 -55t60.5 -20q41 0 67 20t48 55zM372 0l46 288l-359 -309l77 489h90l-45 -288l358 309l-77 -489h-90z" />
    <glyph glyph-name="afii10076" unicode="&#x43a;" horiz-adv-x="462" 
d="M202 278h2l204 190h119l-233 -208l179 -260h-117l-135 199l-36 -31l-27 -168h-90l74 468h90z" />
    <glyph glyph-name="afii10077" unicode="&#x43b;" horiz-adv-x="523" 
d="M462 0h-90l61 384h-183l-38 -237q-6 -35 -20.5 -62.5t-35 -46.5t-45 -28.5t-50.5 -9.5h-40l13 81h14q31 0 50.5 20t26.5 65l48 302h363z" />
    <glyph glyph-name="afii10078" unicode="&#x43c;" horiz-adv-x="620" 
d="M336 160l206 324l78 -484h-97l-33 261h-2l-180 -277l-92 276h-2l-115 -260h-101l237 484z" />
    <glyph glyph-name="afii10079" unicode="&#x43d;" horiz-adv-x="523" 
d="M372 0l33 211h-220l-33 -211h-90l74 468h90l-27 -173h220l27 173h90l-74 -468h-90z" />
    <glyph glyph-name="afii10080" unicode="&#x43e;" horiz-adv-x="540" 
d="M333 396q-33 0 -64.5 -13t-56.5 -35t-42.5 -52t-22.5 -63t2.5 -62.5t25.5 -52t45.5 -35.5t60.5 -13t64.5 13t56.5 35.5t42.5 52t22.5 62.5t-2.5 63t-25.5 52t-45.5 35t-60.5 13zM346 482q52 0 95 -19t71.5 -52.5t40.5 -79t4 -98.5t-35 -98.5t-66 -79t-88 -52.5t-101 -19
q-53 0 -95 19t-70.5 52.5t-40.5 79t-4 98.5t34.5 98.5t65.5 79t87.5 52.5t101.5 19z" />
    <glyph glyph-name="afii10081" unicode="&#x43f;" horiz-adv-x="523" 
d="M372 0l61 384h-220l-61 -384h-90l74 468h400l-74 -468h-90z" />
    <glyph glyph-name="afii10082" unicode="&#x440;" horiz-adv-x="556" 
d="M207 390h2q35 42 79.5 67t97.5 25q51 0 88.5 -20.5t60.5 -54t31.5 -78t1.5 -92.5q-8 -50 -30.5 -96t-56.5 -81t-79 -55.5t-99 -20.5q-50 0 -87 24.5t-57 64.5h-2l-54 -341h-90l116 736h90zM298 64q37 0 67.5 13.5t53.5 37t37.5 54t20.5 65.5q5 34 0 64.5t-21 53.5
t-42 36.5t-62 13.5q-35 0 -64.5 -14t-52.5 -37.5t-38 -53.5t-20 -63t0 -63.5t20 -54.5t40 -38t61 -14z" />
    <glyph glyph-name="afii10083" unicode="&#x441;" horiz-adv-x="441" 
d="M459 335q-45 63 -124 63q-33 0 -63.5 -13.5t-55 -36t-41.5 -52.5t-22 -62q-6 -36 1.5 -66.5t25.5 -52.5t45.5 -34.5t63.5 -12.5q39 0 73.5 16.5t64.5 45.5l-19 -115q-33 -17 -66 -24t-68 -7q-52 0 -94.5 18.5t-71.5 51.5t-41.5 78t-4.5 98q9 54 36 100.5t66.5 80
t89.5 52.5t104 19q32 0 63.5 -7.5t55.5 -23.5z" />
    <glyph glyph-name="afii10084" unicode="&#x442;" horiz-adv-x="419" 
d="M254 0h-90l61 384h-159l13 84h408l-13 -84h-159z" />
    <glyph glyph-name="afii10085" unicode="&#x443;" horiz-adv-x="484" 
d="M61 468h105l111 -297l194 297h101l-495 -736h-102l239 348z" />
    <glyph glyph-name="afii10086" unicode="&#x444;" horiz-adv-x="682" 
d="M360 396q-33 0 -67.5 -11.5t-63 -32.5t-49 -51t-26.5 -68t5 -68t33 -51t52.5 -32.5t63.5 -11.5zM604 233q6 38 -5 68t-33 51t-52.5 32.5t-63.5 11.5l-52 -326q33 0 67.5 11.5t63 32.5t49 51t26.5 68zM694 233q-9 -57 -38.5 -102t-72.5 -76.5t-94.5 -48t-103.5 -16.5
l-40 -258h-90l40 258q-53 0 -99 16.5t-78 48t-47.5 76.5t-6.5 102q9 58 38.5 103t72.5 76.5t94 48t104 16.5l61 391h90l-61 -391q52 0 98.5 -16.5t78.5 -48t47.5 -76.5t6.5 -103z" />
    <glyph glyph-name="afii10087" unicode="&#x445;" horiz-adv-x="489" 
d="M101 468h106l87 -151l145 151h109l-206 -214l161 -254h-105l-124 190l-179 -190h-109l249 254z" />
    <glyph glyph-name="afii10088" unicode="&#x446;" horiz-adv-x="533" 
d="M62 0l74 468h90l-61 -384h220l61 384h90l-61 -384h72l-36 -228h-90l23 144h-382z" />
    <glyph glyph-name="afii10089" unicode="&#x447;" horiz-adv-x="491" 
d="M233 169q-77 0 -109 33.5t-19 114.5l24 151h90l-19 -122q-6 -36 0.5 -56.5t21 -30t33 -11.5t36.5 -2q23 0 44 1.5t45 5.5l34 215h90l-74 -468h-90l29 183q-14 -2 -33.5 -4.5t-39 -4.5t-36.5 -3.5t-27 -1.5z" />
    <glyph glyph-name="afii10090" unicode="&#x448;" horiz-adv-x="758" 
d="M625 84l61 384h90l-74 -468h-640l74 468h90l-61 -384h185l61 384h90l-61 -384h185z" />
    <glyph glyph-name="afii10091" unicode="&#x449;" horiz-adv-x="773" 
d="M661 -144l23 144h-622l74 468h90l-61 -384h185l61 384h90l-61 -384h185l61 384h90l-61 -384h72l-36 -228h-90z" />
    <glyph glyph-name="afii10092" unicode="&#x44a;" horiz-adv-x="577" 
d="M66 384l13 84h217l-25 -160h130q94 0 131.5 -38.5t26.5 -113.5q-4 -24 -14.5 -51.5t-31.5 -50.5t-54.5 -38.5t-83.5 -15.5h-243l61 384h-127zM356 83q11 0 28.5 3t35 11.5t31.5 22t17 34.5q2 12 -0.5 24.5t-12 23t-27.5 17t-46 6.5h-124l-23 -142h121z" />
    <glyph glyph-name="afii10093" unicode="&#x44b;" horiz-adv-x="673" 
d="M201 308h130q94 0 131.5 -38.5t26.5 -113.5q-4 -24 -14.5 -51.5t-31.5 -50.5t-54.5 -38.5t-83.5 -15.5h-243l74 468h90zM286 83q11 0 28.5 3t35 11.5t31.5 22t17 34.5q2 12 -0.5 24.5t-12 23t-27.5 17t-46 6.5h-124l-23 -142h121zM686 468l-74 -468h-90l74 468h90z" />
    <glyph glyph-name="afii10094" unicode="&#x44c;" horiz-adv-x="497" 
d="M201 308h130q94 0 131.5 -38.5t26.5 -113.5q-4 -24 -14.5 -51.5t-31.5 -50.5t-54.5 -38.5t-83.5 -15.5h-243l74 468h90zM286 83q11 0 28.5 3t35 11.5t31.5 22t17 34.5q2 12 -0.5 24.5t-12 23t-27.5 17t-46 6.5h-124l-23 -142h121z" />
    <glyph glyph-name="afii10095" unicode="&#x44d;" horiz-adv-x="441" 
d="M134 213l11 68h225q-3 24 -14 45.5t-28 37.5t-39.5 25t-49.5 9q-41 0 -76.5 -16t-67.5 -47l18 116q30 16 63.5 23.5t65.5 7.5q54 0 97.5 -19t73 -52.5t42 -80t3.5 -100.5q-8 -53 -35 -98t-66.5 -78t-88 -51.5t-100.5 -18.5q-35 0 -65 7t-59 24l19 115q21 -29 50 -45.5
t68 -16.5q33 0 62.5 10.5t53.5 30t41.5 46t26.5 58.5h-231z" />
    <glyph glyph-name="afii10096" unicode="&#x44e;" horiz-adv-x="750" 
d="M185 211l-33 -211h-90l74 468h90l-27 -173h85q16 41 44 75.5t64 59t77.5 38.5t86.5 14q52 0 95 -19t71.5 -52.5t40.5 -79t4 -98.5t-35 -98.5t-66 -79t-88 -52.5t-101 -19q-50 0 -90.5 17t-69 47.5t-42.5 72t-11 90.5h-79zM543 396q-33 0 -64.5 -13t-56.5 -35t-42.5 -52
t-22.5 -63t2.5 -62.5t25.5 -52t45.5 -35.5t60.5 -13t64.5 13t56.5 35.5t42.5 52t22.5 62.5t-2.5 63t-25.5 52t-45.5 35t-60.5 13z" />
    <glyph glyph-name="afii10097" unicode="&#x44f;" horiz-adv-x="500" 
d="M410 384h-109q-10 0 -27.5 -1t-35 -7t-31.5 -18.5t-18 -34.5q-2 -13 1 -24.5t13.5 -20t29.5 -13.5t48 -5h109zM349 0l29 181h-85l-176 -181h-116l191 191q-17 3 -35 11.5t-32 24t-21 38t-2 53.5q4 25 16 52t34.5 48.5t56.5 35.5t82 14h222l-74 -468h-90z" />
    <glyph glyph-name="afii10071" unicode="&#x451;" horiz-adv-x="488" 
d="M460 694q25 0 40 -17.5t10 -42.5q-4 -26 -24 -43.5t-45 -17.5q-26 0 -41 17.5t-11 43.5q5 25 25 42.5t46 17.5zM249 694q25 0 40 -17.5t10 -42.5q-4 -26 -24 -43.5t-45 -17.5q-26 0 -41 17.5t-11 43.5q5 25 25 42.5t46 17.5zM428 287q1 53 -27.5 85t-82.5 32
q-53 0 -94 -33t-58 -84h262zM151 219q-5 -30 0.5 -58t20.5 -49.5t39 -34.5t56 -13q52 0 87.5 24.5t67.5 66.5l69 -43q-43 -61 -106 -94.5t-132 -33.5q-54 0 -93.5 19t-63.5 52t-33 78t-1 97q9 54 30.5 100t55.5 80t79.5 53t102.5 19q56 0 94 -19.5t60 -53t28 -79t-2 -97.5
l-2 -14h-357z" />
    <glyph glyph-name="afii10099" unicode="&#x452;" horiz-adv-x="506" 
d="M231 405q27 38 68.5 57.5t84.5 19.5q49 0 78.5 -17.5t44 -46t16 -65t-4.5 -74.5q-9 -56 -31 -110.5t-52 -106.5t-65 -101.5t-69 -94.5h-100q42 49 79 97.5t66.5 98t50 101t29.5 105.5q4 23 4.5 46.5t-7 43t-26 32t-52.5 12.5q-44 0 -70 -17.5t-41 -44.5t-22.5 -60
t-12.5 -65l-34 -215h-90l89 564h-49l14 84h49l34 219h90l-34 -219h168l-14 -84h-168l-25 -159h2z" />
    <glyph glyph-name="afii10100" unicode="&#x453;" horiz-adv-x="381" 
d="M461 672l-187 -149l-40 27l151 166zM213 384l-61 -384h-90l74 468h310l-13 -84h-220z" />
    <glyph glyph-name="afii10101" unicode="&#x454;" horiz-adv-x="441" 
d="M412 15q-33 -17 -66 -24t-68 -7q-52 0 -94.5 18.5t-71.5 51.5t-41.5 78t-4.5 98q9 54 36 100.5t66.5 80t89.5 52.5t104 19q32 0 63.5 -7.5t55.5 -23.5l-18 -116q-45 63 -124 63q-27 0 -52.5 -9t-47 -25t-39 -37.5t-28.5 -45.5h225l-11 -68h-231q-4 -64 34 -104.5
t104 -40.5q39 0 73.5 16.5t64.5 45.5z" />
    <glyph glyph-name="afii10102" unicode="&#x455;" horiz-adv-x="384" 
d="M307 361q-5 17 -19 29t-34 12q-19 0 -36 -13t-21 -33q-2 -15 5.5 -26.5t21 -21.5t32 -18.5t37.5 -17.5t36.5 -20.5t30.5 -27.5t18.5 -36.5t1.5 -48.5q-5 -33 -22.5 -61.5t-43 -49.5t-56.5 -32.5t-64 -11.5q-26 0 -49.5 7t-43 20.5t-33 33t-19.5 44.5l83 35
q10 -26 26.5 -43t48.5 -17q29 0 53 18t29 48q3 19 -4 29.5t-21 21.5l-81 47q-18 10 -33 21t-24.5 24.5t-13.5 31t0 41.5q4 28 19 53t36.5 43.5t48 29t55.5 10.5q43 0 72.5 -22t42.5 -60z" />
    <glyph glyph-name="afii10103" unicode="&#x456;" horiz-adv-x="254" 
d="M245 745q26 0 41.5 -18.5t10.5 -44.5q-4 -26 -25 -43.5t-47 -17.5t-41 17.5t-11 43.5q5 26 25.5 44.5t46.5 18.5zM172 0h-90l74 468h90z" />
    <glyph glyph-name="afii10104" unicode="&#x457;" horiz-adv-x="254" 
d="M343 694q25 0 40 -17.5t10 -42.5q-4 -26 -24 -43.5t-45 -17.5q-26 0 -41 17.5t-11 43.5q5 25 25 42.5t46 17.5zM132 694q25 0 40 -17.5t10 -42.5q-4 -26 -24 -43.5t-45 -17.5q-26 0 -41 17.5t-11 43.5q5 25 25 42.5t46 17.5zM172 0h-90l74 468h90z" />
    <glyph glyph-name="afii10105" unicode="&#x458;" horiz-adv-x="254" 
d="M245 745q26 0 41.5 -18.5t10.5 -44.5q-4 -26 -25 -43.5t-47 -17.5t-41 17.5t-11 43.5q5 26 25.5 44.5t46.5 18.5zM130 -268h-90l116 736h90z" />
    <glyph glyph-name="afii10106" unicode="&#x459;" horiz-adv-x="784" 
d="M687 148q2 12 -0.5 23.5t-12.5 20.5t-28 14.5t-46 5.5h-104l-21 -129h101q11 0 28.5 2.5t35 9.5t31 20t16.5 33zM778 150q-4 -24 -14 -50.5t-31 -48.5t-54.5 -36.5t-83.5 -14.5h-223l61 384h-183l-38 -237q-6 -35 -20.5 -62.5t-35 -46.5t-45 -28.5t-50.5 -9.5h-40l13 81
h14q31 0 50.5 20t26.5 65l48 302h363l-27 -173h110q94 0 132 -36.5t27 -108.5z" />
    <glyph glyph-name="afii10107" unicode="&#x45a;" horiz-adv-x="784" 
d="M687 148q2 12 -0.5 23.5t-12.5 20.5t-28 14.5t-46 5.5h-104l-21 -129h101q11 0 28.5 2.5t35 9.5t31 20t16.5 33zM778 150q-4 -24 -14 -50.5t-31 -48.5t-54.5 -36.5t-83.5 -14.5h-223l33 211h-220l-33 -211h-90l74 468h90l-27 -173h220l27 173h90l-27 -173h110
q94 0 132 -36.5t27 -108.5z" />
    <glyph glyph-name="afii10108" unicode="&#x45b;" horiz-adv-x="523" 
d="M384 0l42 268q5 30 6 54.5t-7 42.5t-27 27.5t-53 9.5q-44 0 -70 -17.5t-41 -44.5t-22.5 -60t-12.5 -65l-34 -215h-90l89 564h-49l14 84h49l34 219h90l-34 -219h168l-14 -84h-168l-25 -159h2q27 38 68.5 57.5t84.5 19.5q49 0 79 -15.5t44.5 -43t16 -64.5t-5.5 -80
l-44 -279h-90z" />
    <glyph glyph-name="afii10109" unicode="&#x45c;" horiz-adv-x="462" 
d="M202 278h2l204 190h119l-233 -208l179 -260h-117l-135 199l-36 -31l-27 -168h-90l74 468h90zM501 672l-187 -149l-40 27l151 166z" />
    <glyph glyph-name="afii10110" unicode="&#x45e;" horiz-adv-x="484" 
d="M524 678q-9 -26 -28 -49t-44.5 -40t-56 -27.5t-61.5 -10.5t-57 9.5t-45.5 26.5t-31.5 39.5t-14 49.5l69 16q9 -35 29.5 -55t60.5 -20q41 0 67 20t48 55zM61 468h105l111 -297l194 297h101l-495 -736h-102l239 348z" />
    <glyph glyph-name="afii10193" unicode="&#x45f;" horiz-adv-x="533" 
d="M62 0l74 468h90l-61 -384h220l61 384h90l-74 -468h-152l-23 -144h-90l23 144h-158z" />
    <glyph glyph-name="afii10050" unicode="&#x490;" horiz-adv-x="464" 
d="M271 668l-106 -668h-94l119 754h293l29 180h94l-42 -266h-293z" />
    <glyph glyph-name="afii10098" unicode="&#x491;" horiz-adv-x="381" 
d="M213 384l-61 -384h-90l74 468h220l23 144h90l-36 -228h-220z" />
    <glyph glyph-name="endash" unicode="&#x2013;" horiz-adv-x="500" 
d="M529 308l-12 -75h-460l12 75h460z" />
    <glyph glyph-name="emdash" unicode="&#x2014;" horiz-adv-x="1000" 
d="M1029 308l-12 -75h-960l12 75h960z" />
    <glyph glyph-name="quoteleft" unicode="&#x2018;" horiz-adv-x="277" 
d="M140 503l175 267l52 -23l-153 -275z" />
    <glyph glyph-name="quoteright" unicode="&#x2019;" horiz-adv-x="277" 
d="M334 739l-175 -267l-53 23l154 275z" />
    <glyph glyph-name="quotesinglbase" unicode="&#x201a;" horiz-adv-x="277" 
d="M183 119l73 -31l-175 -267l-52 23l154 275v0z" />
    <glyph glyph-name="quotedblleft" unicode="&#x201c;" horiz-adv-x="439" 
d="M140 503l175 267l52 -23l-153 -275zM306 503l175 267l52 -23l-153 -275z" />
    <glyph glyph-name="quotedblright" unicode="&#x201d;" horiz-adv-x="439" 
d="M496 739l-175 -267l-53 23l154 275zM330 739l-175 -267l-53 23l154 275z" />
    <glyph glyph-name="quotedblbase" unicode="&#x201e;" horiz-adv-x="439" 
d="M418 88l-175 -267l-52 23l154 275zM252 88l-175 -267l-52 23l154 275z" />
    <glyph glyph-name="dagger" unicode="&#x2020;" 
d="M471 868l-43 -275h181l-14 -86h-181l-94 -595h-90l94 595h-181l14 86h181l43 275h90z" />
    <glyph glyph-name="daggerdbl" unicode="&#x2021;" 
d="M471 868l-37 -239h181l-14 -86h-181l-19 -122h181l-14 -86h-181l-67 -422h-90l67 422h-181l14 86h181l19 122h-181l14 86h181l37 239h90z" />
    <glyph glyph-name="bullet" unicode="&#x2022;" 
d="M319 189q-39 0 -70.5 14.5t-53 40t-31 60t-3.5 73.5t26 73.5t49.5 60t66.5 40.5t76 15t71 -15t53.5 -40.5t31 -60t3.5 -73.5t-26.5 -73.5t-50.5 -60t-66.5 -40t-75.5 -14.5z" />
    <glyph glyph-name="ellipsis" unicode="&#x2026;" horiz-adv-x="1000" 
d="M182 100q24 0 38.5 -17.5t10.5 -40.5q-4 -24 -24 -41t-44 -17t-38 17t-10 41q4 23 23.5 40.5t43.5 17.5zM850 100q24 0 38.5 -17.5t10.5 -40.5q-4 -24 -24 -41t-44 -17t-38 17t-10 41q4 23 23.5 40.5t43.5 17.5zM516 100q24 0 38.5 -17.5t10.5 -40.5q-4 -24 -24 -41
t-44 -17t-38 17t-10 41q4 23 23.5 40.5t43.5 17.5z" />
    <glyph glyph-name="perthousand" unicode="&#x2030;" horiz-adv-x="1110" 
d="M955 267q-23 0 -45.5 -9t-41 -24t-31 -35.5t-15.5 -43.5q-4 -23 2 -43t19.5 -35t33.5 -24t43 -9t45.5 9t41 24t31 35t16.5 43q3 23 -3 43.5t-19.5 35.5t-33.5 24t-43 9zM965 327q36 0 65.5 -13.5t50 -36.5t30 -54.5t3.5 -67.5t-25 -67t-47 -54t-62.5 -36.5t-69.5 -13.5
t-65 13.5t-50 36.5t-29.5 54t-3.5 67t25 67.5t46.5 54.5t61.5 36.5t70 13.5zM563 267q-23 0 -45.5 -9t-41 -24t-31 -35.5t-15.5 -43.5q-4 -23 2 -43t19.5 -35t33.5 -24t43 -9t45.5 9t41 24t31 35t16.5 43q3 23 -3 43.5t-19.5 35.5t-33.5 24t-43 9zM573 327q36 0 65.5 -13.5
t50 -36.5t30 -54.5t3.5 -67.5t-25 -67t-47 -54t-62.5 -36.5t-69.5 -13.5t-65 13.5t-50 36.5t-29.5 54t-3.5 67t25 67.5t46.5 54.5t61.5 36.5t70 13.5zM720 744l-561 -760l-42 25l562 761zM310 710q-23 0 -45.5 -9t-40.5 -24t-30.5 -35.5t-16.5 -43.5t2 -43t19.5 -35
t33.5 -24t43 -9t45.5 9t41 24t31 35t16.5 43t-2.5 43.5t-20 35.5t-33.5 24t-43 9zM320 770q36 0 65.5 -13.5t50 -36.5t30 -54.5t3.5 -67.5t-25 -67t-47 -54t-62 -36.5t-69 -13.5t-65 13.5t-50.5 36.5t-30 54t-3.5 67t25 67.5t46.5 54.5t61.5 36.5t70 13.5z" />
    <glyph glyph-name="guilsinglleft" unicode="&#x2039;" horiz-adv-x="336" 
d="M280 129l-62 -41l-145 232l220 240l49 -41l-180 -199z" />
    <glyph glyph-name="guilsinglright" unicode="&#x203a;" horiz-adv-x="336" 
d="M276 320l-118 199l63 41l144 -240l-219 -232l-50 41z" />
    <glyph glyph-name="afii61352" unicode="&#x2116;" horiz-adv-x="1050" 
d="M684 0l11 68h325l-11 -68h-325zM904 364q-19 0 -36.5 -7t-32 -18.5t-23.5 -27t-12 -33.5q-3 -17 1.5 -32.5t14.5 -27.5t25.5 -19t34.5 -7t37 7t32 19t23.5 27.5t12.5 32.5q5 35 -17 60.5t-60 25.5zM914 428q34 0 62 -11.5t46.5 -31.5t27 -47.5t3.5 -59.5t-22 -59
t-42.5 -47t-57 -31.5t-65.5 -11.5t-61.5 11.5t-46.5 31.5t-27 47t-3 59t22 59.5t42 47.5t56.5 31.5t65.5 11.5zM188 790l395 -573l85 537h94l-124 -785l-395 573l-86 -542h-94z" />
    <glyph glyph-name="trademark" unicode="&#x2122;" horiz-adv-x="940" 
d="M483 690h-138l-56 -357h-64l56 357h-138l10 64h340zM959 333h-64l56 357h-2l-200 -357h-39l-84 357h-2l-56 -357h-64l66 421h105l74 -297l172 297h104z" />
    <glyph glyph-name="radical" unicode="&#x221a;" horiz-adv-x="549" 
d="M239 522l133 -403l253 798l34 -5l-300 -950l-164 502l-103 -47l-11 33z" />
    <glyph glyph-name="infinity" unicode="&#x221e;" horiz-adv-x="713" 
d="M550 175q20 -5 41 -0.5t39 15.5t31.5 29t17.5 40q3 16 -2 36t-19 35t-37 20.5t-57 -5.5q-27 -9 -55.5 -27t-76.5 -54q19 -21 32 -36t25.5 -25t26.5 -16.5t34 -11.5zM260 345q-31 11 -56 5.5t-44 -20.5t-30 -35t-13 -36q-3 -22 4.5 -40t22.5 -29t35 -15.5t41 0.5
q22 5 38 11.5t31.5 16.5t33 25t43.5 36q-19 18 -33.5 31t-26.5 23t-23 16t-23 11zM548 391q39 16 73.5 13t59.5 -20t39 -44.5t12 -60.5q-2 -28 -16 -56.5t-37.5 -51.5t-53.5 -36t-64 -10q-38 4 -66 18t-48 31t-33 33t-20 24q-11 -8 -29 -24t-43 -33t-57.5 -31t-71.5 -18
q-35 -3 -61.5 10t-42.5 36t-21 51.5t2 56.5q9 33 31.5 60.5t53.5 44.5t66 20t69 -13q16 -8 29 -16t25 -18.5t26 -24.5t34 -35q26 21 45 35t34.5 24.5t30.5 18.5t34 16z" />
    <glyph glyph-name="approxequal" unicode="&#x2248;" horiz-adv-x="549" 
d="M562 219q-19 -25 -43 -42t-50 -26t-51 -10.5t-46 4.5l-143 43q-34 10 -59.5 5.5t-44 -15.5t-30 -24t-17.5 -19l-38 27q48 53 100.5 70t105.5 2l144 -42q15 -5 34.5 -3.5t46.5 12.5q13 5 29.5 16.5t27.5 25.5zM586 370q-19 -25 -43 -42t-50 -26t-51 -10.5t-46 4.5l-143 43
q-34 10 -59.5 5.5t-44 -15.5t-30 -24t-17.5 -19l-38 27q48 53 100.5 70t105.5 2l144 -42q15 -5 34.5 -3.5t46.5 12.5q13 5 29.5 16.5t27.5 25.5z" />
    <glyph glyph-name="notequal" unicode="&#x2260;" 
d="M267 127l-112 -143l-66 48l74 95h-110l14 86h164l67 86h-218l14 86h272l105 135l67 -46l-69 -89h137l-14 -86h-191l-66 -86h244l-14 -86h-298z" />
    <glyph glyph-name="lessequal" unicode="&#x2264;" 
d="M561 101l-15 -94l-479 207l14 89zM633 557l-407 -148l360 -148l-15 -94l-479 207l11 70l545 207z" />
    <glyph glyph-name="greaterequal" unicode="&#x2265;" 
d="M35 7l15 94l544 202l-14 -89zM60 167l15 94l408 148l-361 148l15 94l479 -207l-11 -70z" />
    <glyph glyph-name="afii10055" horiz-adv-x="232" 
d="M163 0h-94l119 754h94z" />
    <glyph glyph-name="hyphenminus" horiz-adv-x="332" 
d="M345 308l-12 -75h-259l12 75h259z" />
  </font>
</defs>
</svg>
