<svg width="268" height="85" viewBox="0 0 268 85" fill="none" xmlns="http://www.w3.org/2000/svg">
<g clip-path="url(#clip0)">
<path d="M99.6009 60.0999C99.3009 62.3999 98.7009 62.9999 97.2009 62.9999C95.9009 62.9999 95.2009 62.0999 95.0009 60.0999C94.7009 60.1999 94.5009 60.1999 94.2009 60.2999C92.2009 60.9999 90.4009 60.4999 89.0009 58.7999C87.4009 56.7999 86.6009 54.4999 86.2009 52.0999C85.3009 46.4999 85.3009 40.8999 86.7009 35.3999C87.0009 34.0999 87.7009 32.7999 88.4009 31.6999C89.8009 29.5999 92.0009 28.9999 94.4009 29.8999C94.6009 29.9999 94.7009 29.9999 94.9009 29.9999C95.2009 27.1999 95.7009 26.4999 97.1009 26.3999C98.0009 26.3999 98.8009 26.6999 99.1009 27.5999C99.3009 28.2999 99.3009 29.0999 99.4009 29.8999C99.5009 29.8999 99.6009 29.8999 99.7009 29.8999C102.701 28.3999 105.401 30.2999 106.601 32.5999C107.801 34.9999 108.301 37.4999 108.501 40.1999C108.801 44.8999 109.001 49.5999 107.501 54.0999C107.001 55.6999 106.201 57.1999 105.301 58.5999C103.901 60.5999 102.201 60.8999 99.9009 60.0999C99.9009 60.0999 99.7009 60.0999 99.6009 60.0999ZM99.5009 44.9999C99.5009 46.9999 99.5009 49.0999 99.5009 51.0999C99.4009 52.8999 100.301 54.2999 101.201 55.5999C101.701 56.2999 102.201 56.1999 102.501 55.4999C103.001 54.4999 103.501 53.3999 103.801 52.2999C104.701 47.9999 104.601 43.5999 104.101 39.1999C103.901 37.6999 103.501 36.1999 102.901 34.8999C102.401 33.5999 101.701 33.5999 100.901 34.7999C100.001 36.0999 99.4009 37.3999 99.5009 38.9999C99.5009 40.9999 99.5009 42.9999 99.5009 44.9999ZM95.1009 45.0999C95.1009 42.7999 95.1009 40.5999 95.1009 38.2999C95.1009 36.7999 94.5009 35.5999 93.5009 34.4999C92.8009 33.7999 92.3009 33.7999 91.8009 34.6999C91.4009 35.2999 91.1009 36.0999 91.0009 36.7999C90.0009 41.6999 90.0009 46.5999 90.7009 51.4999C90.9009 52.8999 91.5009 54.2999 92.1009 55.5999C92.5009 56.4999 93.0009 56.3999 93.6009 55.5999C94.5009 54.1999 95.3009 52.6999 95.2009 50.8999C95.0009 48.9999 95.1009 47.0999 95.1009 45.0999Z" fill="white"/>
<path d="M148.8 26.9999C151.1 26.1999 152.4 26.7999 152.5 28.8999C152.6 29.8999 152.7 30.7999 152.7 31.7999C152.8 41.4999 152.9 51.1999 153 60.7999C153 62.0999 152.1 62.9999 150.8 62.9999C149.5 62.9999 148.7 62.0999 148.6 60.6999C148.6 56.7999 148.6 52.7999 148.6 48.8999C148.6 47.0999 148.6 45.2999 148.6 43.5999C148.5 43.5999 148.4 43.5999 148.3 43.5999C147.7 45.7999 147 48.0999 146.4 50.2999C145.4 53.8999 144.5 57.4999 143.5 61.1999C143.2 62.3999 142.2 63.1999 141 62.9999C140 62.8999 139.2 61.7999 139.2 60.5999C139.2 55.7999 139.2 50.9999 139.1 46.1999C139 40.4999 138.8 34.6999 138.6 28.9999C138.6 27.6999 139.3 26.7999 140.5 26.5999C141.6 26.3999 142.4 26.8999 142.6 28.2999C142.9 30.7999 143.2 33.3999 143.3 35.8999C143.4 38.4999 143.3 41.0999 143.3 43.5999C143.4 43.5999 143.5 43.5999 143.6 43.6999C143.9 42.8999 144.1 42.0999 144.4 41.2999C145.6 36.9999 146.8 32.6999 148 28.3999C148.2 27.8999 148.6 27.4999 148.8 26.9999Z" fill="white"/>
<path d="M22.3008 44.4001C22.5008 39.9001 22.6008 36.6001 22.9008 33.3001C23.1008 31.2001 23.8008 29.2001 25.4008 27.7001C27.3008 25.9001 29.8008 25.9001 31.6008 27.8001C33.1008 29.3001 33.9008 31.3001 34.4008 33.4001C36.1008 41.4001 36.2008 49.5001 34.2008 57.5001C33.8008 59.3001 33.0008 61.0001 31.7008 62.3001C30.2008 63.8001 28.0008 63.9001 26.5008 62.4001C25.5008 61.4001 24.7008 60.1001 24.1008 58.9001C22.9008 56.4001 22.3008 53.7001 22.3008 50.9001C22.4008 48.3001 22.3008 45.7001 22.3008 44.4001ZM29.1008 58.8001C30.1008 57.5001 30.4008 56.1001 30.6008 54.7001C31.5008 50.0001 31.4008 45.2001 31.1008 40.5001C30.9008 37.9001 30.3008 35.3001 29.7008 32.7001C29.6008 32.0001 29.0008 31.4001 28.7008 30.8001C28.5008 30.8001 28.4008 30.8001 28.2008 30.8001C27.9008 31.9001 27.4008 33.0001 27.3008 34.1001C27.1008 35.3001 27.2008 36.6001 27.1008 37.9001C27.0008 42.1001 26.8008 46.2001 26.7008 50.4001C26.7008 53.4001 27.5008 56.1001 29.1008 58.8001Z" fill="white"/>
<path d="M64.5001 43.1002C64.5001 40.5002 64.5001 37.9002 64.5001 35.4002C64.5001 33.0002 65.0001 30.7002 66.4001 28.7002C68.5001 25.7002 72.0001 25.7002 74.1001 28.7002C75.7001 30.9002 76.4001 33.6002 76.8001 36.2002C77.7001 42.9002 77.9001 49.5002 76.4001 56.1002C76.0001 58.0002 75.2001 59.9002 74.2001 61.5002C72.6001 64.1002 69.7001 64.2002 67.7001 61.9002C65.6001 59.5002 64.5001 56.5002 64.3001 53.4002C64.0001 50.0002 64.2001 46.6002 64.2001 43.2002C64.4001 43.1002 64.4001 43.1002 64.5001 43.1002ZM70.7001 58.6002C70.8001 58.6002 70.9001 58.6002 71.0001 58.6002C71.3001 57.9002 71.7001 57.2002 71.8001 56.5002C72.2001 53.4002 72.7001 50.3002 72.8001 47.2002C73.0001 43.0002 72.9001 38.9002 72.0001 34.8002C71.7001 33.4002 71.4001 32.0002 70.2001 30.9002C69.3001 31.8002 69.0001 33.0002 68.9001 34.1002C68.8001 35.4002 68.8001 36.7002 68.7001 38.0002C68.6001 42.2002 68.4001 46.3002 68.3001 50.5002C68.5001 53.4002 69.3001 56.1002 70.7001 58.6002Z" fill="white"/>
<path d="M4.4 33.7999C5.2 32.1999 5.7 30.8 6.5 29.4C7.6 27.6 9.2 26.4 11.4 26.5C12.5 26.5 13.4 27.2999 13.5 28.3999C13.6 29.4999 12.9 30.6999 11.8 30.7999C10.8 30.8999 10.2 31.4999 9.9 32.2999C9.4 33.4999 8.9 34.8 8.4 36C7.6 38.4 6.8 40.7 5.9 43.2C8.8 45.5 9.4 49 10.4 52.4C11 54.1 11.5 55.8999 12.1 57.5999C12.3 58.0999 12.7 58.6 13.2 58.9C14.1 59.6 14.4 60.8999 13.9 61.7999C13.2 62.8999 12 63.1999 10.9 62.5999C9.6 61.8999 8.7 60.7 8.2 59.2999C7.3 56.7999 6.6 54.4 5.7 51.9C5.4 50.9 5 49.9 4.5 49C4.5 50.7 4.5 52.2999 4.5 54C4.6 56.2 4.7 58.2999 4.8 60.5C4.8 61 4.6 61.6999 4.3 62.0999C3.9 62.8999 3.1 63.1 2.2 62.9C1.4 62.8 1 62.2 0.9 61.5C0.6 59.5999 0.3 57.6 0.3 55.7C0.1 46.7 0.1 37.7 0 28.7C0 27.4 0.9 26.6 2.1 26.5C3.4 26.5 4.3 27.3 4.4 28.6C4.5 30.3 4.4 31.8999 4.4 33.7999Z" fill="white"/>
<path d="M123.199 30.9V42.9C124.299 42.9 125.499 43 126.599 42.9C127.999 42.8 129.099 43.9 129.199 45C129.299 46.3 128.299 47.2 126.699 47.2C125.699 47.2 124.599 47.3 123.599 47.3C123.499 47.3 123.299 47.4 123.099 47.4V58.5C124.999 58.5 126.799 58.5 128.699 58.5C130.299 58.5 131.299 59.4 131.299 60.7C131.299 62 130.299 62.9 128.699 62.9C126.199 62.9 123.599 62.9 121.099 62.9C119.599 62.9 118.699 62 118.699 60.5C118.699 52.8 118.699 45.1 118.699 37.4C118.699 34.5 118.899 31.6 118.999 28.6C119.099 27.3 119.899 26.5 121.199 26.5C123.799 26.5 126.399 26.5 128.899 26.5C130.199 26.5 131.199 27.4 131.199 28.6C131.199 29.8 130.199 30.8 128.899 30.8C127.099 30.9 125.199 30.9 123.199 30.9Z" fill="white"/>
<path d="M52.7992 30.9001V32.3001C52.7992 41.5001 52.7992 50.8001 52.7992 60.0001C52.7992 60.4001 52.7992 60.8001 52.6992 61.1001C52.4992 62.2001 51.6992 62.9001 50.6992 62.9001C49.5992 62.9001 48.6992 62.3001 48.4992 61.3001C48.3992 60.9001 48.3992 60.4001 48.3992 60.0001C48.3992 50.7001 48.3992 41.5001 48.3992 32.2001V30.9001C47.3992 30.9001 46.3992 30.9001 45.3992 30.9001C44.0992 30.9001 43.1992 30.0001 43.1992 28.7001C43.1992 27.5001 44.0992 26.6001 45.3992 26.6001C48.6992 26.6001 51.9992 26.6001 55.2992 26.6001C56.5992 26.6001 57.4992 27.5001 57.4992 28.7001C57.4992 30.0001 56.5992 30.9001 55.2992 30.9001C54.4992 30.9001 53.6992 30.9001 52.7992 30.9001Z" fill="white"/>
<path d="M148.799 27.0002C147.699 27.3002 146.599 27.7002 145.399 27.8002C143.499 27.9002 141.999 26.9002 140.899 25.4002C140.299 24.6002 140.399 23.4002 141.199 22.7002C141.899 22.0002 143.199 21.8002 143.999 22.4002C144.199 22.6002 144.399 22.8002 144.599 23.0002C145.299 23.7002 145.999 23.7002 146.699 23.1002C146.899 22.9002 147.099 22.8002 147.399 22.6002C148.499 21.9002 149.799 22.1002 150.399 23.0002C151.099 24.0002 150.899 25.4002 149.899 26.2002C149.599 26.4002 149.199 26.7002 148.799 27.0002Z" fill="white"/>
<path d="M146.8 72.0998H145.2V82.6998H146.8V77.5998L150.9 82.6998H153.1L148.3 76.8998L153.1 72.0998H151L146.9 76.2998V72.0998H146.8ZM124 74.4998H124.3C126.4 74.4998 127.3 75.6998 127.3 77.0998C127.3 78.5998 126.3 79.6998 124.3 79.6998H124V74.4998ZM122.4 79.6998H122C119.9 79.6998 119 78.4998 119 77.0998C119 75.6998 119.9 74.4998 122 74.4998H122.3V79.6998H122.4ZM122.4 82.6998H124V81.1998H124.3C127.6 81.1998 129 79.3998 129 77.0998C129 72.9998 125 72.9998 124.3 72.9998H124V71.6998H122.4V72.9998H122.1C121.4 72.9998 117.4 72.9998 117.4 77.0998C117.4 79.3998 118.8 81.1998 122.1 81.1998H122.4V82.6998ZM91.6 82.6998L92.7 76.2998L95.7 83.1998L98.8 76.2998L99.9 82.6998H101.6L99.6 71.2998L95.9 79.4998L92.2 71.2998L90 82.6998H91.6Z" fill="white" stroke="#891723" stroke-miterlimit="10"/>
<path d="M134.601 77.4001C134.601 76.9001 134.801 76.4001 135.201 76.1001C135.601 75.7001 136.001 75.6001 136.501 75.6001C137.001 75.6001 137.501 75.8001 137.801 76.1001C138.201 76.5001 138.401 76.9001 138.401 77.4001C138.401 77.9001 138.201 78.4001 137.801 78.7001C137.401 79.1001 137.001 79.3001 136.501 79.3001C136.001 79.3001 135.501 79.1001 135.201 78.7001C134.801 78.3001 134.601 77.9001 134.601 77.4001ZM107.301 77.4001C107.301 76.9001 107.501 76.4001 107.901 76.1001C108.301 75.7001 108.701 75.6001 109.201 75.6001C109.701 75.6001 110.201 75.8001 110.501 76.1001C110.901 76.5001 111.101 76.9001 111.101 77.4001C111.101 77.9001 110.901 78.4001 110.501 78.7001C110.101 79.1001 109.701 79.3001 109.201 79.3001C108.701 79.3001 108.201 79.1001 107.901 78.7001C107.501 78.3001 107.301 77.9001 107.301 77.4001Z" fill="white"/>
<path fill-rule="evenodd" clip-rule="evenodd" d="M173.799 13C168.599 16.1 172.199 20.1 176.799 22.8C179.999 24.7 185.699 26.9 189.499 28.2C190.499 37.9 186.399 38.4 182.599 44.4C176.099 55.1 186.499 58.7 181.199 61.6C175.599 63.7 169.099 52.8 165.699 58.6C164.199 61.8 167.099 67.8 168.699 70.2C172.499 76 172.899 74.5 175.899 78.1C173.999 79.7 173.599 79.2 173.799 82.4C179.199 83.3 203.999 82.2 213.199 82.3C220.099 82.4 228.199 85.4 234.799 79.3C237.699 76.7 237.699 73.9 239.899 71C243.099 66.4 252.299 63.7 259.299 66.4C261.099 67.1 266.799 71.8 267.899 66.9C268.999 62.3 252.699 50.5 241.799 55.8C233.299 59.9 235.799 63.7 231.899 72.3C228.999 78.8 221.599 80.3 213.699 77.6C214.299 75.9 216.399 73.7 217.799 71.6C219.099 69.7 220.699 67.3 220.599 64.2C220.499 61 218.799 58.9 216.499 58C211.799 56.2 211.699 58.4 208.499 58.9C207.399 56 205.899 54.7 205.999 52.2C205.999 46.6 203.599 43.1 200.499 37.9C199.399 36.1 197.599 33.2 199.399 30.6C200.399 29.4 205.499 29.4 207.199 29.1C209.899 28.7 212.599 28.4 215.199 27.6C217.299 27 219.799 25.6 220.399 23.5C221.399 19.9 218.899 19.1 217.099 17.8C219.199 15.6 219.699 17 221.399 13.5C222.699 11 222.399 8.2 222.199 5.3C219.899 5.5 217.999 6.2 215.599 6.4C213.099 6.6 210.599 6.5 207.999 6.7C203.099 7.1 199.499 8.6 194.299 8C192.099 7.7 187.199 4.8 183.399 3.8C179.299 2.7 174.799 1.8 171.599 0C170.899 5.2 172.699 8.9 173.799 13Z" fill="#C6AC98"/>
</g>
<defs>
<clipPath id="clip0">
<rect width="267.9" height="84.4" fill="white"/>
</clipPath>
</defs>
</svg>
