<svg width="326" height="35" viewBox="0 0 326 35" fill="none" xmlns="http://www.w3.org/2000/svg">
<g filter="url(#filter0_d)">
<path d="M3.656 4.6H13.832C16.264 4.6 18.408 5.06933 20.264 6.008C22.1413 6.92533 23.592 8.22667 24.616 9.912C25.6613 11.5973 26.184 13.56 26.184 15.8C26.184 18.04 25.6613 20.0027 24.616 21.688C23.592 23.3733 22.1413 24.6853 20.264 25.624C18.408 26.5413 16.264 27 13.832 27H3.656V4.6ZM13.576 22.744C15.816 22.744 17.5973 22.1253 18.92 20.888C20.264 19.6293 20.936 17.9333 20.936 15.8C20.936 13.6667 20.264 11.9813 18.92 10.744C17.5973 9.48533 15.816 8.856 13.576 8.856H8.84V22.744H13.576ZM40.9415 27.384C38.6162 27.384 36.5148 26.8827 34.6375 25.88C32.7815 24.8773 31.3202 23.5013 30.2535 21.752C29.2082 19.9813 28.6855 17.9973 28.6855 15.8C28.6855 13.6027 29.2082 11.6293 30.2535 9.88C31.3202 8.10933 32.7815 6.72267 34.6375 5.72C36.5148 4.71733 38.6162 4.216 40.9415 4.216C43.2668 4.216 45.3575 4.71733 47.2135 5.72C49.0695 6.72267 50.5308 8.10933 51.5975 9.88C52.6642 11.6293 53.1975 13.6027 53.1975 15.8C53.1975 17.9973 52.6642 19.9813 51.5975 21.752C50.5308 23.5013 49.0695 24.8773 47.2135 25.88C45.3575 26.8827 43.2668 27.384 40.9415 27.384ZM40.9415 22.968C42.2642 22.968 43.4588 22.6693 44.5255 22.072C45.5922 21.4533 46.4242 20.6 47.0215 19.512C47.6402 18.424 47.9495 17.1867 47.9495 15.8C47.9495 14.4133 47.6402 13.176 47.0215 12.088C46.4242 11 45.5922 10.1573 44.5255 9.56C43.4588 8.94133 42.2642 8.632 40.9415 8.632C39.6188 8.632 38.4242 8.94133 37.3575 9.56C36.2908 10.1573 35.4482 11 34.8295 12.088C34.2322 13.176 33.9335 14.4133 33.9335 15.8C33.9335 17.1867 34.2322 18.424 34.8295 19.512C35.4482 20.6 36.2908 21.4533 37.3575 22.072C38.4242 22.6693 39.6188 22.968 40.9415 22.968ZM77.4775 27L77.4455 13.56L70.8535 24.632H68.5175L61.9575 13.848V27H57.0935V4.6H61.3815L69.7655 18.52L78.0215 4.6H82.2775L82.3415 27H77.4775ZM87.656 4.6H92.84V27H87.656V4.6ZM118.7 4.6V27H114.444L103.276 13.4V27H98.156V4.6H102.444L113.58 18.2V4.6H118.7ZM124 4.6H129.184V27H124V4.6ZM145.348 27.384C143.022 27.384 140.921 26.8827 139.044 25.88C137.188 24.8773 135.726 23.5013 134.66 21.752C133.614 19.9813 133.092 17.9973 133.092 15.8C133.092 13.6027 133.614 11.6293 134.66 9.88C135.726 8.10933 137.188 6.72267 139.044 5.72C140.921 4.71733 143.022 4.216 145.348 4.216C147.673 4.216 149.764 4.71733 151.62 5.72C153.476 6.72267 154.937 8.10933 156.004 9.88C157.07 11.6293 157.604 13.6027 157.604 15.8C157.604 17.9973 157.07 19.9813 156.004 21.752C154.937 23.5013 153.476 24.8773 151.62 25.88C149.764 26.8827 147.673 27.384 145.348 27.384ZM145.348 22.968C146.67 22.968 147.865 22.6693 148.932 22.072C149.998 21.4533 150.83 20.6 151.428 19.512C152.046 18.424 152.356 17.1867 152.356 15.8C152.356 14.4133 152.046 13.176 151.428 12.088C150.83 11 149.998 10.1573 148.932 9.56C147.865 8.94133 146.67 8.632 145.348 8.632C144.025 8.632 142.83 8.94133 141.764 9.56C140.697 10.1573 139.854 11 139.236 12.088C138.638 13.176 138.34 14.4133 138.34 15.8C138.34 17.1867 138.638 18.424 139.236 19.512C139.854 20.6 140.697 21.4533 141.764 22.072C142.83 22.6693 144.025 22.968 145.348 22.968ZM182.044 4.6V27H177.788L166.62 13.4V27H161.5V4.6H165.788L176.924 18.2V4.6H182.044Z" fill="white"/>
</g>
<path d="M202.376 27.384C200.093 27.384 198.024 26.8933 196.168 25.912C194.333 24.9093 192.883 23.5333 191.816 21.784C190.771 20.0133 190.248 18.0187 190.248 15.8C190.248 13.5813 190.771 11.5973 191.816 9.848C192.883 8.07733 194.333 6.70133 196.168 5.72C198.024 4.71733 200.104 4.216 202.408 4.216C204.349 4.216 206.099 4.55733 207.656 5.24C209.235 5.92267 210.557 6.904 211.624 8.184L208.296 11.256C206.781 9.50667 204.904 8.632 202.664 8.632C201.277 8.632 200.04 8.94133 198.952 9.56C197.864 10.1573 197.011 11 196.392 12.088C195.795 13.176 195.496 14.4133 195.496 15.8C195.496 17.1867 195.795 18.424 196.392 19.512C197.011 20.6 197.864 21.4533 198.952 22.072C200.04 22.6693 201.277 22.968 202.664 22.968C204.904 22.968 206.781 22.0827 208.296 20.312L211.624 23.384C210.557 24.6853 209.235 25.6773 207.656 26.36C206.077 27.0427 204.317 27.384 202.376 27.384ZM215.125 4.6H220.309V27H215.125V4.6ZM246.169 4.6V27H241.913L230.745 13.4V27H225.625V4.6H229.913L241.049 18.2V4.6H246.169ZM268.812 22.84V27H251.469V4.6H268.397V8.76H256.621V13.624H267.021V17.656H256.621V22.84H268.812ZM293.321 27L293.289 13.56L286.697 24.632H284.361L277.801 13.848V27H272.937V4.6H277.225L285.609 18.52L293.865 4.6H298.121L298.185 27H293.321ZM318.252 22.2H307.852L305.868 27H300.556L310.54 4.6H315.66L325.676 27H320.236L318.252 22.2ZM316.62 18.264L313.068 9.688L309.516 18.264H316.62Z" fill="#75B4E4"/>
<defs>
<filter id="filter0_d" x="0.467166" y="0.229465" width="189.55" height="34.3298" filterUnits="userSpaceOnUse" color-interpolation-filters="sRGB">
<feFlood flood-opacity="0" result="BackgroundImageFix"/>
<feColorMatrix in="SourceAlpha" type="matrix" values="0 0 0 0 0 0 0 0 0 0 0 0 0 0 0 0 0 0 127 0"/>
<feOffset dx="2.39181" dy="1.59454"/>
<feGaussianBlur stdDeviation="2.79045"/>
<feColorMatrix type="matrix" values="0 0 0 0 0 0 0 0 0 0 0 0 0 0 0 0 0 0 0.09 0"/>
<feBlend mode="normal" in2="BackgroundImageFix" result="effect1_dropShadow"/>
<feBlend mode="normal" in="SourceGraphic" in2="effect1_dropShadow" result="shape"/>
</filter>
</defs>
</svg>
