<svg width="49" height="93" viewBox="0 0 49 93" fill="none" xmlns="http://www.w3.org/2000/svg">
<path d="M27.7969 60.4953C27.7969 60.2352 27.6707 60.1052 27.6707 59.8452C27.5445 59.7152 27.5445 59.7152 27.4183 59.8452C27.2921 59.9752 27.1659 60.2353 27.1659 60.3653C27.1659 60.6253 27.1659 60.8853 27.1659 61.1454C27.1659 61.4054 27.1659 61.6655 27.1659 61.9255C27.1659 62.1855 27.2921 62.3156 27.4183 62.5756C27.4183 62.7056 27.5445 62.7056 27.5445 62.5756C27.6707 62.4456 27.6707 62.3156 27.6707 62.1855C27.9231 61.6655 27.7969 61.0154 27.7969 60.4953Z" fill="#B4A49A"/>
<path d="M25.9038 65.566V66.2161C26.03 66.2161 26.03 66.2161 26.1562 66.0861C26.1562 66.0861 26.2824 65.9561 26.2824 65.826C26.2824 65.696 26.2824 65.696 26.1562 65.566C26.1562 65.566 26.03 65.566 25.9038 65.566Z" fill="#B4A49A"/>
<path d="M25.3989 65.6961C25.3989 65.6961 25.2727 65.8261 25.2727 65.9561C25.2727 66.0861 25.2727 66.0861 25.3989 66.2161C25.5251 66.3461 25.5251 66.3461 25.6513 66.3461V65.6961C25.5251 65.566 25.3989 65.566 25.3989 65.6961Z" fill="#B4A49A"/>
<path d="M26.5349 60.3653C26.5349 60.1052 26.4087 59.9752 26.2825 59.8452C26.1562 59.7152 26.1562 59.7152 26.03 59.8452C26.03 59.9752 25.9038 59.9752 25.9038 60.1052C25.7776 60.7553 25.7776 61.4054 25.9038 62.1855C25.9038 62.3156 26.03 62.5756 26.03 62.7056C26.03 62.8356 26.1562 62.8356 26.2825 62.7056C26.4087 62.5756 26.5349 62.3156 26.5349 62.0555C26.5349 61.7955 26.5349 61.5354 26.5349 61.2754C26.5349 60.8853 26.5349 60.6253 26.5349 60.3653Z" fill="#B4A49A"/>
<path d="M23.2534 59.3252C23.1272 59.4552 23.1272 59.5852 23.1272 59.7152C23.1272 59.8453 23.1272 60.1053 23.1272 60.2353C23.1272 60.7554 23.1272 61.4055 23.1272 61.9256C23.1272 62.3156 23.2534 62.7057 23.3797 63.0957C23.3797 62.9657 23.5059 62.9657 23.5059 62.8357C23.5059 62.4456 23.6321 61.9256 23.6321 61.5355C23.6321 61.0154 23.6321 60.3653 23.5059 59.8453C23.5059 59.5852 23.3797 59.4552 23.2534 59.3252Z" fill="#B4A49A"/>
<path d="M25.9038 14.4685C24.8942 14.8586 24.5155 15.8987 24.8942 16.9389C25.399 18.6291 27.1659 19.5393 28.8066 18.7592C31.2046 17.719 32.5929 15.7687 33.3502 13.2984C33.855 11.7381 34.1074 10.3079 34.486 8.74768C34.9909 6.7974 36.1267 5.49721 38.1461 4.97713C39.282 4.71709 39.913 3.93698 40.0392 2.89683C40.1654 1.85667 39.5344 0.556482 38.5247 0.166424C38.3985 0.166424 38.2723 0.0364053 38.1461 0.0364053C37.515 -0.0936137 36.5054 0.166424 36.3792 0.166424C33.0977 1.07656 30.826 3.15686 29.8163 6.53736C29.4377 7.83755 29.1853 9.26776 28.8066 10.698C28.428 12.2582 27.5445 13.6884 25.9038 14.4685Z" fill="#B4A49A"/>
<path d="M40.7965 63.7457C40.1655 63.7457 39.913 63.8757 39.6606 64.5258C35.6219 74.1472 24.1369 77.7878 15.5547 72.0669C12.6519 70.1166 10.5064 67.5163 9.11809 64.1358C8.99188 64.0057 8.86567 63.7457 8.73946 63.7457C7.60359 63.7457 6.46771 63.7457 5.33183 63.7457C5.58425 67.6463 5.83666 71.4168 6.08908 75.1874C6.46771 80.2581 6.84633 85.1989 7.09875 90.2696C7.22496 91.3098 7.35117 92.2199 7.98221 93C18.8362 93 29.8163 93 40.6703 93C41.3013 92.2199 41.5537 91.3097 41.5537 90.3996C41.5537 90.0096 41.5537 89.6195 41.68 89.2294C41.9324 85.8489 42.1848 82.4685 42.4372 79.218C42.6896 75.8375 42.942 72.327 43.1945 68.9465C43.3207 67.2562 43.4469 65.566 43.5731 63.8757C42.4372 63.8757 41.68 63.8757 40.7965 63.7457Z" fill="#B4A49A"/>
<path d="M23.1272 66.0861H23.3797L23.2534 65.696L23.1272 66.0861Z" fill="#B4A49A"/>
<path d="M17.8264 19.1493C20.2243 18.1091 21.6126 16.1588 22.3699 13.6885C22.8747 12.1282 23.1271 10.698 23.5058 9.1378C24.0106 7.18752 25.1465 5.88733 27.1658 5.36725C28.4279 5.10721 28.9328 4.3271 29.059 3.28695C29.1852 2.24679 28.5541 0.946602 27.5445 0.556545C27.4182 0.556545 27.292 0.426526 27.1658 0.426526C26.5348 0.296507 25.5251 0.556545 25.3989 0.556545C22.1175 1.46668 19.8457 3.54698 18.836 6.92748C18.4574 8.22767 18.205 9.65788 17.8264 11.0881C17.4478 12.9084 16.5643 14.2086 14.9236 14.9887C13.9139 15.3787 13.5353 16.4189 13.9139 17.459C14.4187 19.0193 16.3119 19.9294 17.8264 19.1493Z" fill="#B4A49A"/>
<path d="M17.9526 62.5757C18.0788 61.9256 18.0788 61.2755 18.0788 60.6254C18.0788 60.2353 17.9526 59.8453 17.9526 59.5852C17.9526 59.4552 17.8264 59.4552 17.8264 59.3252C17.8264 59.4552 17.7002 59.5852 17.7002 59.7152C17.7002 59.8453 17.7002 60.1053 17.7002 60.2353C17.7002 60.7554 17.7002 61.4055 17.7002 61.9256C17.7002 62.3156 17.8264 62.7057 17.9526 63.0957C17.9526 62.9657 17.9526 62.7057 17.9526 62.5757Z" fill="#B4A49A"/>
<path d="M24.3892 72.587C32.5928 72.587 39.1557 65.826 39.1557 57.3748C39.1557 48.9236 32.5928 42.1626 24.3892 42.1626C16.1857 42.1626 9.6228 48.9236 9.6228 57.3748C9.6228 65.696 16.1857 72.587 24.3892 72.587ZM21.234 66.7362L20.7292 66.0861V66.7362H20.3506V65.1759H20.7292V65.826L21.234 65.1759H21.7388L21.1078 65.9561L21.7388 66.7362H21.234ZM23.632 66.7362L23.5058 66.4761H23.0009L22.8747 66.7362H22.4961L23.1271 65.1759H23.5058L24.0106 66.7362H23.632ZM24.1368 62.7056C24.1368 62.9656 24.0106 63.2257 23.8844 63.4857C23.632 63.8758 23.2534 63.8758 23.0009 63.4857C22.7485 63.0956 22.6223 62.7056 22.4961 62.3155C22.4961 61.7954 22.4961 61.4054 22.4961 60.8853C22.4961 60.4953 22.4961 60.2352 22.4961 59.8452C22.4961 59.4551 22.6223 59.1951 22.7485 58.935C23.0009 58.545 23.5058 58.545 23.7582 58.935C24.0106 59.1951 24.0106 59.5851 24.1368 59.9752C24.263 60.8853 24.263 61.7954 24.1368 62.7056ZM26.5348 66.3461C26.4086 66.4761 26.2824 66.4761 26.0299 66.4761V66.7362H25.6513V66.4761C25.3989 66.4761 25.2727 66.3461 25.1465 66.3461C25.0203 66.2161 25.0203 66.0861 25.0203 65.9561C25.0203 65.826 25.0203 65.696 25.1465 65.566C25.2727 65.436 25.5251 65.436 25.6513 65.436V65.1759H26.0299V65.436C26.2824 65.436 26.4086 65.436 26.5348 65.566C26.661 65.696 26.661 65.826 26.661 65.9561C26.661 66.0861 26.661 66.2161 26.5348 66.3461ZM27.292 63.3557C27.1658 63.3557 27.1658 63.3557 27.292 63.3557C27.1658 63.6157 27.1658 63.7457 26.9134 63.7457C26.7872 63.7457 26.661 63.6157 26.661 63.3557H26.5348C26.2824 63.4857 26.0299 63.3557 25.9037 63.0956C25.6513 62.8356 25.5251 62.4455 25.5251 62.1855C25.3989 61.4054 25.3989 60.6253 25.6513 59.8452C25.6513 59.7151 25.7775 59.4551 25.9037 59.3251C26.0299 59.065 26.4086 58.935 26.661 59.065C26.661 59.065 26.661 59.065 26.7872 59.065C26.7872 58.675 26.9134 58.545 27.0396 58.545C27.1658 58.545 27.292 58.545 27.292 58.675C27.292 58.805 27.292 58.935 27.292 58.935C27.6707 58.675 28.0493 58.935 28.1755 59.3251C28.3017 59.7151 28.4279 59.9752 28.4279 60.3652C28.4279 61.0153 28.5541 61.6654 28.3017 62.3155C28.1755 62.5756 28.1755 62.7056 28.0493 62.9656C27.7969 63.3557 27.5445 63.4857 27.292 63.3557ZM28.6803 65.566H28.1755V65.826H28.5541V66.2161H28.1755V66.4761H28.6803V66.8662H27.7969V65.306H28.6803V65.566ZM30.8259 60.8853C30.9521 60.8853 31.2045 61.0153 31.2045 61.1453C31.2045 61.2754 31.0783 61.4054 30.8259 61.4054C30.6997 61.4054 30.5735 61.4054 30.4473 61.4054C30.4473 61.9255 30.4473 62.4455 30.4473 62.9656C30.6997 62.9656 30.9521 62.9656 31.2045 62.9656C31.4569 62.9656 31.5831 63.0956 31.5831 63.2257C31.5831 63.3557 31.4569 63.4857 31.2045 63.4857C30.8259 63.4857 30.5735 63.4857 30.1948 63.4857C29.9424 63.4857 29.8162 63.3557 29.8162 63.0956C29.8162 62.0555 29.8162 61.0153 29.8162 59.8452C29.8162 59.4551 29.8162 59.065 29.8162 58.675C29.8162 58.545 29.9424 58.415 30.0686 58.415C30.4473 58.415 30.6997 58.415 31.0783 58.415C31.2045 58.415 31.3307 58.545 31.3307 58.675C31.3307 58.805 31.2045 58.935 31.0783 58.935C30.8259 58.935 30.5735 58.935 30.321 58.935C30.321 59.4551 30.321 59.9752 30.321 60.6253C30.4473 60.8853 30.6997 60.8853 30.8259 60.8853ZM32.719 58.675C32.8452 58.675 32.9714 58.675 32.9714 58.935C32.9714 59.3251 33.0976 59.5851 33.0976 59.9752C33.0976 60.3652 33.0976 60.6253 33.0976 61.0153C33.0976 60.8853 33.2238 60.7553 33.2238 60.6253C33.3501 59.9752 33.6025 59.4551 33.7287 58.805C33.7287 58.675 33.8549 58.675 33.8549 58.675C33.7287 58.675 33.6025 58.805 33.3501 58.805C33.0976 58.805 32.8452 58.675 32.719 58.415C32.5928 58.2849 32.719 58.1549 32.719 58.0249C32.8452 57.8949 32.9714 57.8949 33.0976 58.0249C33.0976 58.0249 33.0976 58.0249 33.2238 58.1549C33.3501 58.2849 33.3501 58.2849 33.4763 58.1549C33.4763 58.1549 33.4763 58.1549 33.6025 58.0249C33.7287 57.8949 33.9811 57.8949 33.9811 58.0249C34.1073 58.1549 34.1073 58.415 33.9811 58.415L33.8549 58.545C34.1073 58.4149 34.3597 58.545 34.3597 58.805C34.3597 58.935 34.3597 59.065 34.3597 59.1951C34.3597 60.4953 34.3597 61.9255 34.3597 63.2257C34.3597 63.3557 34.2335 63.4857 34.1073 63.4857C33.9811 63.4857 33.8549 63.3557 33.8549 63.2257C33.8549 62.7056 33.8549 62.1855 33.8549 61.6654C33.8549 61.4054 33.8549 61.1454 33.8549 60.8853C33.7287 61.1454 33.7287 61.5354 33.6025 61.7954C33.4763 62.3155 33.3501 62.8356 33.2238 63.3557C33.2238 63.4857 33.0976 63.6157 32.8452 63.6157C32.719 63.6157 32.5928 63.4857 32.5928 63.2257C32.5928 62.5756 32.5928 61.9255 32.5928 61.2754C32.5928 60.4953 32.5928 59.7151 32.5928 58.935C32.4666 58.805 32.4666 58.675 32.719 58.675ZM19.8457 54.6444C20.2243 53.9943 20.9816 55.2945 21.6126 55.0345C22.2437 54.6444 20.9816 54.2543 21.7388 52.9541C22.1175 52.3041 22.6223 52.174 22.4961 51.0039C22.1175 50.8738 21.3602 50.6138 21.1078 50.3538C20.603 50.0937 20.2243 49.5737 20.7292 49.1836C20.603 48.6635 20.3505 48.2735 20.4768 47.6234C20.8554 47.8834 21.3602 47.8834 21.8651 48.0134C22.2437 48.1434 22.8747 48.5335 23.1271 48.5335C23.7582 48.6635 24.1368 48.4035 24.6417 48.4035C24.8941 48.4035 25.2727 48.4035 25.5251 48.4035C25.7775 48.4035 26.0299 48.2735 26.2824 48.2735C26.2824 48.6635 26.2824 48.9236 26.1562 49.1836C25.9037 49.5737 25.9037 49.4436 25.6513 49.7037C25.9037 49.8337 26.1562 49.9637 26.0299 50.3538C25.9037 50.6138 25.6513 50.7438 25.3989 50.8738C25.1465 51.0039 24.7679 51.0039 24.5154 51.0039C24.263 51.0039 23.7582 51.0039 23.632 51.1339C23.3796 51.3939 23.632 51.784 23.7582 52.044C24.1368 52.6941 24.3892 53.0842 24.3892 53.7343C24.3892 53.9943 24.5154 54.1243 24.6417 54.5144C25.0203 54.5144 25.0203 54.2543 25.5251 54.3844C25.7775 54.5144 26.0299 54.7744 26.0299 55.1645C26.0299 55.5545 25.9037 55.8146 25.6513 56.0746C25.5251 56.3346 25.2727 56.5947 25.1465 56.7247C26.0299 56.9847 26.9134 56.8547 27.1658 56.0746C27.5445 55.0345 27.292 54.6444 28.3017 54.1243C29.5638 53.4742 31.4569 54.9044 31.3307 55.4245C31.2045 55.9446 30.5735 55.4245 30.321 55.4245C29.5638 55.1645 28.4279 55.4245 28.0493 55.9446C27.7969 56.3346 27.7969 56.5947 27.4182 56.9847C26.661 57.6348 25.7775 57.3748 25.0203 57.3748C24.0106 57.3748 21.1078 57.5048 20.4768 57.3748C20.4768 56.9847 20.4768 57.1148 20.7292 56.8547C20.3506 56.4647 20.3505 56.5947 19.9719 55.9446C20.0981 55.6845 19.7195 54.9044 19.8457 54.6444ZM19.9719 58.675C20.4768 58.675 20.8554 58.675 21.3602 58.675C21.4864 58.675 21.6126 58.805 21.6126 58.935C21.6126 59.065 21.4864 59.1951 21.3602 59.1951C21.234 59.1951 21.1078 59.1951 20.9816 59.1951C20.9816 59.3251 20.9816 59.3251 20.9816 59.3251C20.9816 60.6253 20.9816 61.9255 20.9816 63.0956V63.2257C20.9816 63.3557 20.8554 63.4857 20.7292 63.4857C20.603 63.4857 20.4768 63.3557 20.4768 63.2257V63.0956C20.4768 61.7954 20.4768 60.4953 20.4768 59.3251V59.1951C20.3505 59.1951 20.2243 59.1951 20.0981 59.1951C19.9719 59.1951 19.8457 59.065 19.8457 58.935C19.5933 58.805 19.7195 58.675 19.9719 58.675ZM16.8167 61.1453C16.8167 60.4953 16.8167 60.1052 16.9429 59.5851C16.9429 59.3251 17.0691 59.065 17.3215 58.805C17.574 58.545 17.9526 58.545 18.205 58.805C18.4574 59.065 18.4574 59.3251 18.5836 59.5851C18.836 60.7553 18.836 61.7954 18.5836 62.9656C18.5836 63.2257 18.4574 63.4857 18.205 63.6157C17.9526 63.8758 17.7002 63.8758 17.574 63.6157C17.4477 63.4857 17.3215 63.3557 17.1953 63.0956C17.0691 62.7056 16.9429 62.4455 16.9429 62.0555C16.8167 61.6654 16.8167 61.2754 16.8167 61.1453ZM13.9139 58.935C13.9139 58.805 14.0401 58.675 14.1663 58.675C14.2925 58.675 14.4187 58.805 14.4187 58.935C14.4187 59.1951 14.4187 59.3251 14.4187 59.5851C14.5449 59.3251 14.5449 59.1951 14.6712 58.935C14.7974 58.675 15.0498 58.545 15.3022 58.545C15.4284 58.545 15.5546 58.675 15.5546 58.805C15.5546 58.935 15.4284 59.065 15.3022 59.1951C15.176 59.1951 15.0498 59.3251 15.0498 59.4551C14.9236 59.5851 14.9236 59.8452 14.7974 59.9752C14.6712 60.3652 14.5449 60.6253 14.4187 61.0153C14.7974 61.2754 14.9236 61.7954 15.0498 62.3155C15.176 62.5756 15.176 62.8356 15.3022 62.9656C15.3022 63.0956 15.4284 63.0956 15.4284 63.0956C15.5546 63.2257 15.5546 63.3557 15.5546 63.4857C15.4284 63.6157 15.3022 63.7457 15.176 63.6157C15.0498 63.4857 14.9236 63.3557 14.7974 63.2257C14.6712 62.8356 14.5449 62.5756 14.4187 62.1855C14.4187 62.0555 14.2925 61.9255 14.2925 61.7954C14.2925 62.0555 14.2925 62.3155 14.2925 62.4455C14.2925 62.7056 14.2925 63.0956 14.2925 63.3557C14.2925 63.4857 14.2925 63.4857 14.1663 63.6157C14.1663 63.7457 14.0401 63.7457 13.9139 63.7457C13.7877 63.7457 13.7877 63.6157 13.7877 63.6157C13.7877 63.3557 13.6615 63.0956 13.6615 62.8356C13.9139 61.4054 13.9139 60.2352 13.9139 58.935Z" fill="#B4A49A"/>
<path d="M47.7379 21.8796C47.4855 21.7496 47.1069 21.7496 46.8545 21.7496C39.4081 21.7496 31.9618 21.7496 24.5155 21.7496C17.0692 21.7496 9.74907 21.7496 2.30275 21.7496C2.05033 21.7496 1.79791 21.7496 1.5455 21.7496C0.788244 21.7496 0.1572 22.3997 0.030991 23.0498C-0.0952178 23.8299 0.1572 24.6101 0.914452 24.8701C1.29308 25.0001 1.79791 25.1301 2.17654 25.1301C17.0692 25.1301 31.9618 25.1301 46.8545 25.1301C47.1069 25.1301 47.3593 25.1301 47.6117 25.1301C48.369 25.0001 49 24.35 49 23.5699C48.8738 22.7898 48.4952 22.1397 47.7379 21.8796Z" fill="#B4A49A"/>
<path d="M2.80753 28.1206C3.05995 31.8911 3.31236 35.7917 3.69099 39.5623C3.94341 43.3328 4.19583 47.2334 4.44824 51.004C4.44824 51.394 4.57445 51.524 4.95308 51.524C6.08896 51.524 7.22484 51.524 8.23451 51.524C8.73934 51.524 8.86555 51.394 9.11797 50.8739C12.147 43.5929 19.7195 39.4323 27.292 40.8625C33.0976 42.0326 37.2625 45.4131 39.6605 51.004C39.7867 51.394 40.0391 51.524 40.4177 51.524C41.5536 51.524 42.6895 51.524 43.6992 51.524C44.204 51.524 44.3302 51.394 44.3302 50.8739C44.4564 48.6636 44.5826 46.3233 44.8351 44.1129C45.2137 39.1722 45.5923 34.2315 45.8447 29.2908C45.8447 28.5107 45.9709 27.7305 45.9709 26.8204C31.5831 26.8204 17.1953 26.8204 2.68132 26.8204C2.80753 27.2105 2.80753 27.6005 2.80753 28.1206Z" fill="#B4A49A"/>
</svg>
