<svg width="85" height="46" viewBox="0 0 85 46" fill="none" xmlns="http://www.w3.org/2000/svg">
<path d="M61.5114 35.527C61.9464 36.3998 62.8164 36.8362 63.2513 37.7089C64.1213 39.018 64.5562 40.7635 64.5562 42.509C64.5562 44.6909 62.8164 46 61.0765 46C60.6415 46 60.6415 46 60.2065 46C41.5027 46 23.2338 46 4.52991 46C2.35504 46 0.615145 45.1273 0.180172 42.9454C-0.254802 41.6363 0.180172 39.8908 0.615145 38.5816C1.05012 37.7089 1.48509 36.8362 2.35504 36.3998C4.09493 34.2179 4.96488 31.1633 4.52991 28.1087C4.09493 24.1813 6.70477 20.6903 10.1846 19.8176C13.6643 18.9448 16.2742 17.1993 18.0141 14.1447C20.189 11.0901 22.7988 9.78098 26.7136 10.6537C27.1485 10.6537 27.1485 10.6537 27.5835 10.6537C28.8884 10.2174 29.7584 9.78098 30.6283 9.3446C33.6731 8.47185 35.848 6.72636 37.5879 4.10812C38.8928 2.36262 40.6327 0.617126 43.2425 0.180752C44.5475 -0.255622 45.8524 0.180752 47.1573 0.617126C49.7671 1.92625 52.812 1.92625 55.8568 1.48987C56.7267 1.0535 58.0317 0.617126 58.9016 0.617126C61.9464 0.180752 64.5563 1.0535 66.2961 3.67174C68.036 6.28999 70.2109 8.03548 72.8207 9.3446C73.6907 9.78098 74.9956 9.78098 75.8656 10.2174C78.9104 11.5265 80.6503 14.5811 80.2153 18.0721C79.7803 21.1267 81.0852 24.1813 82.8251 26.7996C83.2601 27.6723 84.1301 28.1087 84.1301 28.9814C84.565 29.8542 84.565 31.1633 85 32.036C85 34.2179 83.2601 35.9634 81.0852 35.9634C78.4754 35.9634 75.8656 35.9634 73.2557 35.9634C69.7759 35.9634 66.7311 35.9634 63.2513 35.9634C62.3814 35.527 61.9464 35.527 61.5114 35.527ZM32.3682 43.3818C40.1977 43.3818 48.0273 43.3818 55.8568 43.3818C57.5967 43.3818 58.9016 43.3818 60.6415 43.3818C61.9464 43.3818 62.3814 42.9454 62.3814 41.6363C62.3814 40.3271 61.5114 39.4544 61.0765 39.018C58.4666 35.9634 57.5967 32.4724 57.5967 28.545C57.5967 25.4904 56.7267 23.7449 53.6819 22.8722C49.7672 21.9994 46.7223 19.8176 44.5475 16.3266C42.3726 13.272 40.6327 12.8356 37.5879 13.7083C36.7179 14.1447 35.848 14.5811 34.9781 14.5811C31.9332 15.0175 29.3234 15.0175 26.2786 13.7083C24.1037 12.3992 21.9288 13.272 20.189 15.4538C20.189 16.3266 19.754 16.763 19.319 17.1993C17.1441 19.8176 14.5343 21.5631 11.0545 22.4358C8.44467 22.8722 7.13975 25.0541 7.13975 27.6723C7.57472 32.036 6.2698 35.527 3.65996 38.5816C2.79001 39.4544 2.35504 40.3271 2.35504 41.6363C2.35504 42.509 2.79001 43.3818 3.65996 43.3818C4.09493 43.3818 4.09493 43.3818 4.52991 43.3818C13.6643 43.3818 22.7988 43.3818 32.3682 43.3818ZM31.4983 11.9628C31.9332 11.9628 32.3682 11.9628 32.8032 11.9628C34.1081 11.5265 35.413 11.5265 37.1529 11.0901C38.0229 11.0901 38.8928 10.6537 39.7628 10.6537C42.8076 10.6537 44.9824 11.9628 46.2874 14.5811C48.0273 17.1993 50.2021 18.9448 53.2469 19.8176C54.5519 20.2539 55.4218 20.6903 56.2918 21.1267C58.4666 22.8722 59.3366 25.0541 59.3366 27.6723C59.3366 28.9814 59.7715 30.7269 59.7715 32.036C59.7715 32.4724 60.2065 32.9088 60.6415 32.9088C65.4262 32.9088 69.7759 32.9088 74.5606 32.9088C76.3005 32.9088 78.0404 32.9088 79.7803 32.9088C81.0852 32.9088 81.5202 32.4724 81.5202 31.1633C81.5202 30.2905 81.0852 29.4178 80.2153 28.545C79.3453 27.2359 78.4754 25.9268 77.6055 24.1813C76.7355 21.9994 76.3005 19.3812 76.7355 16.763C76.7355 14.5811 75.4306 12.8356 73.2557 11.9628C72.3858 11.9628 71.9508 11.5265 71.0808 11.5265C67.6011 10.2174 65.4262 8.03548 63.2513 4.98086C61.9464 2.799 59.7715 1.92625 57.1617 2.799C56.7267 3.23537 55.8568 3.23537 55.4218 3.67174C52.812 4.54449 49.7672 4.54449 46.2874 3.23537C43.6775 1.92625 41.5027 2.799 40.1977 5.41724C38.0229 8.47186 34.9781 10.6537 31.4983 11.9628Z" fill="#B4A49A"/>
<path d="M6.70531 42.9459C6.70531 42.9459 6.27033 42.9459 5.83536 42.9459C5.40039 42.9459 4.96542 42.5096 4.96542 41.6368C4.96542 40.7641 5.40039 40.3277 5.83536 40.3277C7.14028 40.3277 8.4452 39.8913 9.75012 39.8913C10.6201 39.8913 11.055 40.3277 11.055 41.2004C11.055 41.6368 10.6201 42.5096 9.75012 42.5096C8.88018 42.5096 8.01023 42.5096 6.70531 42.9459Z" fill="#B4A49A"/>
<path d="M54.9862 26.8C54.9862 26.8 54.5512 27.2363 54.1162 27.6727C53.2463 28.1091 51.9414 28.9818 51.0714 29.4182C50.2015 29.8546 49.7665 29.4182 49.3315 28.9818C48.8965 28.1091 49.3315 27.6727 49.7665 27.2363C51.0714 26.3636 51.9414 25.9272 53.2463 25.4908C54.1162 25.0545 54.9862 25.9272 54.9862 26.8Z" fill="#B4A49A"/>
<path d="M56.293 39.8913C57.1629 39.8913 57.5979 39.8913 58.4679 40.3277C59.3378 40.3277 59.7728 41.2004 59.7728 41.6368C59.7728 42.5096 59.3378 42.9459 58.4679 42.9459C57.1629 42.9459 56.293 42.9459 54.9881 42.5096C54.1181 42.5096 53.6832 41.6368 53.6832 41.2004C53.6832 40.3277 54.5531 39.8913 54.9881 39.8913C55.423 39.8913 55.858 39.8913 56.293 39.8913Z" fill="#B4A49A"/>
<path d="M38.0221 19.3809C38.4571 18.0718 38.892 16.7627 39.327 15.4535C39.762 15.0172 40.1969 14.5808 40.6319 15.0172C41.0669 15.0172 41.5019 15.8899 41.5019 16.3263C41.0669 17.6354 40.6319 18.9445 40.1969 20.2536C40.1969 20.69 39.327 21.1264 38.892 21.1264C38.457 20.69 38.0221 20.2536 38.0221 19.3809Z" fill="#B4A49A"/>
<path d="M14.968 28.1081C14.968 28.9808 14.098 29.8536 13.6631 29.4172C12.3581 28.9808 11.0532 28.5445 9.7483 27.6717C9.31333 27.2353 9.31333 26.799 9.7483 25.9262C10.1833 25.4898 10.6182 25.0535 11.0532 25.4898C12.3581 25.9262 13.2281 26.799 14.533 27.2353C14.968 27.2353 14.968 27.6717 14.968 28.1081Z" fill="#B4A49A"/>
<path d="M26.2778 18.9448C26.2778 19.8176 25.8429 20.2539 25.4079 20.6903C24.538 20.6903 24.103 20.6903 24.103 19.8176C23.668 18.9448 23.233 17.6357 22.7981 16.3266C22.7981 15.8902 23.233 15.0175 23.668 15.0175C24.103 15.0175 24.9729 15.0175 24.9729 15.4538C25.8429 16.763 26.2778 18.0721 26.2778 18.9448Z" fill="#B4A49A"/>
<path d="M70.2108 19.3812C69.7759 18.9448 69.3409 18.5084 69.3409 18.0721C69.3409 17.6357 69.3409 16.763 69.7759 16.763C71.0808 15.8902 72.3857 15.4538 73.6906 15.0175C74.1256 15.0175 74.5606 15.4538 74.9955 15.4538C75.4305 15.8902 75.4305 16.3266 74.9955 16.763C73.6906 18.0721 71.9507 18.5084 70.2108 19.3812Z" fill="#B4A49A"/>
<path d="M75.4306 29.4172C76.3006 29.4172 77.1705 29.4172 78.4754 29.8535C79.3454 29.8535 79.7803 30.7263 79.7803 31.1627C79.7803 32.0354 78.9104 32.4718 78.0405 32.4718C77.1705 32.4718 76.3006 32.4718 74.9956 32.0354C74.1257 32.0354 73.6907 31.1627 73.6907 30.7263C73.6907 29.8535 74.1257 29.4172 75.4306 29.4172Z" fill="#B4A49A"/>
<path d="M46.2885 8.9085C46.2885 9.78125 45.8536 10.2176 45.4186 10.2176C44.9836 10.2176 44.1137 10.2176 44.1137 9.78125C43.6787 8.47213 43.2437 7.163 42.8088 5.85388C42.8088 4.98113 43.2437 4.54476 43.6787 4.54476C44.1137 4.54476 44.9836 4.54476 44.9836 4.98114C45.8536 6.29026 46.2885 7.59938 46.2885 8.9085Z" fill="#B4A49A"/>
<path d="M61.5126 5.85393C61.0777 7.16305 60.6427 8.47217 60.2077 9.34492C59.7728 9.78129 59.3378 10.2177 58.9028 9.7813C58.4678 9.34492 58.0329 8.90855 58.0329 8.47217C58.4678 7.16305 58.9028 5.85393 58.9028 4.54481C59.3378 4.54481 59.7728 4.10844 60.6427 4.54481C61.0777 4.54481 61.5126 4.98118 61.5126 5.85393Z" fill="#B4A49A"/>
</svg>
