<svg width="112" height="45" viewBox="0 0 112 45" fill="none" xmlns="http://www.w3.org/2000/svg">
<path d="M109.559 24.86C109.559 21.602 107.117 18.9364 103.76 17.7517C102.845 17.4555 101.929 17.1593 101.014 17.1593C100.098 17.1593 98.8774 16.8632 97.6567 16.567L95.5204 15.9746C94.2997 15.6785 93.3842 15.3823 92.1635 15.0861C90.3324 14.4938 88.5014 13.9014 86.9755 12.4205C85.7548 11.532 84.5341 10.6434 83.3133 9.75492C82.0926 8.86638 80.5668 7.68168 79.346 6.79314C77.2098 5.01608 74.4632 3.5352 70.8011 2.35049C67.4441 1.16578 63.4768 0.573424 59.5095 0.277246C55.8474 -0.0189307 53.1008 0.277247 50.3542 0.573424C45.7766 1.16578 41.8093 2.94284 38.1471 5.90461C37.842 6.20079 37.5368 6.49697 37.2316 6.79314L36.0109 5.90461C35.4005 5.31226 34.485 4.7199 33.8747 4.42373C30.5177 2.05431 27.4659 0.869601 24.4142 0.277246C21.0572 -0.315108 17.7003 -0.0189305 14.9537 1.75813C12.8174 2.94284 11.2916 3.5352 9.46049 3.83137C8.85014 3.83137 8.23978 3.83137 7.9346 3.83137L0.915531 4.42373L6.7139 6.79314C7.93461 7.3855 9.15531 7.68168 10.9864 7.97785C13.733 7.97785 16.1744 7.68168 18.921 6.79314C20.1417 6.20079 21.6676 5.90461 23.1935 6.20079C23.4986 6.20079 24.109 6.20079 24.4142 6.49697C23.4986 6.49697 22.8883 6.79314 22.2779 7.08932C21.0572 7.3855 20.1417 7.97785 19.2262 8.27403C18.6158 8.27403 18.3106 8.27403 18.0054 8.57021C16.1744 9.45874 14.0381 10.0511 11.9019 10.3473C11.5967 10.3473 10.9864 10.3473 10.6812 10.3473C10.0708 10.3473 9.76567 10.3473 9.15531 10.3473L0 11.2358L9.46049 13.6052C10.0708 13.9014 10.6812 13.9014 11.2916 14.1976C15.2589 14.4938 19.5313 14.1976 23.4986 13.0129C25.6349 12.4205 28.0763 12.1243 30.8229 12.1243C31.1281 12.1243 31.7384 12.1243 32.0436 12.1243C32.0436 12.1243 32.0436 12.1243 32.0436 12.4205C31.4332 13.6052 30.8229 14.7899 30.2125 15.9746L28.6866 18.6402C28.6866 18.9364 28.3815 18.9364 28.3815 19.2326C26.2452 21.3058 24.7193 24.2676 24.4142 27.5255C24.109 29.895 24.4142 31.9682 25.6349 34.0414C25.9401 34.6338 26.5504 35.5223 27.1608 35.8185C27.4659 39.6688 29.9074 42.6306 33.5695 44.1115C34.7902 44.7038 36.3161 45 37.5368 45C39.673 45 41.8093 44.4076 43.6403 42.9268C45.4714 41.4459 46.9973 39.3726 47.3025 37.2994V37.8918H50.3542C51.2698 37.8918 52.1853 37.8918 53.1008 37.8918L83.9237 38.4841C85.4496 41.7421 87.891 43.8153 91.5531 44.7038C94.2997 45.2962 97.0463 44.7038 99.4877 42.9268C101.014 41.7421 102.234 40.5573 102.845 38.7803H104.676C106.202 38.7803 108.033 38.7803 109.559 37.5956C109.864 37.2994 110.169 37.0032 110.169 36.707C110.779 34.93 111.695 32.8567 112 30.7835C112 28.4141 111.39 26.3408 109.559 24.86ZM23.4986 3.23902C21.3624 2.94284 19.5313 3.23902 17.7003 3.83137C17.3951 4.12755 17.0899 4.12755 16.4796 4.12755C18.0054 3.23902 19.8365 2.94284 21.3624 2.94284C22.2779 2.94284 22.8883 2.94284 23.4986 3.23902ZM22.5831 10.3473C21.6676 10.6434 20.752 10.6434 19.8365 10.9396C20.1417 10.9396 20.1417 10.6434 20.4469 10.6434C21.3624 10.3473 22.2779 9.75492 23.1935 9.75492C24.4142 9.16256 25.6349 9.16256 26.8556 9.16256C27.7711 9.16256 28.3815 9.16256 29.297 9.45874C26.8556 9.45874 24.7193 9.75492 22.5831 10.3473ZM108.643 30.1911C108.338 31.9682 107.728 33.7453 107.117 35.2262C106.812 35.2262 106.507 35.5223 106.202 35.5223C106.507 31.3759 104.981 28.1179 101.929 26.0447C99.1826 24.2676 96.1308 23.9714 93.079 24.86L87.891 26.3408L93.079 27.8217C93.3842 27.8217 93.6894 27.8217 94.2997 28.1179C98.267 28.7103 101.014 31.9682 100.403 35.8185C100.098 37.5956 99.1826 39.3726 97.3515 40.5573C95.8256 41.7421 93.6894 42.3344 91.8583 41.7421C89.1117 41.1497 87.2807 39.6688 86.0599 37.0032C85.7548 35.8185 84.8392 35.5223 84.2289 35.5223L52.7956 34.93C51.8801 34.93 51.2698 34.93 50.3542 34.93C50.3542 33.1529 50.049 31.3759 49.1335 29.895C47.9128 28.1179 46.3869 26.637 43.9455 25.4523C41.5041 24.2676 37.5368 23.9714 35.4005 25.4523L32.0436 28.1179H37.2316C40.8937 28.1179 43.9455 30.7835 44.2507 34.0414C44.5559 36.4109 43.6403 39.0765 41.5041 40.5573C39.3679 42.0382 36.9264 42.3344 34.485 41.4459C31.7384 40.2612 30.2125 38.1879 29.9074 35.2262C29.9074 34.3376 29.6022 33.7453 28.6866 33.4491C28.3815 33.1529 28.0763 32.8567 27.7711 32.2644C27.4659 31.0797 27.1608 29.5988 27.4659 27.8217C27.7711 25.1561 28.6866 23.0829 30.5177 21.3058C30.8229 21.0096 31.1281 20.7135 31.4332 20.1211L32.6539 17.7517C33.2643 16.567 33.8747 15.3823 34.485 14.1976C34.7902 13.9014 35.0954 13.309 35.4005 13.0129L36.3161 11.532C38.7575 12.4205 41.1989 13.6052 43.6403 15.0861L45.4714 15.9746L46.9973 13.6052L39.9782 8.57021C39.9782 8.57021 40.2834 8.57021 40.2834 8.27403C43.6403 5.60844 47.3025 4.12755 51.2698 3.5352C53.7112 3.23902 56.4578 2.94284 59.8147 3.23902C63.782 3.5352 67.139 4.12755 70.1907 5.01608C73.2425 6.20079 75.6839 7.3855 77.8202 8.86638C79.0409 9.75492 80.5667 10.9396 81.7875 11.8282C83.0082 12.7167 84.2289 13.6052 85.1444 14.4938C87.2806 15.9746 89.1117 17.1593 91.5531 17.7517C92.4687 18.0479 93.6894 18.3441 94.6049 18.6402L97.0463 19.2326C98.267 19.5288 99.4877 19.8249 101.014 19.8249C101.624 19.8249 102.54 20.1211 103.15 20.1211C105.286 20.7135 106.812 22.4905 106.812 24.5638C106.812 25.1561 107.117 25.7485 107.422 26.0447C108.338 27.8217 108.948 28.7103 108.643 30.1911Z" fill="#B4A49A"/>
<path d="M63.1356 15V25H60.4829V17.0557H56.6527V25H54V15H63.1356Z" fill="#B4A49A"/>
<path d="M74 15V25H71.3473V17.0557H67.5171V25H64.8644V15H74Z" fill="#B4A49A"/>
</svg>
