<svg width="74" height="75" viewBox="0 0 74 75" fill="none" xmlns="http://www.w3.org/2000/svg">
<path d="M26.2334 0C28.5146 0.572519 30.2256 2.29008 31.3662 3.43511C34.7881 6.29771 37.0693 9.73282 39.3506 13.1679C39.3506 13.7405 39.9209 13.1679 39.9209 13.1679C41.6318 13.1679 43.3428 13.1679 45.0537 13.7405C49.0459 16.0305 51.3271 18.8931 51.8975 22.9008C52.4678 28.0534 49.6162 32.6336 44.4834 34.3511C38.21 36.6412 31.3662 32.0611 30.7959 25.1908C30.2256 20.6107 31.9365 17.1756 35.9287 14.8855C35.9287 14.8855 35.9287 14.8855 36.499 14.8855C35.9287 13.7405 35.3584 12.5954 34.2178 12.0229C32.5068 9.1603 30.7959 6.87023 27.9443 5.15267C27.374 4.58015 26.2334 4.00763 25.6631 3.43511C24.5225 2.8626 24.5225 2.29008 24.5225 1.71756C24.5225 1.14504 25.0928 0.572519 25.6631 0H26.2334Z" fill="#B4A49A"/>
<path d="M71.2891 54.9627C70.7187 54.3902 70.1484 53.8177 69.0078 52.6726C71.2891 51.5276 72.4297 49.81 72.4297 47.52C72.4297 47.52 73 45.2299 71.8594 41.7948C71.2891 39.5047 70.7187 37.2146 69.5781 34.9245C69.0078 33.207 68.4375 30.9169 67.2969 28.6268C66.1562 26.9093 65.0156 25.1917 63.3047 23.4742C61.5937 22.3291 60.4531 21.7566 58.1719 21.1841C57.6016 21.1841 57.0312 21.1841 55.8906 21.1841C57.0312 26.3368 55.8906 30.3444 53.0391 33.7795C50.7578 36.6421 47.9062 38.3597 44.4844 39.5047C37.0703 40.6497 29.0859 36.6421 26.2344 28.6268C25.0937 29.1993 23.3828 29.7719 21.6719 29.7719C15.3984 31.4894 8.55469 33.207 2.28125 34.352C2.28125 34.352 1.71094 34.352 1.14062 34.352C0.570312 34.9245 0.570312 34.9245 0 35.4971C0 45.8024 0 56.6803 0 66.9856C0.570312 68.1306 1.71094 68.7032 2.85156 68.7032C6.27344 69.2757 9.69531 69.2757 13.1172 69.8482C15.9687 70.4207 18.8203 70.4207 21.1016 70.4207C24.5234 70.9932 27.9453 70.9932 31.3672 71.5658C34.2187 72.1383 37.6406 72.1383 40.4922 72.7108C43.9141 73.2833 47.3359 73.2833 50.7578 73.8558C53.6094 74.4283 57.0312 74.4284 59.8828 75.0009C60.4531 75.0009 67.8672 75.0009 67.8672 75.0009C68.4375 75.0009 69.0078 74.4284 69.5781 74.4284C71.2891 73.8558 72.4297 72.1383 73 70.4207C73.5703 68.7032 73 66.9856 71.8594 65.8406C71.2891 65.2681 70.7187 64.6955 69.5781 63.5505C70.1484 63.5505 70.7187 62.978 70.7187 62.978C73.5703 61.2604 73.5703 57.8253 71.2891 54.9627ZM5.70312 39.5047C7.98437 39.5047 9.69531 40.0772 11.4062 40.0772C14.2578 40.0772 16.5391 40.6497 19.3906 40.6497C22.8125 41.2222 26.2344 41.2223 29.6562 41.7948C32.5078 42.3673 35.9297 42.3673 38.7812 42.9398C42.2031 43.5123 45.625 43.5123 49.0469 44.0848C51.8984 44.0848 54.1797 44.6574 57.0312 45.2299C59.3125 45.2299 61.0234 45.8024 63.3047 46.9474C63.875 46.9474 63.875 47.52 64.4453 47.52C65.0156 48.0925 65.0156 48.665 64.4453 49.2375C63.875 49.81 62.7344 49.81 62.1641 49.81C59.8828 50.3825 58.1719 49.81 55.8906 49.81C51.3281 49.2375 48.4766 49.2375 45.625 48.665C43.3437 48.665 41.0625 48.0925 38.2109 48.0925C35.9297 48.0925 33.0781 47.52 30.7969 47.52C28.5156 47.52 26.2344 46.9474 23.3828 46.9474C21.1016 45.8024 18.25 45.8024 15.9687 45.8024C13.1172 45.2299 10.2656 45.2299 7.41406 44.6574C6.84375 44.6574 6.84375 44.6574 6.27344 44.6574H5.70312C5.70312 42.9398 5.70312 41.2222 5.70312 39.5047ZM63.3047 68.7032C62.7344 69.2757 62.1641 69.2757 61.5937 69.2757C59.8828 69.8482 57.6016 69.8482 55.8906 69.2757C53.0391 69.2757 50.7578 68.7032 47.9062 68.7032C44.4844 68.1306 40.4922 68.1306 37.0703 67.5581C34.2187 66.9856 31.3672 66.9856 28.5156 66.9856C25.0937 66.4131 21.6719 66.4131 18.25 65.8406C15.3984 65.2681 12.5469 65.268 9.69531 65.268C7.98437 65.268 6.84375 64.6955 5.13281 64.6955C5.13281 64.6955 4.5625 64.6955 4.5625 64.123C4.5625 62.4055 4.5625 61.2604 4.5625 59.5429C5.70312 59.5429 6.27344 59.5429 7.41406 60.1154C9.69531 60.1154 11.9766 60.6879 14.8281 60.6879C17.6797 60.6879 19.9609 61.2604 22.8125 61.2604C25.0937 61.2604 27.9453 61.8329 30.2266 61.8329C34.7891 62.4055 38.2109 62.978 41.6328 62.978C44.4844 63.5505 47.9062 63.5505 50.7578 64.123C53.6094 64.6955 56.4609 64.6955 58.7422 65.268C59.8828 65.8406 61.5937 65.8406 62.7344 66.9856L63.3047 67.5581C63.875 67.5581 63.875 68.1306 63.3047 68.7032ZM63.3047 58.9703C62.7344 59.5429 62.1641 59.5429 61.5937 59.5429C59.3125 60.1154 57.6016 60.1154 55.3203 59.5429C53.0391 59.5429 50.1875 58.9703 47.9062 58.9703C45.0547 58.3978 42.2031 58.3978 39.3516 57.8253C36.5 57.8253 33.0781 57.2528 30.2266 56.6803C26.8047 56.6803 23.3828 56.1077 19.9609 56.1077C17.1094 55.5352 14.2578 55.5352 10.8359 54.9627C9.125 54.9627 7.41406 54.3902 5.70312 54.3902C5.70312 52.6726 5.70312 50.9551 5.70312 49.2375C6.27344 49.2375 6.84375 49.2375 7.41406 49.2375C11.4062 49.81 14.8281 49.81 18.8203 50.3826C22.8125 50.9551 26.8047 51.5276 30.2266 52.1001C34.2187 52.6726 38.2109 52.6726 42.2031 53.2451C45.625 53.8177 49.0469 53.8177 52.4687 54.3902C54.1797 54.3902 56.4609 54.9627 58.1719 54.9627C59.8828 54.9627 61.0234 55.5352 62.7344 56.6803C63.3047 56.6803 63.3047 57.2528 63.875 57.2528C63.875 57.8253 63.875 58.3978 63.3047 58.9703Z" fill="#B4A49A"/>
</svg>
