<svg width="114" height="47" viewBox="0 0 114 47" fill="none" xmlns="http://www.w3.org/2000/svg">
<path d="M111.515 25.9648C111.515 22.5621 109.03 19.778 105.613 18.5407C104.681 18.2313 103.749 17.922 102.817 17.922C101.886 17.922 100.643 17.6126 99.4005 17.3033L97.2262 16.6846C95.9836 16.3753 95.0518 16.0659 93.8093 15.7566C91.9455 15.1379 90.0817 14.5192 88.5286 12.9725C87.2861 12.0445 86.0436 11.1165 84.8011 10.1885C83.5586 9.26045 82.0054 8.02308 80.7629 7.09506C78.5886 5.23902 75.7929 3.69232 72.0654 2.45495C68.6485 1.21759 64.6104 0.598909 60.5722 0.289569C56.8447 -0.0197721 54.049 0.289569 51.2534 0.598909C46.594 1.21759 42.5559 3.07363 38.8283 6.16704C38.5177 6.47638 38.2071 6.78572 37.8965 7.09506L36.6539 6.16704C36.0327 5.54836 35.1008 4.92968 34.4796 4.62034C31.0627 2.14561 27.9564 0.90825 24.8501 0.289569C21.4332 -0.329113 18.0163 -0.0197719 15.2207 1.83627C13.0463 3.07363 11.4932 3.69232 9.62943 4.00166C9.00817 4.00166 8.38692 4.00166 8.07629 4.00166L0.93188 4.62034L6.83379 7.09506C8.07629 7.71374 9.3188 8.02308 11.1826 8.33243C13.9782 8.33243 16.4632 8.02308 19.2589 7.09506C20.5014 6.47638 22.0545 6.16704 23.6076 6.47638C23.9183 6.47638 24.5395 6.47638 24.8501 6.78572C23.9183 6.78572 23.297 7.09506 22.6758 7.4044C21.4332 7.71374 20.5014 8.33242 19.5695 8.64176C18.9482 8.64176 18.6376 8.64177 18.327 8.95111C16.4632 9.87913 14.2888 10.4978 12.1144 10.8071C11.8038 10.8071 11.1826 10.8071 10.8719 10.8071C10.2507 10.8071 9.94005 10.8071 9.3188 10.8071L0 11.7352L9.62943 14.2099C10.2507 14.5192 10.8719 14.5192 11.4932 14.8286C15.5313 15.1379 19.8801 14.8286 23.9183 13.5912C26.0926 12.9725 28.5777 12.6632 31.3733 12.6632C31.6839 12.6632 32.3052 12.6632 32.6158 12.6632C32.6158 12.6632 32.6158 12.6632 32.6158 12.9725C31.9946 14.2099 31.3733 15.4473 30.752 16.6846L29.1989 19.4687C29.1989 19.778 28.8883 19.778 28.8883 20.0874C26.7139 22.2528 25.1608 25.3462 24.8501 28.7489C24.5395 31.2236 24.8501 33.389 26.0926 35.5544C26.4033 36.1731 27.0245 37.1011 27.6458 37.4104C27.9564 41.4319 30.4414 44.5253 34.1689 46.072C35.4114 46.6907 36.9646 47 38.2071 47C40.3815 47 42.5559 46.3813 44.4196 44.8346C46.2834 43.2879 47.8365 41.1225 48.1471 38.9571V39.5758H51.2534C52.1853 39.5758 53.1172 39.5758 54.049 39.5758L85.4223 40.1945C86.9755 43.5973 89.4605 45.7626 93.188 46.6907C95.9837 47.3093 98.7793 46.6907 101.264 44.8346C102.817 43.5973 104.06 42.3599 104.681 40.5038H106.545C108.098 40.5038 109.962 40.5038 111.515 39.2665C111.826 38.9571 112.136 38.6478 112.136 38.3385C112.757 36.4824 113.689 34.317 114 32.1516C114 29.6769 113.379 27.5115 111.515 25.9648ZM23.9183 3.38297C21.7439 3.07363 19.8801 3.38297 18.0163 4.00166C17.7057 4.311 17.3951 4.311 16.7738 4.311C18.327 3.38297 20.1907 3.07363 21.7439 3.07363C22.6757 3.07363 23.297 3.07363 23.9183 3.38297ZM22.9864 10.8071C22.0545 11.1165 21.1226 11.1165 20.1907 11.4258C20.5014 11.4258 20.5014 11.1165 20.812 11.1165C21.7439 10.8071 22.6757 10.1885 23.6076 10.1885C24.8501 9.56979 26.0926 9.56979 27.3351 9.56979C28.267 9.56979 28.8883 9.56979 29.8202 9.87913C27.3352 9.87913 25.1608 10.1885 22.9864 10.8071ZM110.583 31.533C110.272 33.389 109.651 35.2451 109.03 36.7918C108.719 36.7918 108.409 37.1011 108.098 37.1011C108.409 32.7703 106.856 29.3676 103.749 27.2022C100.954 25.3462 97.8474 25.0368 94.7411 25.9648L89.4605 27.5115L94.7411 29.0582C95.0518 29.0582 95.3624 29.0582 95.9837 29.3676C100.022 29.9863 102.817 33.389 102.196 37.4104C101.886 39.2665 100.954 41.1225 99.0899 42.3599C97.5368 43.5973 95.3624 44.2159 93.4986 43.5973C90.703 42.9786 88.8392 41.4319 87.5967 38.6478C87.2861 37.4104 86.3542 37.1011 85.733 37.1011L53.7384 36.4824C52.8065 36.4824 52.1853 36.4824 51.2534 36.4824C51.2534 34.6264 50.9428 32.7703 50.0109 31.2236C48.7684 29.3676 47.2153 27.8209 44.7302 26.5835C42.2452 25.3462 38.2071 25.0368 36.0327 26.5835L32.6158 29.3676H37.8965C41.624 29.3676 44.7302 32.1517 45.0409 35.5544C45.3515 38.0291 44.4196 40.8132 42.2452 42.3599C40.0708 43.9066 37.5858 44.2159 35.1008 43.2879C32.3052 42.0506 30.752 39.8852 30.4414 36.7918C30.4414 35.8637 30.1308 35.2451 29.1989 34.9357C28.8883 34.6264 28.5777 34.317 28.267 33.6984C27.9564 32.461 27.6458 30.9143 27.9564 29.0582C28.267 26.2742 29.1989 24.1088 31.0627 22.2528C31.3733 21.9434 31.6839 21.6341 31.9945 21.0154L33.2371 18.5407C33.8583 17.3033 34.4796 16.0659 35.1008 14.8286C35.4114 14.5192 35.7221 13.9006 36.0327 13.5912L36.9646 12.0445C39.4496 12.9725 41.9346 14.2099 44.4196 15.7566L46.2834 16.6846L47.8365 14.2099L40.6921 8.95111C40.6921 8.95111 41.0027 8.95111 41.0027 8.64176C44.4196 5.8577 48.1471 4.311 52.1853 3.69232C54.6703 3.38298 57.4659 3.07363 60.8828 3.38297C64.921 3.69232 68.3379 4.311 71.4441 5.23902C74.5504 6.47638 77.0354 7.71374 79.2098 9.26045C80.4523 10.1885 82.0054 11.4258 83.2479 12.3539C84.4905 13.2819 85.733 14.2099 86.6648 15.1379C88.8392 16.6846 90.703 17.922 93.188 18.5407C94.1199 18.85 95.3624 19.1593 96.2943 19.4687L98.7793 20.0874C100.022 20.3967 101.264 20.706 102.817 20.706C103.439 20.706 104.371 21.0154 104.992 21.0154C107.166 21.6341 108.719 23.4901 108.719 25.6555C108.719 26.2742 109.03 26.8929 109.341 27.2022C110.272 29.0582 110.894 29.9863 110.583 31.533Z" fill="#B4A49A"/>
<path d="M67.3447 15.0003C68.3993 15.0003 68.9266 15.0003 69.4539 15.0003C71.0358 14.474 72.0905 15.0003 72.6178 16.5792C72.6178 17.1055 72.6178 17.1055 73.1451 17.6318C75.2543 22.3686 77.3635 27.1054 79.4727 31.8421C79.4727 32.3685 80 32.8948 80 32.8948C80 33.9474 79.4727 35 78.4181 35C77.8908 35 77.3635 35 77.3635 34.4737C73.6724 32.8948 69.9812 30.7895 66.2901 29.2106C64.7082 28.158 63.6536 27.6317 62.599 27.1054C61.0171 26.5791 60.4898 25.5264 60.4898 23.9475C60.4898 22.3686 61.0171 21.316 62.0717 20.2634C62.0717 20.2634 62.0717 19.7371 62.599 19.7371C58.9079 17.6318 55.2168 16.0529 51.5256 16.5792C52.5802 16.0529 53.1075 15.5266 54.1621 15.0003C55.7441 14.474 57.326 14.474 58.9079 15.5266C59.9625 16.5792 61.5444 17.6318 62.599 18.6844C62.599 18.6844 62.599 18.6844 63.1263 18.6844C63.6536 18.1581 64.1809 17.6318 64.1809 17.1055C63.1263 16.5792 62.0717 15.5266 61.5444 13.9477C61.0171 12.895 60.4898 11.8424 60.4898 10.7898C60.4898 10.2635 60.4898 9.73719 61.0171 9.21088C62.0717 11.8424 63.1263 14.474 64.7082 17.1055C65.7628 16.5792 66.2901 16.0529 66.8174 15.5266C66.8174 15.5266 66.8174 15.5266 66.8174 15.0003C65.7628 14.474 65.7628 13.4213 65.2355 12.3687C65.2355 11.3161 64.7082 10.2635 65.2355 9.73719C65.2355 9.21088 65.7628 8.68457 66.2901 8.15826C65.7628 10.7898 66.2901 12.895 67.3447 15.0003ZM62.0717 23.9475C62.0717 25.0001 62.0717 25.5264 63.1263 25.5264C63.6536 25.5264 64.1809 25.5264 64.7082 25.0001C66.8174 23.9475 68.3993 22.8949 69.9812 20.7897C70.5085 20.2634 71.0358 19.2107 71.0358 18.1581C71.0358 17.1055 70.5085 16.5792 69.4539 16.5792C68.9266 16.5792 68.3993 16.5792 68.3993 17.1055C68.3993 17.6318 68.9266 17.6318 68.9266 17.6318L68.3993 17.1055C68.3993 17.1055 68.3993 17.1055 67.872 17.1055C67.3447 17.6318 66.8174 18.1581 65.7628 18.6844C66.2901 19.2107 66.2901 19.2107 66.8174 19.7371C66.2901 19.7371 65.7628 19.2107 65.2355 19.2107C64.7082 19.2107 64.7082 19.7371 64.1809 20.2634C64.7082 20.7897 65.2355 21.8423 65.7628 22.3686C65.2355 22.3686 64.1809 21.8423 63.6536 20.7897C63.1263 21.8423 62.599 22.8949 62.0717 23.9475ZM73.6724 23.9475C72.0905 25.0001 69.9812 25.0001 68.3993 25.5264C68.3993 25.5264 68.3993 25.5264 67.872 25.5264C67.3447 26.0528 66.8174 26.0527 65.7628 26.5791C66.2901 26.5791 66.8174 27.1054 67.3447 27.1054C68.9266 27.1054 71.0358 26.5791 72.6178 26.0528C73.1451 26.0528 73.6724 25.5264 74.1997 25.5264C74.1997 25.0001 74.1997 24.4738 73.6724 23.9475ZM75.2543 27.1054C73.6724 28.158 72.0905 28.6843 70.5085 28.6843C71.0358 29.2106 71.5632 29.7369 72.6178 29.2106C73.6724 29.2106 74.727 29.2106 75.7816 28.6843C75.7816 28.6843 75.7816 28.6843 76.3089 28.6843C75.7816 28.158 75.7816 27.6317 75.2543 27.1054ZM73.1451 22.3686C73.1451 21.8423 72.6178 20.7897 72.0905 20.2634C71.5632 21.316 71.0358 22.3686 70.5085 22.8949C71.5632 22.8949 72.0905 22.3686 73.1451 22.3686ZM76.8362 30.2632C76.3089 30.7895 75.7816 30.7895 74.727 31.3158C75.7816 31.3158 76.8362 31.8421 77.3635 32.3685C77.3635 31.8421 76.8362 31.3158 76.8362 30.2632Z" fill="#B4A49A"/>
<path d="M54.1655 22.3677C54.6928 21.8414 54.6928 21.8414 55.2201 21.3151H55.7474C56.2747 21.3151 56.2747 21.3151 56.802 21.3151C56.802 20.7888 56.2747 20.7888 56.2747 20.2625V19.7362C56.2747 19.2099 56.802 19.2099 56.802 18.6836C56.2747 18.6836 55.7474 18.6836 55.7474 18.6836H55.2201C54.6928 18.6836 54.6928 18.1573 54.6928 17.631C54.6928 18.1573 54.6928 18.1573 54.6928 18.6836C54.6928 19.2099 54.6928 19.2099 54.1655 19.2099C53.6382 19.7362 53.1109 19.7362 53.1109 20.2625C53.1109 20.2625 53.6382 20.2625 54.1655 20.7888L54.6928 21.3151C54.1655 21.3151 54.1655 21.8414 54.1655 22.3677Z" fill="#B4A49A"/>
<path d="M61.0204 6.57893C61.5477 6.57893 62.075 6.57893 62.075 7.10523C62.075 7.10523 62.6023 7.10523 62.6023 7.63154C62.6023 8.15785 62.6023 8.15785 63.1296 8.68416C63.1296 8.15785 63.6569 8.15785 63.6569 7.63154L64.1843 7.10523C64.7116 7.10523 64.7116 7.10523 65.2389 7.10523C64.7116 7.10523 64.7116 6.57893 64.1843 6.57893V6.05262C64.1843 5.52631 64.1843 5.52631 64.7116 5C64.1843 5 64.1843 5 63.6569 5.52631C63.1296 5.52631 63.1296 5.52631 62.6023 5.52631L62.075 5C62.075 5.52631 62.075 6.05262 62.075 6.05262V6.57893C61.5477 6.57893 61.0204 6.57893 61.0204 6.57893Z" fill="#B4A49A"/>
<path d="M55.2184 8.68407C54.6911 8.68407 54.1638 8.68407 54.1638 8.68407H53.6365C53.1092 8.68407 53.1092 8.15776 52.5819 7.63145C52.5819 8.15776 52.5819 8.15776 52.5819 8.68407C52.5819 8.68407 52.5819 9.21038 52.0546 9.21038C51.5273 9.73668 51.5273 9.73668 51 10.263C51.5273 10.263 51.5273 10.7893 52.0546 10.7893C52.0546 10.7893 52.0546 10.7893 52.5819 11.3156C52.5819 11.8419 52.5819 11.8419 52.5819 12.3682C53.1092 11.8419 53.1092 11.8419 53.1092 11.3156C53.1092 11.3156 53.6365 10.7893 53.6365 11.3156C54.1638 11.3156 54.1638 11.3156 54.6911 11.3156C54.6911 10.7893 54.1638 10.7893 54.1638 10.263V9.73668C54.6911 9.21038 54.6911 9.21038 55.2184 8.68407Z" fill="#B4A49A"/>
</svg>
