<svg width="296" height="408" viewBox="0 0 296 408" fill="none" xmlns="http://www.w3.org/2000/svg">
<g filter="url(#filter0_d)">
<path d="M22 20C22 14.4772 26.4772 10 32 10H274C279.523 10 284 14.4772 284 20V384C284 389.523 279.523 394 274 394H32C26.4772 394 22 389.523 22 384V63.6421C22 60.99 20.9464 58.4464 19.0711 56.5711L12.5 50L18.8774 43.9582C20.8709 42.0697 22 39.4446 22 36.6987V20Z" fill="#071E2F"/>
<path d="M22 20C22 14.4772 26.4772 10 32 10H274C279.523 10 284 14.4772 284 20V384C284 389.523 279.523 394 274 394H32C26.4772 394 22 389.523 22 384V63.6421C22 60.99 20.9464 58.4464 19.0711 56.5711L12.5 50L18.8774 43.9582C20.8709 42.0697 22 39.4446 22 36.6987V20Z" fill="url(#paint0_linear)" fill-opacity="0.1"/>
<path d="M22.5 20C22.5 14.7533 26.7533 10.5 32 10.5H274C279.247 10.5 283.5 14.7533 283.5 20V384C283.5 389.247 279.247 393.5 274 393.5H32C26.7533 393.5 22.5 389.247 22.5 384V63.6421C22.5 60.8574 21.3938 58.1866 19.4246 56.2175L13.2168 50.0097L19.2213 44.3212C21.3144 42.3383 22.5 39.5819 22.5 36.6987V20Z" stroke="#75B4E4"/>
</g>
<defs>
<filter id="filter0_d" x="0.5" y="0" width="295.5" height="408" filterUnits="userSpaceOnUse" color-interpolation-filters="sRGB">
<feFlood flood-opacity="0" result="BackgroundImageFix"/>
<feColorMatrix in="SourceAlpha" type="matrix" values="0 0 0 0 0 0 0 0 0 0 0 0 0 0 0 0 0 0 127 0"/>
<feOffset dy="2"/>
<feGaussianBlur stdDeviation="6"/>
<feColorMatrix type="matrix" values="0 0 0 0 0.0666667 0 0 0 0 0.12549 0 0 0 0 0.172549 0 0 0 0.8 0"/>
<feBlend mode="normal" in2="BackgroundImageFix" result="effect1_dropShadow"/>
<feBlend mode="normal" in="SourceGraphic" in2="effect1_dropShadow" result="shape"/>
</filter>
<linearGradient id="paint0_linear" x1="153" y1="10" x2="153" y2="366" gradientUnits="userSpaceOnUse">
<stop stop-color="#333333"/>
<stop offset="1" stop-color="#75B4E4"/>
</linearGradient>
</defs>
</svg>
